G75*
%MOIN*%
%OFA0B0*%
%FSLAX25Y25*%
%IPPOS*%
%LPD*%
%AMOC8*
5,1,8,0,0,1.08239X$1,22.5*
%
%ADD10C,0.00000*%
%ADD11C,0.00039*%
%ADD12C,0.00394*%
D10*
X0083936Y0127750D02*
X0454015Y0127750D01*
X0454300Y0127753D01*
X0454586Y0127764D01*
X0454871Y0127781D01*
X0455155Y0127805D01*
X0455439Y0127836D01*
X0455722Y0127874D01*
X0456003Y0127919D01*
X0456284Y0127970D01*
X0456564Y0128028D01*
X0456842Y0128093D01*
X0457118Y0128165D01*
X0457392Y0128243D01*
X0457665Y0128328D01*
X0457935Y0128420D01*
X0458203Y0128518D01*
X0458469Y0128622D01*
X0458732Y0128733D01*
X0458992Y0128850D01*
X0459250Y0128973D01*
X0459504Y0129103D01*
X0459755Y0129239D01*
X0460003Y0129380D01*
X0460247Y0129528D01*
X0460488Y0129681D01*
X0460724Y0129841D01*
X0460957Y0130006D01*
X0461186Y0130176D01*
X0461411Y0130352D01*
X0461631Y0130534D01*
X0461847Y0130720D01*
X0462058Y0130912D01*
X0462265Y0131109D01*
X0462467Y0131311D01*
X0462664Y0131518D01*
X0462856Y0131729D01*
X0463042Y0131945D01*
X0463224Y0132165D01*
X0463400Y0132390D01*
X0463570Y0132619D01*
X0463735Y0132852D01*
X0463895Y0133088D01*
X0464048Y0133329D01*
X0464196Y0133573D01*
X0464337Y0133821D01*
X0464473Y0134072D01*
X0464603Y0134326D01*
X0464726Y0134584D01*
X0464843Y0134844D01*
X0464954Y0135107D01*
X0465058Y0135373D01*
X0465156Y0135641D01*
X0465248Y0135911D01*
X0465333Y0136184D01*
X0465411Y0136458D01*
X0465483Y0136734D01*
X0465548Y0137012D01*
X0465606Y0137292D01*
X0465657Y0137573D01*
X0465702Y0137854D01*
X0465740Y0138137D01*
X0465771Y0138421D01*
X0465795Y0138705D01*
X0465812Y0138990D01*
X0465823Y0139276D01*
X0465826Y0139561D01*
X0465826Y0332474D01*
X0465823Y0332759D01*
X0465812Y0333045D01*
X0465795Y0333330D01*
X0465771Y0333614D01*
X0465740Y0333898D01*
X0465702Y0334181D01*
X0465657Y0334462D01*
X0465606Y0334743D01*
X0465548Y0335023D01*
X0465483Y0335301D01*
X0465411Y0335577D01*
X0465333Y0335851D01*
X0465248Y0336124D01*
X0465156Y0336394D01*
X0465058Y0336662D01*
X0464954Y0336928D01*
X0464843Y0337191D01*
X0464726Y0337451D01*
X0464603Y0337709D01*
X0464473Y0337963D01*
X0464337Y0338214D01*
X0464196Y0338462D01*
X0464048Y0338706D01*
X0463895Y0338947D01*
X0463735Y0339183D01*
X0463570Y0339416D01*
X0463400Y0339645D01*
X0463224Y0339870D01*
X0463042Y0340090D01*
X0462856Y0340306D01*
X0462664Y0340517D01*
X0462467Y0340724D01*
X0462265Y0340926D01*
X0462058Y0341123D01*
X0461847Y0341315D01*
X0461631Y0341501D01*
X0461411Y0341683D01*
X0461186Y0341859D01*
X0460957Y0342029D01*
X0460724Y0342194D01*
X0460488Y0342354D01*
X0460247Y0342507D01*
X0460003Y0342655D01*
X0459755Y0342796D01*
X0459504Y0342932D01*
X0459250Y0343062D01*
X0458992Y0343185D01*
X0458732Y0343302D01*
X0458469Y0343413D01*
X0458203Y0343517D01*
X0457935Y0343615D01*
X0457665Y0343707D01*
X0457392Y0343792D01*
X0457118Y0343870D01*
X0456842Y0343942D01*
X0456564Y0344007D01*
X0456284Y0344065D01*
X0456003Y0344116D01*
X0455722Y0344161D01*
X0455439Y0344199D01*
X0455155Y0344230D01*
X0454871Y0344254D01*
X0454586Y0344271D01*
X0454300Y0344282D01*
X0454015Y0344285D01*
X0083936Y0344285D01*
X0083651Y0344282D01*
X0083365Y0344271D01*
X0083080Y0344254D01*
X0082796Y0344230D01*
X0082512Y0344199D01*
X0082229Y0344161D01*
X0081948Y0344116D01*
X0081667Y0344065D01*
X0081387Y0344007D01*
X0081109Y0343942D01*
X0080833Y0343870D01*
X0080559Y0343792D01*
X0080286Y0343707D01*
X0080016Y0343615D01*
X0079748Y0343517D01*
X0079482Y0343413D01*
X0079219Y0343302D01*
X0078959Y0343185D01*
X0078701Y0343062D01*
X0078447Y0342932D01*
X0078196Y0342796D01*
X0077948Y0342655D01*
X0077704Y0342507D01*
X0077463Y0342354D01*
X0077227Y0342194D01*
X0076994Y0342029D01*
X0076765Y0341859D01*
X0076540Y0341683D01*
X0076320Y0341501D01*
X0076104Y0341315D01*
X0075893Y0341123D01*
X0075686Y0340926D01*
X0075484Y0340724D01*
X0075287Y0340517D01*
X0075095Y0340306D01*
X0074909Y0340090D01*
X0074727Y0339870D01*
X0074551Y0339645D01*
X0074381Y0339416D01*
X0074216Y0339183D01*
X0074056Y0338947D01*
X0073903Y0338706D01*
X0073755Y0338462D01*
X0073614Y0338214D01*
X0073478Y0337963D01*
X0073348Y0337709D01*
X0073225Y0337451D01*
X0073108Y0337191D01*
X0072997Y0336928D01*
X0072893Y0336662D01*
X0072795Y0336394D01*
X0072703Y0336124D01*
X0072618Y0335851D01*
X0072540Y0335577D01*
X0072468Y0335301D01*
X0072403Y0335023D01*
X0072345Y0334743D01*
X0072294Y0334462D01*
X0072249Y0334181D01*
X0072211Y0333898D01*
X0072180Y0333614D01*
X0072156Y0333330D01*
X0072139Y0333045D01*
X0072128Y0332759D01*
X0072125Y0332474D01*
X0072125Y0139561D01*
X0072128Y0139276D01*
X0072139Y0138990D01*
X0072156Y0138705D01*
X0072180Y0138421D01*
X0072211Y0138137D01*
X0072249Y0137854D01*
X0072294Y0137573D01*
X0072345Y0137292D01*
X0072403Y0137012D01*
X0072468Y0136734D01*
X0072540Y0136458D01*
X0072618Y0136184D01*
X0072703Y0135911D01*
X0072795Y0135641D01*
X0072893Y0135373D01*
X0072997Y0135107D01*
X0073108Y0134844D01*
X0073225Y0134584D01*
X0073348Y0134326D01*
X0073478Y0134072D01*
X0073614Y0133821D01*
X0073755Y0133573D01*
X0073903Y0133329D01*
X0074056Y0133088D01*
X0074216Y0132852D01*
X0074381Y0132619D01*
X0074551Y0132390D01*
X0074727Y0132165D01*
X0074909Y0131945D01*
X0075095Y0131729D01*
X0075287Y0131518D01*
X0075484Y0131311D01*
X0075686Y0131109D01*
X0075893Y0130912D01*
X0076104Y0130720D01*
X0076320Y0130534D01*
X0076540Y0130352D01*
X0076765Y0130176D01*
X0076994Y0130006D01*
X0077227Y0129841D01*
X0077463Y0129681D01*
X0077704Y0129528D01*
X0077948Y0129380D01*
X0078196Y0129239D01*
X0078447Y0129103D01*
X0078701Y0128973D01*
X0078959Y0128850D01*
X0079219Y0128733D01*
X0079482Y0128622D01*
X0079748Y0128518D01*
X0080016Y0128420D01*
X0080286Y0128328D01*
X0080559Y0128243D01*
X0080833Y0128165D01*
X0081109Y0128093D01*
X0081387Y0128028D01*
X0081667Y0127970D01*
X0081948Y0127919D01*
X0082229Y0127874D01*
X0082512Y0127836D01*
X0082796Y0127805D01*
X0083080Y0127781D01*
X0083365Y0127764D01*
X0083651Y0127753D01*
X0083936Y0127750D01*
X0079606Y0141530D02*
X0079608Y0141688D01*
X0079614Y0141846D01*
X0079624Y0142004D01*
X0079638Y0142162D01*
X0079656Y0142319D01*
X0079677Y0142476D01*
X0079703Y0142632D01*
X0079733Y0142788D01*
X0079766Y0142943D01*
X0079804Y0143096D01*
X0079845Y0143249D01*
X0079890Y0143401D01*
X0079939Y0143552D01*
X0079992Y0143701D01*
X0080048Y0143849D01*
X0080108Y0143995D01*
X0080172Y0144140D01*
X0080240Y0144283D01*
X0080311Y0144425D01*
X0080385Y0144565D01*
X0080463Y0144702D01*
X0080545Y0144838D01*
X0080629Y0144972D01*
X0080718Y0145103D01*
X0080809Y0145232D01*
X0080904Y0145359D01*
X0081001Y0145484D01*
X0081102Y0145606D01*
X0081206Y0145725D01*
X0081313Y0145842D01*
X0081423Y0145956D01*
X0081536Y0146067D01*
X0081651Y0146176D01*
X0081769Y0146281D01*
X0081890Y0146383D01*
X0082013Y0146483D01*
X0082139Y0146579D01*
X0082267Y0146672D01*
X0082397Y0146762D01*
X0082530Y0146848D01*
X0082665Y0146932D01*
X0082801Y0147011D01*
X0082940Y0147088D01*
X0083081Y0147160D01*
X0083223Y0147230D01*
X0083367Y0147295D01*
X0083513Y0147357D01*
X0083660Y0147415D01*
X0083809Y0147470D01*
X0083959Y0147521D01*
X0084110Y0147568D01*
X0084262Y0147611D01*
X0084415Y0147650D01*
X0084570Y0147686D01*
X0084725Y0147717D01*
X0084881Y0147745D01*
X0085037Y0147769D01*
X0085194Y0147789D01*
X0085352Y0147805D01*
X0085509Y0147817D01*
X0085668Y0147825D01*
X0085826Y0147829D01*
X0085984Y0147829D01*
X0086142Y0147825D01*
X0086301Y0147817D01*
X0086458Y0147805D01*
X0086616Y0147789D01*
X0086773Y0147769D01*
X0086929Y0147745D01*
X0087085Y0147717D01*
X0087240Y0147686D01*
X0087395Y0147650D01*
X0087548Y0147611D01*
X0087700Y0147568D01*
X0087851Y0147521D01*
X0088001Y0147470D01*
X0088150Y0147415D01*
X0088297Y0147357D01*
X0088443Y0147295D01*
X0088587Y0147230D01*
X0088729Y0147160D01*
X0088870Y0147088D01*
X0089009Y0147011D01*
X0089145Y0146932D01*
X0089280Y0146848D01*
X0089413Y0146762D01*
X0089543Y0146672D01*
X0089671Y0146579D01*
X0089797Y0146483D01*
X0089920Y0146383D01*
X0090041Y0146281D01*
X0090159Y0146176D01*
X0090274Y0146067D01*
X0090387Y0145956D01*
X0090497Y0145842D01*
X0090604Y0145725D01*
X0090708Y0145606D01*
X0090809Y0145484D01*
X0090906Y0145359D01*
X0091001Y0145232D01*
X0091092Y0145103D01*
X0091181Y0144972D01*
X0091265Y0144838D01*
X0091347Y0144702D01*
X0091425Y0144565D01*
X0091499Y0144425D01*
X0091570Y0144283D01*
X0091638Y0144140D01*
X0091702Y0143995D01*
X0091762Y0143849D01*
X0091818Y0143701D01*
X0091871Y0143552D01*
X0091920Y0143401D01*
X0091965Y0143249D01*
X0092006Y0143096D01*
X0092044Y0142943D01*
X0092077Y0142788D01*
X0092107Y0142632D01*
X0092133Y0142476D01*
X0092154Y0142319D01*
X0092172Y0142162D01*
X0092186Y0142004D01*
X0092196Y0141846D01*
X0092202Y0141688D01*
X0092204Y0141530D01*
X0092202Y0141372D01*
X0092196Y0141214D01*
X0092186Y0141056D01*
X0092172Y0140898D01*
X0092154Y0140741D01*
X0092133Y0140584D01*
X0092107Y0140428D01*
X0092077Y0140272D01*
X0092044Y0140117D01*
X0092006Y0139964D01*
X0091965Y0139811D01*
X0091920Y0139659D01*
X0091871Y0139508D01*
X0091818Y0139359D01*
X0091762Y0139211D01*
X0091702Y0139065D01*
X0091638Y0138920D01*
X0091570Y0138777D01*
X0091499Y0138635D01*
X0091425Y0138495D01*
X0091347Y0138358D01*
X0091265Y0138222D01*
X0091181Y0138088D01*
X0091092Y0137957D01*
X0091001Y0137828D01*
X0090906Y0137701D01*
X0090809Y0137576D01*
X0090708Y0137454D01*
X0090604Y0137335D01*
X0090497Y0137218D01*
X0090387Y0137104D01*
X0090274Y0136993D01*
X0090159Y0136884D01*
X0090041Y0136779D01*
X0089920Y0136677D01*
X0089797Y0136577D01*
X0089671Y0136481D01*
X0089543Y0136388D01*
X0089413Y0136298D01*
X0089280Y0136212D01*
X0089145Y0136128D01*
X0089009Y0136049D01*
X0088870Y0135972D01*
X0088729Y0135900D01*
X0088587Y0135830D01*
X0088443Y0135765D01*
X0088297Y0135703D01*
X0088150Y0135645D01*
X0088001Y0135590D01*
X0087851Y0135539D01*
X0087700Y0135492D01*
X0087548Y0135449D01*
X0087395Y0135410D01*
X0087240Y0135374D01*
X0087085Y0135343D01*
X0086929Y0135315D01*
X0086773Y0135291D01*
X0086616Y0135271D01*
X0086458Y0135255D01*
X0086301Y0135243D01*
X0086142Y0135235D01*
X0085984Y0135231D01*
X0085826Y0135231D01*
X0085668Y0135235D01*
X0085509Y0135243D01*
X0085352Y0135255D01*
X0085194Y0135271D01*
X0085037Y0135291D01*
X0084881Y0135315D01*
X0084725Y0135343D01*
X0084570Y0135374D01*
X0084415Y0135410D01*
X0084262Y0135449D01*
X0084110Y0135492D01*
X0083959Y0135539D01*
X0083809Y0135590D01*
X0083660Y0135645D01*
X0083513Y0135703D01*
X0083367Y0135765D01*
X0083223Y0135830D01*
X0083081Y0135900D01*
X0082940Y0135972D01*
X0082801Y0136049D01*
X0082665Y0136128D01*
X0082530Y0136212D01*
X0082397Y0136298D01*
X0082267Y0136388D01*
X0082139Y0136481D01*
X0082013Y0136577D01*
X0081890Y0136677D01*
X0081769Y0136779D01*
X0081651Y0136884D01*
X0081536Y0136993D01*
X0081423Y0137104D01*
X0081313Y0137218D01*
X0081206Y0137335D01*
X0081102Y0137454D01*
X0081001Y0137576D01*
X0080904Y0137701D01*
X0080809Y0137828D01*
X0080718Y0137957D01*
X0080629Y0138088D01*
X0080545Y0138222D01*
X0080463Y0138358D01*
X0080385Y0138495D01*
X0080311Y0138635D01*
X0080240Y0138777D01*
X0080172Y0138920D01*
X0080108Y0139065D01*
X0080048Y0139211D01*
X0079992Y0139359D01*
X0079939Y0139508D01*
X0079890Y0139659D01*
X0079845Y0139811D01*
X0079804Y0139964D01*
X0079766Y0140117D01*
X0079733Y0140272D01*
X0079703Y0140428D01*
X0079677Y0140584D01*
X0079656Y0140741D01*
X0079638Y0140898D01*
X0079624Y0141056D01*
X0079614Y0141214D01*
X0079608Y0141372D01*
X0079606Y0141530D01*
X0079751Y0272656D02*
X0079685Y0272722D01*
X0079751Y0272788D01*
X0079948Y0272788D01*
X0079948Y0272854D02*
X0079948Y0272656D01*
X0079751Y0272656D01*
X0079751Y0272919D02*
X0079882Y0272919D01*
X0079948Y0272854D01*
X0080047Y0272919D02*
X0080047Y0272656D01*
X0080047Y0272788D02*
X0080179Y0272919D01*
X0080244Y0272919D01*
X0080350Y0272854D02*
X0080415Y0272919D01*
X0080547Y0272919D01*
X0080612Y0272854D01*
X0080612Y0272788D01*
X0080350Y0272788D01*
X0080350Y0272722D02*
X0080350Y0272854D01*
X0080350Y0272722D02*
X0080415Y0272656D01*
X0080547Y0272656D01*
X0080712Y0272722D02*
X0080778Y0272788D01*
X0080975Y0272788D01*
X0080975Y0272854D02*
X0080975Y0272656D01*
X0080778Y0272656D01*
X0080712Y0272722D01*
X0080778Y0272919D02*
X0080909Y0272919D01*
X0080975Y0272854D01*
X0079212Y0272919D02*
X0079081Y0272919D01*
X0079146Y0272985D02*
X0079146Y0272722D01*
X0079212Y0272656D01*
X0078981Y0272656D02*
X0078981Y0272919D01*
X0078981Y0272656D02*
X0078784Y0272656D01*
X0078718Y0272722D01*
X0078718Y0272919D01*
X0078618Y0272854D02*
X0078553Y0272919D01*
X0078421Y0272919D01*
X0078356Y0272854D01*
X0078356Y0272722D01*
X0078421Y0272656D01*
X0078553Y0272656D01*
X0078618Y0272722D01*
X0078618Y0272854D01*
X0078245Y0272919D02*
X0078114Y0272919D01*
X0078180Y0272985D02*
X0078180Y0272722D01*
X0078245Y0272656D01*
X0078014Y0272656D02*
X0078014Y0272919D01*
X0077752Y0272919D02*
X0077752Y0272722D01*
X0077817Y0272656D01*
X0078014Y0272656D01*
X0077652Y0272656D02*
X0077455Y0272656D01*
X0077389Y0272722D01*
X0077389Y0272854D01*
X0077455Y0272919D01*
X0077652Y0272919D01*
X0076927Y0272919D02*
X0076861Y0272854D01*
X0076664Y0272854D01*
X0076564Y0272985D02*
X0076498Y0273051D01*
X0076367Y0273051D01*
X0076301Y0272985D01*
X0076301Y0272722D01*
X0076367Y0272656D01*
X0076498Y0272656D01*
X0076564Y0272722D01*
X0076664Y0272656D02*
X0076861Y0272656D01*
X0076927Y0272722D01*
X0076927Y0272788D01*
X0076861Y0272854D01*
X0076927Y0272919D02*
X0076927Y0272985D01*
X0076861Y0273051D01*
X0076664Y0273051D01*
X0076664Y0272656D01*
X0076202Y0272854D02*
X0076136Y0272788D01*
X0075939Y0272788D01*
X0075939Y0272656D02*
X0075939Y0273051D01*
X0076136Y0273051D01*
X0076202Y0272985D01*
X0076202Y0272854D01*
X0094561Y0272788D02*
X0094758Y0272788D01*
X0094824Y0272854D01*
X0094824Y0272985D01*
X0094758Y0273051D01*
X0094561Y0273051D01*
X0094561Y0272656D01*
X0094924Y0272722D02*
X0094989Y0272656D01*
X0095121Y0272656D01*
X0095186Y0272722D01*
X0095286Y0272656D02*
X0095483Y0272656D01*
X0095549Y0272722D01*
X0095549Y0272788D01*
X0095483Y0272854D01*
X0095286Y0272854D01*
X0095186Y0272985D02*
X0095121Y0273051D01*
X0094989Y0273051D01*
X0094924Y0272985D01*
X0094924Y0272722D01*
X0095286Y0272656D02*
X0095286Y0273051D01*
X0095483Y0273051D01*
X0095549Y0272985D01*
X0095549Y0272919D01*
X0095483Y0272854D01*
X0096011Y0272854D02*
X0096011Y0272722D01*
X0096077Y0272656D01*
X0096274Y0272656D01*
X0096374Y0272722D02*
X0096439Y0272656D01*
X0096636Y0272656D01*
X0096636Y0272919D01*
X0096736Y0272919D02*
X0096867Y0272919D01*
X0096802Y0272985D02*
X0096802Y0272722D01*
X0096867Y0272656D01*
X0096978Y0272722D02*
X0097043Y0272656D01*
X0097175Y0272656D01*
X0097240Y0272722D01*
X0097240Y0272854D01*
X0097175Y0272919D01*
X0097043Y0272919D01*
X0096978Y0272854D01*
X0096978Y0272722D01*
X0097340Y0272722D02*
X0097406Y0272656D01*
X0097603Y0272656D01*
X0097603Y0272919D01*
X0097703Y0272919D02*
X0097834Y0272919D01*
X0097768Y0272985D02*
X0097768Y0272722D01*
X0097834Y0272656D01*
X0098307Y0272722D02*
X0098373Y0272788D01*
X0098570Y0272788D01*
X0098570Y0272854D02*
X0098570Y0272656D01*
X0098373Y0272656D01*
X0098307Y0272722D01*
X0098373Y0272919D02*
X0098504Y0272919D01*
X0098570Y0272854D01*
X0098669Y0272919D02*
X0098669Y0272656D01*
X0098669Y0272788D02*
X0098801Y0272919D01*
X0098866Y0272919D01*
X0098972Y0272854D02*
X0098972Y0272722D01*
X0099037Y0272656D01*
X0099169Y0272656D01*
X0099234Y0272788D02*
X0098972Y0272788D01*
X0098972Y0272854D02*
X0099037Y0272919D01*
X0099169Y0272919D01*
X0099234Y0272854D01*
X0099234Y0272788D01*
X0099334Y0272722D02*
X0099400Y0272788D01*
X0099597Y0272788D01*
X0099597Y0272854D02*
X0099597Y0272656D01*
X0099400Y0272656D01*
X0099334Y0272722D01*
X0099400Y0272919D02*
X0099531Y0272919D01*
X0099597Y0272854D01*
X0097340Y0272919D02*
X0097340Y0272722D01*
X0096374Y0272722D02*
X0096374Y0272919D01*
X0096274Y0272919D02*
X0096077Y0272919D01*
X0096011Y0272854D01*
X0096077Y0306279D02*
X0096274Y0306279D01*
X0096374Y0306344D02*
X0096439Y0306279D01*
X0096636Y0306279D01*
X0096636Y0306541D01*
X0096736Y0306541D02*
X0096867Y0306541D01*
X0096802Y0306607D02*
X0096802Y0306344D01*
X0096867Y0306279D01*
X0096978Y0306344D02*
X0097043Y0306279D01*
X0097175Y0306279D01*
X0097240Y0306344D01*
X0097240Y0306476D01*
X0097175Y0306541D01*
X0097043Y0306541D01*
X0096978Y0306476D01*
X0096978Y0306344D01*
X0097340Y0306344D02*
X0097406Y0306279D01*
X0097603Y0306279D01*
X0097603Y0306541D01*
X0097703Y0306541D02*
X0097834Y0306541D01*
X0097768Y0306607D02*
X0097768Y0306344D01*
X0097834Y0306279D01*
X0098307Y0306344D02*
X0098373Y0306410D01*
X0098570Y0306410D01*
X0098570Y0306476D02*
X0098570Y0306279D01*
X0098373Y0306279D01*
X0098307Y0306344D01*
X0098373Y0306541D02*
X0098504Y0306541D01*
X0098570Y0306476D01*
X0098669Y0306541D02*
X0098669Y0306279D01*
X0098669Y0306410D02*
X0098801Y0306541D01*
X0098866Y0306541D01*
X0098972Y0306476D02*
X0099037Y0306541D01*
X0099169Y0306541D01*
X0099234Y0306476D01*
X0099234Y0306410D01*
X0098972Y0306410D01*
X0098972Y0306344D02*
X0098972Y0306476D01*
X0098972Y0306344D02*
X0099037Y0306279D01*
X0099169Y0306279D01*
X0099334Y0306344D02*
X0099400Y0306410D01*
X0099597Y0306410D01*
X0099597Y0306476D02*
X0099597Y0306279D01*
X0099400Y0306279D01*
X0099334Y0306344D01*
X0099400Y0306541D02*
X0099531Y0306541D01*
X0099597Y0306476D01*
X0097340Y0306541D02*
X0097340Y0306344D01*
X0096374Y0306344D02*
X0096374Y0306541D01*
X0096274Y0306541D02*
X0096077Y0306541D01*
X0096011Y0306476D01*
X0096011Y0306344D01*
X0096077Y0306279D01*
X0095549Y0306344D02*
X0095483Y0306279D01*
X0095286Y0306279D01*
X0095286Y0306673D01*
X0095483Y0306673D01*
X0095549Y0306607D01*
X0095549Y0306541D01*
X0095483Y0306476D01*
X0095286Y0306476D01*
X0095186Y0306607D02*
X0095121Y0306673D01*
X0094989Y0306673D01*
X0094924Y0306607D01*
X0094924Y0306344D01*
X0094989Y0306279D01*
X0095121Y0306279D01*
X0095186Y0306344D01*
X0095483Y0306476D02*
X0095549Y0306410D01*
X0095549Y0306344D01*
X0094824Y0306476D02*
X0094758Y0306410D01*
X0094561Y0306410D01*
X0094561Y0306279D02*
X0094561Y0306673D01*
X0094758Y0306673D01*
X0094824Y0306607D01*
X0094824Y0306476D01*
X0080975Y0306476D02*
X0080975Y0306279D01*
X0080778Y0306279D01*
X0080712Y0306344D01*
X0080778Y0306410D01*
X0080975Y0306410D01*
X0080975Y0306476D02*
X0080909Y0306541D01*
X0080778Y0306541D01*
X0080612Y0306476D02*
X0080612Y0306410D01*
X0080350Y0306410D01*
X0080350Y0306476D02*
X0080415Y0306541D01*
X0080547Y0306541D01*
X0080612Y0306476D01*
X0080547Y0306279D02*
X0080415Y0306279D01*
X0080350Y0306344D01*
X0080350Y0306476D01*
X0080244Y0306541D02*
X0080179Y0306541D01*
X0080047Y0306410D01*
X0079948Y0306410D02*
X0079751Y0306410D01*
X0079685Y0306344D01*
X0079751Y0306279D01*
X0079948Y0306279D01*
X0079948Y0306476D01*
X0079882Y0306541D01*
X0079751Y0306541D01*
X0080047Y0306541D02*
X0080047Y0306279D01*
X0079212Y0306279D02*
X0079146Y0306344D01*
X0079146Y0306607D01*
X0079081Y0306541D02*
X0079212Y0306541D01*
X0078981Y0306541D02*
X0078981Y0306279D01*
X0078784Y0306279D01*
X0078718Y0306344D01*
X0078718Y0306541D01*
X0078618Y0306476D02*
X0078553Y0306541D01*
X0078421Y0306541D01*
X0078356Y0306476D01*
X0078356Y0306344D01*
X0078421Y0306279D01*
X0078553Y0306279D01*
X0078618Y0306344D01*
X0078618Y0306476D01*
X0078245Y0306541D02*
X0078114Y0306541D01*
X0078180Y0306607D02*
X0078180Y0306344D01*
X0078245Y0306279D01*
X0078014Y0306279D02*
X0078014Y0306541D01*
X0078014Y0306279D02*
X0077817Y0306279D01*
X0077752Y0306344D01*
X0077752Y0306541D01*
X0077652Y0306541D02*
X0077455Y0306541D01*
X0077389Y0306476D01*
X0077389Y0306344D01*
X0077455Y0306279D01*
X0077652Y0306279D01*
X0076927Y0306344D02*
X0076861Y0306279D01*
X0076664Y0306279D01*
X0076664Y0306673D01*
X0076861Y0306673D01*
X0076927Y0306607D01*
X0076927Y0306541D01*
X0076861Y0306476D01*
X0076664Y0306476D01*
X0076564Y0306607D02*
X0076498Y0306673D01*
X0076367Y0306673D01*
X0076301Y0306607D01*
X0076301Y0306344D01*
X0076367Y0306279D01*
X0076498Y0306279D01*
X0076564Y0306344D01*
X0076861Y0306476D02*
X0076927Y0306410D01*
X0076927Y0306344D01*
X0076202Y0306476D02*
X0076136Y0306410D01*
X0075939Y0306410D01*
X0075939Y0306279D02*
X0075939Y0306673D01*
X0076136Y0306673D01*
X0076202Y0306607D01*
X0076202Y0306476D01*
X0079606Y0330506D02*
X0079608Y0330664D01*
X0079614Y0330822D01*
X0079624Y0330980D01*
X0079638Y0331138D01*
X0079656Y0331295D01*
X0079677Y0331452D01*
X0079703Y0331608D01*
X0079733Y0331764D01*
X0079766Y0331919D01*
X0079804Y0332072D01*
X0079845Y0332225D01*
X0079890Y0332377D01*
X0079939Y0332528D01*
X0079992Y0332677D01*
X0080048Y0332825D01*
X0080108Y0332971D01*
X0080172Y0333116D01*
X0080240Y0333259D01*
X0080311Y0333401D01*
X0080385Y0333541D01*
X0080463Y0333678D01*
X0080545Y0333814D01*
X0080629Y0333948D01*
X0080718Y0334079D01*
X0080809Y0334208D01*
X0080904Y0334335D01*
X0081001Y0334460D01*
X0081102Y0334582D01*
X0081206Y0334701D01*
X0081313Y0334818D01*
X0081423Y0334932D01*
X0081536Y0335043D01*
X0081651Y0335152D01*
X0081769Y0335257D01*
X0081890Y0335359D01*
X0082013Y0335459D01*
X0082139Y0335555D01*
X0082267Y0335648D01*
X0082397Y0335738D01*
X0082530Y0335824D01*
X0082665Y0335908D01*
X0082801Y0335987D01*
X0082940Y0336064D01*
X0083081Y0336136D01*
X0083223Y0336206D01*
X0083367Y0336271D01*
X0083513Y0336333D01*
X0083660Y0336391D01*
X0083809Y0336446D01*
X0083959Y0336497D01*
X0084110Y0336544D01*
X0084262Y0336587D01*
X0084415Y0336626D01*
X0084570Y0336662D01*
X0084725Y0336693D01*
X0084881Y0336721D01*
X0085037Y0336745D01*
X0085194Y0336765D01*
X0085352Y0336781D01*
X0085509Y0336793D01*
X0085668Y0336801D01*
X0085826Y0336805D01*
X0085984Y0336805D01*
X0086142Y0336801D01*
X0086301Y0336793D01*
X0086458Y0336781D01*
X0086616Y0336765D01*
X0086773Y0336745D01*
X0086929Y0336721D01*
X0087085Y0336693D01*
X0087240Y0336662D01*
X0087395Y0336626D01*
X0087548Y0336587D01*
X0087700Y0336544D01*
X0087851Y0336497D01*
X0088001Y0336446D01*
X0088150Y0336391D01*
X0088297Y0336333D01*
X0088443Y0336271D01*
X0088587Y0336206D01*
X0088729Y0336136D01*
X0088870Y0336064D01*
X0089009Y0335987D01*
X0089145Y0335908D01*
X0089280Y0335824D01*
X0089413Y0335738D01*
X0089543Y0335648D01*
X0089671Y0335555D01*
X0089797Y0335459D01*
X0089920Y0335359D01*
X0090041Y0335257D01*
X0090159Y0335152D01*
X0090274Y0335043D01*
X0090387Y0334932D01*
X0090497Y0334818D01*
X0090604Y0334701D01*
X0090708Y0334582D01*
X0090809Y0334460D01*
X0090906Y0334335D01*
X0091001Y0334208D01*
X0091092Y0334079D01*
X0091181Y0333948D01*
X0091265Y0333814D01*
X0091347Y0333678D01*
X0091425Y0333541D01*
X0091499Y0333401D01*
X0091570Y0333259D01*
X0091638Y0333116D01*
X0091702Y0332971D01*
X0091762Y0332825D01*
X0091818Y0332677D01*
X0091871Y0332528D01*
X0091920Y0332377D01*
X0091965Y0332225D01*
X0092006Y0332072D01*
X0092044Y0331919D01*
X0092077Y0331764D01*
X0092107Y0331608D01*
X0092133Y0331452D01*
X0092154Y0331295D01*
X0092172Y0331138D01*
X0092186Y0330980D01*
X0092196Y0330822D01*
X0092202Y0330664D01*
X0092204Y0330506D01*
X0092202Y0330348D01*
X0092196Y0330190D01*
X0092186Y0330032D01*
X0092172Y0329874D01*
X0092154Y0329717D01*
X0092133Y0329560D01*
X0092107Y0329404D01*
X0092077Y0329248D01*
X0092044Y0329093D01*
X0092006Y0328940D01*
X0091965Y0328787D01*
X0091920Y0328635D01*
X0091871Y0328484D01*
X0091818Y0328335D01*
X0091762Y0328187D01*
X0091702Y0328041D01*
X0091638Y0327896D01*
X0091570Y0327753D01*
X0091499Y0327611D01*
X0091425Y0327471D01*
X0091347Y0327334D01*
X0091265Y0327198D01*
X0091181Y0327064D01*
X0091092Y0326933D01*
X0091001Y0326804D01*
X0090906Y0326677D01*
X0090809Y0326552D01*
X0090708Y0326430D01*
X0090604Y0326311D01*
X0090497Y0326194D01*
X0090387Y0326080D01*
X0090274Y0325969D01*
X0090159Y0325860D01*
X0090041Y0325755D01*
X0089920Y0325653D01*
X0089797Y0325553D01*
X0089671Y0325457D01*
X0089543Y0325364D01*
X0089413Y0325274D01*
X0089280Y0325188D01*
X0089145Y0325104D01*
X0089009Y0325025D01*
X0088870Y0324948D01*
X0088729Y0324876D01*
X0088587Y0324806D01*
X0088443Y0324741D01*
X0088297Y0324679D01*
X0088150Y0324621D01*
X0088001Y0324566D01*
X0087851Y0324515D01*
X0087700Y0324468D01*
X0087548Y0324425D01*
X0087395Y0324386D01*
X0087240Y0324350D01*
X0087085Y0324319D01*
X0086929Y0324291D01*
X0086773Y0324267D01*
X0086616Y0324247D01*
X0086458Y0324231D01*
X0086301Y0324219D01*
X0086142Y0324211D01*
X0085984Y0324207D01*
X0085826Y0324207D01*
X0085668Y0324211D01*
X0085509Y0324219D01*
X0085352Y0324231D01*
X0085194Y0324247D01*
X0085037Y0324267D01*
X0084881Y0324291D01*
X0084725Y0324319D01*
X0084570Y0324350D01*
X0084415Y0324386D01*
X0084262Y0324425D01*
X0084110Y0324468D01*
X0083959Y0324515D01*
X0083809Y0324566D01*
X0083660Y0324621D01*
X0083513Y0324679D01*
X0083367Y0324741D01*
X0083223Y0324806D01*
X0083081Y0324876D01*
X0082940Y0324948D01*
X0082801Y0325025D01*
X0082665Y0325104D01*
X0082530Y0325188D01*
X0082397Y0325274D01*
X0082267Y0325364D01*
X0082139Y0325457D01*
X0082013Y0325553D01*
X0081890Y0325653D01*
X0081769Y0325755D01*
X0081651Y0325860D01*
X0081536Y0325969D01*
X0081423Y0326080D01*
X0081313Y0326194D01*
X0081206Y0326311D01*
X0081102Y0326430D01*
X0081001Y0326552D01*
X0080904Y0326677D01*
X0080809Y0326804D01*
X0080718Y0326933D01*
X0080629Y0327064D01*
X0080545Y0327198D01*
X0080463Y0327334D01*
X0080385Y0327471D01*
X0080311Y0327611D01*
X0080240Y0327753D01*
X0080172Y0327896D01*
X0080108Y0328041D01*
X0080048Y0328187D01*
X0079992Y0328335D01*
X0079939Y0328484D01*
X0079890Y0328635D01*
X0079845Y0328787D01*
X0079804Y0328940D01*
X0079766Y0329093D01*
X0079733Y0329248D01*
X0079703Y0329404D01*
X0079677Y0329560D01*
X0079656Y0329717D01*
X0079638Y0329874D01*
X0079624Y0330032D01*
X0079614Y0330190D01*
X0079608Y0330348D01*
X0079606Y0330506D01*
X0445747Y0330506D02*
X0445749Y0330664D01*
X0445755Y0330822D01*
X0445765Y0330980D01*
X0445779Y0331138D01*
X0445797Y0331295D01*
X0445818Y0331452D01*
X0445844Y0331608D01*
X0445874Y0331764D01*
X0445907Y0331919D01*
X0445945Y0332072D01*
X0445986Y0332225D01*
X0446031Y0332377D01*
X0446080Y0332528D01*
X0446133Y0332677D01*
X0446189Y0332825D01*
X0446249Y0332971D01*
X0446313Y0333116D01*
X0446381Y0333259D01*
X0446452Y0333401D01*
X0446526Y0333541D01*
X0446604Y0333678D01*
X0446686Y0333814D01*
X0446770Y0333948D01*
X0446859Y0334079D01*
X0446950Y0334208D01*
X0447045Y0334335D01*
X0447142Y0334460D01*
X0447243Y0334582D01*
X0447347Y0334701D01*
X0447454Y0334818D01*
X0447564Y0334932D01*
X0447677Y0335043D01*
X0447792Y0335152D01*
X0447910Y0335257D01*
X0448031Y0335359D01*
X0448154Y0335459D01*
X0448280Y0335555D01*
X0448408Y0335648D01*
X0448538Y0335738D01*
X0448671Y0335824D01*
X0448806Y0335908D01*
X0448942Y0335987D01*
X0449081Y0336064D01*
X0449222Y0336136D01*
X0449364Y0336206D01*
X0449508Y0336271D01*
X0449654Y0336333D01*
X0449801Y0336391D01*
X0449950Y0336446D01*
X0450100Y0336497D01*
X0450251Y0336544D01*
X0450403Y0336587D01*
X0450556Y0336626D01*
X0450711Y0336662D01*
X0450866Y0336693D01*
X0451022Y0336721D01*
X0451178Y0336745D01*
X0451335Y0336765D01*
X0451493Y0336781D01*
X0451650Y0336793D01*
X0451809Y0336801D01*
X0451967Y0336805D01*
X0452125Y0336805D01*
X0452283Y0336801D01*
X0452442Y0336793D01*
X0452599Y0336781D01*
X0452757Y0336765D01*
X0452914Y0336745D01*
X0453070Y0336721D01*
X0453226Y0336693D01*
X0453381Y0336662D01*
X0453536Y0336626D01*
X0453689Y0336587D01*
X0453841Y0336544D01*
X0453992Y0336497D01*
X0454142Y0336446D01*
X0454291Y0336391D01*
X0454438Y0336333D01*
X0454584Y0336271D01*
X0454728Y0336206D01*
X0454870Y0336136D01*
X0455011Y0336064D01*
X0455150Y0335987D01*
X0455286Y0335908D01*
X0455421Y0335824D01*
X0455554Y0335738D01*
X0455684Y0335648D01*
X0455812Y0335555D01*
X0455938Y0335459D01*
X0456061Y0335359D01*
X0456182Y0335257D01*
X0456300Y0335152D01*
X0456415Y0335043D01*
X0456528Y0334932D01*
X0456638Y0334818D01*
X0456745Y0334701D01*
X0456849Y0334582D01*
X0456950Y0334460D01*
X0457047Y0334335D01*
X0457142Y0334208D01*
X0457233Y0334079D01*
X0457322Y0333948D01*
X0457406Y0333814D01*
X0457488Y0333678D01*
X0457566Y0333541D01*
X0457640Y0333401D01*
X0457711Y0333259D01*
X0457779Y0333116D01*
X0457843Y0332971D01*
X0457903Y0332825D01*
X0457959Y0332677D01*
X0458012Y0332528D01*
X0458061Y0332377D01*
X0458106Y0332225D01*
X0458147Y0332072D01*
X0458185Y0331919D01*
X0458218Y0331764D01*
X0458248Y0331608D01*
X0458274Y0331452D01*
X0458295Y0331295D01*
X0458313Y0331138D01*
X0458327Y0330980D01*
X0458337Y0330822D01*
X0458343Y0330664D01*
X0458345Y0330506D01*
X0458343Y0330348D01*
X0458337Y0330190D01*
X0458327Y0330032D01*
X0458313Y0329874D01*
X0458295Y0329717D01*
X0458274Y0329560D01*
X0458248Y0329404D01*
X0458218Y0329248D01*
X0458185Y0329093D01*
X0458147Y0328940D01*
X0458106Y0328787D01*
X0458061Y0328635D01*
X0458012Y0328484D01*
X0457959Y0328335D01*
X0457903Y0328187D01*
X0457843Y0328041D01*
X0457779Y0327896D01*
X0457711Y0327753D01*
X0457640Y0327611D01*
X0457566Y0327471D01*
X0457488Y0327334D01*
X0457406Y0327198D01*
X0457322Y0327064D01*
X0457233Y0326933D01*
X0457142Y0326804D01*
X0457047Y0326677D01*
X0456950Y0326552D01*
X0456849Y0326430D01*
X0456745Y0326311D01*
X0456638Y0326194D01*
X0456528Y0326080D01*
X0456415Y0325969D01*
X0456300Y0325860D01*
X0456182Y0325755D01*
X0456061Y0325653D01*
X0455938Y0325553D01*
X0455812Y0325457D01*
X0455684Y0325364D01*
X0455554Y0325274D01*
X0455421Y0325188D01*
X0455286Y0325104D01*
X0455150Y0325025D01*
X0455011Y0324948D01*
X0454870Y0324876D01*
X0454728Y0324806D01*
X0454584Y0324741D01*
X0454438Y0324679D01*
X0454291Y0324621D01*
X0454142Y0324566D01*
X0453992Y0324515D01*
X0453841Y0324468D01*
X0453689Y0324425D01*
X0453536Y0324386D01*
X0453381Y0324350D01*
X0453226Y0324319D01*
X0453070Y0324291D01*
X0452914Y0324267D01*
X0452757Y0324247D01*
X0452599Y0324231D01*
X0452442Y0324219D01*
X0452283Y0324211D01*
X0452125Y0324207D01*
X0451967Y0324207D01*
X0451809Y0324211D01*
X0451650Y0324219D01*
X0451493Y0324231D01*
X0451335Y0324247D01*
X0451178Y0324267D01*
X0451022Y0324291D01*
X0450866Y0324319D01*
X0450711Y0324350D01*
X0450556Y0324386D01*
X0450403Y0324425D01*
X0450251Y0324468D01*
X0450100Y0324515D01*
X0449950Y0324566D01*
X0449801Y0324621D01*
X0449654Y0324679D01*
X0449508Y0324741D01*
X0449364Y0324806D01*
X0449222Y0324876D01*
X0449081Y0324948D01*
X0448942Y0325025D01*
X0448806Y0325104D01*
X0448671Y0325188D01*
X0448538Y0325274D01*
X0448408Y0325364D01*
X0448280Y0325457D01*
X0448154Y0325553D01*
X0448031Y0325653D01*
X0447910Y0325755D01*
X0447792Y0325860D01*
X0447677Y0325969D01*
X0447564Y0326080D01*
X0447454Y0326194D01*
X0447347Y0326311D01*
X0447243Y0326430D01*
X0447142Y0326552D01*
X0447045Y0326677D01*
X0446950Y0326804D01*
X0446859Y0326933D01*
X0446770Y0327064D01*
X0446686Y0327198D01*
X0446604Y0327334D01*
X0446526Y0327471D01*
X0446452Y0327611D01*
X0446381Y0327753D01*
X0446313Y0327896D01*
X0446249Y0328041D01*
X0446189Y0328187D01*
X0446133Y0328335D01*
X0446080Y0328484D01*
X0446031Y0328635D01*
X0445986Y0328787D01*
X0445945Y0328940D01*
X0445907Y0329093D01*
X0445874Y0329248D01*
X0445844Y0329404D01*
X0445818Y0329560D01*
X0445797Y0329717D01*
X0445779Y0329874D01*
X0445765Y0330032D01*
X0445755Y0330190D01*
X0445749Y0330348D01*
X0445747Y0330506D01*
X0445747Y0141530D02*
X0445749Y0141688D01*
X0445755Y0141846D01*
X0445765Y0142004D01*
X0445779Y0142162D01*
X0445797Y0142319D01*
X0445818Y0142476D01*
X0445844Y0142632D01*
X0445874Y0142788D01*
X0445907Y0142943D01*
X0445945Y0143096D01*
X0445986Y0143249D01*
X0446031Y0143401D01*
X0446080Y0143552D01*
X0446133Y0143701D01*
X0446189Y0143849D01*
X0446249Y0143995D01*
X0446313Y0144140D01*
X0446381Y0144283D01*
X0446452Y0144425D01*
X0446526Y0144565D01*
X0446604Y0144702D01*
X0446686Y0144838D01*
X0446770Y0144972D01*
X0446859Y0145103D01*
X0446950Y0145232D01*
X0447045Y0145359D01*
X0447142Y0145484D01*
X0447243Y0145606D01*
X0447347Y0145725D01*
X0447454Y0145842D01*
X0447564Y0145956D01*
X0447677Y0146067D01*
X0447792Y0146176D01*
X0447910Y0146281D01*
X0448031Y0146383D01*
X0448154Y0146483D01*
X0448280Y0146579D01*
X0448408Y0146672D01*
X0448538Y0146762D01*
X0448671Y0146848D01*
X0448806Y0146932D01*
X0448942Y0147011D01*
X0449081Y0147088D01*
X0449222Y0147160D01*
X0449364Y0147230D01*
X0449508Y0147295D01*
X0449654Y0147357D01*
X0449801Y0147415D01*
X0449950Y0147470D01*
X0450100Y0147521D01*
X0450251Y0147568D01*
X0450403Y0147611D01*
X0450556Y0147650D01*
X0450711Y0147686D01*
X0450866Y0147717D01*
X0451022Y0147745D01*
X0451178Y0147769D01*
X0451335Y0147789D01*
X0451493Y0147805D01*
X0451650Y0147817D01*
X0451809Y0147825D01*
X0451967Y0147829D01*
X0452125Y0147829D01*
X0452283Y0147825D01*
X0452442Y0147817D01*
X0452599Y0147805D01*
X0452757Y0147789D01*
X0452914Y0147769D01*
X0453070Y0147745D01*
X0453226Y0147717D01*
X0453381Y0147686D01*
X0453536Y0147650D01*
X0453689Y0147611D01*
X0453841Y0147568D01*
X0453992Y0147521D01*
X0454142Y0147470D01*
X0454291Y0147415D01*
X0454438Y0147357D01*
X0454584Y0147295D01*
X0454728Y0147230D01*
X0454870Y0147160D01*
X0455011Y0147088D01*
X0455150Y0147011D01*
X0455286Y0146932D01*
X0455421Y0146848D01*
X0455554Y0146762D01*
X0455684Y0146672D01*
X0455812Y0146579D01*
X0455938Y0146483D01*
X0456061Y0146383D01*
X0456182Y0146281D01*
X0456300Y0146176D01*
X0456415Y0146067D01*
X0456528Y0145956D01*
X0456638Y0145842D01*
X0456745Y0145725D01*
X0456849Y0145606D01*
X0456950Y0145484D01*
X0457047Y0145359D01*
X0457142Y0145232D01*
X0457233Y0145103D01*
X0457322Y0144972D01*
X0457406Y0144838D01*
X0457488Y0144702D01*
X0457566Y0144565D01*
X0457640Y0144425D01*
X0457711Y0144283D01*
X0457779Y0144140D01*
X0457843Y0143995D01*
X0457903Y0143849D01*
X0457959Y0143701D01*
X0458012Y0143552D01*
X0458061Y0143401D01*
X0458106Y0143249D01*
X0458147Y0143096D01*
X0458185Y0142943D01*
X0458218Y0142788D01*
X0458248Y0142632D01*
X0458274Y0142476D01*
X0458295Y0142319D01*
X0458313Y0142162D01*
X0458327Y0142004D01*
X0458337Y0141846D01*
X0458343Y0141688D01*
X0458345Y0141530D01*
X0458343Y0141372D01*
X0458337Y0141214D01*
X0458327Y0141056D01*
X0458313Y0140898D01*
X0458295Y0140741D01*
X0458274Y0140584D01*
X0458248Y0140428D01*
X0458218Y0140272D01*
X0458185Y0140117D01*
X0458147Y0139964D01*
X0458106Y0139811D01*
X0458061Y0139659D01*
X0458012Y0139508D01*
X0457959Y0139359D01*
X0457903Y0139211D01*
X0457843Y0139065D01*
X0457779Y0138920D01*
X0457711Y0138777D01*
X0457640Y0138635D01*
X0457566Y0138495D01*
X0457488Y0138358D01*
X0457406Y0138222D01*
X0457322Y0138088D01*
X0457233Y0137957D01*
X0457142Y0137828D01*
X0457047Y0137701D01*
X0456950Y0137576D01*
X0456849Y0137454D01*
X0456745Y0137335D01*
X0456638Y0137218D01*
X0456528Y0137104D01*
X0456415Y0136993D01*
X0456300Y0136884D01*
X0456182Y0136779D01*
X0456061Y0136677D01*
X0455938Y0136577D01*
X0455812Y0136481D01*
X0455684Y0136388D01*
X0455554Y0136298D01*
X0455421Y0136212D01*
X0455286Y0136128D01*
X0455150Y0136049D01*
X0455011Y0135972D01*
X0454870Y0135900D01*
X0454728Y0135830D01*
X0454584Y0135765D01*
X0454438Y0135703D01*
X0454291Y0135645D01*
X0454142Y0135590D01*
X0453992Y0135539D01*
X0453841Y0135492D01*
X0453689Y0135449D01*
X0453536Y0135410D01*
X0453381Y0135374D01*
X0453226Y0135343D01*
X0453070Y0135315D01*
X0452914Y0135291D01*
X0452757Y0135271D01*
X0452599Y0135255D01*
X0452442Y0135243D01*
X0452283Y0135235D01*
X0452125Y0135231D01*
X0451967Y0135231D01*
X0451809Y0135235D01*
X0451650Y0135243D01*
X0451493Y0135255D01*
X0451335Y0135271D01*
X0451178Y0135291D01*
X0451022Y0135315D01*
X0450866Y0135343D01*
X0450711Y0135374D01*
X0450556Y0135410D01*
X0450403Y0135449D01*
X0450251Y0135492D01*
X0450100Y0135539D01*
X0449950Y0135590D01*
X0449801Y0135645D01*
X0449654Y0135703D01*
X0449508Y0135765D01*
X0449364Y0135830D01*
X0449222Y0135900D01*
X0449081Y0135972D01*
X0448942Y0136049D01*
X0448806Y0136128D01*
X0448671Y0136212D01*
X0448538Y0136298D01*
X0448408Y0136388D01*
X0448280Y0136481D01*
X0448154Y0136577D01*
X0448031Y0136677D01*
X0447910Y0136779D01*
X0447792Y0136884D01*
X0447677Y0136993D01*
X0447564Y0137104D01*
X0447454Y0137218D01*
X0447347Y0137335D01*
X0447243Y0137454D01*
X0447142Y0137576D01*
X0447045Y0137701D01*
X0446950Y0137828D01*
X0446859Y0137957D01*
X0446770Y0138088D01*
X0446686Y0138222D01*
X0446604Y0138358D01*
X0446526Y0138495D01*
X0446452Y0138635D01*
X0446381Y0138777D01*
X0446313Y0138920D01*
X0446249Y0139065D01*
X0446189Y0139211D01*
X0446133Y0139359D01*
X0446080Y0139508D01*
X0446031Y0139659D01*
X0445986Y0139811D01*
X0445945Y0139964D01*
X0445907Y0140117D01*
X0445874Y0140272D01*
X0445844Y0140428D01*
X0445818Y0140584D01*
X0445797Y0140741D01*
X0445779Y0140898D01*
X0445765Y0141056D01*
X0445755Y0141214D01*
X0445749Y0141372D01*
X0445747Y0141530D01*
D11*
X0450077Y0174994D02*
X0450079Y0175147D01*
X0450085Y0175301D01*
X0450095Y0175454D01*
X0450109Y0175606D01*
X0450127Y0175759D01*
X0450149Y0175910D01*
X0450174Y0176061D01*
X0450204Y0176212D01*
X0450238Y0176362D01*
X0450275Y0176510D01*
X0450316Y0176658D01*
X0450361Y0176804D01*
X0450410Y0176950D01*
X0450463Y0177094D01*
X0450519Y0177236D01*
X0450579Y0177377D01*
X0450643Y0177517D01*
X0450710Y0177655D01*
X0450781Y0177791D01*
X0450856Y0177925D01*
X0450933Y0178057D01*
X0451015Y0178187D01*
X0451099Y0178315D01*
X0451187Y0178441D01*
X0451278Y0178564D01*
X0451372Y0178685D01*
X0451470Y0178803D01*
X0451570Y0178919D01*
X0451674Y0179032D01*
X0451780Y0179143D01*
X0451889Y0179251D01*
X0452001Y0179356D01*
X0452115Y0179457D01*
X0452233Y0179556D01*
X0452352Y0179652D01*
X0452474Y0179745D01*
X0452599Y0179834D01*
X0452726Y0179921D01*
X0452855Y0180003D01*
X0452986Y0180083D01*
X0453119Y0180159D01*
X0453254Y0180232D01*
X0453391Y0180301D01*
X0453530Y0180366D01*
X0453670Y0180428D01*
X0453812Y0180486D01*
X0453955Y0180541D01*
X0454100Y0180592D01*
X0454246Y0180639D01*
X0454393Y0180682D01*
X0454541Y0180721D01*
X0454690Y0180757D01*
X0454840Y0180788D01*
X0454991Y0180816D01*
X0455142Y0180840D01*
X0455295Y0180860D01*
X0455447Y0180876D01*
X0455600Y0180888D01*
X0455753Y0180896D01*
X0455906Y0180900D01*
X0456060Y0180900D01*
X0456213Y0180896D01*
X0456366Y0180888D01*
X0456519Y0180876D01*
X0456671Y0180860D01*
X0456824Y0180840D01*
X0456975Y0180816D01*
X0457126Y0180788D01*
X0457276Y0180757D01*
X0457425Y0180721D01*
X0457573Y0180682D01*
X0457720Y0180639D01*
X0457866Y0180592D01*
X0458011Y0180541D01*
X0458154Y0180486D01*
X0458296Y0180428D01*
X0458436Y0180366D01*
X0458575Y0180301D01*
X0458712Y0180232D01*
X0458847Y0180159D01*
X0458980Y0180083D01*
X0459111Y0180003D01*
X0459240Y0179921D01*
X0459367Y0179834D01*
X0459492Y0179745D01*
X0459614Y0179652D01*
X0459733Y0179556D01*
X0459851Y0179457D01*
X0459965Y0179356D01*
X0460077Y0179251D01*
X0460186Y0179143D01*
X0460292Y0179032D01*
X0460396Y0178919D01*
X0460496Y0178803D01*
X0460594Y0178685D01*
X0460688Y0178564D01*
X0460779Y0178441D01*
X0460867Y0178315D01*
X0460951Y0178187D01*
X0461033Y0178057D01*
X0461110Y0177925D01*
X0461185Y0177791D01*
X0461256Y0177655D01*
X0461323Y0177517D01*
X0461387Y0177377D01*
X0461447Y0177236D01*
X0461503Y0177094D01*
X0461556Y0176950D01*
X0461605Y0176804D01*
X0461650Y0176658D01*
X0461691Y0176510D01*
X0461728Y0176362D01*
X0461762Y0176212D01*
X0461792Y0176061D01*
X0461817Y0175910D01*
X0461839Y0175759D01*
X0461857Y0175606D01*
X0461871Y0175454D01*
X0461881Y0175301D01*
X0461887Y0175147D01*
X0461889Y0174994D01*
X0461887Y0174841D01*
X0461881Y0174687D01*
X0461871Y0174534D01*
X0461857Y0174382D01*
X0461839Y0174229D01*
X0461817Y0174078D01*
X0461792Y0173927D01*
X0461762Y0173776D01*
X0461728Y0173626D01*
X0461691Y0173478D01*
X0461650Y0173330D01*
X0461605Y0173184D01*
X0461556Y0173038D01*
X0461503Y0172894D01*
X0461447Y0172752D01*
X0461387Y0172611D01*
X0461323Y0172471D01*
X0461256Y0172333D01*
X0461185Y0172197D01*
X0461110Y0172063D01*
X0461033Y0171931D01*
X0460951Y0171801D01*
X0460867Y0171673D01*
X0460779Y0171547D01*
X0460688Y0171424D01*
X0460594Y0171303D01*
X0460496Y0171185D01*
X0460396Y0171069D01*
X0460292Y0170956D01*
X0460186Y0170845D01*
X0460077Y0170737D01*
X0459965Y0170632D01*
X0459851Y0170531D01*
X0459733Y0170432D01*
X0459614Y0170336D01*
X0459492Y0170243D01*
X0459367Y0170154D01*
X0459240Y0170067D01*
X0459111Y0169985D01*
X0458980Y0169905D01*
X0458847Y0169829D01*
X0458712Y0169756D01*
X0458575Y0169687D01*
X0458436Y0169622D01*
X0458296Y0169560D01*
X0458154Y0169502D01*
X0458011Y0169447D01*
X0457866Y0169396D01*
X0457720Y0169349D01*
X0457573Y0169306D01*
X0457425Y0169267D01*
X0457276Y0169231D01*
X0457126Y0169200D01*
X0456975Y0169172D01*
X0456824Y0169148D01*
X0456671Y0169128D01*
X0456519Y0169112D01*
X0456366Y0169100D01*
X0456213Y0169092D01*
X0456060Y0169088D01*
X0455906Y0169088D01*
X0455753Y0169092D01*
X0455600Y0169100D01*
X0455447Y0169112D01*
X0455295Y0169128D01*
X0455142Y0169148D01*
X0454991Y0169172D01*
X0454840Y0169200D01*
X0454690Y0169231D01*
X0454541Y0169267D01*
X0454393Y0169306D01*
X0454246Y0169349D01*
X0454100Y0169396D01*
X0453955Y0169447D01*
X0453812Y0169502D01*
X0453670Y0169560D01*
X0453530Y0169622D01*
X0453391Y0169687D01*
X0453254Y0169756D01*
X0453119Y0169829D01*
X0452986Y0169905D01*
X0452855Y0169985D01*
X0452726Y0170067D01*
X0452599Y0170154D01*
X0452474Y0170243D01*
X0452352Y0170336D01*
X0452233Y0170432D01*
X0452115Y0170531D01*
X0452001Y0170632D01*
X0451889Y0170737D01*
X0451780Y0170845D01*
X0451674Y0170956D01*
X0451570Y0171069D01*
X0451470Y0171185D01*
X0451372Y0171303D01*
X0451278Y0171424D01*
X0451187Y0171547D01*
X0451099Y0171673D01*
X0451015Y0171801D01*
X0450933Y0171931D01*
X0450856Y0172063D01*
X0450781Y0172197D01*
X0450710Y0172333D01*
X0450643Y0172471D01*
X0450579Y0172611D01*
X0450519Y0172752D01*
X0450463Y0172894D01*
X0450410Y0173038D01*
X0450361Y0173184D01*
X0450316Y0173330D01*
X0450275Y0173478D01*
X0450238Y0173626D01*
X0450204Y0173776D01*
X0450174Y0173927D01*
X0450149Y0174078D01*
X0450127Y0174229D01*
X0450109Y0174382D01*
X0450095Y0174534D01*
X0450085Y0174687D01*
X0450079Y0174841D01*
X0450077Y0174994D01*
X0450077Y0226175D02*
X0450079Y0226328D01*
X0450085Y0226482D01*
X0450095Y0226635D01*
X0450109Y0226787D01*
X0450127Y0226940D01*
X0450149Y0227091D01*
X0450174Y0227242D01*
X0450204Y0227393D01*
X0450238Y0227543D01*
X0450275Y0227691D01*
X0450316Y0227839D01*
X0450361Y0227985D01*
X0450410Y0228131D01*
X0450463Y0228275D01*
X0450519Y0228417D01*
X0450579Y0228558D01*
X0450643Y0228698D01*
X0450710Y0228836D01*
X0450781Y0228972D01*
X0450856Y0229106D01*
X0450933Y0229238D01*
X0451015Y0229368D01*
X0451099Y0229496D01*
X0451187Y0229622D01*
X0451278Y0229745D01*
X0451372Y0229866D01*
X0451470Y0229984D01*
X0451570Y0230100D01*
X0451674Y0230213D01*
X0451780Y0230324D01*
X0451889Y0230432D01*
X0452001Y0230537D01*
X0452115Y0230638D01*
X0452233Y0230737D01*
X0452352Y0230833D01*
X0452474Y0230926D01*
X0452599Y0231015D01*
X0452726Y0231102D01*
X0452855Y0231184D01*
X0452986Y0231264D01*
X0453119Y0231340D01*
X0453254Y0231413D01*
X0453391Y0231482D01*
X0453530Y0231547D01*
X0453670Y0231609D01*
X0453812Y0231667D01*
X0453955Y0231722D01*
X0454100Y0231773D01*
X0454246Y0231820D01*
X0454393Y0231863D01*
X0454541Y0231902D01*
X0454690Y0231938D01*
X0454840Y0231969D01*
X0454991Y0231997D01*
X0455142Y0232021D01*
X0455295Y0232041D01*
X0455447Y0232057D01*
X0455600Y0232069D01*
X0455753Y0232077D01*
X0455906Y0232081D01*
X0456060Y0232081D01*
X0456213Y0232077D01*
X0456366Y0232069D01*
X0456519Y0232057D01*
X0456671Y0232041D01*
X0456824Y0232021D01*
X0456975Y0231997D01*
X0457126Y0231969D01*
X0457276Y0231938D01*
X0457425Y0231902D01*
X0457573Y0231863D01*
X0457720Y0231820D01*
X0457866Y0231773D01*
X0458011Y0231722D01*
X0458154Y0231667D01*
X0458296Y0231609D01*
X0458436Y0231547D01*
X0458575Y0231482D01*
X0458712Y0231413D01*
X0458847Y0231340D01*
X0458980Y0231264D01*
X0459111Y0231184D01*
X0459240Y0231102D01*
X0459367Y0231015D01*
X0459492Y0230926D01*
X0459614Y0230833D01*
X0459733Y0230737D01*
X0459851Y0230638D01*
X0459965Y0230537D01*
X0460077Y0230432D01*
X0460186Y0230324D01*
X0460292Y0230213D01*
X0460396Y0230100D01*
X0460496Y0229984D01*
X0460594Y0229866D01*
X0460688Y0229745D01*
X0460779Y0229622D01*
X0460867Y0229496D01*
X0460951Y0229368D01*
X0461033Y0229238D01*
X0461110Y0229106D01*
X0461185Y0228972D01*
X0461256Y0228836D01*
X0461323Y0228698D01*
X0461387Y0228558D01*
X0461447Y0228417D01*
X0461503Y0228275D01*
X0461556Y0228131D01*
X0461605Y0227985D01*
X0461650Y0227839D01*
X0461691Y0227691D01*
X0461728Y0227543D01*
X0461762Y0227393D01*
X0461792Y0227242D01*
X0461817Y0227091D01*
X0461839Y0226940D01*
X0461857Y0226787D01*
X0461871Y0226635D01*
X0461881Y0226482D01*
X0461887Y0226328D01*
X0461889Y0226175D01*
X0461887Y0226022D01*
X0461881Y0225868D01*
X0461871Y0225715D01*
X0461857Y0225563D01*
X0461839Y0225410D01*
X0461817Y0225259D01*
X0461792Y0225108D01*
X0461762Y0224957D01*
X0461728Y0224807D01*
X0461691Y0224659D01*
X0461650Y0224511D01*
X0461605Y0224365D01*
X0461556Y0224219D01*
X0461503Y0224075D01*
X0461447Y0223933D01*
X0461387Y0223792D01*
X0461323Y0223652D01*
X0461256Y0223514D01*
X0461185Y0223378D01*
X0461110Y0223244D01*
X0461033Y0223112D01*
X0460951Y0222982D01*
X0460867Y0222854D01*
X0460779Y0222728D01*
X0460688Y0222605D01*
X0460594Y0222484D01*
X0460496Y0222366D01*
X0460396Y0222250D01*
X0460292Y0222137D01*
X0460186Y0222026D01*
X0460077Y0221918D01*
X0459965Y0221813D01*
X0459851Y0221712D01*
X0459733Y0221613D01*
X0459614Y0221517D01*
X0459492Y0221424D01*
X0459367Y0221335D01*
X0459240Y0221248D01*
X0459111Y0221166D01*
X0458980Y0221086D01*
X0458847Y0221010D01*
X0458712Y0220937D01*
X0458575Y0220868D01*
X0458436Y0220803D01*
X0458296Y0220741D01*
X0458154Y0220683D01*
X0458011Y0220628D01*
X0457866Y0220577D01*
X0457720Y0220530D01*
X0457573Y0220487D01*
X0457425Y0220448D01*
X0457276Y0220412D01*
X0457126Y0220381D01*
X0456975Y0220353D01*
X0456824Y0220329D01*
X0456671Y0220309D01*
X0456519Y0220293D01*
X0456366Y0220281D01*
X0456213Y0220273D01*
X0456060Y0220269D01*
X0455906Y0220269D01*
X0455753Y0220273D01*
X0455600Y0220281D01*
X0455447Y0220293D01*
X0455295Y0220309D01*
X0455142Y0220329D01*
X0454991Y0220353D01*
X0454840Y0220381D01*
X0454690Y0220412D01*
X0454541Y0220448D01*
X0454393Y0220487D01*
X0454246Y0220530D01*
X0454100Y0220577D01*
X0453955Y0220628D01*
X0453812Y0220683D01*
X0453670Y0220741D01*
X0453530Y0220803D01*
X0453391Y0220868D01*
X0453254Y0220937D01*
X0453119Y0221010D01*
X0452986Y0221086D01*
X0452855Y0221166D01*
X0452726Y0221248D01*
X0452599Y0221335D01*
X0452474Y0221424D01*
X0452352Y0221517D01*
X0452233Y0221613D01*
X0452115Y0221712D01*
X0452001Y0221813D01*
X0451889Y0221918D01*
X0451780Y0222026D01*
X0451674Y0222137D01*
X0451570Y0222250D01*
X0451470Y0222366D01*
X0451372Y0222484D01*
X0451278Y0222605D01*
X0451187Y0222728D01*
X0451099Y0222854D01*
X0451015Y0222982D01*
X0450933Y0223112D01*
X0450856Y0223244D01*
X0450781Y0223378D01*
X0450710Y0223514D01*
X0450643Y0223652D01*
X0450579Y0223792D01*
X0450519Y0223933D01*
X0450463Y0224075D01*
X0450410Y0224219D01*
X0450361Y0224365D01*
X0450316Y0224511D01*
X0450275Y0224659D01*
X0450238Y0224807D01*
X0450204Y0224957D01*
X0450174Y0225108D01*
X0450149Y0225259D01*
X0450127Y0225410D01*
X0450109Y0225563D01*
X0450095Y0225715D01*
X0450085Y0225868D01*
X0450079Y0226022D01*
X0450077Y0226175D01*
D12*
X0097829Y0271633D02*
X0095467Y0271633D01*
X0095400Y0271635D01*
X0095332Y0271641D01*
X0095266Y0271650D01*
X0095200Y0271664D01*
X0095134Y0271681D01*
X0095070Y0271702D01*
X0095007Y0271726D01*
X0094946Y0271754D01*
X0094886Y0271786D01*
X0094829Y0271820D01*
X0094773Y0271859D01*
X0094719Y0271900D01*
X0094668Y0271944D01*
X0094620Y0271991D01*
X0094574Y0272041D01*
X0094532Y0272093D01*
X0094492Y0272147D01*
X0094456Y0272204D01*
X0094422Y0272263D01*
X0094393Y0272323D01*
X0094366Y0272386D01*
X0094344Y0272449D01*
X0094325Y0272514D01*
X0094310Y0272579D01*
X0094298Y0272646D01*
X0094290Y0272713D01*
X0094286Y0272780D01*
X0094286Y0272848D01*
X0094290Y0272915D01*
X0094298Y0272982D01*
X0094310Y0273049D01*
X0094325Y0273114D01*
X0094344Y0273179D01*
X0094366Y0273242D01*
X0094393Y0273305D01*
X0094422Y0273365D01*
X0094456Y0273424D01*
X0094492Y0273481D01*
X0094532Y0273535D01*
X0094574Y0273587D01*
X0094620Y0273637D01*
X0094668Y0273684D01*
X0094719Y0273728D01*
X0094773Y0273769D01*
X0094829Y0273808D01*
X0094886Y0273842D01*
X0094946Y0273874D01*
X0095007Y0273902D01*
X0095070Y0273926D01*
X0095134Y0273947D01*
X0095200Y0273964D01*
X0095266Y0273978D01*
X0095332Y0273987D01*
X0095400Y0273993D01*
X0095467Y0273995D01*
X0097829Y0273995D01*
X0097896Y0273993D01*
X0097964Y0273987D01*
X0098030Y0273978D01*
X0098096Y0273964D01*
X0098162Y0273947D01*
X0098226Y0273926D01*
X0098289Y0273902D01*
X0098350Y0273874D01*
X0098410Y0273842D01*
X0098467Y0273808D01*
X0098523Y0273769D01*
X0098577Y0273728D01*
X0098628Y0273684D01*
X0098676Y0273637D01*
X0098722Y0273587D01*
X0098764Y0273535D01*
X0098804Y0273481D01*
X0098840Y0273424D01*
X0098874Y0273365D01*
X0098903Y0273305D01*
X0098930Y0273242D01*
X0098952Y0273179D01*
X0098971Y0273114D01*
X0098986Y0273049D01*
X0098998Y0272982D01*
X0099006Y0272915D01*
X0099010Y0272848D01*
X0099010Y0272780D01*
X0099006Y0272713D01*
X0098998Y0272646D01*
X0098986Y0272579D01*
X0098971Y0272514D01*
X0098952Y0272449D01*
X0098930Y0272386D01*
X0098903Y0272323D01*
X0098874Y0272263D01*
X0098840Y0272204D01*
X0098804Y0272147D01*
X0098764Y0272093D01*
X0098722Y0272041D01*
X0098676Y0271991D01*
X0098628Y0271944D01*
X0098577Y0271900D01*
X0098523Y0271859D01*
X0098467Y0271820D01*
X0098410Y0271786D01*
X0098350Y0271754D01*
X0098289Y0271726D01*
X0098226Y0271702D01*
X0098162Y0271681D01*
X0098096Y0271664D01*
X0098030Y0271650D01*
X0097964Y0271641D01*
X0097896Y0271635D01*
X0097829Y0271633D01*
X0079207Y0271633D02*
X0076844Y0271633D01*
X0076777Y0271635D01*
X0076709Y0271641D01*
X0076643Y0271650D01*
X0076577Y0271664D01*
X0076511Y0271681D01*
X0076447Y0271702D01*
X0076384Y0271726D01*
X0076323Y0271754D01*
X0076263Y0271786D01*
X0076206Y0271820D01*
X0076150Y0271859D01*
X0076096Y0271900D01*
X0076045Y0271944D01*
X0075997Y0271991D01*
X0075951Y0272041D01*
X0075909Y0272093D01*
X0075869Y0272147D01*
X0075833Y0272204D01*
X0075799Y0272263D01*
X0075770Y0272323D01*
X0075743Y0272386D01*
X0075721Y0272449D01*
X0075702Y0272514D01*
X0075687Y0272579D01*
X0075675Y0272646D01*
X0075667Y0272713D01*
X0075663Y0272780D01*
X0075663Y0272848D01*
X0075667Y0272915D01*
X0075675Y0272982D01*
X0075687Y0273049D01*
X0075702Y0273114D01*
X0075721Y0273179D01*
X0075743Y0273242D01*
X0075770Y0273305D01*
X0075799Y0273365D01*
X0075833Y0273424D01*
X0075869Y0273481D01*
X0075909Y0273535D01*
X0075951Y0273587D01*
X0075997Y0273637D01*
X0076045Y0273684D01*
X0076096Y0273728D01*
X0076150Y0273769D01*
X0076206Y0273808D01*
X0076263Y0273842D01*
X0076323Y0273874D01*
X0076384Y0273902D01*
X0076447Y0273926D01*
X0076511Y0273947D01*
X0076577Y0273964D01*
X0076643Y0273978D01*
X0076709Y0273987D01*
X0076777Y0273993D01*
X0076844Y0273995D01*
X0079207Y0273995D01*
X0079274Y0273993D01*
X0079342Y0273987D01*
X0079408Y0273978D01*
X0079474Y0273964D01*
X0079540Y0273947D01*
X0079604Y0273926D01*
X0079667Y0273902D01*
X0079728Y0273874D01*
X0079788Y0273842D01*
X0079845Y0273808D01*
X0079901Y0273769D01*
X0079955Y0273728D01*
X0080006Y0273684D01*
X0080054Y0273637D01*
X0080100Y0273587D01*
X0080142Y0273535D01*
X0080182Y0273481D01*
X0080218Y0273424D01*
X0080252Y0273365D01*
X0080281Y0273305D01*
X0080308Y0273242D01*
X0080330Y0273179D01*
X0080349Y0273114D01*
X0080364Y0273049D01*
X0080376Y0272982D01*
X0080384Y0272915D01*
X0080388Y0272848D01*
X0080388Y0272780D01*
X0080384Y0272713D01*
X0080376Y0272646D01*
X0080364Y0272579D01*
X0080349Y0272514D01*
X0080330Y0272449D01*
X0080308Y0272386D01*
X0080281Y0272323D01*
X0080252Y0272263D01*
X0080218Y0272204D01*
X0080182Y0272147D01*
X0080142Y0272093D01*
X0080100Y0272041D01*
X0080054Y0271991D01*
X0080006Y0271944D01*
X0079955Y0271900D01*
X0079901Y0271859D01*
X0079845Y0271820D01*
X0079788Y0271786D01*
X0079728Y0271754D01*
X0079667Y0271726D01*
X0079604Y0271702D01*
X0079540Y0271681D01*
X0079474Y0271664D01*
X0079408Y0271650D01*
X0079342Y0271641D01*
X0079274Y0271635D01*
X0079207Y0271633D01*
X0079207Y0305255D02*
X0076844Y0305255D01*
X0076777Y0305257D01*
X0076709Y0305263D01*
X0076643Y0305272D01*
X0076577Y0305286D01*
X0076511Y0305303D01*
X0076447Y0305324D01*
X0076384Y0305348D01*
X0076323Y0305376D01*
X0076263Y0305408D01*
X0076206Y0305442D01*
X0076150Y0305481D01*
X0076096Y0305522D01*
X0076045Y0305566D01*
X0075997Y0305613D01*
X0075951Y0305663D01*
X0075909Y0305715D01*
X0075869Y0305769D01*
X0075833Y0305826D01*
X0075799Y0305885D01*
X0075770Y0305945D01*
X0075743Y0306008D01*
X0075721Y0306071D01*
X0075702Y0306136D01*
X0075687Y0306201D01*
X0075675Y0306268D01*
X0075667Y0306335D01*
X0075663Y0306402D01*
X0075663Y0306470D01*
X0075667Y0306537D01*
X0075675Y0306604D01*
X0075687Y0306671D01*
X0075702Y0306736D01*
X0075721Y0306801D01*
X0075743Y0306864D01*
X0075770Y0306927D01*
X0075799Y0306987D01*
X0075833Y0307046D01*
X0075869Y0307103D01*
X0075909Y0307157D01*
X0075951Y0307209D01*
X0075997Y0307259D01*
X0076045Y0307306D01*
X0076096Y0307350D01*
X0076150Y0307391D01*
X0076206Y0307430D01*
X0076263Y0307464D01*
X0076323Y0307496D01*
X0076384Y0307524D01*
X0076447Y0307548D01*
X0076511Y0307569D01*
X0076577Y0307586D01*
X0076643Y0307600D01*
X0076709Y0307609D01*
X0076777Y0307615D01*
X0076844Y0307617D01*
X0079207Y0307617D01*
X0079274Y0307615D01*
X0079342Y0307609D01*
X0079408Y0307600D01*
X0079474Y0307586D01*
X0079540Y0307569D01*
X0079604Y0307548D01*
X0079667Y0307524D01*
X0079728Y0307496D01*
X0079788Y0307464D01*
X0079845Y0307430D01*
X0079901Y0307391D01*
X0079955Y0307350D01*
X0080006Y0307306D01*
X0080054Y0307259D01*
X0080100Y0307209D01*
X0080142Y0307157D01*
X0080182Y0307103D01*
X0080218Y0307046D01*
X0080252Y0306987D01*
X0080281Y0306927D01*
X0080308Y0306864D01*
X0080330Y0306801D01*
X0080349Y0306736D01*
X0080364Y0306671D01*
X0080376Y0306604D01*
X0080384Y0306537D01*
X0080388Y0306470D01*
X0080388Y0306402D01*
X0080384Y0306335D01*
X0080376Y0306268D01*
X0080364Y0306201D01*
X0080349Y0306136D01*
X0080330Y0306071D01*
X0080308Y0306008D01*
X0080281Y0305945D01*
X0080252Y0305885D01*
X0080218Y0305826D01*
X0080182Y0305769D01*
X0080142Y0305715D01*
X0080100Y0305663D01*
X0080054Y0305613D01*
X0080006Y0305566D01*
X0079955Y0305522D01*
X0079901Y0305481D01*
X0079845Y0305442D01*
X0079788Y0305408D01*
X0079728Y0305376D01*
X0079667Y0305348D01*
X0079604Y0305324D01*
X0079540Y0305303D01*
X0079474Y0305286D01*
X0079408Y0305272D01*
X0079342Y0305263D01*
X0079274Y0305257D01*
X0079207Y0305255D01*
X0095467Y0305255D02*
X0097829Y0305255D01*
X0097896Y0305257D01*
X0097964Y0305263D01*
X0098030Y0305272D01*
X0098096Y0305286D01*
X0098162Y0305303D01*
X0098226Y0305324D01*
X0098289Y0305348D01*
X0098350Y0305376D01*
X0098410Y0305408D01*
X0098467Y0305442D01*
X0098523Y0305481D01*
X0098577Y0305522D01*
X0098628Y0305566D01*
X0098676Y0305613D01*
X0098722Y0305663D01*
X0098764Y0305715D01*
X0098804Y0305769D01*
X0098840Y0305826D01*
X0098874Y0305885D01*
X0098903Y0305945D01*
X0098930Y0306008D01*
X0098952Y0306071D01*
X0098971Y0306136D01*
X0098986Y0306201D01*
X0098998Y0306268D01*
X0099006Y0306335D01*
X0099010Y0306402D01*
X0099010Y0306470D01*
X0099006Y0306537D01*
X0098998Y0306604D01*
X0098986Y0306671D01*
X0098971Y0306736D01*
X0098952Y0306801D01*
X0098930Y0306864D01*
X0098903Y0306927D01*
X0098874Y0306987D01*
X0098840Y0307046D01*
X0098804Y0307103D01*
X0098764Y0307157D01*
X0098722Y0307209D01*
X0098676Y0307259D01*
X0098628Y0307306D01*
X0098577Y0307350D01*
X0098523Y0307391D01*
X0098467Y0307430D01*
X0098410Y0307464D01*
X0098350Y0307496D01*
X0098289Y0307524D01*
X0098226Y0307548D01*
X0098162Y0307569D01*
X0098096Y0307586D01*
X0098030Y0307600D01*
X0097964Y0307609D01*
X0097896Y0307615D01*
X0097829Y0307617D01*
X0095467Y0307617D01*
X0095400Y0307615D01*
X0095332Y0307609D01*
X0095266Y0307600D01*
X0095200Y0307586D01*
X0095134Y0307569D01*
X0095070Y0307548D01*
X0095007Y0307524D01*
X0094946Y0307496D01*
X0094886Y0307464D01*
X0094829Y0307430D01*
X0094773Y0307391D01*
X0094719Y0307350D01*
X0094668Y0307306D01*
X0094620Y0307259D01*
X0094574Y0307209D01*
X0094532Y0307157D01*
X0094492Y0307103D01*
X0094456Y0307046D01*
X0094422Y0306987D01*
X0094393Y0306927D01*
X0094366Y0306864D01*
X0094344Y0306801D01*
X0094325Y0306736D01*
X0094310Y0306671D01*
X0094298Y0306604D01*
X0094290Y0306537D01*
X0094286Y0306470D01*
X0094286Y0306402D01*
X0094290Y0306335D01*
X0094298Y0306268D01*
X0094310Y0306201D01*
X0094325Y0306136D01*
X0094344Y0306071D01*
X0094366Y0306008D01*
X0094393Y0305945D01*
X0094422Y0305885D01*
X0094456Y0305826D01*
X0094492Y0305769D01*
X0094532Y0305715D01*
X0094574Y0305663D01*
X0094620Y0305613D01*
X0094668Y0305566D01*
X0094719Y0305522D01*
X0094773Y0305481D01*
X0094829Y0305442D01*
X0094886Y0305408D01*
X0094946Y0305376D01*
X0095007Y0305348D01*
X0095070Y0305324D01*
X0095134Y0305303D01*
X0095200Y0305286D01*
X0095266Y0305272D01*
X0095332Y0305263D01*
X0095400Y0305257D01*
X0095467Y0305255D01*
M02*
