G75*
%MOIN*%
%OFA0B0*%
%FSLAX25Y25*%
%IPPOS*%
%LPD*%
%AMOC8*
5,1,8,0,0,1.08239X$1,22.5*
%
%ADD10C,0.00000*%
%ADD11C,0.00039*%
%ADD12R,0.05906X0.05118*%
%ADD13R,0.04331X0.03937*%
%ADD14R,0.02362X0.02362*%
%ADD15R,0.02364X0.02362*%
%ADD16R,0.02362X0.02366*%
%ADD17R,0.02362X0.02362*%
%ADD18C,0.00072*%
%ADD19R,0.05118X0.05906*%
%ADD20R,0.04200X0.01000*%
%ADD21R,0.03937X0.05000*%
%ADD22R,0.03937X0.04331*%
%ADD23C,0.00492*%
%ADD24R,0.04600X0.06300*%
D10*
X0083936Y0127750D02*
X0454015Y0127750D01*
X0454300Y0127753D01*
X0454586Y0127764D01*
X0454871Y0127781D01*
X0455155Y0127805D01*
X0455439Y0127836D01*
X0455722Y0127874D01*
X0456003Y0127919D01*
X0456284Y0127970D01*
X0456564Y0128028D01*
X0456842Y0128093D01*
X0457118Y0128165D01*
X0457392Y0128243D01*
X0457665Y0128328D01*
X0457935Y0128420D01*
X0458203Y0128518D01*
X0458469Y0128622D01*
X0458732Y0128733D01*
X0458992Y0128850D01*
X0459250Y0128973D01*
X0459504Y0129103D01*
X0459755Y0129239D01*
X0460003Y0129380D01*
X0460247Y0129528D01*
X0460488Y0129681D01*
X0460724Y0129841D01*
X0460957Y0130006D01*
X0461186Y0130176D01*
X0461411Y0130352D01*
X0461631Y0130534D01*
X0461847Y0130720D01*
X0462058Y0130912D01*
X0462265Y0131109D01*
X0462467Y0131311D01*
X0462664Y0131518D01*
X0462856Y0131729D01*
X0463042Y0131945D01*
X0463224Y0132165D01*
X0463400Y0132390D01*
X0463570Y0132619D01*
X0463735Y0132852D01*
X0463895Y0133088D01*
X0464048Y0133329D01*
X0464196Y0133573D01*
X0464337Y0133821D01*
X0464473Y0134072D01*
X0464603Y0134326D01*
X0464726Y0134584D01*
X0464843Y0134844D01*
X0464954Y0135107D01*
X0465058Y0135373D01*
X0465156Y0135641D01*
X0465248Y0135911D01*
X0465333Y0136184D01*
X0465411Y0136458D01*
X0465483Y0136734D01*
X0465548Y0137012D01*
X0465606Y0137292D01*
X0465657Y0137573D01*
X0465702Y0137854D01*
X0465740Y0138137D01*
X0465771Y0138421D01*
X0465795Y0138705D01*
X0465812Y0138990D01*
X0465823Y0139276D01*
X0465826Y0139561D01*
X0465826Y0332474D01*
X0465823Y0332759D01*
X0465812Y0333045D01*
X0465795Y0333330D01*
X0465771Y0333614D01*
X0465740Y0333898D01*
X0465702Y0334181D01*
X0465657Y0334462D01*
X0465606Y0334743D01*
X0465548Y0335023D01*
X0465483Y0335301D01*
X0465411Y0335577D01*
X0465333Y0335851D01*
X0465248Y0336124D01*
X0465156Y0336394D01*
X0465058Y0336662D01*
X0464954Y0336928D01*
X0464843Y0337191D01*
X0464726Y0337451D01*
X0464603Y0337709D01*
X0464473Y0337963D01*
X0464337Y0338214D01*
X0464196Y0338462D01*
X0464048Y0338706D01*
X0463895Y0338947D01*
X0463735Y0339183D01*
X0463570Y0339416D01*
X0463400Y0339645D01*
X0463224Y0339870D01*
X0463042Y0340090D01*
X0462856Y0340306D01*
X0462664Y0340517D01*
X0462467Y0340724D01*
X0462265Y0340926D01*
X0462058Y0341123D01*
X0461847Y0341315D01*
X0461631Y0341501D01*
X0461411Y0341683D01*
X0461186Y0341859D01*
X0460957Y0342029D01*
X0460724Y0342194D01*
X0460488Y0342354D01*
X0460247Y0342507D01*
X0460003Y0342655D01*
X0459755Y0342796D01*
X0459504Y0342932D01*
X0459250Y0343062D01*
X0458992Y0343185D01*
X0458732Y0343302D01*
X0458469Y0343413D01*
X0458203Y0343517D01*
X0457935Y0343615D01*
X0457665Y0343707D01*
X0457392Y0343792D01*
X0457118Y0343870D01*
X0456842Y0343942D01*
X0456564Y0344007D01*
X0456284Y0344065D01*
X0456003Y0344116D01*
X0455722Y0344161D01*
X0455439Y0344199D01*
X0455155Y0344230D01*
X0454871Y0344254D01*
X0454586Y0344271D01*
X0454300Y0344282D01*
X0454015Y0344285D01*
X0083936Y0344285D01*
X0083651Y0344282D01*
X0083365Y0344271D01*
X0083080Y0344254D01*
X0082796Y0344230D01*
X0082512Y0344199D01*
X0082229Y0344161D01*
X0081948Y0344116D01*
X0081667Y0344065D01*
X0081387Y0344007D01*
X0081109Y0343942D01*
X0080833Y0343870D01*
X0080559Y0343792D01*
X0080286Y0343707D01*
X0080016Y0343615D01*
X0079748Y0343517D01*
X0079482Y0343413D01*
X0079219Y0343302D01*
X0078959Y0343185D01*
X0078701Y0343062D01*
X0078447Y0342932D01*
X0078196Y0342796D01*
X0077948Y0342655D01*
X0077704Y0342507D01*
X0077463Y0342354D01*
X0077227Y0342194D01*
X0076994Y0342029D01*
X0076765Y0341859D01*
X0076540Y0341683D01*
X0076320Y0341501D01*
X0076104Y0341315D01*
X0075893Y0341123D01*
X0075686Y0340926D01*
X0075484Y0340724D01*
X0075287Y0340517D01*
X0075095Y0340306D01*
X0074909Y0340090D01*
X0074727Y0339870D01*
X0074551Y0339645D01*
X0074381Y0339416D01*
X0074216Y0339183D01*
X0074056Y0338947D01*
X0073903Y0338706D01*
X0073755Y0338462D01*
X0073614Y0338214D01*
X0073478Y0337963D01*
X0073348Y0337709D01*
X0073225Y0337451D01*
X0073108Y0337191D01*
X0072997Y0336928D01*
X0072893Y0336662D01*
X0072795Y0336394D01*
X0072703Y0336124D01*
X0072618Y0335851D01*
X0072540Y0335577D01*
X0072468Y0335301D01*
X0072403Y0335023D01*
X0072345Y0334743D01*
X0072294Y0334462D01*
X0072249Y0334181D01*
X0072211Y0333898D01*
X0072180Y0333614D01*
X0072156Y0333330D01*
X0072139Y0333045D01*
X0072128Y0332759D01*
X0072125Y0332474D01*
X0072125Y0139561D01*
X0072128Y0139276D01*
X0072139Y0138990D01*
X0072156Y0138705D01*
X0072180Y0138421D01*
X0072211Y0138137D01*
X0072249Y0137854D01*
X0072294Y0137573D01*
X0072345Y0137292D01*
X0072403Y0137012D01*
X0072468Y0136734D01*
X0072540Y0136458D01*
X0072618Y0136184D01*
X0072703Y0135911D01*
X0072795Y0135641D01*
X0072893Y0135373D01*
X0072997Y0135107D01*
X0073108Y0134844D01*
X0073225Y0134584D01*
X0073348Y0134326D01*
X0073478Y0134072D01*
X0073614Y0133821D01*
X0073755Y0133573D01*
X0073903Y0133329D01*
X0074056Y0133088D01*
X0074216Y0132852D01*
X0074381Y0132619D01*
X0074551Y0132390D01*
X0074727Y0132165D01*
X0074909Y0131945D01*
X0075095Y0131729D01*
X0075287Y0131518D01*
X0075484Y0131311D01*
X0075686Y0131109D01*
X0075893Y0130912D01*
X0076104Y0130720D01*
X0076320Y0130534D01*
X0076540Y0130352D01*
X0076765Y0130176D01*
X0076994Y0130006D01*
X0077227Y0129841D01*
X0077463Y0129681D01*
X0077704Y0129528D01*
X0077948Y0129380D01*
X0078196Y0129239D01*
X0078447Y0129103D01*
X0078701Y0128973D01*
X0078959Y0128850D01*
X0079219Y0128733D01*
X0079482Y0128622D01*
X0079748Y0128518D01*
X0080016Y0128420D01*
X0080286Y0128328D01*
X0080559Y0128243D01*
X0080833Y0128165D01*
X0081109Y0128093D01*
X0081387Y0128028D01*
X0081667Y0127970D01*
X0081948Y0127919D01*
X0082229Y0127874D01*
X0082512Y0127836D01*
X0082796Y0127805D01*
X0083080Y0127781D01*
X0083365Y0127764D01*
X0083651Y0127753D01*
X0083936Y0127750D01*
X0079606Y0141530D02*
X0079608Y0141688D01*
X0079614Y0141846D01*
X0079624Y0142004D01*
X0079638Y0142162D01*
X0079656Y0142319D01*
X0079677Y0142476D01*
X0079703Y0142632D01*
X0079733Y0142788D01*
X0079766Y0142943D01*
X0079804Y0143096D01*
X0079845Y0143249D01*
X0079890Y0143401D01*
X0079939Y0143552D01*
X0079992Y0143701D01*
X0080048Y0143849D01*
X0080108Y0143995D01*
X0080172Y0144140D01*
X0080240Y0144283D01*
X0080311Y0144425D01*
X0080385Y0144565D01*
X0080463Y0144702D01*
X0080545Y0144838D01*
X0080629Y0144972D01*
X0080718Y0145103D01*
X0080809Y0145232D01*
X0080904Y0145359D01*
X0081001Y0145484D01*
X0081102Y0145606D01*
X0081206Y0145725D01*
X0081313Y0145842D01*
X0081423Y0145956D01*
X0081536Y0146067D01*
X0081651Y0146176D01*
X0081769Y0146281D01*
X0081890Y0146383D01*
X0082013Y0146483D01*
X0082139Y0146579D01*
X0082267Y0146672D01*
X0082397Y0146762D01*
X0082530Y0146848D01*
X0082665Y0146932D01*
X0082801Y0147011D01*
X0082940Y0147088D01*
X0083081Y0147160D01*
X0083223Y0147230D01*
X0083367Y0147295D01*
X0083513Y0147357D01*
X0083660Y0147415D01*
X0083809Y0147470D01*
X0083959Y0147521D01*
X0084110Y0147568D01*
X0084262Y0147611D01*
X0084415Y0147650D01*
X0084570Y0147686D01*
X0084725Y0147717D01*
X0084881Y0147745D01*
X0085037Y0147769D01*
X0085194Y0147789D01*
X0085352Y0147805D01*
X0085509Y0147817D01*
X0085668Y0147825D01*
X0085826Y0147829D01*
X0085984Y0147829D01*
X0086142Y0147825D01*
X0086301Y0147817D01*
X0086458Y0147805D01*
X0086616Y0147789D01*
X0086773Y0147769D01*
X0086929Y0147745D01*
X0087085Y0147717D01*
X0087240Y0147686D01*
X0087395Y0147650D01*
X0087548Y0147611D01*
X0087700Y0147568D01*
X0087851Y0147521D01*
X0088001Y0147470D01*
X0088150Y0147415D01*
X0088297Y0147357D01*
X0088443Y0147295D01*
X0088587Y0147230D01*
X0088729Y0147160D01*
X0088870Y0147088D01*
X0089009Y0147011D01*
X0089145Y0146932D01*
X0089280Y0146848D01*
X0089413Y0146762D01*
X0089543Y0146672D01*
X0089671Y0146579D01*
X0089797Y0146483D01*
X0089920Y0146383D01*
X0090041Y0146281D01*
X0090159Y0146176D01*
X0090274Y0146067D01*
X0090387Y0145956D01*
X0090497Y0145842D01*
X0090604Y0145725D01*
X0090708Y0145606D01*
X0090809Y0145484D01*
X0090906Y0145359D01*
X0091001Y0145232D01*
X0091092Y0145103D01*
X0091181Y0144972D01*
X0091265Y0144838D01*
X0091347Y0144702D01*
X0091425Y0144565D01*
X0091499Y0144425D01*
X0091570Y0144283D01*
X0091638Y0144140D01*
X0091702Y0143995D01*
X0091762Y0143849D01*
X0091818Y0143701D01*
X0091871Y0143552D01*
X0091920Y0143401D01*
X0091965Y0143249D01*
X0092006Y0143096D01*
X0092044Y0142943D01*
X0092077Y0142788D01*
X0092107Y0142632D01*
X0092133Y0142476D01*
X0092154Y0142319D01*
X0092172Y0142162D01*
X0092186Y0142004D01*
X0092196Y0141846D01*
X0092202Y0141688D01*
X0092204Y0141530D01*
X0092202Y0141372D01*
X0092196Y0141214D01*
X0092186Y0141056D01*
X0092172Y0140898D01*
X0092154Y0140741D01*
X0092133Y0140584D01*
X0092107Y0140428D01*
X0092077Y0140272D01*
X0092044Y0140117D01*
X0092006Y0139964D01*
X0091965Y0139811D01*
X0091920Y0139659D01*
X0091871Y0139508D01*
X0091818Y0139359D01*
X0091762Y0139211D01*
X0091702Y0139065D01*
X0091638Y0138920D01*
X0091570Y0138777D01*
X0091499Y0138635D01*
X0091425Y0138495D01*
X0091347Y0138358D01*
X0091265Y0138222D01*
X0091181Y0138088D01*
X0091092Y0137957D01*
X0091001Y0137828D01*
X0090906Y0137701D01*
X0090809Y0137576D01*
X0090708Y0137454D01*
X0090604Y0137335D01*
X0090497Y0137218D01*
X0090387Y0137104D01*
X0090274Y0136993D01*
X0090159Y0136884D01*
X0090041Y0136779D01*
X0089920Y0136677D01*
X0089797Y0136577D01*
X0089671Y0136481D01*
X0089543Y0136388D01*
X0089413Y0136298D01*
X0089280Y0136212D01*
X0089145Y0136128D01*
X0089009Y0136049D01*
X0088870Y0135972D01*
X0088729Y0135900D01*
X0088587Y0135830D01*
X0088443Y0135765D01*
X0088297Y0135703D01*
X0088150Y0135645D01*
X0088001Y0135590D01*
X0087851Y0135539D01*
X0087700Y0135492D01*
X0087548Y0135449D01*
X0087395Y0135410D01*
X0087240Y0135374D01*
X0087085Y0135343D01*
X0086929Y0135315D01*
X0086773Y0135291D01*
X0086616Y0135271D01*
X0086458Y0135255D01*
X0086301Y0135243D01*
X0086142Y0135235D01*
X0085984Y0135231D01*
X0085826Y0135231D01*
X0085668Y0135235D01*
X0085509Y0135243D01*
X0085352Y0135255D01*
X0085194Y0135271D01*
X0085037Y0135291D01*
X0084881Y0135315D01*
X0084725Y0135343D01*
X0084570Y0135374D01*
X0084415Y0135410D01*
X0084262Y0135449D01*
X0084110Y0135492D01*
X0083959Y0135539D01*
X0083809Y0135590D01*
X0083660Y0135645D01*
X0083513Y0135703D01*
X0083367Y0135765D01*
X0083223Y0135830D01*
X0083081Y0135900D01*
X0082940Y0135972D01*
X0082801Y0136049D01*
X0082665Y0136128D01*
X0082530Y0136212D01*
X0082397Y0136298D01*
X0082267Y0136388D01*
X0082139Y0136481D01*
X0082013Y0136577D01*
X0081890Y0136677D01*
X0081769Y0136779D01*
X0081651Y0136884D01*
X0081536Y0136993D01*
X0081423Y0137104D01*
X0081313Y0137218D01*
X0081206Y0137335D01*
X0081102Y0137454D01*
X0081001Y0137576D01*
X0080904Y0137701D01*
X0080809Y0137828D01*
X0080718Y0137957D01*
X0080629Y0138088D01*
X0080545Y0138222D01*
X0080463Y0138358D01*
X0080385Y0138495D01*
X0080311Y0138635D01*
X0080240Y0138777D01*
X0080172Y0138920D01*
X0080108Y0139065D01*
X0080048Y0139211D01*
X0079992Y0139359D01*
X0079939Y0139508D01*
X0079890Y0139659D01*
X0079845Y0139811D01*
X0079804Y0139964D01*
X0079766Y0140117D01*
X0079733Y0140272D01*
X0079703Y0140428D01*
X0079677Y0140584D01*
X0079656Y0140741D01*
X0079638Y0140898D01*
X0079624Y0141056D01*
X0079614Y0141214D01*
X0079608Y0141372D01*
X0079606Y0141530D01*
X0079606Y0330506D02*
X0079608Y0330664D01*
X0079614Y0330822D01*
X0079624Y0330980D01*
X0079638Y0331138D01*
X0079656Y0331295D01*
X0079677Y0331452D01*
X0079703Y0331608D01*
X0079733Y0331764D01*
X0079766Y0331919D01*
X0079804Y0332072D01*
X0079845Y0332225D01*
X0079890Y0332377D01*
X0079939Y0332528D01*
X0079992Y0332677D01*
X0080048Y0332825D01*
X0080108Y0332971D01*
X0080172Y0333116D01*
X0080240Y0333259D01*
X0080311Y0333401D01*
X0080385Y0333541D01*
X0080463Y0333678D01*
X0080545Y0333814D01*
X0080629Y0333948D01*
X0080718Y0334079D01*
X0080809Y0334208D01*
X0080904Y0334335D01*
X0081001Y0334460D01*
X0081102Y0334582D01*
X0081206Y0334701D01*
X0081313Y0334818D01*
X0081423Y0334932D01*
X0081536Y0335043D01*
X0081651Y0335152D01*
X0081769Y0335257D01*
X0081890Y0335359D01*
X0082013Y0335459D01*
X0082139Y0335555D01*
X0082267Y0335648D01*
X0082397Y0335738D01*
X0082530Y0335824D01*
X0082665Y0335908D01*
X0082801Y0335987D01*
X0082940Y0336064D01*
X0083081Y0336136D01*
X0083223Y0336206D01*
X0083367Y0336271D01*
X0083513Y0336333D01*
X0083660Y0336391D01*
X0083809Y0336446D01*
X0083959Y0336497D01*
X0084110Y0336544D01*
X0084262Y0336587D01*
X0084415Y0336626D01*
X0084570Y0336662D01*
X0084725Y0336693D01*
X0084881Y0336721D01*
X0085037Y0336745D01*
X0085194Y0336765D01*
X0085352Y0336781D01*
X0085509Y0336793D01*
X0085668Y0336801D01*
X0085826Y0336805D01*
X0085984Y0336805D01*
X0086142Y0336801D01*
X0086301Y0336793D01*
X0086458Y0336781D01*
X0086616Y0336765D01*
X0086773Y0336745D01*
X0086929Y0336721D01*
X0087085Y0336693D01*
X0087240Y0336662D01*
X0087395Y0336626D01*
X0087548Y0336587D01*
X0087700Y0336544D01*
X0087851Y0336497D01*
X0088001Y0336446D01*
X0088150Y0336391D01*
X0088297Y0336333D01*
X0088443Y0336271D01*
X0088587Y0336206D01*
X0088729Y0336136D01*
X0088870Y0336064D01*
X0089009Y0335987D01*
X0089145Y0335908D01*
X0089280Y0335824D01*
X0089413Y0335738D01*
X0089543Y0335648D01*
X0089671Y0335555D01*
X0089797Y0335459D01*
X0089920Y0335359D01*
X0090041Y0335257D01*
X0090159Y0335152D01*
X0090274Y0335043D01*
X0090387Y0334932D01*
X0090497Y0334818D01*
X0090604Y0334701D01*
X0090708Y0334582D01*
X0090809Y0334460D01*
X0090906Y0334335D01*
X0091001Y0334208D01*
X0091092Y0334079D01*
X0091181Y0333948D01*
X0091265Y0333814D01*
X0091347Y0333678D01*
X0091425Y0333541D01*
X0091499Y0333401D01*
X0091570Y0333259D01*
X0091638Y0333116D01*
X0091702Y0332971D01*
X0091762Y0332825D01*
X0091818Y0332677D01*
X0091871Y0332528D01*
X0091920Y0332377D01*
X0091965Y0332225D01*
X0092006Y0332072D01*
X0092044Y0331919D01*
X0092077Y0331764D01*
X0092107Y0331608D01*
X0092133Y0331452D01*
X0092154Y0331295D01*
X0092172Y0331138D01*
X0092186Y0330980D01*
X0092196Y0330822D01*
X0092202Y0330664D01*
X0092204Y0330506D01*
X0092202Y0330348D01*
X0092196Y0330190D01*
X0092186Y0330032D01*
X0092172Y0329874D01*
X0092154Y0329717D01*
X0092133Y0329560D01*
X0092107Y0329404D01*
X0092077Y0329248D01*
X0092044Y0329093D01*
X0092006Y0328940D01*
X0091965Y0328787D01*
X0091920Y0328635D01*
X0091871Y0328484D01*
X0091818Y0328335D01*
X0091762Y0328187D01*
X0091702Y0328041D01*
X0091638Y0327896D01*
X0091570Y0327753D01*
X0091499Y0327611D01*
X0091425Y0327471D01*
X0091347Y0327334D01*
X0091265Y0327198D01*
X0091181Y0327064D01*
X0091092Y0326933D01*
X0091001Y0326804D01*
X0090906Y0326677D01*
X0090809Y0326552D01*
X0090708Y0326430D01*
X0090604Y0326311D01*
X0090497Y0326194D01*
X0090387Y0326080D01*
X0090274Y0325969D01*
X0090159Y0325860D01*
X0090041Y0325755D01*
X0089920Y0325653D01*
X0089797Y0325553D01*
X0089671Y0325457D01*
X0089543Y0325364D01*
X0089413Y0325274D01*
X0089280Y0325188D01*
X0089145Y0325104D01*
X0089009Y0325025D01*
X0088870Y0324948D01*
X0088729Y0324876D01*
X0088587Y0324806D01*
X0088443Y0324741D01*
X0088297Y0324679D01*
X0088150Y0324621D01*
X0088001Y0324566D01*
X0087851Y0324515D01*
X0087700Y0324468D01*
X0087548Y0324425D01*
X0087395Y0324386D01*
X0087240Y0324350D01*
X0087085Y0324319D01*
X0086929Y0324291D01*
X0086773Y0324267D01*
X0086616Y0324247D01*
X0086458Y0324231D01*
X0086301Y0324219D01*
X0086142Y0324211D01*
X0085984Y0324207D01*
X0085826Y0324207D01*
X0085668Y0324211D01*
X0085509Y0324219D01*
X0085352Y0324231D01*
X0085194Y0324247D01*
X0085037Y0324267D01*
X0084881Y0324291D01*
X0084725Y0324319D01*
X0084570Y0324350D01*
X0084415Y0324386D01*
X0084262Y0324425D01*
X0084110Y0324468D01*
X0083959Y0324515D01*
X0083809Y0324566D01*
X0083660Y0324621D01*
X0083513Y0324679D01*
X0083367Y0324741D01*
X0083223Y0324806D01*
X0083081Y0324876D01*
X0082940Y0324948D01*
X0082801Y0325025D01*
X0082665Y0325104D01*
X0082530Y0325188D01*
X0082397Y0325274D01*
X0082267Y0325364D01*
X0082139Y0325457D01*
X0082013Y0325553D01*
X0081890Y0325653D01*
X0081769Y0325755D01*
X0081651Y0325860D01*
X0081536Y0325969D01*
X0081423Y0326080D01*
X0081313Y0326194D01*
X0081206Y0326311D01*
X0081102Y0326430D01*
X0081001Y0326552D01*
X0080904Y0326677D01*
X0080809Y0326804D01*
X0080718Y0326933D01*
X0080629Y0327064D01*
X0080545Y0327198D01*
X0080463Y0327334D01*
X0080385Y0327471D01*
X0080311Y0327611D01*
X0080240Y0327753D01*
X0080172Y0327896D01*
X0080108Y0328041D01*
X0080048Y0328187D01*
X0079992Y0328335D01*
X0079939Y0328484D01*
X0079890Y0328635D01*
X0079845Y0328787D01*
X0079804Y0328940D01*
X0079766Y0329093D01*
X0079733Y0329248D01*
X0079703Y0329404D01*
X0079677Y0329560D01*
X0079656Y0329717D01*
X0079638Y0329874D01*
X0079624Y0330032D01*
X0079614Y0330190D01*
X0079608Y0330348D01*
X0079606Y0330506D01*
X0445747Y0330506D02*
X0445749Y0330664D01*
X0445755Y0330822D01*
X0445765Y0330980D01*
X0445779Y0331138D01*
X0445797Y0331295D01*
X0445818Y0331452D01*
X0445844Y0331608D01*
X0445874Y0331764D01*
X0445907Y0331919D01*
X0445945Y0332072D01*
X0445986Y0332225D01*
X0446031Y0332377D01*
X0446080Y0332528D01*
X0446133Y0332677D01*
X0446189Y0332825D01*
X0446249Y0332971D01*
X0446313Y0333116D01*
X0446381Y0333259D01*
X0446452Y0333401D01*
X0446526Y0333541D01*
X0446604Y0333678D01*
X0446686Y0333814D01*
X0446770Y0333948D01*
X0446859Y0334079D01*
X0446950Y0334208D01*
X0447045Y0334335D01*
X0447142Y0334460D01*
X0447243Y0334582D01*
X0447347Y0334701D01*
X0447454Y0334818D01*
X0447564Y0334932D01*
X0447677Y0335043D01*
X0447792Y0335152D01*
X0447910Y0335257D01*
X0448031Y0335359D01*
X0448154Y0335459D01*
X0448280Y0335555D01*
X0448408Y0335648D01*
X0448538Y0335738D01*
X0448671Y0335824D01*
X0448806Y0335908D01*
X0448942Y0335987D01*
X0449081Y0336064D01*
X0449222Y0336136D01*
X0449364Y0336206D01*
X0449508Y0336271D01*
X0449654Y0336333D01*
X0449801Y0336391D01*
X0449950Y0336446D01*
X0450100Y0336497D01*
X0450251Y0336544D01*
X0450403Y0336587D01*
X0450556Y0336626D01*
X0450711Y0336662D01*
X0450866Y0336693D01*
X0451022Y0336721D01*
X0451178Y0336745D01*
X0451335Y0336765D01*
X0451493Y0336781D01*
X0451650Y0336793D01*
X0451809Y0336801D01*
X0451967Y0336805D01*
X0452125Y0336805D01*
X0452283Y0336801D01*
X0452442Y0336793D01*
X0452599Y0336781D01*
X0452757Y0336765D01*
X0452914Y0336745D01*
X0453070Y0336721D01*
X0453226Y0336693D01*
X0453381Y0336662D01*
X0453536Y0336626D01*
X0453689Y0336587D01*
X0453841Y0336544D01*
X0453992Y0336497D01*
X0454142Y0336446D01*
X0454291Y0336391D01*
X0454438Y0336333D01*
X0454584Y0336271D01*
X0454728Y0336206D01*
X0454870Y0336136D01*
X0455011Y0336064D01*
X0455150Y0335987D01*
X0455286Y0335908D01*
X0455421Y0335824D01*
X0455554Y0335738D01*
X0455684Y0335648D01*
X0455812Y0335555D01*
X0455938Y0335459D01*
X0456061Y0335359D01*
X0456182Y0335257D01*
X0456300Y0335152D01*
X0456415Y0335043D01*
X0456528Y0334932D01*
X0456638Y0334818D01*
X0456745Y0334701D01*
X0456849Y0334582D01*
X0456950Y0334460D01*
X0457047Y0334335D01*
X0457142Y0334208D01*
X0457233Y0334079D01*
X0457322Y0333948D01*
X0457406Y0333814D01*
X0457488Y0333678D01*
X0457566Y0333541D01*
X0457640Y0333401D01*
X0457711Y0333259D01*
X0457779Y0333116D01*
X0457843Y0332971D01*
X0457903Y0332825D01*
X0457959Y0332677D01*
X0458012Y0332528D01*
X0458061Y0332377D01*
X0458106Y0332225D01*
X0458147Y0332072D01*
X0458185Y0331919D01*
X0458218Y0331764D01*
X0458248Y0331608D01*
X0458274Y0331452D01*
X0458295Y0331295D01*
X0458313Y0331138D01*
X0458327Y0330980D01*
X0458337Y0330822D01*
X0458343Y0330664D01*
X0458345Y0330506D01*
X0458343Y0330348D01*
X0458337Y0330190D01*
X0458327Y0330032D01*
X0458313Y0329874D01*
X0458295Y0329717D01*
X0458274Y0329560D01*
X0458248Y0329404D01*
X0458218Y0329248D01*
X0458185Y0329093D01*
X0458147Y0328940D01*
X0458106Y0328787D01*
X0458061Y0328635D01*
X0458012Y0328484D01*
X0457959Y0328335D01*
X0457903Y0328187D01*
X0457843Y0328041D01*
X0457779Y0327896D01*
X0457711Y0327753D01*
X0457640Y0327611D01*
X0457566Y0327471D01*
X0457488Y0327334D01*
X0457406Y0327198D01*
X0457322Y0327064D01*
X0457233Y0326933D01*
X0457142Y0326804D01*
X0457047Y0326677D01*
X0456950Y0326552D01*
X0456849Y0326430D01*
X0456745Y0326311D01*
X0456638Y0326194D01*
X0456528Y0326080D01*
X0456415Y0325969D01*
X0456300Y0325860D01*
X0456182Y0325755D01*
X0456061Y0325653D01*
X0455938Y0325553D01*
X0455812Y0325457D01*
X0455684Y0325364D01*
X0455554Y0325274D01*
X0455421Y0325188D01*
X0455286Y0325104D01*
X0455150Y0325025D01*
X0455011Y0324948D01*
X0454870Y0324876D01*
X0454728Y0324806D01*
X0454584Y0324741D01*
X0454438Y0324679D01*
X0454291Y0324621D01*
X0454142Y0324566D01*
X0453992Y0324515D01*
X0453841Y0324468D01*
X0453689Y0324425D01*
X0453536Y0324386D01*
X0453381Y0324350D01*
X0453226Y0324319D01*
X0453070Y0324291D01*
X0452914Y0324267D01*
X0452757Y0324247D01*
X0452599Y0324231D01*
X0452442Y0324219D01*
X0452283Y0324211D01*
X0452125Y0324207D01*
X0451967Y0324207D01*
X0451809Y0324211D01*
X0451650Y0324219D01*
X0451493Y0324231D01*
X0451335Y0324247D01*
X0451178Y0324267D01*
X0451022Y0324291D01*
X0450866Y0324319D01*
X0450711Y0324350D01*
X0450556Y0324386D01*
X0450403Y0324425D01*
X0450251Y0324468D01*
X0450100Y0324515D01*
X0449950Y0324566D01*
X0449801Y0324621D01*
X0449654Y0324679D01*
X0449508Y0324741D01*
X0449364Y0324806D01*
X0449222Y0324876D01*
X0449081Y0324948D01*
X0448942Y0325025D01*
X0448806Y0325104D01*
X0448671Y0325188D01*
X0448538Y0325274D01*
X0448408Y0325364D01*
X0448280Y0325457D01*
X0448154Y0325553D01*
X0448031Y0325653D01*
X0447910Y0325755D01*
X0447792Y0325860D01*
X0447677Y0325969D01*
X0447564Y0326080D01*
X0447454Y0326194D01*
X0447347Y0326311D01*
X0447243Y0326430D01*
X0447142Y0326552D01*
X0447045Y0326677D01*
X0446950Y0326804D01*
X0446859Y0326933D01*
X0446770Y0327064D01*
X0446686Y0327198D01*
X0446604Y0327334D01*
X0446526Y0327471D01*
X0446452Y0327611D01*
X0446381Y0327753D01*
X0446313Y0327896D01*
X0446249Y0328041D01*
X0446189Y0328187D01*
X0446133Y0328335D01*
X0446080Y0328484D01*
X0446031Y0328635D01*
X0445986Y0328787D01*
X0445945Y0328940D01*
X0445907Y0329093D01*
X0445874Y0329248D01*
X0445844Y0329404D01*
X0445818Y0329560D01*
X0445797Y0329717D01*
X0445779Y0329874D01*
X0445765Y0330032D01*
X0445755Y0330190D01*
X0445749Y0330348D01*
X0445747Y0330506D01*
X0445747Y0141530D02*
X0445749Y0141688D01*
X0445755Y0141846D01*
X0445765Y0142004D01*
X0445779Y0142162D01*
X0445797Y0142319D01*
X0445818Y0142476D01*
X0445844Y0142632D01*
X0445874Y0142788D01*
X0445907Y0142943D01*
X0445945Y0143096D01*
X0445986Y0143249D01*
X0446031Y0143401D01*
X0446080Y0143552D01*
X0446133Y0143701D01*
X0446189Y0143849D01*
X0446249Y0143995D01*
X0446313Y0144140D01*
X0446381Y0144283D01*
X0446452Y0144425D01*
X0446526Y0144565D01*
X0446604Y0144702D01*
X0446686Y0144838D01*
X0446770Y0144972D01*
X0446859Y0145103D01*
X0446950Y0145232D01*
X0447045Y0145359D01*
X0447142Y0145484D01*
X0447243Y0145606D01*
X0447347Y0145725D01*
X0447454Y0145842D01*
X0447564Y0145956D01*
X0447677Y0146067D01*
X0447792Y0146176D01*
X0447910Y0146281D01*
X0448031Y0146383D01*
X0448154Y0146483D01*
X0448280Y0146579D01*
X0448408Y0146672D01*
X0448538Y0146762D01*
X0448671Y0146848D01*
X0448806Y0146932D01*
X0448942Y0147011D01*
X0449081Y0147088D01*
X0449222Y0147160D01*
X0449364Y0147230D01*
X0449508Y0147295D01*
X0449654Y0147357D01*
X0449801Y0147415D01*
X0449950Y0147470D01*
X0450100Y0147521D01*
X0450251Y0147568D01*
X0450403Y0147611D01*
X0450556Y0147650D01*
X0450711Y0147686D01*
X0450866Y0147717D01*
X0451022Y0147745D01*
X0451178Y0147769D01*
X0451335Y0147789D01*
X0451493Y0147805D01*
X0451650Y0147817D01*
X0451809Y0147825D01*
X0451967Y0147829D01*
X0452125Y0147829D01*
X0452283Y0147825D01*
X0452442Y0147817D01*
X0452599Y0147805D01*
X0452757Y0147789D01*
X0452914Y0147769D01*
X0453070Y0147745D01*
X0453226Y0147717D01*
X0453381Y0147686D01*
X0453536Y0147650D01*
X0453689Y0147611D01*
X0453841Y0147568D01*
X0453992Y0147521D01*
X0454142Y0147470D01*
X0454291Y0147415D01*
X0454438Y0147357D01*
X0454584Y0147295D01*
X0454728Y0147230D01*
X0454870Y0147160D01*
X0455011Y0147088D01*
X0455150Y0147011D01*
X0455286Y0146932D01*
X0455421Y0146848D01*
X0455554Y0146762D01*
X0455684Y0146672D01*
X0455812Y0146579D01*
X0455938Y0146483D01*
X0456061Y0146383D01*
X0456182Y0146281D01*
X0456300Y0146176D01*
X0456415Y0146067D01*
X0456528Y0145956D01*
X0456638Y0145842D01*
X0456745Y0145725D01*
X0456849Y0145606D01*
X0456950Y0145484D01*
X0457047Y0145359D01*
X0457142Y0145232D01*
X0457233Y0145103D01*
X0457322Y0144972D01*
X0457406Y0144838D01*
X0457488Y0144702D01*
X0457566Y0144565D01*
X0457640Y0144425D01*
X0457711Y0144283D01*
X0457779Y0144140D01*
X0457843Y0143995D01*
X0457903Y0143849D01*
X0457959Y0143701D01*
X0458012Y0143552D01*
X0458061Y0143401D01*
X0458106Y0143249D01*
X0458147Y0143096D01*
X0458185Y0142943D01*
X0458218Y0142788D01*
X0458248Y0142632D01*
X0458274Y0142476D01*
X0458295Y0142319D01*
X0458313Y0142162D01*
X0458327Y0142004D01*
X0458337Y0141846D01*
X0458343Y0141688D01*
X0458345Y0141530D01*
X0458343Y0141372D01*
X0458337Y0141214D01*
X0458327Y0141056D01*
X0458313Y0140898D01*
X0458295Y0140741D01*
X0458274Y0140584D01*
X0458248Y0140428D01*
X0458218Y0140272D01*
X0458185Y0140117D01*
X0458147Y0139964D01*
X0458106Y0139811D01*
X0458061Y0139659D01*
X0458012Y0139508D01*
X0457959Y0139359D01*
X0457903Y0139211D01*
X0457843Y0139065D01*
X0457779Y0138920D01*
X0457711Y0138777D01*
X0457640Y0138635D01*
X0457566Y0138495D01*
X0457488Y0138358D01*
X0457406Y0138222D01*
X0457322Y0138088D01*
X0457233Y0137957D01*
X0457142Y0137828D01*
X0457047Y0137701D01*
X0456950Y0137576D01*
X0456849Y0137454D01*
X0456745Y0137335D01*
X0456638Y0137218D01*
X0456528Y0137104D01*
X0456415Y0136993D01*
X0456300Y0136884D01*
X0456182Y0136779D01*
X0456061Y0136677D01*
X0455938Y0136577D01*
X0455812Y0136481D01*
X0455684Y0136388D01*
X0455554Y0136298D01*
X0455421Y0136212D01*
X0455286Y0136128D01*
X0455150Y0136049D01*
X0455011Y0135972D01*
X0454870Y0135900D01*
X0454728Y0135830D01*
X0454584Y0135765D01*
X0454438Y0135703D01*
X0454291Y0135645D01*
X0454142Y0135590D01*
X0453992Y0135539D01*
X0453841Y0135492D01*
X0453689Y0135449D01*
X0453536Y0135410D01*
X0453381Y0135374D01*
X0453226Y0135343D01*
X0453070Y0135315D01*
X0452914Y0135291D01*
X0452757Y0135271D01*
X0452599Y0135255D01*
X0452442Y0135243D01*
X0452283Y0135235D01*
X0452125Y0135231D01*
X0451967Y0135231D01*
X0451809Y0135235D01*
X0451650Y0135243D01*
X0451493Y0135255D01*
X0451335Y0135271D01*
X0451178Y0135291D01*
X0451022Y0135315D01*
X0450866Y0135343D01*
X0450711Y0135374D01*
X0450556Y0135410D01*
X0450403Y0135449D01*
X0450251Y0135492D01*
X0450100Y0135539D01*
X0449950Y0135590D01*
X0449801Y0135645D01*
X0449654Y0135703D01*
X0449508Y0135765D01*
X0449364Y0135830D01*
X0449222Y0135900D01*
X0449081Y0135972D01*
X0448942Y0136049D01*
X0448806Y0136128D01*
X0448671Y0136212D01*
X0448538Y0136298D01*
X0448408Y0136388D01*
X0448280Y0136481D01*
X0448154Y0136577D01*
X0448031Y0136677D01*
X0447910Y0136779D01*
X0447792Y0136884D01*
X0447677Y0136993D01*
X0447564Y0137104D01*
X0447454Y0137218D01*
X0447347Y0137335D01*
X0447243Y0137454D01*
X0447142Y0137576D01*
X0447045Y0137701D01*
X0446950Y0137828D01*
X0446859Y0137957D01*
X0446770Y0138088D01*
X0446686Y0138222D01*
X0446604Y0138358D01*
X0446526Y0138495D01*
X0446452Y0138635D01*
X0446381Y0138777D01*
X0446313Y0138920D01*
X0446249Y0139065D01*
X0446189Y0139211D01*
X0446133Y0139359D01*
X0446080Y0139508D01*
X0446031Y0139659D01*
X0445986Y0139811D01*
X0445945Y0139964D01*
X0445907Y0140117D01*
X0445874Y0140272D01*
X0445844Y0140428D01*
X0445818Y0140584D01*
X0445797Y0140741D01*
X0445779Y0140898D01*
X0445765Y0141056D01*
X0445755Y0141214D01*
X0445749Y0141372D01*
X0445747Y0141530D01*
D11*
X0450077Y0174994D02*
X0450079Y0175147D01*
X0450085Y0175301D01*
X0450095Y0175454D01*
X0450109Y0175606D01*
X0450127Y0175759D01*
X0450149Y0175910D01*
X0450174Y0176061D01*
X0450204Y0176212D01*
X0450238Y0176362D01*
X0450275Y0176510D01*
X0450316Y0176658D01*
X0450361Y0176804D01*
X0450410Y0176950D01*
X0450463Y0177094D01*
X0450519Y0177236D01*
X0450579Y0177377D01*
X0450643Y0177517D01*
X0450710Y0177655D01*
X0450781Y0177791D01*
X0450856Y0177925D01*
X0450933Y0178057D01*
X0451015Y0178187D01*
X0451099Y0178315D01*
X0451187Y0178441D01*
X0451278Y0178564D01*
X0451372Y0178685D01*
X0451470Y0178803D01*
X0451570Y0178919D01*
X0451674Y0179032D01*
X0451780Y0179143D01*
X0451889Y0179251D01*
X0452001Y0179356D01*
X0452115Y0179457D01*
X0452233Y0179556D01*
X0452352Y0179652D01*
X0452474Y0179745D01*
X0452599Y0179834D01*
X0452726Y0179921D01*
X0452855Y0180003D01*
X0452986Y0180083D01*
X0453119Y0180159D01*
X0453254Y0180232D01*
X0453391Y0180301D01*
X0453530Y0180366D01*
X0453670Y0180428D01*
X0453812Y0180486D01*
X0453955Y0180541D01*
X0454100Y0180592D01*
X0454246Y0180639D01*
X0454393Y0180682D01*
X0454541Y0180721D01*
X0454690Y0180757D01*
X0454840Y0180788D01*
X0454991Y0180816D01*
X0455142Y0180840D01*
X0455295Y0180860D01*
X0455447Y0180876D01*
X0455600Y0180888D01*
X0455753Y0180896D01*
X0455906Y0180900D01*
X0456060Y0180900D01*
X0456213Y0180896D01*
X0456366Y0180888D01*
X0456519Y0180876D01*
X0456671Y0180860D01*
X0456824Y0180840D01*
X0456975Y0180816D01*
X0457126Y0180788D01*
X0457276Y0180757D01*
X0457425Y0180721D01*
X0457573Y0180682D01*
X0457720Y0180639D01*
X0457866Y0180592D01*
X0458011Y0180541D01*
X0458154Y0180486D01*
X0458296Y0180428D01*
X0458436Y0180366D01*
X0458575Y0180301D01*
X0458712Y0180232D01*
X0458847Y0180159D01*
X0458980Y0180083D01*
X0459111Y0180003D01*
X0459240Y0179921D01*
X0459367Y0179834D01*
X0459492Y0179745D01*
X0459614Y0179652D01*
X0459733Y0179556D01*
X0459851Y0179457D01*
X0459965Y0179356D01*
X0460077Y0179251D01*
X0460186Y0179143D01*
X0460292Y0179032D01*
X0460396Y0178919D01*
X0460496Y0178803D01*
X0460594Y0178685D01*
X0460688Y0178564D01*
X0460779Y0178441D01*
X0460867Y0178315D01*
X0460951Y0178187D01*
X0461033Y0178057D01*
X0461110Y0177925D01*
X0461185Y0177791D01*
X0461256Y0177655D01*
X0461323Y0177517D01*
X0461387Y0177377D01*
X0461447Y0177236D01*
X0461503Y0177094D01*
X0461556Y0176950D01*
X0461605Y0176804D01*
X0461650Y0176658D01*
X0461691Y0176510D01*
X0461728Y0176362D01*
X0461762Y0176212D01*
X0461792Y0176061D01*
X0461817Y0175910D01*
X0461839Y0175759D01*
X0461857Y0175606D01*
X0461871Y0175454D01*
X0461881Y0175301D01*
X0461887Y0175147D01*
X0461889Y0174994D01*
X0461887Y0174841D01*
X0461881Y0174687D01*
X0461871Y0174534D01*
X0461857Y0174382D01*
X0461839Y0174229D01*
X0461817Y0174078D01*
X0461792Y0173927D01*
X0461762Y0173776D01*
X0461728Y0173626D01*
X0461691Y0173478D01*
X0461650Y0173330D01*
X0461605Y0173184D01*
X0461556Y0173038D01*
X0461503Y0172894D01*
X0461447Y0172752D01*
X0461387Y0172611D01*
X0461323Y0172471D01*
X0461256Y0172333D01*
X0461185Y0172197D01*
X0461110Y0172063D01*
X0461033Y0171931D01*
X0460951Y0171801D01*
X0460867Y0171673D01*
X0460779Y0171547D01*
X0460688Y0171424D01*
X0460594Y0171303D01*
X0460496Y0171185D01*
X0460396Y0171069D01*
X0460292Y0170956D01*
X0460186Y0170845D01*
X0460077Y0170737D01*
X0459965Y0170632D01*
X0459851Y0170531D01*
X0459733Y0170432D01*
X0459614Y0170336D01*
X0459492Y0170243D01*
X0459367Y0170154D01*
X0459240Y0170067D01*
X0459111Y0169985D01*
X0458980Y0169905D01*
X0458847Y0169829D01*
X0458712Y0169756D01*
X0458575Y0169687D01*
X0458436Y0169622D01*
X0458296Y0169560D01*
X0458154Y0169502D01*
X0458011Y0169447D01*
X0457866Y0169396D01*
X0457720Y0169349D01*
X0457573Y0169306D01*
X0457425Y0169267D01*
X0457276Y0169231D01*
X0457126Y0169200D01*
X0456975Y0169172D01*
X0456824Y0169148D01*
X0456671Y0169128D01*
X0456519Y0169112D01*
X0456366Y0169100D01*
X0456213Y0169092D01*
X0456060Y0169088D01*
X0455906Y0169088D01*
X0455753Y0169092D01*
X0455600Y0169100D01*
X0455447Y0169112D01*
X0455295Y0169128D01*
X0455142Y0169148D01*
X0454991Y0169172D01*
X0454840Y0169200D01*
X0454690Y0169231D01*
X0454541Y0169267D01*
X0454393Y0169306D01*
X0454246Y0169349D01*
X0454100Y0169396D01*
X0453955Y0169447D01*
X0453812Y0169502D01*
X0453670Y0169560D01*
X0453530Y0169622D01*
X0453391Y0169687D01*
X0453254Y0169756D01*
X0453119Y0169829D01*
X0452986Y0169905D01*
X0452855Y0169985D01*
X0452726Y0170067D01*
X0452599Y0170154D01*
X0452474Y0170243D01*
X0452352Y0170336D01*
X0452233Y0170432D01*
X0452115Y0170531D01*
X0452001Y0170632D01*
X0451889Y0170737D01*
X0451780Y0170845D01*
X0451674Y0170956D01*
X0451570Y0171069D01*
X0451470Y0171185D01*
X0451372Y0171303D01*
X0451278Y0171424D01*
X0451187Y0171547D01*
X0451099Y0171673D01*
X0451015Y0171801D01*
X0450933Y0171931D01*
X0450856Y0172063D01*
X0450781Y0172197D01*
X0450710Y0172333D01*
X0450643Y0172471D01*
X0450579Y0172611D01*
X0450519Y0172752D01*
X0450463Y0172894D01*
X0450410Y0173038D01*
X0450361Y0173184D01*
X0450316Y0173330D01*
X0450275Y0173478D01*
X0450238Y0173626D01*
X0450204Y0173776D01*
X0450174Y0173927D01*
X0450149Y0174078D01*
X0450127Y0174229D01*
X0450109Y0174382D01*
X0450095Y0174534D01*
X0450085Y0174687D01*
X0450079Y0174841D01*
X0450077Y0174994D01*
X0450077Y0226175D02*
X0450079Y0226328D01*
X0450085Y0226482D01*
X0450095Y0226635D01*
X0450109Y0226787D01*
X0450127Y0226940D01*
X0450149Y0227091D01*
X0450174Y0227242D01*
X0450204Y0227393D01*
X0450238Y0227543D01*
X0450275Y0227691D01*
X0450316Y0227839D01*
X0450361Y0227985D01*
X0450410Y0228131D01*
X0450463Y0228275D01*
X0450519Y0228417D01*
X0450579Y0228558D01*
X0450643Y0228698D01*
X0450710Y0228836D01*
X0450781Y0228972D01*
X0450856Y0229106D01*
X0450933Y0229238D01*
X0451015Y0229368D01*
X0451099Y0229496D01*
X0451187Y0229622D01*
X0451278Y0229745D01*
X0451372Y0229866D01*
X0451470Y0229984D01*
X0451570Y0230100D01*
X0451674Y0230213D01*
X0451780Y0230324D01*
X0451889Y0230432D01*
X0452001Y0230537D01*
X0452115Y0230638D01*
X0452233Y0230737D01*
X0452352Y0230833D01*
X0452474Y0230926D01*
X0452599Y0231015D01*
X0452726Y0231102D01*
X0452855Y0231184D01*
X0452986Y0231264D01*
X0453119Y0231340D01*
X0453254Y0231413D01*
X0453391Y0231482D01*
X0453530Y0231547D01*
X0453670Y0231609D01*
X0453812Y0231667D01*
X0453955Y0231722D01*
X0454100Y0231773D01*
X0454246Y0231820D01*
X0454393Y0231863D01*
X0454541Y0231902D01*
X0454690Y0231938D01*
X0454840Y0231969D01*
X0454991Y0231997D01*
X0455142Y0232021D01*
X0455295Y0232041D01*
X0455447Y0232057D01*
X0455600Y0232069D01*
X0455753Y0232077D01*
X0455906Y0232081D01*
X0456060Y0232081D01*
X0456213Y0232077D01*
X0456366Y0232069D01*
X0456519Y0232057D01*
X0456671Y0232041D01*
X0456824Y0232021D01*
X0456975Y0231997D01*
X0457126Y0231969D01*
X0457276Y0231938D01*
X0457425Y0231902D01*
X0457573Y0231863D01*
X0457720Y0231820D01*
X0457866Y0231773D01*
X0458011Y0231722D01*
X0458154Y0231667D01*
X0458296Y0231609D01*
X0458436Y0231547D01*
X0458575Y0231482D01*
X0458712Y0231413D01*
X0458847Y0231340D01*
X0458980Y0231264D01*
X0459111Y0231184D01*
X0459240Y0231102D01*
X0459367Y0231015D01*
X0459492Y0230926D01*
X0459614Y0230833D01*
X0459733Y0230737D01*
X0459851Y0230638D01*
X0459965Y0230537D01*
X0460077Y0230432D01*
X0460186Y0230324D01*
X0460292Y0230213D01*
X0460396Y0230100D01*
X0460496Y0229984D01*
X0460594Y0229866D01*
X0460688Y0229745D01*
X0460779Y0229622D01*
X0460867Y0229496D01*
X0460951Y0229368D01*
X0461033Y0229238D01*
X0461110Y0229106D01*
X0461185Y0228972D01*
X0461256Y0228836D01*
X0461323Y0228698D01*
X0461387Y0228558D01*
X0461447Y0228417D01*
X0461503Y0228275D01*
X0461556Y0228131D01*
X0461605Y0227985D01*
X0461650Y0227839D01*
X0461691Y0227691D01*
X0461728Y0227543D01*
X0461762Y0227393D01*
X0461792Y0227242D01*
X0461817Y0227091D01*
X0461839Y0226940D01*
X0461857Y0226787D01*
X0461871Y0226635D01*
X0461881Y0226482D01*
X0461887Y0226328D01*
X0461889Y0226175D01*
X0461887Y0226022D01*
X0461881Y0225868D01*
X0461871Y0225715D01*
X0461857Y0225563D01*
X0461839Y0225410D01*
X0461817Y0225259D01*
X0461792Y0225108D01*
X0461762Y0224957D01*
X0461728Y0224807D01*
X0461691Y0224659D01*
X0461650Y0224511D01*
X0461605Y0224365D01*
X0461556Y0224219D01*
X0461503Y0224075D01*
X0461447Y0223933D01*
X0461387Y0223792D01*
X0461323Y0223652D01*
X0461256Y0223514D01*
X0461185Y0223378D01*
X0461110Y0223244D01*
X0461033Y0223112D01*
X0460951Y0222982D01*
X0460867Y0222854D01*
X0460779Y0222728D01*
X0460688Y0222605D01*
X0460594Y0222484D01*
X0460496Y0222366D01*
X0460396Y0222250D01*
X0460292Y0222137D01*
X0460186Y0222026D01*
X0460077Y0221918D01*
X0459965Y0221813D01*
X0459851Y0221712D01*
X0459733Y0221613D01*
X0459614Y0221517D01*
X0459492Y0221424D01*
X0459367Y0221335D01*
X0459240Y0221248D01*
X0459111Y0221166D01*
X0458980Y0221086D01*
X0458847Y0221010D01*
X0458712Y0220937D01*
X0458575Y0220868D01*
X0458436Y0220803D01*
X0458296Y0220741D01*
X0458154Y0220683D01*
X0458011Y0220628D01*
X0457866Y0220577D01*
X0457720Y0220530D01*
X0457573Y0220487D01*
X0457425Y0220448D01*
X0457276Y0220412D01*
X0457126Y0220381D01*
X0456975Y0220353D01*
X0456824Y0220329D01*
X0456671Y0220309D01*
X0456519Y0220293D01*
X0456366Y0220281D01*
X0456213Y0220273D01*
X0456060Y0220269D01*
X0455906Y0220269D01*
X0455753Y0220273D01*
X0455600Y0220281D01*
X0455447Y0220293D01*
X0455295Y0220309D01*
X0455142Y0220329D01*
X0454991Y0220353D01*
X0454840Y0220381D01*
X0454690Y0220412D01*
X0454541Y0220448D01*
X0454393Y0220487D01*
X0454246Y0220530D01*
X0454100Y0220577D01*
X0453955Y0220628D01*
X0453812Y0220683D01*
X0453670Y0220741D01*
X0453530Y0220803D01*
X0453391Y0220868D01*
X0453254Y0220937D01*
X0453119Y0221010D01*
X0452986Y0221086D01*
X0452855Y0221166D01*
X0452726Y0221248D01*
X0452599Y0221335D01*
X0452474Y0221424D01*
X0452352Y0221517D01*
X0452233Y0221613D01*
X0452115Y0221712D01*
X0452001Y0221813D01*
X0451889Y0221918D01*
X0451780Y0222026D01*
X0451674Y0222137D01*
X0451570Y0222250D01*
X0451470Y0222366D01*
X0451372Y0222484D01*
X0451278Y0222605D01*
X0451187Y0222728D01*
X0451099Y0222854D01*
X0451015Y0222982D01*
X0450933Y0223112D01*
X0450856Y0223244D01*
X0450781Y0223378D01*
X0450710Y0223514D01*
X0450643Y0223652D01*
X0450579Y0223792D01*
X0450519Y0223933D01*
X0450463Y0224075D01*
X0450410Y0224219D01*
X0450361Y0224365D01*
X0450316Y0224511D01*
X0450275Y0224659D01*
X0450238Y0224807D01*
X0450204Y0224957D01*
X0450174Y0225108D01*
X0450149Y0225259D01*
X0450127Y0225410D01*
X0450109Y0225563D01*
X0450095Y0225715D01*
X0450085Y0225868D01*
X0450079Y0226022D01*
X0450077Y0226175D01*
D12*
X0339938Y0199615D03*
X0339938Y0192135D03*
X0125875Y0232447D03*
X0125875Y0239928D03*
D13*
X0126904Y0198687D03*
X0126904Y0193062D03*
X0126904Y0187437D03*
X0133596Y0187437D03*
X0133596Y0193062D03*
X0133596Y0198687D03*
X0133596Y0181812D03*
X0126904Y0181812D03*
X0152529Y0179625D03*
X0152529Y0173375D03*
X0159221Y0173375D03*
X0159221Y0179625D03*
X0159221Y0185875D03*
X0152529Y0185875D03*
X0152529Y0192125D03*
X0152529Y0198375D03*
X0159221Y0198375D03*
X0159221Y0192125D03*
X0197529Y0184625D03*
X0204221Y0184625D03*
X0204221Y0177125D03*
X0197529Y0177125D03*
X0227841Y0157438D03*
X0234534Y0157438D03*
X0161338Y0160619D03*
X0154645Y0160619D03*
X0085471Y0163375D03*
X0078779Y0163375D03*
X0078779Y0170875D03*
X0085471Y0170875D03*
X0085471Y0178375D03*
X0078779Y0178375D03*
X0078779Y0185875D03*
X0085471Y0185875D03*
X0291904Y0249000D03*
X0298596Y0249000D03*
X0298596Y0257750D03*
X0291904Y0257750D03*
X0343779Y0235250D03*
X0350471Y0235250D03*
X0350471Y0229000D03*
X0350471Y0222750D03*
X0343779Y0222750D03*
X0343779Y0229000D03*
X0341279Y0172750D03*
X0347971Y0172750D03*
X0347971Y0165250D03*
X0341279Y0165250D03*
X0356279Y0165250D03*
X0362971Y0165250D03*
X0362971Y0172750D03*
X0356279Y0172750D03*
X0325471Y0140250D03*
X0318779Y0140250D03*
X0318779Y0134000D03*
X0325471Y0134000D03*
X0431279Y0170250D03*
X0437971Y0170250D03*
X0445654Y0270250D03*
X0452346Y0270250D03*
X0375471Y0290250D03*
X0368779Y0290250D03*
D14*
X0134359Y0220516D03*
D15*
X0137392Y0220516D03*
D16*
X0134359Y0217482D03*
D17*
X0137391Y0217484D03*
D18*
X0137335Y0214811D02*
X0137335Y0211615D01*
X0136383Y0211615D01*
X0136383Y0214811D01*
X0137335Y0214811D01*
X0137335Y0211686D02*
X0136383Y0211686D01*
X0136383Y0211757D02*
X0137335Y0211757D01*
X0137335Y0211828D02*
X0136383Y0211828D01*
X0136383Y0211899D02*
X0137335Y0211899D01*
X0137335Y0211970D02*
X0136383Y0211970D01*
X0136383Y0212041D02*
X0137335Y0212041D01*
X0137335Y0212112D02*
X0136383Y0212112D01*
X0136383Y0212183D02*
X0137335Y0212183D01*
X0137335Y0212254D02*
X0136383Y0212254D01*
X0136383Y0212325D02*
X0137335Y0212325D01*
X0137335Y0212396D02*
X0136383Y0212396D01*
X0136383Y0212467D02*
X0137335Y0212467D01*
X0137335Y0212538D02*
X0136383Y0212538D01*
X0136383Y0212609D02*
X0137335Y0212609D01*
X0137335Y0212680D02*
X0136383Y0212680D01*
X0136383Y0212751D02*
X0137335Y0212751D01*
X0137335Y0212822D02*
X0136383Y0212822D01*
X0136383Y0212893D02*
X0137335Y0212893D01*
X0137335Y0212964D02*
X0136383Y0212964D01*
X0136383Y0213035D02*
X0137335Y0213035D01*
X0137335Y0213106D02*
X0136383Y0213106D01*
X0136383Y0213177D02*
X0137335Y0213177D01*
X0137335Y0213248D02*
X0136383Y0213248D01*
X0136383Y0213319D02*
X0137335Y0213319D01*
X0137335Y0213390D02*
X0136383Y0213390D01*
X0136383Y0213461D02*
X0137335Y0213461D01*
X0137335Y0213532D02*
X0136383Y0213532D01*
X0136383Y0213603D02*
X0137335Y0213603D01*
X0137335Y0213674D02*
X0136383Y0213674D01*
X0136383Y0213745D02*
X0137335Y0213745D01*
X0137335Y0213816D02*
X0136383Y0213816D01*
X0136383Y0213887D02*
X0137335Y0213887D01*
X0137335Y0213958D02*
X0136383Y0213958D01*
X0136383Y0214029D02*
X0137335Y0214029D01*
X0137335Y0214100D02*
X0136383Y0214100D01*
X0136383Y0214171D02*
X0137335Y0214171D01*
X0137335Y0214242D02*
X0136383Y0214242D01*
X0136383Y0214313D02*
X0137335Y0214313D01*
X0137335Y0214384D02*
X0136383Y0214384D01*
X0136383Y0214455D02*
X0137335Y0214455D01*
X0137335Y0214526D02*
X0136383Y0214526D01*
X0136383Y0214597D02*
X0137335Y0214597D01*
X0137335Y0214668D02*
X0136383Y0214668D01*
X0136383Y0214739D02*
X0137335Y0214739D01*
X0137335Y0214810D02*
X0136383Y0214810D01*
X0135367Y0214811D02*
X0135367Y0211615D01*
X0134415Y0211615D01*
X0134415Y0214811D01*
X0135367Y0214811D01*
X0135367Y0211686D02*
X0134415Y0211686D01*
X0134415Y0211757D02*
X0135367Y0211757D01*
X0135367Y0211828D02*
X0134415Y0211828D01*
X0134415Y0211899D02*
X0135367Y0211899D01*
X0135367Y0211970D02*
X0134415Y0211970D01*
X0134415Y0212041D02*
X0135367Y0212041D01*
X0135367Y0212112D02*
X0134415Y0212112D01*
X0134415Y0212183D02*
X0135367Y0212183D01*
X0135367Y0212254D02*
X0134415Y0212254D01*
X0134415Y0212325D02*
X0135367Y0212325D01*
X0135367Y0212396D02*
X0134415Y0212396D01*
X0134415Y0212467D02*
X0135367Y0212467D01*
X0135367Y0212538D02*
X0134415Y0212538D01*
X0134415Y0212609D02*
X0135367Y0212609D01*
X0135367Y0212680D02*
X0134415Y0212680D01*
X0134415Y0212751D02*
X0135367Y0212751D01*
X0135367Y0212822D02*
X0134415Y0212822D01*
X0134415Y0212893D02*
X0135367Y0212893D01*
X0135367Y0212964D02*
X0134415Y0212964D01*
X0134415Y0213035D02*
X0135367Y0213035D01*
X0135367Y0213106D02*
X0134415Y0213106D01*
X0134415Y0213177D02*
X0135367Y0213177D01*
X0135367Y0213248D02*
X0134415Y0213248D01*
X0134415Y0213319D02*
X0135367Y0213319D01*
X0135367Y0213390D02*
X0134415Y0213390D01*
X0134415Y0213461D02*
X0135367Y0213461D01*
X0135367Y0213532D02*
X0134415Y0213532D01*
X0134415Y0213603D02*
X0135367Y0213603D01*
X0135367Y0213674D02*
X0134415Y0213674D01*
X0134415Y0213745D02*
X0135367Y0213745D01*
X0135367Y0213816D02*
X0134415Y0213816D01*
X0134415Y0213887D02*
X0135367Y0213887D01*
X0135367Y0213958D02*
X0134415Y0213958D01*
X0134415Y0214029D02*
X0135367Y0214029D01*
X0135367Y0214100D02*
X0134415Y0214100D01*
X0134415Y0214171D02*
X0135367Y0214171D01*
X0135367Y0214242D02*
X0134415Y0214242D01*
X0134415Y0214313D02*
X0135367Y0214313D01*
X0135367Y0214384D02*
X0134415Y0214384D01*
X0134415Y0214455D02*
X0135367Y0214455D01*
X0135367Y0214526D02*
X0134415Y0214526D01*
X0134415Y0214597D02*
X0135367Y0214597D01*
X0135367Y0214668D02*
X0134415Y0214668D01*
X0134415Y0214739D02*
X0135367Y0214739D01*
X0135367Y0214810D02*
X0134415Y0214810D01*
X0133398Y0214811D02*
X0133398Y0211615D01*
X0132446Y0211615D01*
X0132446Y0214811D01*
X0133398Y0214811D01*
X0133398Y0211686D02*
X0132446Y0211686D01*
X0132446Y0211757D02*
X0133398Y0211757D01*
X0133398Y0211828D02*
X0132446Y0211828D01*
X0132446Y0211899D02*
X0133398Y0211899D01*
X0133398Y0211970D02*
X0132446Y0211970D01*
X0132446Y0212041D02*
X0133398Y0212041D01*
X0133398Y0212112D02*
X0132446Y0212112D01*
X0132446Y0212183D02*
X0133398Y0212183D01*
X0133398Y0212254D02*
X0132446Y0212254D01*
X0132446Y0212325D02*
X0133398Y0212325D01*
X0133398Y0212396D02*
X0132446Y0212396D01*
X0132446Y0212467D02*
X0133398Y0212467D01*
X0133398Y0212538D02*
X0132446Y0212538D01*
X0132446Y0212609D02*
X0133398Y0212609D01*
X0133398Y0212680D02*
X0132446Y0212680D01*
X0132446Y0212751D02*
X0133398Y0212751D01*
X0133398Y0212822D02*
X0132446Y0212822D01*
X0132446Y0212893D02*
X0133398Y0212893D01*
X0133398Y0212964D02*
X0132446Y0212964D01*
X0132446Y0213035D02*
X0133398Y0213035D01*
X0133398Y0213106D02*
X0132446Y0213106D01*
X0132446Y0213177D02*
X0133398Y0213177D01*
X0133398Y0213248D02*
X0132446Y0213248D01*
X0132446Y0213319D02*
X0133398Y0213319D01*
X0133398Y0213390D02*
X0132446Y0213390D01*
X0132446Y0213461D02*
X0133398Y0213461D01*
X0133398Y0213532D02*
X0132446Y0213532D01*
X0132446Y0213603D02*
X0133398Y0213603D01*
X0133398Y0213674D02*
X0132446Y0213674D01*
X0132446Y0213745D02*
X0133398Y0213745D01*
X0133398Y0213816D02*
X0132446Y0213816D01*
X0132446Y0213887D02*
X0133398Y0213887D01*
X0133398Y0213958D02*
X0132446Y0213958D01*
X0132446Y0214029D02*
X0133398Y0214029D01*
X0133398Y0214100D02*
X0132446Y0214100D01*
X0132446Y0214171D02*
X0133398Y0214171D01*
X0133398Y0214242D02*
X0132446Y0214242D01*
X0132446Y0214313D02*
X0133398Y0214313D01*
X0133398Y0214384D02*
X0132446Y0214384D01*
X0132446Y0214455D02*
X0133398Y0214455D01*
X0133398Y0214526D02*
X0132446Y0214526D01*
X0132446Y0214597D02*
X0133398Y0214597D01*
X0133398Y0214668D02*
X0132446Y0214668D01*
X0132446Y0214739D02*
X0133398Y0214739D01*
X0133398Y0214810D02*
X0132446Y0214810D01*
X0131686Y0215571D02*
X0128490Y0215571D01*
X0128490Y0216523D01*
X0131686Y0216523D01*
X0131686Y0215571D01*
X0131686Y0215642D02*
X0128490Y0215642D01*
X0128490Y0215713D02*
X0131686Y0215713D01*
X0131686Y0215784D02*
X0128490Y0215784D01*
X0128490Y0215855D02*
X0131686Y0215855D01*
X0131686Y0215926D02*
X0128490Y0215926D01*
X0128490Y0215997D02*
X0131686Y0215997D01*
X0131686Y0216068D02*
X0128490Y0216068D01*
X0128490Y0216139D02*
X0131686Y0216139D01*
X0131686Y0216210D02*
X0128490Y0216210D01*
X0128490Y0216281D02*
X0131686Y0216281D01*
X0131686Y0216352D02*
X0128490Y0216352D01*
X0128490Y0216423D02*
X0131686Y0216423D01*
X0131686Y0216494D02*
X0128490Y0216494D01*
X0128490Y0217540D02*
X0131686Y0217540D01*
X0128490Y0217540D02*
X0128490Y0218492D01*
X0131686Y0218492D01*
X0131686Y0217540D01*
X0131686Y0217611D02*
X0128490Y0217611D01*
X0128490Y0217682D02*
X0131686Y0217682D01*
X0131686Y0217753D02*
X0128490Y0217753D01*
X0128490Y0217824D02*
X0131686Y0217824D01*
X0131686Y0217895D02*
X0128490Y0217895D01*
X0128490Y0217966D02*
X0131686Y0217966D01*
X0131686Y0218037D02*
X0128490Y0218037D01*
X0128490Y0218108D02*
X0131686Y0218108D01*
X0131686Y0218179D02*
X0128490Y0218179D01*
X0128490Y0218250D02*
X0131686Y0218250D01*
X0131686Y0218321D02*
X0128490Y0218321D01*
X0128490Y0218392D02*
X0131686Y0218392D01*
X0131686Y0218463D02*
X0128490Y0218463D01*
X0128490Y0219508D02*
X0131686Y0219508D01*
X0128490Y0219508D02*
X0128490Y0220460D01*
X0131686Y0220460D01*
X0131686Y0219508D01*
X0131686Y0219579D02*
X0128490Y0219579D01*
X0128490Y0219650D02*
X0131686Y0219650D01*
X0131686Y0219721D02*
X0128490Y0219721D01*
X0128490Y0219792D02*
X0131686Y0219792D01*
X0131686Y0219863D02*
X0128490Y0219863D01*
X0128490Y0219934D02*
X0131686Y0219934D01*
X0131686Y0220005D02*
X0128490Y0220005D01*
X0128490Y0220076D02*
X0131686Y0220076D01*
X0131686Y0220147D02*
X0128490Y0220147D01*
X0128490Y0220218D02*
X0131686Y0220218D01*
X0131686Y0220289D02*
X0128490Y0220289D01*
X0128490Y0220360D02*
X0131686Y0220360D01*
X0131686Y0220431D02*
X0128490Y0220431D01*
X0128490Y0221477D02*
X0131686Y0221477D01*
X0128490Y0221477D02*
X0128490Y0222429D01*
X0131686Y0222429D01*
X0131686Y0221477D01*
X0131686Y0221548D02*
X0128490Y0221548D01*
X0128490Y0221619D02*
X0131686Y0221619D01*
X0131686Y0221690D02*
X0128490Y0221690D01*
X0128490Y0221761D02*
X0131686Y0221761D01*
X0131686Y0221832D02*
X0128490Y0221832D01*
X0128490Y0221903D02*
X0131686Y0221903D01*
X0131686Y0221974D02*
X0128490Y0221974D01*
X0128490Y0222045D02*
X0131686Y0222045D01*
X0131686Y0222116D02*
X0128490Y0222116D01*
X0128490Y0222187D02*
X0131686Y0222187D01*
X0131686Y0222258D02*
X0128490Y0222258D01*
X0128490Y0222329D02*
X0131686Y0222329D01*
X0131686Y0222400D02*
X0128490Y0222400D01*
X0132446Y0223189D02*
X0132446Y0226385D01*
X0133398Y0226385D01*
X0133398Y0223189D01*
X0132446Y0223189D01*
X0132446Y0223260D02*
X0133398Y0223260D01*
X0133398Y0223331D02*
X0132446Y0223331D01*
X0132446Y0223402D02*
X0133398Y0223402D01*
X0133398Y0223473D02*
X0132446Y0223473D01*
X0132446Y0223544D02*
X0133398Y0223544D01*
X0133398Y0223615D02*
X0132446Y0223615D01*
X0132446Y0223686D02*
X0133398Y0223686D01*
X0133398Y0223757D02*
X0132446Y0223757D01*
X0132446Y0223828D02*
X0133398Y0223828D01*
X0133398Y0223899D02*
X0132446Y0223899D01*
X0132446Y0223970D02*
X0133398Y0223970D01*
X0133398Y0224041D02*
X0132446Y0224041D01*
X0132446Y0224112D02*
X0133398Y0224112D01*
X0133398Y0224183D02*
X0132446Y0224183D01*
X0132446Y0224254D02*
X0133398Y0224254D01*
X0133398Y0224325D02*
X0132446Y0224325D01*
X0132446Y0224396D02*
X0133398Y0224396D01*
X0133398Y0224467D02*
X0132446Y0224467D01*
X0132446Y0224538D02*
X0133398Y0224538D01*
X0133398Y0224609D02*
X0132446Y0224609D01*
X0132446Y0224680D02*
X0133398Y0224680D01*
X0133398Y0224751D02*
X0132446Y0224751D01*
X0132446Y0224822D02*
X0133398Y0224822D01*
X0133398Y0224893D02*
X0132446Y0224893D01*
X0132446Y0224964D02*
X0133398Y0224964D01*
X0133398Y0225035D02*
X0132446Y0225035D01*
X0132446Y0225106D02*
X0133398Y0225106D01*
X0133398Y0225177D02*
X0132446Y0225177D01*
X0132446Y0225248D02*
X0133398Y0225248D01*
X0133398Y0225319D02*
X0132446Y0225319D01*
X0132446Y0225390D02*
X0133398Y0225390D01*
X0133398Y0225461D02*
X0132446Y0225461D01*
X0132446Y0225532D02*
X0133398Y0225532D01*
X0133398Y0225603D02*
X0132446Y0225603D01*
X0132446Y0225674D02*
X0133398Y0225674D01*
X0133398Y0225745D02*
X0132446Y0225745D01*
X0132446Y0225816D02*
X0133398Y0225816D01*
X0133398Y0225887D02*
X0132446Y0225887D01*
X0132446Y0225958D02*
X0133398Y0225958D01*
X0133398Y0226029D02*
X0132446Y0226029D01*
X0132446Y0226100D02*
X0133398Y0226100D01*
X0133398Y0226171D02*
X0132446Y0226171D01*
X0132446Y0226242D02*
X0133398Y0226242D01*
X0133398Y0226313D02*
X0132446Y0226313D01*
X0132446Y0226384D02*
X0133398Y0226384D01*
X0134415Y0226385D02*
X0134415Y0223189D01*
X0134415Y0226385D02*
X0135367Y0226385D01*
X0135367Y0223189D01*
X0134415Y0223189D01*
X0134415Y0223260D02*
X0135367Y0223260D01*
X0135367Y0223331D02*
X0134415Y0223331D01*
X0134415Y0223402D02*
X0135367Y0223402D01*
X0135367Y0223473D02*
X0134415Y0223473D01*
X0134415Y0223544D02*
X0135367Y0223544D01*
X0135367Y0223615D02*
X0134415Y0223615D01*
X0134415Y0223686D02*
X0135367Y0223686D01*
X0135367Y0223757D02*
X0134415Y0223757D01*
X0134415Y0223828D02*
X0135367Y0223828D01*
X0135367Y0223899D02*
X0134415Y0223899D01*
X0134415Y0223970D02*
X0135367Y0223970D01*
X0135367Y0224041D02*
X0134415Y0224041D01*
X0134415Y0224112D02*
X0135367Y0224112D01*
X0135367Y0224183D02*
X0134415Y0224183D01*
X0134415Y0224254D02*
X0135367Y0224254D01*
X0135367Y0224325D02*
X0134415Y0224325D01*
X0134415Y0224396D02*
X0135367Y0224396D01*
X0135367Y0224467D02*
X0134415Y0224467D01*
X0134415Y0224538D02*
X0135367Y0224538D01*
X0135367Y0224609D02*
X0134415Y0224609D01*
X0134415Y0224680D02*
X0135367Y0224680D01*
X0135367Y0224751D02*
X0134415Y0224751D01*
X0134415Y0224822D02*
X0135367Y0224822D01*
X0135367Y0224893D02*
X0134415Y0224893D01*
X0134415Y0224964D02*
X0135367Y0224964D01*
X0135367Y0225035D02*
X0134415Y0225035D01*
X0134415Y0225106D02*
X0135367Y0225106D01*
X0135367Y0225177D02*
X0134415Y0225177D01*
X0134415Y0225248D02*
X0135367Y0225248D01*
X0135367Y0225319D02*
X0134415Y0225319D01*
X0134415Y0225390D02*
X0135367Y0225390D01*
X0135367Y0225461D02*
X0134415Y0225461D01*
X0134415Y0225532D02*
X0135367Y0225532D01*
X0135367Y0225603D02*
X0134415Y0225603D01*
X0134415Y0225674D02*
X0135367Y0225674D01*
X0135367Y0225745D02*
X0134415Y0225745D01*
X0134415Y0225816D02*
X0135367Y0225816D01*
X0135367Y0225887D02*
X0134415Y0225887D01*
X0134415Y0225958D02*
X0135367Y0225958D01*
X0135367Y0226029D02*
X0134415Y0226029D01*
X0134415Y0226100D02*
X0135367Y0226100D01*
X0135367Y0226171D02*
X0134415Y0226171D01*
X0134415Y0226242D02*
X0135367Y0226242D01*
X0135367Y0226313D02*
X0134415Y0226313D01*
X0134415Y0226384D02*
X0135367Y0226384D01*
X0136383Y0226385D02*
X0136383Y0223189D01*
X0136383Y0226385D02*
X0137335Y0226385D01*
X0137335Y0223189D01*
X0136383Y0223189D01*
X0136383Y0223260D02*
X0137335Y0223260D01*
X0137335Y0223331D02*
X0136383Y0223331D01*
X0136383Y0223402D02*
X0137335Y0223402D01*
X0137335Y0223473D02*
X0136383Y0223473D01*
X0136383Y0223544D02*
X0137335Y0223544D01*
X0137335Y0223615D02*
X0136383Y0223615D01*
X0136383Y0223686D02*
X0137335Y0223686D01*
X0137335Y0223757D02*
X0136383Y0223757D01*
X0136383Y0223828D02*
X0137335Y0223828D01*
X0137335Y0223899D02*
X0136383Y0223899D01*
X0136383Y0223970D02*
X0137335Y0223970D01*
X0137335Y0224041D02*
X0136383Y0224041D01*
X0136383Y0224112D02*
X0137335Y0224112D01*
X0137335Y0224183D02*
X0136383Y0224183D01*
X0136383Y0224254D02*
X0137335Y0224254D01*
X0137335Y0224325D02*
X0136383Y0224325D01*
X0136383Y0224396D02*
X0137335Y0224396D01*
X0137335Y0224467D02*
X0136383Y0224467D01*
X0136383Y0224538D02*
X0137335Y0224538D01*
X0137335Y0224609D02*
X0136383Y0224609D01*
X0136383Y0224680D02*
X0137335Y0224680D01*
X0137335Y0224751D02*
X0136383Y0224751D01*
X0136383Y0224822D02*
X0137335Y0224822D01*
X0137335Y0224893D02*
X0136383Y0224893D01*
X0136383Y0224964D02*
X0137335Y0224964D01*
X0137335Y0225035D02*
X0136383Y0225035D01*
X0136383Y0225106D02*
X0137335Y0225106D01*
X0137335Y0225177D02*
X0136383Y0225177D01*
X0136383Y0225248D02*
X0137335Y0225248D01*
X0137335Y0225319D02*
X0136383Y0225319D01*
X0136383Y0225390D02*
X0137335Y0225390D01*
X0137335Y0225461D02*
X0136383Y0225461D01*
X0136383Y0225532D02*
X0137335Y0225532D01*
X0137335Y0225603D02*
X0136383Y0225603D01*
X0136383Y0225674D02*
X0137335Y0225674D01*
X0137335Y0225745D02*
X0136383Y0225745D01*
X0136383Y0225816D02*
X0137335Y0225816D01*
X0137335Y0225887D02*
X0136383Y0225887D01*
X0136383Y0225958D02*
X0137335Y0225958D01*
X0137335Y0226029D02*
X0136383Y0226029D01*
X0136383Y0226100D02*
X0137335Y0226100D01*
X0137335Y0226171D02*
X0136383Y0226171D01*
X0136383Y0226242D02*
X0137335Y0226242D01*
X0137335Y0226313D02*
X0136383Y0226313D01*
X0136383Y0226384D02*
X0137335Y0226384D01*
X0138352Y0226385D02*
X0138352Y0223189D01*
X0138352Y0226385D02*
X0139304Y0226385D01*
X0139304Y0223189D01*
X0138352Y0223189D01*
X0138352Y0223260D02*
X0139304Y0223260D01*
X0139304Y0223331D02*
X0138352Y0223331D01*
X0138352Y0223402D02*
X0139304Y0223402D01*
X0139304Y0223473D02*
X0138352Y0223473D01*
X0138352Y0223544D02*
X0139304Y0223544D01*
X0139304Y0223615D02*
X0138352Y0223615D01*
X0138352Y0223686D02*
X0139304Y0223686D01*
X0139304Y0223757D02*
X0138352Y0223757D01*
X0138352Y0223828D02*
X0139304Y0223828D01*
X0139304Y0223899D02*
X0138352Y0223899D01*
X0138352Y0223970D02*
X0139304Y0223970D01*
X0139304Y0224041D02*
X0138352Y0224041D01*
X0138352Y0224112D02*
X0139304Y0224112D01*
X0139304Y0224183D02*
X0138352Y0224183D01*
X0138352Y0224254D02*
X0139304Y0224254D01*
X0139304Y0224325D02*
X0138352Y0224325D01*
X0138352Y0224396D02*
X0139304Y0224396D01*
X0139304Y0224467D02*
X0138352Y0224467D01*
X0138352Y0224538D02*
X0139304Y0224538D01*
X0139304Y0224609D02*
X0138352Y0224609D01*
X0138352Y0224680D02*
X0139304Y0224680D01*
X0139304Y0224751D02*
X0138352Y0224751D01*
X0138352Y0224822D02*
X0139304Y0224822D01*
X0139304Y0224893D02*
X0138352Y0224893D01*
X0138352Y0224964D02*
X0139304Y0224964D01*
X0139304Y0225035D02*
X0138352Y0225035D01*
X0138352Y0225106D02*
X0139304Y0225106D01*
X0139304Y0225177D02*
X0138352Y0225177D01*
X0138352Y0225248D02*
X0139304Y0225248D01*
X0139304Y0225319D02*
X0138352Y0225319D01*
X0138352Y0225390D02*
X0139304Y0225390D01*
X0139304Y0225461D02*
X0138352Y0225461D01*
X0138352Y0225532D02*
X0139304Y0225532D01*
X0139304Y0225603D02*
X0138352Y0225603D01*
X0138352Y0225674D02*
X0139304Y0225674D01*
X0139304Y0225745D02*
X0138352Y0225745D01*
X0138352Y0225816D02*
X0139304Y0225816D01*
X0139304Y0225887D02*
X0138352Y0225887D01*
X0138352Y0225958D02*
X0139304Y0225958D01*
X0139304Y0226029D02*
X0138352Y0226029D01*
X0138352Y0226100D02*
X0139304Y0226100D01*
X0139304Y0226171D02*
X0138352Y0226171D01*
X0138352Y0226242D02*
X0139304Y0226242D01*
X0139304Y0226313D02*
X0138352Y0226313D01*
X0138352Y0226384D02*
X0139304Y0226384D01*
X0140064Y0222429D02*
X0143260Y0222429D01*
X0143260Y0221477D01*
X0140064Y0221477D01*
X0140064Y0222429D01*
X0140064Y0221548D02*
X0143260Y0221548D01*
X0143260Y0221619D02*
X0140064Y0221619D01*
X0140064Y0221690D02*
X0143260Y0221690D01*
X0143260Y0221761D02*
X0140064Y0221761D01*
X0140064Y0221832D02*
X0143260Y0221832D01*
X0143260Y0221903D02*
X0140064Y0221903D01*
X0140064Y0221974D02*
X0143260Y0221974D01*
X0143260Y0222045D02*
X0140064Y0222045D01*
X0140064Y0222116D02*
X0143260Y0222116D01*
X0143260Y0222187D02*
X0140064Y0222187D01*
X0140064Y0222258D02*
X0143260Y0222258D01*
X0143260Y0222329D02*
X0140064Y0222329D01*
X0140064Y0222400D02*
X0143260Y0222400D01*
X0143260Y0220460D02*
X0140064Y0220460D01*
X0143260Y0220460D02*
X0143260Y0219508D01*
X0140064Y0219508D01*
X0140064Y0220460D01*
X0140064Y0219579D02*
X0143260Y0219579D01*
X0143260Y0219650D02*
X0140064Y0219650D01*
X0140064Y0219721D02*
X0143260Y0219721D01*
X0143260Y0219792D02*
X0140064Y0219792D01*
X0140064Y0219863D02*
X0143260Y0219863D01*
X0143260Y0219934D02*
X0140064Y0219934D01*
X0140064Y0220005D02*
X0143260Y0220005D01*
X0143260Y0220076D02*
X0140064Y0220076D01*
X0140064Y0220147D02*
X0143260Y0220147D01*
X0143260Y0220218D02*
X0140064Y0220218D01*
X0140064Y0220289D02*
X0143260Y0220289D01*
X0143260Y0220360D02*
X0140064Y0220360D01*
X0140064Y0220431D02*
X0143260Y0220431D01*
X0143260Y0218492D02*
X0140064Y0218492D01*
X0143260Y0218492D02*
X0143260Y0217540D01*
X0140064Y0217540D01*
X0140064Y0218492D01*
X0140064Y0217611D02*
X0143260Y0217611D01*
X0143260Y0217682D02*
X0140064Y0217682D01*
X0140064Y0217753D02*
X0143260Y0217753D01*
X0143260Y0217824D02*
X0140064Y0217824D01*
X0140064Y0217895D02*
X0143260Y0217895D01*
X0143260Y0217966D02*
X0140064Y0217966D01*
X0140064Y0218037D02*
X0143260Y0218037D01*
X0143260Y0218108D02*
X0140064Y0218108D01*
X0140064Y0218179D02*
X0143260Y0218179D01*
X0143260Y0218250D02*
X0140064Y0218250D01*
X0140064Y0218321D02*
X0143260Y0218321D01*
X0143260Y0218392D02*
X0140064Y0218392D01*
X0140064Y0218463D02*
X0143260Y0218463D01*
X0143260Y0216523D02*
X0140064Y0216523D01*
X0143260Y0216523D02*
X0143260Y0215571D01*
X0140064Y0215571D01*
X0140064Y0216523D01*
X0140064Y0215642D02*
X0143260Y0215642D01*
X0143260Y0215713D02*
X0140064Y0215713D01*
X0140064Y0215784D02*
X0143260Y0215784D01*
X0143260Y0215855D02*
X0140064Y0215855D01*
X0140064Y0215926D02*
X0143260Y0215926D01*
X0143260Y0215997D02*
X0140064Y0215997D01*
X0140064Y0216068D02*
X0143260Y0216068D01*
X0143260Y0216139D02*
X0140064Y0216139D01*
X0140064Y0216210D02*
X0143260Y0216210D01*
X0143260Y0216281D02*
X0140064Y0216281D01*
X0140064Y0216352D02*
X0143260Y0216352D01*
X0143260Y0216423D02*
X0140064Y0216423D01*
X0140064Y0216494D02*
X0143260Y0216494D01*
X0139304Y0214811D02*
X0139304Y0211615D01*
X0138352Y0211615D01*
X0138352Y0214811D01*
X0139304Y0214811D01*
X0139304Y0211686D02*
X0138352Y0211686D01*
X0138352Y0211757D02*
X0139304Y0211757D01*
X0139304Y0211828D02*
X0138352Y0211828D01*
X0138352Y0211899D02*
X0139304Y0211899D01*
X0139304Y0211970D02*
X0138352Y0211970D01*
X0138352Y0212041D02*
X0139304Y0212041D01*
X0139304Y0212112D02*
X0138352Y0212112D01*
X0138352Y0212183D02*
X0139304Y0212183D01*
X0139304Y0212254D02*
X0138352Y0212254D01*
X0138352Y0212325D02*
X0139304Y0212325D01*
X0139304Y0212396D02*
X0138352Y0212396D01*
X0138352Y0212467D02*
X0139304Y0212467D01*
X0139304Y0212538D02*
X0138352Y0212538D01*
X0138352Y0212609D02*
X0139304Y0212609D01*
X0139304Y0212680D02*
X0138352Y0212680D01*
X0138352Y0212751D02*
X0139304Y0212751D01*
X0139304Y0212822D02*
X0138352Y0212822D01*
X0138352Y0212893D02*
X0139304Y0212893D01*
X0139304Y0212964D02*
X0138352Y0212964D01*
X0138352Y0213035D02*
X0139304Y0213035D01*
X0139304Y0213106D02*
X0138352Y0213106D01*
X0138352Y0213177D02*
X0139304Y0213177D01*
X0139304Y0213248D02*
X0138352Y0213248D01*
X0138352Y0213319D02*
X0139304Y0213319D01*
X0139304Y0213390D02*
X0138352Y0213390D01*
X0138352Y0213461D02*
X0139304Y0213461D01*
X0139304Y0213532D02*
X0138352Y0213532D01*
X0138352Y0213603D02*
X0139304Y0213603D01*
X0139304Y0213674D02*
X0138352Y0213674D01*
X0138352Y0213745D02*
X0139304Y0213745D01*
X0139304Y0213816D02*
X0138352Y0213816D01*
X0138352Y0213887D02*
X0139304Y0213887D01*
X0139304Y0213958D02*
X0138352Y0213958D01*
X0138352Y0214029D02*
X0139304Y0214029D01*
X0139304Y0214100D02*
X0138352Y0214100D01*
X0138352Y0214171D02*
X0139304Y0214171D01*
X0139304Y0214242D02*
X0138352Y0214242D01*
X0138352Y0214313D02*
X0139304Y0214313D01*
X0139304Y0214384D02*
X0138352Y0214384D01*
X0138352Y0214455D02*
X0139304Y0214455D01*
X0139304Y0214526D02*
X0138352Y0214526D01*
X0138352Y0214597D02*
X0139304Y0214597D01*
X0139304Y0214668D02*
X0138352Y0214668D01*
X0138352Y0214739D02*
X0139304Y0214739D01*
X0139304Y0214810D02*
X0138352Y0214810D01*
D19*
X0149322Y0224625D03*
X0156803Y0224625D03*
D20*
X0195275Y0171375D03*
X0195275Y0169375D03*
X0195275Y0167375D03*
X0195275Y0165375D03*
X0206475Y0165375D03*
X0206475Y0167375D03*
X0206475Y0169375D03*
X0206475Y0171375D03*
D21*
X0204615Y0191938D03*
X0197135Y0191938D03*
X0200875Y0199812D03*
D22*
X0244625Y0196904D03*
X0250875Y0196904D03*
X0250875Y0203596D03*
X0244625Y0203596D03*
X0233542Y0141032D03*
X0233542Y0134340D03*
X0225668Y0134340D03*
X0225668Y0141032D03*
X0217794Y0141032D03*
X0217794Y0134340D03*
X0209920Y0134340D03*
X0209920Y0141032D03*
X0202046Y0141032D03*
X0202046Y0134340D03*
X0194172Y0134340D03*
X0194172Y0141032D03*
D23*
X0112637Y0265624D02*
X0112637Y0269974D01*
X0114113Y0269974D01*
X0114113Y0265624D01*
X0112637Y0265624D01*
X0112637Y0266115D02*
X0114113Y0266115D01*
X0114113Y0266606D02*
X0112637Y0266606D01*
X0112637Y0267097D02*
X0114113Y0267097D01*
X0114113Y0267588D02*
X0112637Y0267588D01*
X0112637Y0268079D02*
X0114113Y0268079D01*
X0114113Y0268570D02*
X0112637Y0268570D01*
X0112637Y0269061D02*
X0114113Y0269061D01*
X0114113Y0269552D02*
X0112637Y0269552D01*
X0110078Y0273026D02*
X0110078Y0277376D01*
X0111554Y0277376D01*
X0111554Y0273026D01*
X0110078Y0273026D01*
X0110078Y0273517D02*
X0111554Y0273517D01*
X0111554Y0274008D02*
X0110078Y0274008D01*
X0110078Y0274499D02*
X0111554Y0274499D01*
X0111554Y0274990D02*
X0110078Y0274990D01*
X0110078Y0275481D02*
X0111554Y0275481D01*
X0111554Y0275972D02*
X0110078Y0275972D01*
X0110078Y0276463D02*
X0111554Y0276463D01*
X0111554Y0276954D02*
X0110078Y0276954D01*
X0115196Y0277376D02*
X0115196Y0273026D01*
X0115196Y0277376D02*
X0116672Y0277376D01*
X0116672Y0273026D01*
X0115196Y0273026D01*
X0115196Y0273517D02*
X0116672Y0273517D01*
X0116672Y0274008D02*
X0115196Y0274008D01*
X0115196Y0274499D02*
X0116672Y0274499D01*
X0116672Y0274990D02*
X0115196Y0274990D01*
X0115196Y0275481D02*
X0116672Y0275481D01*
X0116672Y0275972D02*
X0115196Y0275972D01*
X0115196Y0276463D02*
X0116672Y0276463D01*
X0116672Y0276954D02*
X0115196Y0276954D01*
D24*
X0219125Y0269625D03*
X0225125Y0269625D03*
X0225125Y0261500D03*
X0219125Y0261500D03*
M02*
