%
M48
M72
T01C0.01220
T02C0.01575
T03C0.02000
T04C0.02362
T05C0.03622
T06C0.03937
T07C0.04000
T08C0.04331
T09C0.09055
T10C0.12598
%
T01
X194172Y133656
X202046Y133656
X209920Y133656
X217794Y133656
X225668Y133656
X233542Y133656
X244625Y130250
X248375Y130250
X248375Y134000
X252125Y134000
X255875Y134000
X255875Y130250
X252125Y130250
X252125Y137750
X255875Y137750
X255875Y141500
X259625Y141500
X259625Y144625
X263375Y144625
X266188Y144625
X265875Y141500
X262750Y141500
X259625Y137750
X259625Y134000
X259625Y130250
X274000Y141500
X277125Y141500
X280875Y141500
X284625Y141500
X284625Y137750
X280875Y137750
X280875Y134000
X284625Y134000
X284625Y130250
X280875Y130250
X288375Y130250
X288375Y134000
X288375Y137750
X288375Y140875
X292125Y134000
X292125Y130250
X295875Y130250
X299625Y130250
X301188Y147125
X301188Y152125
X289625Y163063
X279000Y169000
X279000Y174625
X279000Y180250
X273375Y180250
X267750Y180250
X267750Y174625
X273375Y174625
X273375Y169000
X267750Y169000
X260875Y161500
X260875Y158375
X266188Y154938
X266188Y151500
X266188Y148063
X262750Y147750
X274938Y149938
X274938Y152750
X277750Y151500
X278375Y154000
X300563Y170563
X300563Y173687
X301500Y177437
X301188Y184937
X294938Y194000
X278375Y209312
X280250Y211500
X279000Y214000
X283688Y214000
X284313Y216812
X289000Y213375
X295563Y213062
X296813Y217437
X301813Y216812
X306813Y228375
X323688Y225875
X326188Y229312
X337438Y228375
X337438Y224937
X339000Y222750
X344000Y212750
X338375Y211500
X339938Y199625
X353687Y194312
X348375Y182750
X355875Y172125
X361500Y174625
X376187Y179937
X385562Y169938
X394625Y170563
X403062Y168375
X401187Y163375
X409625Y169313
X411187Y167125
X411187Y174937
X407437Y179312
X409000Y182750
X424312Y193062
X424312Y200875
X428375Y205250
X422437Y209625
X423687Y213062
X425875Y214937
X428375Y216500
X428375Y223375
X428687Y232125
X427437Y237750
X440875Y232750
X444937Y225875
X449000Y222750
X441187Y215562
X444312Y208375
X436187Y191187
X444937Y188375
X449000Y184937
X434000Y176812
X438375Y170250
X429625Y166500
X421812Y172125
X428375Y185250
X407437Y195562
X391187Y208062
X407125Y217125
X421500Y215562
X409312Y235875
X406500Y244937
X409000Y249625
X402750Y252125
X400281Y248074
X398406Y249949
X388062Y245875
X379312Y244937
X376812Y246187
X374937Y248062
X373687Y250562
X370250Y251187
X367964Y247691
X365875Y251812
X360777Y245816
X347750Y244625
X344625Y244625
X339625Y251812
X334527Y250191
X334839Y254878
X345875Y258687
X345875Y265250
X341500Y265250
X351187Y267438
X361187Y274938
X370877Y273061
X384312Y266500
X385250Y251812
X401500Y267676
X409937Y274224
X414645Y280112
X410562Y287199
X400875Y292125
X401812Y295563
X412339Y301753
X398375Y311500
X393375Y314000
X393574Y320425
X391074Y320425
X388574Y320425
X375762Y319800
X375762Y322925
X366387Y323550
X366387Y320737
X366387Y317925
X366387Y315112
X355875Y312125
X347437Y322438
X347437Y325563
X347437Y328688
X343574Y341050
X382125Y340250
X384937Y340250
X387750Y340250
X390562Y340250
X385097Y302908
X395582Y291050
X368375Y290250
X352125Y286500
X340875Y284000
X337438Y297438
X332438Y306188
X319313Y295563
X319938Y291188
X312750Y298688
X306188Y298688
X293688Y286813
X293688Y283688
X283688Y289000
X280563Y283688
X281500Y296188
X265563Y287750
X255250Y299625
X251500Y299625
X251500Y303375
X255250Y303375
X262125Y307750
X264938Y307750
X264938Y304938
X248062Y294000
X247750Y287750
X238062Y285875
X236812Y273375
X230562Y271500
X228687Y269938
X231812Y268063
X232125Y261187
X229937Y259937
X236500Y260875
X238687Y263063
X239312Y256812
X239312Y254312
X236812Y254312
X236812Y256812
X231812Y254000
X230562Y249625
X235250Y247125
X239625Y246187
X238375Y242437
X236187Y238687
X238687Y234937
X239937Y230562
X235562Y230250
X232750Y232437
X239312Y217125
X240562Y208687
X248062Y207750
X257125Y206812
X264625Y206812
X274625Y209937
X274625Y231187
X268375Y231187
X266500Y244312
X270875Y245250
X259625Y244312
X244000Y249625
X225250Y252750
X223062Y255875
X220250Y259312
X218062Y259312
X212125Y259000
X212125Y270250
X218062Y269313
X220250Y269313
X221812Y274313
X205875Y269938
X196500Y243687
X196500Y241187
X196500Y238687
X194000Y238687
X194000Y241187
X194000Y243687
X197834Y228141
X203936Y228141
X186187Y215875
X189625Y209625
X180562Y205250
X176500Y205562
X169000Y200875
X165250Y206812
X165875Y210250
X158063Y210562
X156500Y204312
X140875Y213062
X139000Y209937
X134625Y210250
X131188Y209937
X125875Y214000
X134625Y217750
X137125Y217750
X137125Y220250
X134625Y220250
X132438Y227750
X135875Y229000
X138688Y229000
X142125Y226812
X141813Y232437
X144313Y232437
X146813Y232437
X161813Y221187
X170250Y219625
X175875Y216812
X176500Y224937
X198062Y199937
X175875Y192125
X165875Y178375
X165563Y170875
X174937Y167750
X181187Y168063
X191500Y164313
X200250Y166813
X199312Y172438
X196500Y177125
X210250Y172125
X211187Y169313
X220875Y177125
X232125Y165250
X237125Y169625
X239937Y171813
X242125Y174000
X240875Y176500
X238375Y177750
X236500Y179937
X244312Y191187
X233687Y201812
X233062Y205250
X230875Y208062
X228062Y206500
X256812Y173375
X249937Y166813
X239000Y164313
X233542Y147435
X225668Y147435
X217794Y147435
X209920Y147435
X202046Y147435
X194172Y147435
X171293Y154165
X153688Y160786
X144938Y157750
X144000Y160563
X133688Y169625
X130562Y173062
X129625Y177125
X118375Y180875
X117437Y173687
X118062Y167125
X104000Y165875
X104000Y160250
X94625Y177437
X91500Y185875
X86500Y191500
X75563Y185875
X75563Y178375
X75875Y170875
X75875Y163375
X108687Y180250
X115562Y191812
X133063Y191500
X133375Y199000
X147125Y189625
X147125Y182125
X147125Y174937
X98375Y219000
X117750Y224000
X120562Y232437
X121187Y254937
X123062Y266188
X122437Y269938
X129625Y266500
X138063Y266813
X125875Y277438
X127437Y283063
X121187Y284313
X118062Y284625
X113062Y287125
X111187Y289313
X112750Y291500
X110562Y295250
X118062Y291813
X112437Y279938
X107125Y272750
X104312Y261812
X84938Y260562
X86188Y240250
X134313Y292438
X137750Y291500
X141500Y295563
X142125Y302125
X142125Y305875
X142125Y309625
X138375Y309625
X134625Y309625
X134625Y305875
X138375Y305875
X138375Y302125
X134625Y302125
X128375Y310250
X123062Y315250
X131500Y322125
X131500Y329313
X138063Y329313
X143375Y329313
X149000Y329313
X160250Y321500
X151500Y318375
X154625Y314625
X157750Y315250
X154000Y309313
X158375Y308063
X164625Y308688
X171188Y302750
X174312Y293063
X171500Y292438
X167438Y291813
X168375Y270250
X171813Y269625
X165563Y259312
X165563Y253375
X213062Y298375
X219625Y296813
X218062Y307125
X217125Y314313
X217125Y317125
X214312Y317125
X219937Y314313
X227125Y320563
X227125Y323375
X227125Y326188
X238062Y330563
X234937Y337125
X245875Y330563
X254312Y337125
X219000Y339313
X210875Y330250
X208375Y332750
X195250Y329625
X195250Y327125
X195250Y324625
X190875Y329625
X180875Y323375
X171500Y328375
X185875Y312125
X146188Y314625
X107437Y305875
X109312Y338063
X242750Y299625
X259625Y269000
X262125Y269000
X264625Y269000
X267125Y269000
X289938Y257750
X289938Y249000
X313063Y259312
X319625Y264313
X314313Y277438
X314313Y279938
X318063Y285563
X321188Y285563
X327125Y245875
X317125Y244625
X340250Y234625
X350250Y229625
X349625Y218375
X350812Y215337
X368687Y219312
X386500Y229000
X381500Y234625
X413375Y256500
X417125Y249937
X430562Y257125
X442125Y261812
X459527Y270663
X457164Y286018
X463070Y287199
X448515Y286192
X438062Y299625
X459527Y300191
X461889Y309640
X427637Y280112
X443062Y244312
X367437Y192437
X347750Y168375
X328375Y165250
X324938Y168063
X319000Y163375
X347750Y150250
X349000Y144000
X353062Y137438
X364625Y137438
X370250Y144000
X359312Y149000
X384625Y137438
X390250Y144000
X409000Y144000
X405562Y132438
X412437Y129937
X430250Y151500
X329625Y135875
X323375Y189312
X324938Y191812
X323688Y196187
X324000Y199000
X319313Y197437
X323063Y206812
X326500Y209625
X326500Y214312
X323375Y214000
T02
X101175Y278601
X101175Y281751
X101175Y284901
X101175Y288050
X101175Y291200
X101175Y294349
X101175Y297499
X101175Y300649
X98419Y299074
X98419Y295924
X98419Y292775
X98419Y286475
X98419Y283326
X98419Y280176
T03
X226800Y188537
X226800Y183537
X231800Y183537
X236800Y183537
X241800Y183537
X246800Y183537
X246800Y188537
X241800Y188537
X236800Y188537
X231800Y188537
X453483Y190585
X453483Y195585
X453483Y200585
X453483Y205585
X453483Y210585
X458483Y210585
X458483Y205585
X458483Y200585
X458483Y195585
X458483Y190585
T04
X96648Y272814
X78026Y272814
X78026Y306436
X96648Y306436
T05
X110294Y236530
X110294Y226687
X110294Y218813
X110294Y208970
T06
X235875Y213375
X245875Y213375
X255875Y213375
X265875Y213375
X322125Y149625
X332125Y149625
X336968Y336411
X326968Y336411
X281849Y336411
X271849Y336411
T07
X299408Y329787
X309408Y329787
T08
X408582Y331569
X418582Y331569
X428582Y331569
X428582Y321569
X418582Y321569
X408582Y321569
X176023Y150467
X166023Y150467
X156023Y150467
X146023Y150467
X136023Y150467
X126023Y150467
X116023Y150467
X106023Y150467
X106023Y140467
X116023Y140467
X126023Y140467
X136023Y140467
X146023Y140467
X156023Y140467
X166023Y140467
X176023Y140467
T09
X99625Y196884
X99625Y248616
T10
X85905Y141530
X85905Y330506
X452046Y330506
X452046Y141530
M30
