G75*
%MOIN*%
%OFA0B0*%
%FSLAX25Y25*%
%IPPOS*%
%LPD*%
%AMOC8*
5,1,8,0,0,1.08239X$1,22.5*
%
%ADD10C,0.00000*%
%ADD11C,0.00039*%
%ADD12R,0.04600X0.06300*%
%ADD13C,0.00004*%
%ADD14R,0.05906X0.09055*%
D10*
X0632645Y0139861D02*
X0632645Y0332774D01*
X0632648Y0333059D01*
X0632659Y0333345D01*
X0632676Y0333630D01*
X0632700Y0333914D01*
X0632731Y0334198D01*
X0632769Y0334481D01*
X0632814Y0334762D01*
X0632865Y0335043D01*
X0632923Y0335323D01*
X0632988Y0335601D01*
X0633060Y0335877D01*
X0633138Y0336151D01*
X0633223Y0336424D01*
X0633315Y0336694D01*
X0633413Y0336962D01*
X0633517Y0337228D01*
X0633628Y0337491D01*
X0633745Y0337751D01*
X0633868Y0338009D01*
X0633998Y0338263D01*
X0634134Y0338514D01*
X0634275Y0338762D01*
X0634423Y0339006D01*
X0634576Y0339247D01*
X0634736Y0339483D01*
X0634901Y0339716D01*
X0635071Y0339945D01*
X0635247Y0340170D01*
X0635429Y0340390D01*
X0635615Y0340606D01*
X0635807Y0340817D01*
X0636004Y0341024D01*
X0636206Y0341226D01*
X0636413Y0341423D01*
X0636624Y0341615D01*
X0636840Y0341801D01*
X0637060Y0341983D01*
X0637285Y0342159D01*
X0637514Y0342329D01*
X0637747Y0342494D01*
X0637983Y0342654D01*
X0638224Y0342807D01*
X0638468Y0342955D01*
X0638716Y0343096D01*
X0638967Y0343232D01*
X0639221Y0343362D01*
X0639479Y0343485D01*
X0639739Y0343602D01*
X0640002Y0343713D01*
X0640268Y0343817D01*
X0640536Y0343915D01*
X0640806Y0344007D01*
X0641079Y0344092D01*
X0641353Y0344170D01*
X0641629Y0344242D01*
X0641907Y0344307D01*
X0642187Y0344365D01*
X0642468Y0344416D01*
X0642749Y0344461D01*
X0643032Y0344499D01*
X0643316Y0344530D01*
X0643600Y0344554D01*
X0643885Y0344571D01*
X0644171Y0344582D01*
X0644456Y0344585D01*
X1014535Y0344585D01*
X1014820Y0344582D01*
X1015106Y0344571D01*
X1015391Y0344554D01*
X1015675Y0344530D01*
X1015959Y0344499D01*
X1016242Y0344461D01*
X1016523Y0344416D01*
X1016804Y0344365D01*
X1017084Y0344307D01*
X1017362Y0344242D01*
X1017638Y0344170D01*
X1017912Y0344092D01*
X1018185Y0344007D01*
X1018455Y0343915D01*
X1018723Y0343817D01*
X1018989Y0343713D01*
X1019252Y0343602D01*
X1019512Y0343485D01*
X1019770Y0343362D01*
X1020024Y0343232D01*
X1020275Y0343096D01*
X1020523Y0342955D01*
X1020767Y0342807D01*
X1021008Y0342654D01*
X1021244Y0342494D01*
X1021477Y0342329D01*
X1021706Y0342159D01*
X1021931Y0341983D01*
X1022151Y0341801D01*
X1022367Y0341615D01*
X1022578Y0341423D01*
X1022785Y0341226D01*
X1022987Y0341024D01*
X1023184Y0340817D01*
X1023376Y0340606D01*
X1023562Y0340390D01*
X1023744Y0340170D01*
X1023920Y0339945D01*
X1024090Y0339716D01*
X1024255Y0339483D01*
X1024415Y0339247D01*
X1024568Y0339006D01*
X1024716Y0338762D01*
X1024857Y0338514D01*
X1024993Y0338263D01*
X1025123Y0338009D01*
X1025246Y0337751D01*
X1025363Y0337491D01*
X1025474Y0337228D01*
X1025578Y0336962D01*
X1025676Y0336694D01*
X1025768Y0336424D01*
X1025853Y0336151D01*
X1025931Y0335877D01*
X1026003Y0335601D01*
X1026068Y0335323D01*
X1026126Y0335043D01*
X1026177Y0334762D01*
X1026222Y0334481D01*
X1026260Y0334198D01*
X1026291Y0333914D01*
X1026315Y0333630D01*
X1026332Y0333345D01*
X1026343Y0333059D01*
X1026346Y0332774D01*
X1026346Y0222538D01*
X1026344Y0222414D01*
X1026338Y0222291D01*
X1026329Y0222167D01*
X1026315Y0222045D01*
X1026298Y0221922D01*
X1026276Y0221800D01*
X1026251Y0221679D01*
X1026222Y0221559D01*
X1026190Y0221440D01*
X1026153Y0221321D01*
X1026113Y0221204D01*
X1026070Y0221089D01*
X1026022Y0220974D01*
X1025971Y0220862D01*
X1025917Y0220751D01*
X1025859Y0220641D01*
X1025798Y0220534D01*
X1025733Y0220428D01*
X1025665Y0220325D01*
X1025594Y0220224D01*
X1025520Y0220125D01*
X1025443Y0220028D01*
X1025362Y0219934D01*
X1025279Y0219843D01*
X1025193Y0219754D01*
X1025104Y0219668D01*
X1025013Y0219585D01*
X1024919Y0219504D01*
X1024822Y0219427D01*
X1024723Y0219353D01*
X1024622Y0219282D01*
X1024519Y0219214D01*
X1024413Y0219149D01*
X1024306Y0219088D01*
X1024196Y0219030D01*
X1024085Y0218976D01*
X1023973Y0218925D01*
X1023858Y0218877D01*
X1023743Y0218834D01*
X1023626Y0218794D01*
X1023507Y0218757D01*
X1023388Y0218725D01*
X1023268Y0218696D01*
X1023147Y0218671D01*
X1023025Y0218649D01*
X1022902Y0218632D01*
X1022780Y0218618D01*
X1022656Y0218609D01*
X1022533Y0218603D01*
X1022409Y0218601D01*
X1010598Y0218601D01*
X1010474Y0218599D01*
X1010351Y0218593D01*
X1010227Y0218584D01*
X1010105Y0218570D01*
X1009982Y0218553D01*
X1009860Y0218531D01*
X1009739Y0218506D01*
X1009619Y0218477D01*
X1009500Y0218445D01*
X1009381Y0218408D01*
X1009264Y0218368D01*
X1009149Y0218325D01*
X1009034Y0218277D01*
X1008922Y0218226D01*
X1008811Y0218172D01*
X1008701Y0218114D01*
X1008594Y0218053D01*
X1008488Y0217988D01*
X1008385Y0217920D01*
X1008284Y0217849D01*
X1008185Y0217775D01*
X1008088Y0217698D01*
X1007994Y0217617D01*
X1007903Y0217534D01*
X1007814Y0217448D01*
X1007728Y0217359D01*
X1007645Y0217268D01*
X1007564Y0217174D01*
X1007487Y0217077D01*
X1007413Y0216978D01*
X1007342Y0216877D01*
X1007274Y0216774D01*
X1007209Y0216668D01*
X1007148Y0216561D01*
X1007090Y0216451D01*
X1007036Y0216340D01*
X1006985Y0216228D01*
X1006937Y0216113D01*
X1006894Y0215998D01*
X1006854Y0215881D01*
X1006817Y0215762D01*
X1006785Y0215643D01*
X1006756Y0215523D01*
X1006731Y0215402D01*
X1006709Y0215280D01*
X1006692Y0215157D01*
X1006678Y0215035D01*
X1006669Y0214911D01*
X1006663Y0214788D01*
X1006661Y0214664D01*
X1006661Y0187105D01*
X1006663Y0186981D01*
X1006669Y0186858D01*
X1006678Y0186734D01*
X1006692Y0186612D01*
X1006709Y0186489D01*
X1006731Y0186367D01*
X1006756Y0186246D01*
X1006785Y0186126D01*
X1006817Y0186007D01*
X1006854Y0185888D01*
X1006894Y0185771D01*
X1006937Y0185656D01*
X1006985Y0185541D01*
X1007036Y0185429D01*
X1007090Y0185318D01*
X1007148Y0185208D01*
X1007209Y0185101D01*
X1007274Y0184995D01*
X1007342Y0184892D01*
X1007413Y0184791D01*
X1007487Y0184692D01*
X1007564Y0184595D01*
X1007645Y0184501D01*
X1007728Y0184410D01*
X1007814Y0184321D01*
X1007903Y0184235D01*
X1007994Y0184152D01*
X1008088Y0184071D01*
X1008185Y0183994D01*
X1008284Y0183920D01*
X1008385Y0183849D01*
X1008488Y0183781D01*
X1008594Y0183716D01*
X1008701Y0183655D01*
X1008811Y0183597D01*
X1008922Y0183543D01*
X1009034Y0183492D01*
X1009149Y0183444D01*
X1009264Y0183401D01*
X1009381Y0183361D01*
X1009500Y0183324D01*
X1009619Y0183292D01*
X1009739Y0183263D01*
X1009860Y0183238D01*
X1009982Y0183216D01*
X1010105Y0183199D01*
X1010227Y0183185D01*
X1010351Y0183176D01*
X1010474Y0183170D01*
X1010598Y0183168D01*
X1022409Y0183168D01*
X1022533Y0183166D01*
X1022656Y0183160D01*
X1022780Y0183151D01*
X1022902Y0183137D01*
X1023025Y0183120D01*
X1023147Y0183098D01*
X1023268Y0183073D01*
X1023388Y0183044D01*
X1023507Y0183012D01*
X1023626Y0182975D01*
X1023743Y0182935D01*
X1023858Y0182892D01*
X1023973Y0182844D01*
X1024085Y0182793D01*
X1024196Y0182739D01*
X1024306Y0182681D01*
X1024413Y0182620D01*
X1024519Y0182555D01*
X1024622Y0182487D01*
X1024723Y0182416D01*
X1024822Y0182342D01*
X1024919Y0182265D01*
X1025013Y0182184D01*
X1025104Y0182101D01*
X1025193Y0182015D01*
X1025279Y0181926D01*
X1025362Y0181835D01*
X1025443Y0181741D01*
X1025520Y0181644D01*
X1025594Y0181545D01*
X1025665Y0181444D01*
X1025733Y0181341D01*
X1025798Y0181235D01*
X1025859Y0181128D01*
X1025917Y0181018D01*
X1025971Y0180907D01*
X1026022Y0180795D01*
X1026070Y0180680D01*
X1026113Y0180565D01*
X1026153Y0180448D01*
X1026190Y0180329D01*
X1026222Y0180210D01*
X1026251Y0180090D01*
X1026276Y0179969D01*
X1026298Y0179847D01*
X1026315Y0179724D01*
X1026329Y0179602D01*
X1026338Y0179478D01*
X1026344Y0179355D01*
X1026346Y0179231D01*
X1026346Y0139861D01*
X1026343Y0139576D01*
X1026332Y0139290D01*
X1026315Y0139005D01*
X1026291Y0138721D01*
X1026260Y0138437D01*
X1026222Y0138154D01*
X1026177Y0137873D01*
X1026126Y0137592D01*
X1026068Y0137312D01*
X1026003Y0137034D01*
X1025931Y0136758D01*
X1025853Y0136484D01*
X1025768Y0136211D01*
X1025676Y0135941D01*
X1025578Y0135673D01*
X1025474Y0135407D01*
X1025363Y0135144D01*
X1025246Y0134884D01*
X1025123Y0134626D01*
X1024993Y0134372D01*
X1024857Y0134121D01*
X1024716Y0133873D01*
X1024568Y0133629D01*
X1024415Y0133388D01*
X1024255Y0133152D01*
X1024090Y0132919D01*
X1023920Y0132690D01*
X1023744Y0132465D01*
X1023562Y0132245D01*
X1023376Y0132029D01*
X1023184Y0131818D01*
X1022987Y0131611D01*
X1022785Y0131409D01*
X1022578Y0131212D01*
X1022367Y0131020D01*
X1022151Y0130834D01*
X1021931Y0130652D01*
X1021706Y0130476D01*
X1021477Y0130306D01*
X1021244Y0130141D01*
X1021008Y0129981D01*
X1020767Y0129828D01*
X1020523Y0129680D01*
X1020275Y0129539D01*
X1020024Y0129403D01*
X1019770Y0129273D01*
X1019512Y0129150D01*
X1019252Y0129033D01*
X1018989Y0128922D01*
X1018723Y0128818D01*
X1018455Y0128720D01*
X1018185Y0128628D01*
X1017912Y0128543D01*
X1017638Y0128465D01*
X1017362Y0128393D01*
X1017084Y0128328D01*
X1016804Y0128270D01*
X1016523Y0128219D01*
X1016242Y0128174D01*
X1015959Y0128136D01*
X1015675Y0128105D01*
X1015391Y0128081D01*
X1015106Y0128064D01*
X1014820Y0128053D01*
X1014535Y0128050D01*
X0843275Y0128050D01*
X0843151Y0128052D01*
X0843028Y0128058D01*
X0842904Y0128067D01*
X0842782Y0128081D01*
X0842659Y0128098D01*
X0842537Y0128120D01*
X0842416Y0128145D01*
X0842296Y0128174D01*
X0842177Y0128206D01*
X0842058Y0128243D01*
X0841941Y0128283D01*
X0841826Y0128326D01*
X0841711Y0128374D01*
X0841599Y0128425D01*
X0841488Y0128479D01*
X0841378Y0128537D01*
X0841271Y0128598D01*
X0841165Y0128663D01*
X0841062Y0128731D01*
X0840961Y0128802D01*
X0840862Y0128876D01*
X0840765Y0128953D01*
X0840671Y0129034D01*
X0840580Y0129117D01*
X0840491Y0129203D01*
X0840405Y0129292D01*
X0840322Y0129383D01*
X0840241Y0129477D01*
X0840164Y0129574D01*
X0840090Y0129673D01*
X0840019Y0129774D01*
X0839951Y0129877D01*
X0839886Y0129983D01*
X0839825Y0130090D01*
X0839767Y0130200D01*
X0839713Y0130311D01*
X0839662Y0130423D01*
X0839614Y0130538D01*
X0839571Y0130653D01*
X0839531Y0130770D01*
X0839494Y0130889D01*
X0839462Y0131008D01*
X0839433Y0131128D01*
X0839408Y0131249D01*
X0839386Y0131371D01*
X0839369Y0131494D01*
X0839355Y0131616D01*
X0839346Y0131740D01*
X0839340Y0131863D01*
X0839338Y0131987D01*
X0839338Y0139861D01*
X0839336Y0139985D01*
X0839330Y0140108D01*
X0839321Y0140232D01*
X0839307Y0140354D01*
X0839290Y0140477D01*
X0839268Y0140599D01*
X0839243Y0140720D01*
X0839214Y0140840D01*
X0839182Y0140959D01*
X0839145Y0141078D01*
X0839105Y0141195D01*
X0839062Y0141310D01*
X0839014Y0141425D01*
X0838963Y0141537D01*
X0838909Y0141648D01*
X0838851Y0141758D01*
X0838790Y0141865D01*
X0838725Y0141971D01*
X0838657Y0142074D01*
X0838586Y0142175D01*
X0838512Y0142274D01*
X0838435Y0142371D01*
X0838354Y0142465D01*
X0838271Y0142556D01*
X0838185Y0142645D01*
X0838096Y0142731D01*
X0838005Y0142814D01*
X0837911Y0142895D01*
X0837814Y0142972D01*
X0837715Y0143046D01*
X0837614Y0143117D01*
X0837511Y0143185D01*
X0837405Y0143250D01*
X0837298Y0143311D01*
X0837188Y0143369D01*
X0837077Y0143423D01*
X0836965Y0143474D01*
X0836850Y0143522D01*
X0836735Y0143565D01*
X0836618Y0143605D01*
X0836499Y0143642D01*
X0836380Y0143674D01*
X0836260Y0143703D01*
X0836139Y0143728D01*
X0836017Y0143750D01*
X0835894Y0143767D01*
X0835772Y0143781D01*
X0835648Y0143790D01*
X0835525Y0143796D01*
X0835401Y0143798D01*
X0823590Y0143798D01*
X0823466Y0143796D01*
X0823343Y0143790D01*
X0823219Y0143781D01*
X0823097Y0143767D01*
X0822974Y0143750D01*
X0822852Y0143728D01*
X0822731Y0143703D01*
X0822611Y0143674D01*
X0822492Y0143642D01*
X0822373Y0143605D01*
X0822256Y0143565D01*
X0822141Y0143522D01*
X0822026Y0143474D01*
X0821914Y0143423D01*
X0821803Y0143369D01*
X0821693Y0143311D01*
X0821586Y0143250D01*
X0821480Y0143185D01*
X0821377Y0143117D01*
X0821276Y0143046D01*
X0821177Y0142972D01*
X0821080Y0142895D01*
X0820986Y0142814D01*
X0820895Y0142731D01*
X0820806Y0142645D01*
X0820720Y0142556D01*
X0820637Y0142465D01*
X0820556Y0142371D01*
X0820479Y0142274D01*
X0820405Y0142175D01*
X0820334Y0142074D01*
X0820266Y0141971D01*
X0820201Y0141865D01*
X0820140Y0141758D01*
X0820082Y0141648D01*
X0820028Y0141537D01*
X0819977Y0141425D01*
X0819929Y0141310D01*
X0819886Y0141195D01*
X0819846Y0141078D01*
X0819809Y0140959D01*
X0819777Y0140840D01*
X0819748Y0140720D01*
X0819723Y0140599D01*
X0819701Y0140477D01*
X0819684Y0140354D01*
X0819670Y0140232D01*
X0819661Y0140108D01*
X0819655Y0139985D01*
X0819653Y0139861D01*
X0819653Y0131987D01*
X0819651Y0131863D01*
X0819645Y0131740D01*
X0819636Y0131616D01*
X0819622Y0131494D01*
X0819605Y0131371D01*
X0819583Y0131249D01*
X0819558Y0131128D01*
X0819529Y0131008D01*
X0819497Y0130889D01*
X0819460Y0130770D01*
X0819420Y0130653D01*
X0819377Y0130538D01*
X0819329Y0130423D01*
X0819278Y0130311D01*
X0819224Y0130200D01*
X0819166Y0130090D01*
X0819105Y0129983D01*
X0819040Y0129877D01*
X0818972Y0129774D01*
X0818901Y0129673D01*
X0818827Y0129574D01*
X0818750Y0129477D01*
X0818669Y0129383D01*
X0818586Y0129292D01*
X0818500Y0129203D01*
X0818411Y0129117D01*
X0818320Y0129034D01*
X0818226Y0128953D01*
X0818129Y0128876D01*
X0818030Y0128802D01*
X0817929Y0128731D01*
X0817826Y0128663D01*
X0817720Y0128598D01*
X0817613Y0128537D01*
X0817503Y0128479D01*
X0817392Y0128425D01*
X0817280Y0128374D01*
X0817165Y0128326D01*
X0817050Y0128283D01*
X0816933Y0128243D01*
X0816814Y0128206D01*
X0816695Y0128174D01*
X0816575Y0128145D01*
X0816454Y0128120D01*
X0816332Y0128098D01*
X0816209Y0128081D01*
X0816087Y0128067D01*
X0815963Y0128058D01*
X0815840Y0128052D01*
X0815716Y0128050D01*
X0644456Y0128050D01*
X0644171Y0128053D01*
X0643885Y0128064D01*
X0643600Y0128081D01*
X0643316Y0128105D01*
X0643032Y0128136D01*
X0642749Y0128174D01*
X0642468Y0128219D01*
X0642187Y0128270D01*
X0641907Y0128328D01*
X0641629Y0128393D01*
X0641353Y0128465D01*
X0641079Y0128543D01*
X0640806Y0128628D01*
X0640536Y0128720D01*
X0640268Y0128818D01*
X0640002Y0128922D01*
X0639739Y0129033D01*
X0639479Y0129150D01*
X0639221Y0129273D01*
X0638967Y0129403D01*
X0638716Y0129539D01*
X0638468Y0129680D01*
X0638224Y0129828D01*
X0637983Y0129981D01*
X0637747Y0130141D01*
X0637514Y0130306D01*
X0637285Y0130476D01*
X0637060Y0130652D01*
X0636840Y0130834D01*
X0636624Y0131020D01*
X0636413Y0131212D01*
X0636206Y0131409D01*
X0636004Y0131611D01*
X0635807Y0131818D01*
X0635615Y0132029D01*
X0635429Y0132245D01*
X0635247Y0132465D01*
X0635071Y0132690D01*
X0634901Y0132919D01*
X0634736Y0133152D01*
X0634576Y0133388D01*
X0634423Y0133629D01*
X0634275Y0133873D01*
X0634134Y0134121D01*
X0633998Y0134372D01*
X0633868Y0134626D01*
X0633745Y0134884D01*
X0633628Y0135144D01*
X0633517Y0135407D01*
X0633413Y0135673D01*
X0633315Y0135941D01*
X0633223Y0136211D01*
X0633138Y0136484D01*
X0633060Y0136758D01*
X0632988Y0137034D01*
X0632923Y0137312D01*
X0632865Y0137592D01*
X0632814Y0137873D01*
X0632769Y0138154D01*
X0632731Y0138437D01*
X0632700Y0138721D01*
X0632676Y0139005D01*
X0632659Y0139290D01*
X0632648Y0139576D01*
X0632645Y0139861D01*
X0640126Y0141830D02*
X0640128Y0141988D01*
X0640134Y0142146D01*
X0640144Y0142304D01*
X0640158Y0142462D01*
X0640176Y0142619D01*
X0640197Y0142776D01*
X0640223Y0142932D01*
X0640253Y0143088D01*
X0640286Y0143243D01*
X0640324Y0143396D01*
X0640365Y0143549D01*
X0640410Y0143701D01*
X0640459Y0143852D01*
X0640512Y0144001D01*
X0640568Y0144149D01*
X0640628Y0144295D01*
X0640692Y0144440D01*
X0640760Y0144583D01*
X0640831Y0144725D01*
X0640905Y0144865D01*
X0640983Y0145002D01*
X0641065Y0145138D01*
X0641149Y0145272D01*
X0641238Y0145403D01*
X0641329Y0145532D01*
X0641424Y0145659D01*
X0641521Y0145784D01*
X0641622Y0145906D01*
X0641726Y0146025D01*
X0641833Y0146142D01*
X0641943Y0146256D01*
X0642056Y0146367D01*
X0642171Y0146476D01*
X0642289Y0146581D01*
X0642410Y0146683D01*
X0642533Y0146783D01*
X0642659Y0146879D01*
X0642787Y0146972D01*
X0642917Y0147062D01*
X0643050Y0147148D01*
X0643185Y0147232D01*
X0643321Y0147311D01*
X0643460Y0147388D01*
X0643601Y0147460D01*
X0643743Y0147530D01*
X0643887Y0147595D01*
X0644033Y0147657D01*
X0644180Y0147715D01*
X0644329Y0147770D01*
X0644479Y0147821D01*
X0644630Y0147868D01*
X0644782Y0147911D01*
X0644935Y0147950D01*
X0645090Y0147986D01*
X0645245Y0148017D01*
X0645401Y0148045D01*
X0645557Y0148069D01*
X0645714Y0148089D01*
X0645872Y0148105D01*
X0646029Y0148117D01*
X0646188Y0148125D01*
X0646346Y0148129D01*
X0646504Y0148129D01*
X0646662Y0148125D01*
X0646821Y0148117D01*
X0646978Y0148105D01*
X0647136Y0148089D01*
X0647293Y0148069D01*
X0647449Y0148045D01*
X0647605Y0148017D01*
X0647760Y0147986D01*
X0647915Y0147950D01*
X0648068Y0147911D01*
X0648220Y0147868D01*
X0648371Y0147821D01*
X0648521Y0147770D01*
X0648670Y0147715D01*
X0648817Y0147657D01*
X0648963Y0147595D01*
X0649107Y0147530D01*
X0649249Y0147460D01*
X0649390Y0147388D01*
X0649529Y0147311D01*
X0649665Y0147232D01*
X0649800Y0147148D01*
X0649933Y0147062D01*
X0650063Y0146972D01*
X0650191Y0146879D01*
X0650317Y0146783D01*
X0650440Y0146683D01*
X0650561Y0146581D01*
X0650679Y0146476D01*
X0650794Y0146367D01*
X0650907Y0146256D01*
X0651017Y0146142D01*
X0651124Y0146025D01*
X0651228Y0145906D01*
X0651329Y0145784D01*
X0651426Y0145659D01*
X0651521Y0145532D01*
X0651612Y0145403D01*
X0651701Y0145272D01*
X0651785Y0145138D01*
X0651867Y0145002D01*
X0651945Y0144865D01*
X0652019Y0144725D01*
X0652090Y0144583D01*
X0652158Y0144440D01*
X0652222Y0144295D01*
X0652282Y0144149D01*
X0652338Y0144001D01*
X0652391Y0143852D01*
X0652440Y0143701D01*
X0652485Y0143549D01*
X0652526Y0143396D01*
X0652564Y0143243D01*
X0652597Y0143088D01*
X0652627Y0142932D01*
X0652653Y0142776D01*
X0652674Y0142619D01*
X0652692Y0142462D01*
X0652706Y0142304D01*
X0652716Y0142146D01*
X0652722Y0141988D01*
X0652724Y0141830D01*
X0652722Y0141672D01*
X0652716Y0141514D01*
X0652706Y0141356D01*
X0652692Y0141198D01*
X0652674Y0141041D01*
X0652653Y0140884D01*
X0652627Y0140728D01*
X0652597Y0140572D01*
X0652564Y0140417D01*
X0652526Y0140264D01*
X0652485Y0140111D01*
X0652440Y0139959D01*
X0652391Y0139808D01*
X0652338Y0139659D01*
X0652282Y0139511D01*
X0652222Y0139365D01*
X0652158Y0139220D01*
X0652090Y0139077D01*
X0652019Y0138935D01*
X0651945Y0138795D01*
X0651867Y0138658D01*
X0651785Y0138522D01*
X0651701Y0138388D01*
X0651612Y0138257D01*
X0651521Y0138128D01*
X0651426Y0138001D01*
X0651329Y0137876D01*
X0651228Y0137754D01*
X0651124Y0137635D01*
X0651017Y0137518D01*
X0650907Y0137404D01*
X0650794Y0137293D01*
X0650679Y0137184D01*
X0650561Y0137079D01*
X0650440Y0136977D01*
X0650317Y0136877D01*
X0650191Y0136781D01*
X0650063Y0136688D01*
X0649933Y0136598D01*
X0649800Y0136512D01*
X0649665Y0136428D01*
X0649529Y0136349D01*
X0649390Y0136272D01*
X0649249Y0136200D01*
X0649107Y0136130D01*
X0648963Y0136065D01*
X0648817Y0136003D01*
X0648670Y0135945D01*
X0648521Y0135890D01*
X0648371Y0135839D01*
X0648220Y0135792D01*
X0648068Y0135749D01*
X0647915Y0135710D01*
X0647760Y0135674D01*
X0647605Y0135643D01*
X0647449Y0135615D01*
X0647293Y0135591D01*
X0647136Y0135571D01*
X0646978Y0135555D01*
X0646821Y0135543D01*
X0646662Y0135535D01*
X0646504Y0135531D01*
X0646346Y0135531D01*
X0646188Y0135535D01*
X0646029Y0135543D01*
X0645872Y0135555D01*
X0645714Y0135571D01*
X0645557Y0135591D01*
X0645401Y0135615D01*
X0645245Y0135643D01*
X0645090Y0135674D01*
X0644935Y0135710D01*
X0644782Y0135749D01*
X0644630Y0135792D01*
X0644479Y0135839D01*
X0644329Y0135890D01*
X0644180Y0135945D01*
X0644033Y0136003D01*
X0643887Y0136065D01*
X0643743Y0136130D01*
X0643601Y0136200D01*
X0643460Y0136272D01*
X0643321Y0136349D01*
X0643185Y0136428D01*
X0643050Y0136512D01*
X0642917Y0136598D01*
X0642787Y0136688D01*
X0642659Y0136781D01*
X0642533Y0136877D01*
X0642410Y0136977D01*
X0642289Y0137079D01*
X0642171Y0137184D01*
X0642056Y0137293D01*
X0641943Y0137404D01*
X0641833Y0137518D01*
X0641726Y0137635D01*
X0641622Y0137754D01*
X0641521Y0137876D01*
X0641424Y0138001D01*
X0641329Y0138128D01*
X0641238Y0138257D01*
X0641149Y0138388D01*
X0641065Y0138522D01*
X0640983Y0138658D01*
X0640905Y0138795D01*
X0640831Y0138935D01*
X0640760Y0139077D01*
X0640692Y0139220D01*
X0640628Y0139365D01*
X0640568Y0139511D01*
X0640512Y0139659D01*
X0640459Y0139808D01*
X0640410Y0139959D01*
X0640365Y0140111D01*
X0640324Y0140264D01*
X0640286Y0140417D01*
X0640253Y0140572D01*
X0640223Y0140728D01*
X0640197Y0140884D01*
X0640176Y0141041D01*
X0640158Y0141198D01*
X0640144Y0141356D01*
X0640134Y0141514D01*
X0640128Y0141672D01*
X0640126Y0141830D01*
X0664358Y0140767D02*
X0664360Y0140860D01*
X0664366Y0140952D01*
X0664376Y0141044D01*
X0664390Y0141135D01*
X0664407Y0141226D01*
X0664429Y0141316D01*
X0664454Y0141405D01*
X0664483Y0141493D01*
X0664516Y0141579D01*
X0664553Y0141664D01*
X0664593Y0141748D01*
X0664637Y0141829D01*
X0664684Y0141909D01*
X0664734Y0141987D01*
X0664788Y0142062D01*
X0664845Y0142135D01*
X0664905Y0142205D01*
X0664968Y0142273D01*
X0665034Y0142338D01*
X0665102Y0142400D01*
X0665173Y0142460D01*
X0665247Y0142516D01*
X0665323Y0142569D01*
X0665401Y0142618D01*
X0665481Y0142665D01*
X0665563Y0142707D01*
X0665647Y0142747D01*
X0665732Y0142782D01*
X0665819Y0142814D01*
X0665907Y0142843D01*
X0665996Y0142867D01*
X0666086Y0142888D01*
X0666177Y0142904D01*
X0666269Y0142917D01*
X0666361Y0142926D01*
X0666454Y0142931D01*
X0666546Y0142932D01*
X0666639Y0142929D01*
X0666731Y0142922D01*
X0666823Y0142911D01*
X0666914Y0142896D01*
X0667005Y0142878D01*
X0667095Y0142855D01*
X0667183Y0142829D01*
X0667271Y0142799D01*
X0667357Y0142765D01*
X0667441Y0142728D01*
X0667524Y0142686D01*
X0667605Y0142642D01*
X0667685Y0142594D01*
X0667762Y0142543D01*
X0667836Y0142488D01*
X0667909Y0142430D01*
X0667979Y0142370D01*
X0668046Y0142306D01*
X0668110Y0142240D01*
X0668172Y0142170D01*
X0668230Y0142099D01*
X0668285Y0142025D01*
X0668337Y0141948D01*
X0668386Y0141869D01*
X0668432Y0141789D01*
X0668474Y0141706D01*
X0668512Y0141622D01*
X0668547Y0141536D01*
X0668578Y0141449D01*
X0668605Y0141361D01*
X0668628Y0141271D01*
X0668648Y0141181D01*
X0668664Y0141090D01*
X0668676Y0140998D01*
X0668684Y0140906D01*
X0668688Y0140813D01*
X0668688Y0140721D01*
X0668684Y0140628D01*
X0668676Y0140536D01*
X0668664Y0140444D01*
X0668648Y0140353D01*
X0668628Y0140263D01*
X0668605Y0140173D01*
X0668578Y0140085D01*
X0668547Y0139998D01*
X0668512Y0139912D01*
X0668474Y0139828D01*
X0668432Y0139745D01*
X0668386Y0139665D01*
X0668337Y0139586D01*
X0668285Y0139509D01*
X0668230Y0139435D01*
X0668172Y0139364D01*
X0668110Y0139294D01*
X0668046Y0139228D01*
X0667979Y0139164D01*
X0667909Y0139104D01*
X0667836Y0139046D01*
X0667762Y0138991D01*
X0667685Y0138940D01*
X0667606Y0138892D01*
X0667524Y0138848D01*
X0667441Y0138806D01*
X0667357Y0138769D01*
X0667271Y0138735D01*
X0667183Y0138705D01*
X0667095Y0138679D01*
X0667005Y0138656D01*
X0666914Y0138638D01*
X0666823Y0138623D01*
X0666731Y0138612D01*
X0666639Y0138605D01*
X0666546Y0138602D01*
X0666454Y0138603D01*
X0666361Y0138608D01*
X0666269Y0138617D01*
X0666177Y0138630D01*
X0666086Y0138646D01*
X0665996Y0138667D01*
X0665907Y0138691D01*
X0665819Y0138720D01*
X0665732Y0138752D01*
X0665647Y0138787D01*
X0665563Y0138827D01*
X0665481Y0138869D01*
X0665401Y0138916D01*
X0665323Y0138965D01*
X0665247Y0139018D01*
X0665173Y0139074D01*
X0665102Y0139134D01*
X0665034Y0139196D01*
X0664968Y0139261D01*
X0664905Y0139329D01*
X0664845Y0139399D01*
X0664788Y0139472D01*
X0664734Y0139547D01*
X0664684Y0139625D01*
X0664637Y0139705D01*
X0664593Y0139786D01*
X0664553Y0139870D01*
X0664516Y0139955D01*
X0664483Y0140041D01*
X0664454Y0140129D01*
X0664429Y0140218D01*
X0664407Y0140308D01*
X0664390Y0140399D01*
X0664376Y0140490D01*
X0664366Y0140582D01*
X0664360Y0140674D01*
X0664358Y0140767D01*
X0674358Y0140767D02*
X0674360Y0140860D01*
X0674366Y0140952D01*
X0674376Y0141044D01*
X0674390Y0141135D01*
X0674407Y0141226D01*
X0674429Y0141316D01*
X0674454Y0141405D01*
X0674483Y0141493D01*
X0674516Y0141579D01*
X0674553Y0141664D01*
X0674593Y0141748D01*
X0674637Y0141829D01*
X0674684Y0141909D01*
X0674734Y0141987D01*
X0674788Y0142062D01*
X0674845Y0142135D01*
X0674905Y0142205D01*
X0674968Y0142273D01*
X0675034Y0142338D01*
X0675102Y0142400D01*
X0675173Y0142460D01*
X0675247Y0142516D01*
X0675323Y0142569D01*
X0675401Y0142618D01*
X0675481Y0142665D01*
X0675563Y0142707D01*
X0675647Y0142747D01*
X0675732Y0142782D01*
X0675819Y0142814D01*
X0675907Y0142843D01*
X0675996Y0142867D01*
X0676086Y0142888D01*
X0676177Y0142904D01*
X0676269Y0142917D01*
X0676361Y0142926D01*
X0676454Y0142931D01*
X0676546Y0142932D01*
X0676639Y0142929D01*
X0676731Y0142922D01*
X0676823Y0142911D01*
X0676914Y0142896D01*
X0677005Y0142878D01*
X0677095Y0142855D01*
X0677183Y0142829D01*
X0677271Y0142799D01*
X0677357Y0142765D01*
X0677441Y0142728D01*
X0677524Y0142686D01*
X0677605Y0142642D01*
X0677685Y0142594D01*
X0677762Y0142543D01*
X0677836Y0142488D01*
X0677909Y0142430D01*
X0677979Y0142370D01*
X0678046Y0142306D01*
X0678110Y0142240D01*
X0678172Y0142170D01*
X0678230Y0142099D01*
X0678285Y0142025D01*
X0678337Y0141948D01*
X0678386Y0141869D01*
X0678432Y0141789D01*
X0678474Y0141706D01*
X0678512Y0141622D01*
X0678547Y0141536D01*
X0678578Y0141449D01*
X0678605Y0141361D01*
X0678628Y0141271D01*
X0678648Y0141181D01*
X0678664Y0141090D01*
X0678676Y0140998D01*
X0678684Y0140906D01*
X0678688Y0140813D01*
X0678688Y0140721D01*
X0678684Y0140628D01*
X0678676Y0140536D01*
X0678664Y0140444D01*
X0678648Y0140353D01*
X0678628Y0140263D01*
X0678605Y0140173D01*
X0678578Y0140085D01*
X0678547Y0139998D01*
X0678512Y0139912D01*
X0678474Y0139828D01*
X0678432Y0139745D01*
X0678386Y0139665D01*
X0678337Y0139586D01*
X0678285Y0139509D01*
X0678230Y0139435D01*
X0678172Y0139364D01*
X0678110Y0139294D01*
X0678046Y0139228D01*
X0677979Y0139164D01*
X0677909Y0139104D01*
X0677836Y0139046D01*
X0677762Y0138991D01*
X0677685Y0138940D01*
X0677606Y0138892D01*
X0677524Y0138848D01*
X0677441Y0138806D01*
X0677357Y0138769D01*
X0677271Y0138735D01*
X0677183Y0138705D01*
X0677095Y0138679D01*
X0677005Y0138656D01*
X0676914Y0138638D01*
X0676823Y0138623D01*
X0676731Y0138612D01*
X0676639Y0138605D01*
X0676546Y0138602D01*
X0676454Y0138603D01*
X0676361Y0138608D01*
X0676269Y0138617D01*
X0676177Y0138630D01*
X0676086Y0138646D01*
X0675996Y0138667D01*
X0675907Y0138691D01*
X0675819Y0138720D01*
X0675732Y0138752D01*
X0675647Y0138787D01*
X0675563Y0138827D01*
X0675481Y0138869D01*
X0675401Y0138916D01*
X0675323Y0138965D01*
X0675247Y0139018D01*
X0675173Y0139074D01*
X0675102Y0139134D01*
X0675034Y0139196D01*
X0674968Y0139261D01*
X0674905Y0139329D01*
X0674845Y0139399D01*
X0674788Y0139472D01*
X0674734Y0139547D01*
X0674684Y0139625D01*
X0674637Y0139705D01*
X0674593Y0139786D01*
X0674553Y0139870D01*
X0674516Y0139955D01*
X0674483Y0140041D01*
X0674454Y0140129D01*
X0674429Y0140218D01*
X0674407Y0140308D01*
X0674390Y0140399D01*
X0674376Y0140490D01*
X0674366Y0140582D01*
X0674360Y0140674D01*
X0674358Y0140767D01*
X0684358Y0140767D02*
X0684360Y0140860D01*
X0684366Y0140952D01*
X0684376Y0141044D01*
X0684390Y0141135D01*
X0684407Y0141226D01*
X0684429Y0141316D01*
X0684454Y0141405D01*
X0684483Y0141493D01*
X0684516Y0141579D01*
X0684553Y0141664D01*
X0684593Y0141748D01*
X0684637Y0141829D01*
X0684684Y0141909D01*
X0684734Y0141987D01*
X0684788Y0142062D01*
X0684845Y0142135D01*
X0684905Y0142205D01*
X0684968Y0142273D01*
X0685034Y0142338D01*
X0685102Y0142400D01*
X0685173Y0142460D01*
X0685247Y0142516D01*
X0685323Y0142569D01*
X0685401Y0142618D01*
X0685481Y0142665D01*
X0685563Y0142707D01*
X0685647Y0142747D01*
X0685732Y0142782D01*
X0685819Y0142814D01*
X0685907Y0142843D01*
X0685996Y0142867D01*
X0686086Y0142888D01*
X0686177Y0142904D01*
X0686269Y0142917D01*
X0686361Y0142926D01*
X0686454Y0142931D01*
X0686546Y0142932D01*
X0686639Y0142929D01*
X0686731Y0142922D01*
X0686823Y0142911D01*
X0686914Y0142896D01*
X0687005Y0142878D01*
X0687095Y0142855D01*
X0687183Y0142829D01*
X0687271Y0142799D01*
X0687357Y0142765D01*
X0687441Y0142728D01*
X0687524Y0142686D01*
X0687605Y0142642D01*
X0687685Y0142594D01*
X0687762Y0142543D01*
X0687836Y0142488D01*
X0687909Y0142430D01*
X0687979Y0142370D01*
X0688046Y0142306D01*
X0688110Y0142240D01*
X0688172Y0142170D01*
X0688230Y0142099D01*
X0688285Y0142025D01*
X0688337Y0141948D01*
X0688386Y0141869D01*
X0688432Y0141789D01*
X0688474Y0141706D01*
X0688512Y0141622D01*
X0688547Y0141536D01*
X0688578Y0141449D01*
X0688605Y0141361D01*
X0688628Y0141271D01*
X0688648Y0141181D01*
X0688664Y0141090D01*
X0688676Y0140998D01*
X0688684Y0140906D01*
X0688688Y0140813D01*
X0688688Y0140721D01*
X0688684Y0140628D01*
X0688676Y0140536D01*
X0688664Y0140444D01*
X0688648Y0140353D01*
X0688628Y0140263D01*
X0688605Y0140173D01*
X0688578Y0140085D01*
X0688547Y0139998D01*
X0688512Y0139912D01*
X0688474Y0139828D01*
X0688432Y0139745D01*
X0688386Y0139665D01*
X0688337Y0139586D01*
X0688285Y0139509D01*
X0688230Y0139435D01*
X0688172Y0139364D01*
X0688110Y0139294D01*
X0688046Y0139228D01*
X0687979Y0139164D01*
X0687909Y0139104D01*
X0687836Y0139046D01*
X0687762Y0138991D01*
X0687685Y0138940D01*
X0687606Y0138892D01*
X0687524Y0138848D01*
X0687441Y0138806D01*
X0687357Y0138769D01*
X0687271Y0138735D01*
X0687183Y0138705D01*
X0687095Y0138679D01*
X0687005Y0138656D01*
X0686914Y0138638D01*
X0686823Y0138623D01*
X0686731Y0138612D01*
X0686639Y0138605D01*
X0686546Y0138602D01*
X0686454Y0138603D01*
X0686361Y0138608D01*
X0686269Y0138617D01*
X0686177Y0138630D01*
X0686086Y0138646D01*
X0685996Y0138667D01*
X0685907Y0138691D01*
X0685819Y0138720D01*
X0685732Y0138752D01*
X0685647Y0138787D01*
X0685563Y0138827D01*
X0685481Y0138869D01*
X0685401Y0138916D01*
X0685323Y0138965D01*
X0685247Y0139018D01*
X0685173Y0139074D01*
X0685102Y0139134D01*
X0685034Y0139196D01*
X0684968Y0139261D01*
X0684905Y0139329D01*
X0684845Y0139399D01*
X0684788Y0139472D01*
X0684734Y0139547D01*
X0684684Y0139625D01*
X0684637Y0139705D01*
X0684593Y0139786D01*
X0684553Y0139870D01*
X0684516Y0139955D01*
X0684483Y0140041D01*
X0684454Y0140129D01*
X0684429Y0140218D01*
X0684407Y0140308D01*
X0684390Y0140399D01*
X0684376Y0140490D01*
X0684366Y0140582D01*
X0684360Y0140674D01*
X0684358Y0140767D01*
X0694358Y0140767D02*
X0694360Y0140860D01*
X0694366Y0140952D01*
X0694376Y0141044D01*
X0694390Y0141135D01*
X0694407Y0141226D01*
X0694429Y0141316D01*
X0694454Y0141405D01*
X0694483Y0141493D01*
X0694516Y0141579D01*
X0694553Y0141664D01*
X0694593Y0141748D01*
X0694637Y0141829D01*
X0694684Y0141909D01*
X0694734Y0141987D01*
X0694788Y0142062D01*
X0694845Y0142135D01*
X0694905Y0142205D01*
X0694968Y0142273D01*
X0695034Y0142338D01*
X0695102Y0142400D01*
X0695173Y0142460D01*
X0695247Y0142516D01*
X0695323Y0142569D01*
X0695401Y0142618D01*
X0695481Y0142665D01*
X0695563Y0142707D01*
X0695647Y0142747D01*
X0695732Y0142782D01*
X0695819Y0142814D01*
X0695907Y0142843D01*
X0695996Y0142867D01*
X0696086Y0142888D01*
X0696177Y0142904D01*
X0696269Y0142917D01*
X0696361Y0142926D01*
X0696454Y0142931D01*
X0696546Y0142932D01*
X0696639Y0142929D01*
X0696731Y0142922D01*
X0696823Y0142911D01*
X0696914Y0142896D01*
X0697005Y0142878D01*
X0697095Y0142855D01*
X0697183Y0142829D01*
X0697271Y0142799D01*
X0697357Y0142765D01*
X0697441Y0142728D01*
X0697524Y0142686D01*
X0697605Y0142642D01*
X0697685Y0142594D01*
X0697762Y0142543D01*
X0697836Y0142488D01*
X0697909Y0142430D01*
X0697979Y0142370D01*
X0698046Y0142306D01*
X0698110Y0142240D01*
X0698172Y0142170D01*
X0698230Y0142099D01*
X0698285Y0142025D01*
X0698337Y0141948D01*
X0698386Y0141869D01*
X0698432Y0141789D01*
X0698474Y0141706D01*
X0698512Y0141622D01*
X0698547Y0141536D01*
X0698578Y0141449D01*
X0698605Y0141361D01*
X0698628Y0141271D01*
X0698648Y0141181D01*
X0698664Y0141090D01*
X0698676Y0140998D01*
X0698684Y0140906D01*
X0698688Y0140813D01*
X0698688Y0140721D01*
X0698684Y0140628D01*
X0698676Y0140536D01*
X0698664Y0140444D01*
X0698648Y0140353D01*
X0698628Y0140263D01*
X0698605Y0140173D01*
X0698578Y0140085D01*
X0698547Y0139998D01*
X0698512Y0139912D01*
X0698474Y0139828D01*
X0698432Y0139745D01*
X0698386Y0139665D01*
X0698337Y0139586D01*
X0698285Y0139509D01*
X0698230Y0139435D01*
X0698172Y0139364D01*
X0698110Y0139294D01*
X0698046Y0139228D01*
X0697979Y0139164D01*
X0697909Y0139104D01*
X0697836Y0139046D01*
X0697762Y0138991D01*
X0697685Y0138940D01*
X0697606Y0138892D01*
X0697524Y0138848D01*
X0697441Y0138806D01*
X0697357Y0138769D01*
X0697271Y0138735D01*
X0697183Y0138705D01*
X0697095Y0138679D01*
X0697005Y0138656D01*
X0696914Y0138638D01*
X0696823Y0138623D01*
X0696731Y0138612D01*
X0696639Y0138605D01*
X0696546Y0138602D01*
X0696454Y0138603D01*
X0696361Y0138608D01*
X0696269Y0138617D01*
X0696177Y0138630D01*
X0696086Y0138646D01*
X0695996Y0138667D01*
X0695907Y0138691D01*
X0695819Y0138720D01*
X0695732Y0138752D01*
X0695647Y0138787D01*
X0695563Y0138827D01*
X0695481Y0138869D01*
X0695401Y0138916D01*
X0695323Y0138965D01*
X0695247Y0139018D01*
X0695173Y0139074D01*
X0695102Y0139134D01*
X0695034Y0139196D01*
X0694968Y0139261D01*
X0694905Y0139329D01*
X0694845Y0139399D01*
X0694788Y0139472D01*
X0694734Y0139547D01*
X0694684Y0139625D01*
X0694637Y0139705D01*
X0694593Y0139786D01*
X0694553Y0139870D01*
X0694516Y0139955D01*
X0694483Y0140041D01*
X0694454Y0140129D01*
X0694429Y0140218D01*
X0694407Y0140308D01*
X0694390Y0140399D01*
X0694376Y0140490D01*
X0694366Y0140582D01*
X0694360Y0140674D01*
X0694358Y0140767D01*
X0704397Y0140767D02*
X0704399Y0140860D01*
X0704405Y0140952D01*
X0704415Y0141044D01*
X0704429Y0141135D01*
X0704446Y0141226D01*
X0704468Y0141316D01*
X0704493Y0141405D01*
X0704522Y0141493D01*
X0704555Y0141579D01*
X0704592Y0141664D01*
X0704632Y0141748D01*
X0704676Y0141829D01*
X0704723Y0141909D01*
X0704773Y0141987D01*
X0704827Y0142062D01*
X0704884Y0142135D01*
X0704944Y0142205D01*
X0705007Y0142273D01*
X0705073Y0142338D01*
X0705141Y0142400D01*
X0705212Y0142460D01*
X0705286Y0142516D01*
X0705362Y0142569D01*
X0705440Y0142618D01*
X0705520Y0142665D01*
X0705602Y0142707D01*
X0705686Y0142747D01*
X0705771Y0142782D01*
X0705858Y0142814D01*
X0705946Y0142843D01*
X0706035Y0142867D01*
X0706125Y0142888D01*
X0706216Y0142904D01*
X0706308Y0142917D01*
X0706400Y0142926D01*
X0706493Y0142931D01*
X0706585Y0142932D01*
X0706678Y0142929D01*
X0706770Y0142922D01*
X0706862Y0142911D01*
X0706953Y0142896D01*
X0707044Y0142878D01*
X0707134Y0142855D01*
X0707222Y0142829D01*
X0707310Y0142799D01*
X0707396Y0142765D01*
X0707480Y0142728D01*
X0707563Y0142686D01*
X0707644Y0142642D01*
X0707724Y0142594D01*
X0707801Y0142543D01*
X0707875Y0142488D01*
X0707948Y0142430D01*
X0708018Y0142370D01*
X0708085Y0142306D01*
X0708149Y0142240D01*
X0708211Y0142170D01*
X0708269Y0142099D01*
X0708324Y0142025D01*
X0708376Y0141948D01*
X0708425Y0141869D01*
X0708471Y0141789D01*
X0708513Y0141706D01*
X0708551Y0141622D01*
X0708586Y0141536D01*
X0708617Y0141449D01*
X0708644Y0141361D01*
X0708667Y0141271D01*
X0708687Y0141181D01*
X0708703Y0141090D01*
X0708715Y0140998D01*
X0708723Y0140906D01*
X0708727Y0140813D01*
X0708727Y0140721D01*
X0708723Y0140628D01*
X0708715Y0140536D01*
X0708703Y0140444D01*
X0708687Y0140353D01*
X0708667Y0140263D01*
X0708644Y0140173D01*
X0708617Y0140085D01*
X0708586Y0139998D01*
X0708551Y0139912D01*
X0708513Y0139828D01*
X0708471Y0139745D01*
X0708425Y0139665D01*
X0708376Y0139586D01*
X0708324Y0139509D01*
X0708269Y0139435D01*
X0708211Y0139364D01*
X0708149Y0139294D01*
X0708085Y0139228D01*
X0708018Y0139164D01*
X0707948Y0139104D01*
X0707875Y0139046D01*
X0707801Y0138991D01*
X0707724Y0138940D01*
X0707645Y0138892D01*
X0707563Y0138848D01*
X0707480Y0138806D01*
X0707396Y0138769D01*
X0707310Y0138735D01*
X0707222Y0138705D01*
X0707134Y0138679D01*
X0707044Y0138656D01*
X0706953Y0138638D01*
X0706862Y0138623D01*
X0706770Y0138612D01*
X0706678Y0138605D01*
X0706585Y0138602D01*
X0706493Y0138603D01*
X0706400Y0138608D01*
X0706308Y0138617D01*
X0706216Y0138630D01*
X0706125Y0138646D01*
X0706035Y0138667D01*
X0705946Y0138691D01*
X0705858Y0138720D01*
X0705771Y0138752D01*
X0705686Y0138787D01*
X0705602Y0138827D01*
X0705520Y0138869D01*
X0705440Y0138916D01*
X0705362Y0138965D01*
X0705286Y0139018D01*
X0705212Y0139074D01*
X0705141Y0139134D01*
X0705073Y0139196D01*
X0705007Y0139261D01*
X0704944Y0139329D01*
X0704884Y0139399D01*
X0704827Y0139472D01*
X0704773Y0139547D01*
X0704723Y0139625D01*
X0704676Y0139705D01*
X0704632Y0139786D01*
X0704592Y0139870D01*
X0704555Y0139955D01*
X0704522Y0140041D01*
X0704493Y0140129D01*
X0704468Y0140218D01*
X0704446Y0140308D01*
X0704429Y0140399D01*
X0704415Y0140490D01*
X0704405Y0140582D01*
X0704399Y0140674D01*
X0704397Y0140767D01*
X0714397Y0140767D02*
X0714399Y0140860D01*
X0714405Y0140952D01*
X0714415Y0141044D01*
X0714429Y0141135D01*
X0714446Y0141226D01*
X0714468Y0141316D01*
X0714493Y0141405D01*
X0714522Y0141493D01*
X0714555Y0141579D01*
X0714592Y0141664D01*
X0714632Y0141748D01*
X0714676Y0141829D01*
X0714723Y0141909D01*
X0714773Y0141987D01*
X0714827Y0142062D01*
X0714884Y0142135D01*
X0714944Y0142205D01*
X0715007Y0142273D01*
X0715073Y0142338D01*
X0715141Y0142400D01*
X0715212Y0142460D01*
X0715286Y0142516D01*
X0715362Y0142569D01*
X0715440Y0142618D01*
X0715520Y0142665D01*
X0715602Y0142707D01*
X0715686Y0142747D01*
X0715771Y0142782D01*
X0715858Y0142814D01*
X0715946Y0142843D01*
X0716035Y0142867D01*
X0716125Y0142888D01*
X0716216Y0142904D01*
X0716308Y0142917D01*
X0716400Y0142926D01*
X0716493Y0142931D01*
X0716585Y0142932D01*
X0716678Y0142929D01*
X0716770Y0142922D01*
X0716862Y0142911D01*
X0716953Y0142896D01*
X0717044Y0142878D01*
X0717134Y0142855D01*
X0717222Y0142829D01*
X0717310Y0142799D01*
X0717396Y0142765D01*
X0717480Y0142728D01*
X0717563Y0142686D01*
X0717644Y0142642D01*
X0717724Y0142594D01*
X0717801Y0142543D01*
X0717875Y0142488D01*
X0717948Y0142430D01*
X0718018Y0142370D01*
X0718085Y0142306D01*
X0718149Y0142240D01*
X0718211Y0142170D01*
X0718269Y0142099D01*
X0718324Y0142025D01*
X0718376Y0141948D01*
X0718425Y0141869D01*
X0718471Y0141789D01*
X0718513Y0141706D01*
X0718551Y0141622D01*
X0718586Y0141536D01*
X0718617Y0141449D01*
X0718644Y0141361D01*
X0718667Y0141271D01*
X0718687Y0141181D01*
X0718703Y0141090D01*
X0718715Y0140998D01*
X0718723Y0140906D01*
X0718727Y0140813D01*
X0718727Y0140721D01*
X0718723Y0140628D01*
X0718715Y0140536D01*
X0718703Y0140444D01*
X0718687Y0140353D01*
X0718667Y0140263D01*
X0718644Y0140173D01*
X0718617Y0140085D01*
X0718586Y0139998D01*
X0718551Y0139912D01*
X0718513Y0139828D01*
X0718471Y0139745D01*
X0718425Y0139665D01*
X0718376Y0139586D01*
X0718324Y0139509D01*
X0718269Y0139435D01*
X0718211Y0139364D01*
X0718149Y0139294D01*
X0718085Y0139228D01*
X0718018Y0139164D01*
X0717948Y0139104D01*
X0717875Y0139046D01*
X0717801Y0138991D01*
X0717724Y0138940D01*
X0717645Y0138892D01*
X0717563Y0138848D01*
X0717480Y0138806D01*
X0717396Y0138769D01*
X0717310Y0138735D01*
X0717222Y0138705D01*
X0717134Y0138679D01*
X0717044Y0138656D01*
X0716953Y0138638D01*
X0716862Y0138623D01*
X0716770Y0138612D01*
X0716678Y0138605D01*
X0716585Y0138602D01*
X0716493Y0138603D01*
X0716400Y0138608D01*
X0716308Y0138617D01*
X0716216Y0138630D01*
X0716125Y0138646D01*
X0716035Y0138667D01*
X0715946Y0138691D01*
X0715858Y0138720D01*
X0715771Y0138752D01*
X0715686Y0138787D01*
X0715602Y0138827D01*
X0715520Y0138869D01*
X0715440Y0138916D01*
X0715362Y0138965D01*
X0715286Y0139018D01*
X0715212Y0139074D01*
X0715141Y0139134D01*
X0715073Y0139196D01*
X0715007Y0139261D01*
X0714944Y0139329D01*
X0714884Y0139399D01*
X0714827Y0139472D01*
X0714773Y0139547D01*
X0714723Y0139625D01*
X0714676Y0139705D01*
X0714632Y0139786D01*
X0714592Y0139870D01*
X0714555Y0139955D01*
X0714522Y0140041D01*
X0714493Y0140129D01*
X0714468Y0140218D01*
X0714446Y0140308D01*
X0714429Y0140399D01*
X0714415Y0140490D01*
X0714405Y0140582D01*
X0714399Y0140674D01*
X0714397Y0140767D01*
X0724397Y0140767D02*
X0724399Y0140860D01*
X0724405Y0140952D01*
X0724415Y0141044D01*
X0724429Y0141135D01*
X0724446Y0141226D01*
X0724468Y0141316D01*
X0724493Y0141405D01*
X0724522Y0141493D01*
X0724555Y0141579D01*
X0724592Y0141664D01*
X0724632Y0141748D01*
X0724676Y0141829D01*
X0724723Y0141909D01*
X0724773Y0141987D01*
X0724827Y0142062D01*
X0724884Y0142135D01*
X0724944Y0142205D01*
X0725007Y0142273D01*
X0725073Y0142338D01*
X0725141Y0142400D01*
X0725212Y0142460D01*
X0725286Y0142516D01*
X0725362Y0142569D01*
X0725440Y0142618D01*
X0725520Y0142665D01*
X0725602Y0142707D01*
X0725686Y0142747D01*
X0725771Y0142782D01*
X0725858Y0142814D01*
X0725946Y0142843D01*
X0726035Y0142867D01*
X0726125Y0142888D01*
X0726216Y0142904D01*
X0726308Y0142917D01*
X0726400Y0142926D01*
X0726493Y0142931D01*
X0726585Y0142932D01*
X0726678Y0142929D01*
X0726770Y0142922D01*
X0726862Y0142911D01*
X0726953Y0142896D01*
X0727044Y0142878D01*
X0727134Y0142855D01*
X0727222Y0142829D01*
X0727310Y0142799D01*
X0727396Y0142765D01*
X0727480Y0142728D01*
X0727563Y0142686D01*
X0727644Y0142642D01*
X0727724Y0142594D01*
X0727801Y0142543D01*
X0727875Y0142488D01*
X0727948Y0142430D01*
X0728018Y0142370D01*
X0728085Y0142306D01*
X0728149Y0142240D01*
X0728211Y0142170D01*
X0728269Y0142099D01*
X0728324Y0142025D01*
X0728376Y0141948D01*
X0728425Y0141869D01*
X0728471Y0141789D01*
X0728513Y0141706D01*
X0728551Y0141622D01*
X0728586Y0141536D01*
X0728617Y0141449D01*
X0728644Y0141361D01*
X0728667Y0141271D01*
X0728687Y0141181D01*
X0728703Y0141090D01*
X0728715Y0140998D01*
X0728723Y0140906D01*
X0728727Y0140813D01*
X0728727Y0140721D01*
X0728723Y0140628D01*
X0728715Y0140536D01*
X0728703Y0140444D01*
X0728687Y0140353D01*
X0728667Y0140263D01*
X0728644Y0140173D01*
X0728617Y0140085D01*
X0728586Y0139998D01*
X0728551Y0139912D01*
X0728513Y0139828D01*
X0728471Y0139745D01*
X0728425Y0139665D01*
X0728376Y0139586D01*
X0728324Y0139509D01*
X0728269Y0139435D01*
X0728211Y0139364D01*
X0728149Y0139294D01*
X0728085Y0139228D01*
X0728018Y0139164D01*
X0727948Y0139104D01*
X0727875Y0139046D01*
X0727801Y0138991D01*
X0727724Y0138940D01*
X0727645Y0138892D01*
X0727563Y0138848D01*
X0727480Y0138806D01*
X0727396Y0138769D01*
X0727310Y0138735D01*
X0727222Y0138705D01*
X0727134Y0138679D01*
X0727044Y0138656D01*
X0726953Y0138638D01*
X0726862Y0138623D01*
X0726770Y0138612D01*
X0726678Y0138605D01*
X0726585Y0138602D01*
X0726493Y0138603D01*
X0726400Y0138608D01*
X0726308Y0138617D01*
X0726216Y0138630D01*
X0726125Y0138646D01*
X0726035Y0138667D01*
X0725946Y0138691D01*
X0725858Y0138720D01*
X0725771Y0138752D01*
X0725686Y0138787D01*
X0725602Y0138827D01*
X0725520Y0138869D01*
X0725440Y0138916D01*
X0725362Y0138965D01*
X0725286Y0139018D01*
X0725212Y0139074D01*
X0725141Y0139134D01*
X0725073Y0139196D01*
X0725007Y0139261D01*
X0724944Y0139329D01*
X0724884Y0139399D01*
X0724827Y0139472D01*
X0724773Y0139547D01*
X0724723Y0139625D01*
X0724676Y0139705D01*
X0724632Y0139786D01*
X0724592Y0139870D01*
X0724555Y0139955D01*
X0724522Y0140041D01*
X0724493Y0140129D01*
X0724468Y0140218D01*
X0724446Y0140308D01*
X0724429Y0140399D01*
X0724415Y0140490D01*
X0724405Y0140582D01*
X0724399Y0140674D01*
X0724397Y0140767D01*
X0734397Y0140767D02*
X0734399Y0140860D01*
X0734405Y0140952D01*
X0734415Y0141044D01*
X0734429Y0141135D01*
X0734446Y0141226D01*
X0734468Y0141316D01*
X0734493Y0141405D01*
X0734522Y0141493D01*
X0734555Y0141579D01*
X0734592Y0141664D01*
X0734632Y0141748D01*
X0734676Y0141829D01*
X0734723Y0141909D01*
X0734773Y0141987D01*
X0734827Y0142062D01*
X0734884Y0142135D01*
X0734944Y0142205D01*
X0735007Y0142273D01*
X0735073Y0142338D01*
X0735141Y0142400D01*
X0735212Y0142460D01*
X0735286Y0142516D01*
X0735362Y0142569D01*
X0735440Y0142618D01*
X0735520Y0142665D01*
X0735602Y0142707D01*
X0735686Y0142747D01*
X0735771Y0142782D01*
X0735858Y0142814D01*
X0735946Y0142843D01*
X0736035Y0142867D01*
X0736125Y0142888D01*
X0736216Y0142904D01*
X0736308Y0142917D01*
X0736400Y0142926D01*
X0736493Y0142931D01*
X0736585Y0142932D01*
X0736678Y0142929D01*
X0736770Y0142922D01*
X0736862Y0142911D01*
X0736953Y0142896D01*
X0737044Y0142878D01*
X0737134Y0142855D01*
X0737222Y0142829D01*
X0737310Y0142799D01*
X0737396Y0142765D01*
X0737480Y0142728D01*
X0737563Y0142686D01*
X0737644Y0142642D01*
X0737724Y0142594D01*
X0737801Y0142543D01*
X0737875Y0142488D01*
X0737948Y0142430D01*
X0738018Y0142370D01*
X0738085Y0142306D01*
X0738149Y0142240D01*
X0738211Y0142170D01*
X0738269Y0142099D01*
X0738324Y0142025D01*
X0738376Y0141948D01*
X0738425Y0141869D01*
X0738471Y0141789D01*
X0738513Y0141706D01*
X0738551Y0141622D01*
X0738586Y0141536D01*
X0738617Y0141449D01*
X0738644Y0141361D01*
X0738667Y0141271D01*
X0738687Y0141181D01*
X0738703Y0141090D01*
X0738715Y0140998D01*
X0738723Y0140906D01*
X0738727Y0140813D01*
X0738727Y0140721D01*
X0738723Y0140628D01*
X0738715Y0140536D01*
X0738703Y0140444D01*
X0738687Y0140353D01*
X0738667Y0140263D01*
X0738644Y0140173D01*
X0738617Y0140085D01*
X0738586Y0139998D01*
X0738551Y0139912D01*
X0738513Y0139828D01*
X0738471Y0139745D01*
X0738425Y0139665D01*
X0738376Y0139586D01*
X0738324Y0139509D01*
X0738269Y0139435D01*
X0738211Y0139364D01*
X0738149Y0139294D01*
X0738085Y0139228D01*
X0738018Y0139164D01*
X0737948Y0139104D01*
X0737875Y0139046D01*
X0737801Y0138991D01*
X0737724Y0138940D01*
X0737645Y0138892D01*
X0737563Y0138848D01*
X0737480Y0138806D01*
X0737396Y0138769D01*
X0737310Y0138735D01*
X0737222Y0138705D01*
X0737134Y0138679D01*
X0737044Y0138656D01*
X0736953Y0138638D01*
X0736862Y0138623D01*
X0736770Y0138612D01*
X0736678Y0138605D01*
X0736585Y0138602D01*
X0736493Y0138603D01*
X0736400Y0138608D01*
X0736308Y0138617D01*
X0736216Y0138630D01*
X0736125Y0138646D01*
X0736035Y0138667D01*
X0735946Y0138691D01*
X0735858Y0138720D01*
X0735771Y0138752D01*
X0735686Y0138787D01*
X0735602Y0138827D01*
X0735520Y0138869D01*
X0735440Y0138916D01*
X0735362Y0138965D01*
X0735286Y0139018D01*
X0735212Y0139074D01*
X0735141Y0139134D01*
X0735073Y0139196D01*
X0735007Y0139261D01*
X0734944Y0139329D01*
X0734884Y0139399D01*
X0734827Y0139472D01*
X0734773Y0139547D01*
X0734723Y0139625D01*
X0734676Y0139705D01*
X0734632Y0139786D01*
X0734592Y0139870D01*
X0734555Y0139955D01*
X0734522Y0140041D01*
X0734493Y0140129D01*
X0734468Y0140218D01*
X0734446Y0140308D01*
X0734429Y0140399D01*
X0734415Y0140490D01*
X0734405Y0140582D01*
X0734399Y0140674D01*
X0734397Y0140767D01*
X0734397Y0150767D02*
X0734399Y0150860D01*
X0734405Y0150952D01*
X0734415Y0151044D01*
X0734429Y0151135D01*
X0734446Y0151226D01*
X0734468Y0151316D01*
X0734493Y0151405D01*
X0734522Y0151493D01*
X0734555Y0151579D01*
X0734592Y0151664D01*
X0734632Y0151748D01*
X0734676Y0151829D01*
X0734723Y0151909D01*
X0734773Y0151987D01*
X0734827Y0152062D01*
X0734884Y0152135D01*
X0734944Y0152205D01*
X0735007Y0152273D01*
X0735073Y0152338D01*
X0735141Y0152400D01*
X0735212Y0152460D01*
X0735286Y0152516D01*
X0735362Y0152569D01*
X0735440Y0152618D01*
X0735520Y0152665D01*
X0735602Y0152707D01*
X0735686Y0152747D01*
X0735771Y0152782D01*
X0735858Y0152814D01*
X0735946Y0152843D01*
X0736035Y0152867D01*
X0736125Y0152888D01*
X0736216Y0152904D01*
X0736308Y0152917D01*
X0736400Y0152926D01*
X0736493Y0152931D01*
X0736585Y0152932D01*
X0736678Y0152929D01*
X0736770Y0152922D01*
X0736862Y0152911D01*
X0736953Y0152896D01*
X0737044Y0152878D01*
X0737134Y0152855D01*
X0737222Y0152829D01*
X0737310Y0152799D01*
X0737396Y0152765D01*
X0737480Y0152728D01*
X0737563Y0152686D01*
X0737644Y0152642D01*
X0737724Y0152594D01*
X0737801Y0152543D01*
X0737875Y0152488D01*
X0737948Y0152430D01*
X0738018Y0152370D01*
X0738085Y0152306D01*
X0738149Y0152240D01*
X0738211Y0152170D01*
X0738269Y0152099D01*
X0738324Y0152025D01*
X0738376Y0151948D01*
X0738425Y0151869D01*
X0738471Y0151789D01*
X0738513Y0151706D01*
X0738551Y0151622D01*
X0738586Y0151536D01*
X0738617Y0151449D01*
X0738644Y0151361D01*
X0738667Y0151271D01*
X0738687Y0151181D01*
X0738703Y0151090D01*
X0738715Y0150998D01*
X0738723Y0150906D01*
X0738727Y0150813D01*
X0738727Y0150721D01*
X0738723Y0150628D01*
X0738715Y0150536D01*
X0738703Y0150444D01*
X0738687Y0150353D01*
X0738667Y0150263D01*
X0738644Y0150173D01*
X0738617Y0150085D01*
X0738586Y0149998D01*
X0738551Y0149912D01*
X0738513Y0149828D01*
X0738471Y0149745D01*
X0738425Y0149665D01*
X0738376Y0149586D01*
X0738324Y0149509D01*
X0738269Y0149435D01*
X0738211Y0149364D01*
X0738149Y0149294D01*
X0738085Y0149228D01*
X0738018Y0149164D01*
X0737948Y0149104D01*
X0737875Y0149046D01*
X0737801Y0148991D01*
X0737724Y0148940D01*
X0737645Y0148892D01*
X0737563Y0148848D01*
X0737480Y0148806D01*
X0737396Y0148769D01*
X0737310Y0148735D01*
X0737222Y0148705D01*
X0737134Y0148679D01*
X0737044Y0148656D01*
X0736953Y0148638D01*
X0736862Y0148623D01*
X0736770Y0148612D01*
X0736678Y0148605D01*
X0736585Y0148602D01*
X0736493Y0148603D01*
X0736400Y0148608D01*
X0736308Y0148617D01*
X0736216Y0148630D01*
X0736125Y0148646D01*
X0736035Y0148667D01*
X0735946Y0148691D01*
X0735858Y0148720D01*
X0735771Y0148752D01*
X0735686Y0148787D01*
X0735602Y0148827D01*
X0735520Y0148869D01*
X0735440Y0148916D01*
X0735362Y0148965D01*
X0735286Y0149018D01*
X0735212Y0149074D01*
X0735141Y0149134D01*
X0735073Y0149196D01*
X0735007Y0149261D01*
X0734944Y0149329D01*
X0734884Y0149399D01*
X0734827Y0149472D01*
X0734773Y0149547D01*
X0734723Y0149625D01*
X0734676Y0149705D01*
X0734632Y0149786D01*
X0734592Y0149870D01*
X0734555Y0149955D01*
X0734522Y0150041D01*
X0734493Y0150129D01*
X0734468Y0150218D01*
X0734446Y0150308D01*
X0734429Y0150399D01*
X0734415Y0150490D01*
X0734405Y0150582D01*
X0734399Y0150674D01*
X0734397Y0150767D01*
X0724397Y0150767D02*
X0724399Y0150860D01*
X0724405Y0150952D01*
X0724415Y0151044D01*
X0724429Y0151135D01*
X0724446Y0151226D01*
X0724468Y0151316D01*
X0724493Y0151405D01*
X0724522Y0151493D01*
X0724555Y0151579D01*
X0724592Y0151664D01*
X0724632Y0151748D01*
X0724676Y0151829D01*
X0724723Y0151909D01*
X0724773Y0151987D01*
X0724827Y0152062D01*
X0724884Y0152135D01*
X0724944Y0152205D01*
X0725007Y0152273D01*
X0725073Y0152338D01*
X0725141Y0152400D01*
X0725212Y0152460D01*
X0725286Y0152516D01*
X0725362Y0152569D01*
X0725440Y0152618D01*
X0725520Y0152665D01*
X0725602Y0152707D01*
X0725686Y0152747D01*
X0725771Y0152782D01*
X0725858Y0152814D01*
X0725946Y0152843D01*
X0726035Y0152867D01*
X0726125Y0152888D01*
X0726216Y0152904D01*
X0726308Y0152917D01*
X0726400Y0152926D01*
X0726493Y0152931D01*
X0726585Y0152932D01*
X0726678Y0152929D01*
X0726770Y0152922D01*
X0726862Y0152911D01*
X0726953Y0152896D01*
X0727044Y0152878D01*
X0727134Y0152855D01*
X0727222Y0152829D01*
X0727310Y0152799D01*
X0727396Y0152765D01*
X0727480Y0152728D01*
X0727563Y0152686D01*
X0727644Y0152642D01*
X0727724Y0152594D01*
X0727801Y0152543D01*
X0727875Y0152488D01*
X0727948Y0152430D01*
X0728018Y0152370D01*
X0728085Y0152306D01*
X0728149Y0152240D01*
X0728211Y0152170D01*
X0728269Y0152099D01*
X0728324Y0152025D01*
X0728376Y0151948D01*
X0728425Y0151869D01*
X0728471Y0151789D01*
X0728513Y0151706D01*
X0728551Y0151622D01*
X0728586Y0151536D01*
X0728617Y0151449D01*
X0728644Y0151361D01*
X0728667Y0151271D01*
X0728687Y0151181D01*
X0728703Y0151090D01*
X0728715Y0150998D01*
X0728723Y0150906D01*
X0728727Y0150813D01*
X0728727Y0150721D01*
X0728723Y0150628D01*
X0728715Y0150536D01*
X0728703Y0150444D01*
X0728687Y0150353D01*
X0728667Y0150263D01*
X0728644Y0150173D01*
X0728617Y0150085D01*
X0728586Y0149998D01*
X0728551Y0149912D01*
X0728513Y0149828D01*
X0728471Y0149745D01*
X0728425Y0149665D01*
X0728376Y0149586D01*
X0728324Y0149509D01*
X0728269Y0149435D01*
X0728211Y0149364D01*
X0728149Y0149294D01*
X0728085Y0149228D01*
X0728018Y0149164D01*
X0727948Y0149104D01*
X0727875Y0149046D01*
X0727801Y0148991D01*
X0727724Y0148940D01*
X0727645Y0148892D01*
X0727563Y0148848D01*
X0727480Y0148806D01*
X0727396Y0148769D01*
X0727310Y0148735D01*
X0727222Y0148705D01*
X0727134Y0148679D01*
X0727044Y0148656D01*
X0726953Y0148638D01*
X0726862Y0148623D01*
X0726770Y0148612D01*
X0726678Y0148605D01*
X0726585Y0148602D01*
X0726493Y0148603D01*
X0726400Y0148608D01*
X0726308Y0148617D01*
X0726216Y0148630D01*
X0726125Y0148646D01*
X0726035Y0148667D01*
X0725946Y0148691D01*
X0725858Y0148720D01*
X0725771Y0148752D01*
X0725686Y0148787D01*
X0725602Y0148827D01*
X0725520Y0148869D01*
X0725440Y0148916D01*
X0725362Y0148965D01*
X0725286Y0149018D01*
X0725212Y0149074D01*
X0725141Y0149134D01*
X0725073Y0149196D01*
X0725007Y0149261D01*
X0724944Y0149329D01*
X0724884Y0149399D01*
X0724827Y0149472D01*
X0724773Y0149547D01*
X0724723Y0149625D01*
X0724676Y0149705D01*
X0724632Y0149786D01*
X0724592Y0149870D01*
X0724555Y0149955D01*
X0724522Y0150041D01*
X0724493Y0150129D01*
X0724468Y0150218D01*
X0724446Y0150308D01*
X0724429Y0150399D01*
X0724415Y0150490D01*
X0724405Y0150582D01*
X0724399Y0150674D01*
X0724397Y0150767D01*
X0714397Y0150767D02*
X0714399Y0150860D01*
X0714405Y0150952D01*
X0714415Y0151044D01*
X0714429Y0151135D01*
X0714446Y0151226D01*
X0714468Y0151316D01*
X0714493Y0151405D01*
X0714522Y0151493D01*
X0714555Y0151579D01*
X0714592Y0151664D01*
X0714632Y0151748D01*
X0714676Y0151829D01*
X0714723Y0151909D01*
X0714773Y0151987D01*
X0714827Y0152062D01*
X0714884Y0152135D01*
X0714944Y0152205D01*
X0715007Y0152273D01*
X0715073Y0152338D01*
X0715141Y0152400D01*
X0715212Y0152460D01*
X0715286Y0152516D01*
X0715362Y0152569D01*
X0715440Y0152618D01*
X0715520Y0152665D01*
X0715602Y0152707D01*
X0715686Y0152747D01*
X0715771Y0152782D01*
X0715858Y0152814D01*
X0715946Y0152843D01*
X0716035Y0152867D01*
X0716125Y0152888D01*
X0716216Y0152904D01*
X0716308Y0152917D01*
X0716400Y0152926D01*
X0716493Y0152931D01*
X0716585Y0152932D01*
X0716678Y0152929D01*
X0716770Y0152922D01*
X0716862Y0152911D01*
X0716953Y0152896D01*
X0717044Y0152878D01*
X0717134Y0152855D01*
X0717222Y0152829D01*
X0717310Y0152799D01*
X0717396Y0152765D01*
X0717480Y0152728D01*
X0717563Y0152686D01*
X0717644Y0152642D01*
X0717724Y0152594D01*
X0717801Y0152543D01*
X0717875Y0152488D01*
X0717948Y0152430D01*
X0718018Y0152370D01*
X0718085Y0152306D01*
X0718149Y0152240D01*
X0718211Y0152170D01*
X0718269Y0152099D01*
X0718324Y0152025D01*
X0718376Y0151948D01*
X0718425Y0151869D01*
X0718471Y0151789D01*
X0718513Y0151706D01*
X0718551Y0151622D01*
X0718586Y0151536D01*
X0718617Y0151449D01*
X0718644Y0151361D01*
X0718667Y0151271D01*
X0718687Y0151181D01*
X0718703Y0151090D01*
X0718715Y0150998D01*
X0718723Y0150906D01*
X0718727Y0150813D01*
X0718727Y0150721D01*
X0718723Y0150628D01*
X0718715Y0150536D01*
X0718703Y0150444D01*
X0718687Y0150353D01*
X0718667Y0150263D01*
X0718644Y0150173D01*
X0718617Y0150085D01*
X0718586Y0149998D01*
X0718551Y0149912D01*
X0718513Y0149828D01*
X0718471Y0149745D01*
X0718425Y0149665D01*
X0718376Y0149586D01*
X0718324Y0149509D01*
X0718269Y0149435D01*
X0718211Y0149364D01*
X0718149Y0149294D01*
X0718085Y0149228D01*
X0718018Y0149164D01*
X0717948Y0149104D01*
X0717875Y0149046D01*
X0717801Y0148991D01*
X0717724Y0148940D01*
X0717645Y0148892D01*
X0717563Y0148848D01*
X0717480Y0148806D01*
X0717396Y0148769D01*
X0717310Y0148735D01*
X0717222Y0148705D01*
X0717134Y0148679D01*
X0717044Y0148656D01*
X0716953Y0148638D01*
X0716862Y0148623D01*
X0716770Y0148612D01*
X0716678Y0148605D01*
X0716585Y0148602D01*
X0716493Y0148603D01*
X0716400Y0148608D01*
X0716308Y0148617D01*
X0716216Y0148630D01*
X0716125Y0148646D01*
X0716035Y0148667D01*
X0715946Y0148691D01*
X0715858Y0148720D01*
X0715771Y0148752D01*
X0715686Y0148787D01*
X0715602Y0148827D01*
X0715520Y0148869D01*
X0715440Y0148916D01*
X0715362Y0148965D01*
X0715286Y0149018D01*
X0715212Y0149074D01*
X0715141Y0149134D01*
X0715073Y0149196D01*
X0715007Y0149261D01*
X0714944Y0149329D01*
X0714884Y0149399D01*
X0714827Y0149472D01*
X0714773Y0149547D01*
X0714723Y0149625D01*
X0714676Y0149705D01*
X0714632Y0149786D01*
X0714592Y0149870D01*
X0714555Y0149955D01*
X0714522Y0150041D01*
X0714493Y0150129D01*
X0714468Y0150218D01*
X0714446Y0150308D01*
X0714429Y0150399D01*
X0714415Y0150490D01*
X0714405Y0150582D01*
X0714399Y0150674D01*
X0714397Y0150767D01*
X0704397Y0150767D02*
X0704399Y0150860D01*
X0704405Y0150952D01*
X0704415Y0151044D01*
X0704429Y0151135D01*
X0704446Y0151226D01*
X0704468Y0151316D01*
X0704493Y0151405D01*
X0704522Y0151493D01*
X0704555Y0151579D01*
X0704592Y0151664D01*
X0704632Y0151748D01*
X0704676Y0151829D01*
X0704723Y0151909D01*
X0704773Y0151987D01*
X0704827Y0152062D01*
X0704884Y0152135D01*
X0704944Y0152205D01*
X0705007Y0152273D01*
X0705073Y0152338D01*
X0705141Y0152400D01*
X0705212Y0152460D01*
X0705286Y0152516D01*
X0705362Y0152569D01*
X0705440Y0152618D01*
X0705520Y0152665D01*
X0705602Y0152707D01*
X0705686Y0152747D01*
X0705771Y0152782D01*
X0705858Y0152814D01*
X0705946Y0152843D01*
X0706035Y0152867D01*
X0706125Y0152888D01*
X0706216Y0152904D01*
X0706308Y0152917D01*
X0706400Y0152926D01*
X0706493Y0152931D01*
X0706585Y0152932D01*
X0706678Y0152929D01*
X0706770Y0152922D01*
X0706862Y0152911D01*
X0706953Y0152896D01*
X0707044Y0152878D01*
X0707134Y0152855D01*
X0707222Y0152829D01*
X0707310Y0152799D01*
X0707396Y0152765D01*
X0707480Y0152728D01*
X0707563Y0152686D01*
X0707644Y0152642D01*
X0707724Y0152594D01*
X0707801Y0152543D01*
X0707875Y0152488D01*
X0707948Y0152430D01*
X0708018Y0152370D01*
X0708085Y0152306D01*
X0708149Y0152240D01*
X0708211Y0152170D01*
X0708269Y0152099D01*
X0708324Y0152025D01*
X0708376Y0151948D01*
X0708425Y0151869D01*
X0708471Y0151789D01*
X0708513Y0151706D01*
X0708551Y0151622D01*
X0708586Y0151536D01*
X0708617Y0151449D01*
X0708644Y0151361D01*
X0708667Y0151271D01*
X0708687Y0151181D01*
X0708703Y0151090D01*
X0708715Y0150998D01*
X0708723Y0150906D01*
X0708727Y0150813D01*
X0708727Y0150721D01*
X0708723Y0150628D01*
X0708715Y0150536D01*
X0708703Y0150444D01*
X0708687Y0150353D01*
X0708667Y0150263D01*
X0708644Y0150173D01*
X0708617Y0150085D01*
X0708586Y0149998D01*
X0708551Y0149912D01*
X0708513Y0149828D01*
X0708471Y0149745D01*
X0708425Y0149665D01*
X0708376Y0149586D01*
X0708324Y0149509D01*
X0708269Y0149435D01*
X0708211Y0149364D01*
X0708149Y0149294D01*
X0708085Y0149228D01*
X0708018Y0149164D01*
X0707948Y0149104D01*
X0707875Y0149046D01*
X0707801Y0148991D01*
X0707724Y0148940D01*
X0707645Y0148892D01*
X0707563Y0148848D01*
X0707480Y0148806D01*
X0707396Y0148769D01*
X0707310Y0148735D01*
X0707222Y0148705D01*
X0707134Y0148679D01*
X0707044Y0148656D01*
X0706953Y0148638D01*
X0706862Y0148623D01*
X0706770Y0148612D01*
X0706678Y0148605D01*
X0706585Y0148602D01*
X0706493Y0148603D01*
X0706400Y0148608D01*
X0706308Y0148617D01*
X0706216Y0148630D01*
X0706125Y0148646D01*
X0706035Y0148667D01*
X0705946Y0148691D01*
X0705858Y0148720D01*
X0705771Y0148752D01*
X0705686Y0148787D01*
X0705602Y0148827D01*
X0705520Y0148869D01*
X0705440Y0148916D01*
X0705362Y0148965D01*
X0705286Y0149018D01*
X0705212Y0149074D01*
X0705141Y0149134D01*
X0705073Y0149196D01*
X0705007Y0149261D01*
X0704944Y0149329D01*
X0704884Y0149399D01*
X0704827Y0149472D01*
X0704773Y0149547D01*
X0704723Y0149625D01*
X0704676Y0149705D01*
X0704632Y0149786D01*
X0704592Y0149870D01*
X0704555Y0149955D01*
X0704522Y0150041D01*
X0704493Y0150129D01*
X0704468Y0150218D01*
X0704446Y0150308D01*
X0704429Y0150399D01*
X0704415Y0150490D01*
X0704405Y0150582D01*
X0704399Y0150674D01*
X0704397Y0150767D01*
X0694358Y0150767D02*
X0694360Y0150860D01*
X0694366Y0150952D01*
X0694376Y0151044D01*
X0694390Y0151135D01*
X0694407Y0151226D01*
X0694429Y0151316D01*
X0694454Y0151405D01*
X0694483Y0151493D01*
X0694516Y0151579D01*
X0694553Y0151664D01*
X0694593Y0151748D01*
X0694637Y0151829D01*
X0694684Y0151909D01*
X0694734Y0151987D01*
X0694788Y0152062D01*
X0694845Y0152135D01*
X0694905Y0152205D01*
X0694968Y0152273D01*
X0695034Y0152338D01*
X0695102Y0152400D01*
X0695173Y0152460D01*
X0695247Y0152516D01*
X0695323Y0152569D01*
X0695401Y0152618D01*
X0695481Y0152665D01*
X0695563Y0152707D01*
X0695647Y0152747D01*
X0695732Y0152782D01*
X0695819Y0152814D01*
X0695907Y0152843D01*
X0695996Y0152867D01*
X0696086Y0152888D01*
X0696177Y0152904D01*
X0696269Y0152917D01*
X0696361Y0152926D01*
X0696454Y0152931D01*
X0696546Y0152932D01*
X0696639Y0152929D01*
X0696731Y0152922D01*
X0696823Y0152911D01*
X0696914Y0152896D01*
X0697005Y0152878D01*
X0697095Y0152855D01*
X0697183Y0152829D01*
X0697271Y0152799D01*
X0697357Y0152765D01*
X0697441Y0152728D01*
X0697524Y0152686D01*
X0697605Y0152642D01*
X0697685Y0152594D01*
X0697762Y0152543D01*
X0697836Y0152488D01*
X0697909Y0152430D01*
X0697979Y0152370D01*
X0698046Y0152306D01*
X0698110Y0152240D01*
X0698172Y0152170D01*
X0698230Y0152099D01*
X0698285Y0152025D01*
X0698337Y0151948D01*
X0698386Y0151869D01*
X0698432Y0151789D01*
X0698474Y0151706D01*
X0698512Y0151622D01*
X0698547Y0151536D01*
X0698578Y0151449D01*
X0698605Y0151361D01*
X0698628Y0151271D01*
X0698648Y0151181D01*
X0698664Y0151090D01*
X0698676Y0150998D01*
X0698684Y0150906D01*
X0698688Y0150813D01*
X0698688Y0150721D01*
X0698684Y0150628D01*
X0698676Y0150536D01*
X0698664Y0150444D01*
X0698648Y0150353D01*
X0698628Y0150263D01*
X0698605Y0150173D01*
X0698578Y0150085D01*
X0698547Y0149998D01*
X0698512Y0149912D01*
X0698474Y0149828D01*
X0698432Y0149745D01*
X0698386Y0149665D01*
X0698337Y0149586D01*
X0698285Y0149509D01*
X0698230Y0149435D01*
X0698172Y0149364D01*
X0698110Y0149294D01*
X0698046Y0149228D01*
X0697979Y0149164D01*
X0697909Y0149104D01*
X0697836Y0149046D01*
X0697762Y0148991D01*
X0697685Y0148940D01*
X0697606Y0148892D01*
X0697524Y0148848D01*
X0697441Y0148806D01*
X0697357Y0148769D01*
X0697271Y0148735D01*
X0697183Y0148705D01*
X0697095Y0148679D01*
X0697005Y0148656D01*
X0696914Y0148638D01*
X0696823Y0148623D01*
X0696731Y0148612D01*
X0696639Y0148605D01*
X0696546Y0148602D01*
X0696454Y0148603D01*
X0696361Y0148608D01*
X0696269Y0148617D01*
X0696177Y0148630D01*
X0696086Y0148646D01*
X0695996Y0148667D01*
X0695907Y0148691D01*
X0695819Y0148720D01*
X0695732Y0148752D01*
X0695647Y0148787D01*
X0695563Y0148827D01*
X0695481Y0148869D01*
X0695401Y0148916D01*
X0695323Y0148965D01*
X0695247Y0149018D01*
X0695173Y0149074D01*
X0695102Y0149134D01*
X0695034Y0149196D01*
X0694968Y0149261D01*
X0694905Y0149329D01*
X0694845Y0149399D01*
X0694788Y0149472D01*
X0694734Y0149547D01*
X0694684Y0149625D01*
X0694637Y0149705D01*
X0694593Y0149786D01*
X0694553Y0149870D01*
X0694516Y0149955D01*
X0694483Y0150041D01*
X0694454Y0150129D01*
X0694429Y0150218D01*
X0694407Y0150308D01*
X0694390Y0150399D01*
X0694376Y0150490D01*
X0694366Y0150582D01*
X0694360Y0150674D01*
X0694358Y0150767D01*
X0684358Y0150767D02*
X0684360Y0150860D01*
X0684366Y0150952D01*
X0684376Y0151044D01*
X0684390Y0151135D01*
X0684407Y0151226D01*
X0684429Y0151316D01*
X0684454Y0151405D01*
X0684483Y0151493D01*
X0684516Y0151579D01*
X0684553Y0151664D01*
X0684593Y0151748D01*
X0684637Y0151829D01*
X0684684Y0151909D01*
X0684734Y0151987D01*
X0684788Y0152062D01*
X0684845Y0152135D01*
X0684905Y0152205D01*
X0684968Y0152273D01*
X0685034Y0152338D01*
X0685102Y0152400D01*
X0685173Y0152460D01*
X0685247Y0152516D01*
X0685323Y0152569D01*
X0685401Y0152618D01*
X0685481Y0152665D01*
X0685563Y0152707D01*
X0685647Y0152747D01*
X0685732Y0152782D01*
X0685819Y0152814D01*
X0685907Y0152843D01*
X0685996Y0152867D01*
X0686086Y0152888D01*
X0686177Y0152904D01*
X0686269Y0152917D01*
X0686361Y0152926D01*
X0686454Y0152931D01*
X0686546Y0152932D01*
X0686639Y0152929D01*
X0686731Y0152922D01*
X0686823Y0152911D01*
X0686914Y0152896D01*
X0687005Y0152878D01*
X0687095Y0152855D01*
X0687183Y0152829D01*
X0687271Y0152799D01*
X0687357Y0152765D01*
X0687441Y0152728D01*
X0687524Y0152686D01*
X0687605Y0152642D01*
X0687685Y0152594D01*
X0687762Y0152543D01*
X0687836Y0152488D01*
X0687909Y0152430D01*
X0687979Y0152370D01*
X0688046Y0152306D01*
X0688110Y0152240D01*
X0688172Y0152170D01*
X0688230Y0152099D01*
X0688285Y0152025D01*
X0688337Y0151948D01*
X0688386Y0151869D01*
X0688432Y0151789D01*
X0688474Y0151706D01*
X0688512Y0151622D01*
X0688547Y0151536D01*
X0688578Y0151449D01*
X0688605Y0151361D01*
X0688628Y0151271D01*
X0688648Y0151181D01*
X0688664Y0151090D01*
X0688676Y0150998D01*
X0688684Y0150906D01*
X0688688Y0150813D01*
X0688688Y0150721D01*
X0688684Y0150628D01*
X0688676Y0150536D01*
X0688664Y0150444D01*
X0688648Y0150353D01*
X0688628Y0150263D01*
X0688605Y0150173D01*
X0688578Y0150085D01*
X0688547Y0149998D01*
X0688512Y0149912D01*
X0688474Y0149828D01*
X0688432Y0149745D01*
X0688386Y0149665D01*
X0688337Y0149586D01*
X0688285Y0149509D01*
X0688230Y0149435D01*
X0688172Y0149364D01*
X0688110Y0149294D01*
X0688046Y0149228D01*
X0687979Y0149164D01*
X0687909Y0149104D01*
X0687836Y0149046D01*
X0687762Y0148991D01*
X0687685Y0148940D01*
X0687606Y0148892D01*
X0687524Y0148848D01*
X0687441Y0148806D01*
X0687357Y0148769D01*
X0687271Y0148735D01*
X0687183Y0148705D01*
X0687095Y0148679D01*
X0687005Y0148656D01*
X0686914Y0148638D01*
X0686823Y0148623D01*
X0686731Y0148612D01*
X0686639Y0148605D01*
X0686546Y0148602D01*
X0686454Y0148603D01*
X0686361Y0148608D01*
X0686269Y0148617D01*
X0686177Y0148630D01*
X0686086Y0148646D01*
X0685996Y0148667D01*
X0685907Y0148691D01*
X0685819Y0148720D01*
X0685732Y0148752D01*
X0685647Y0148787D01*
X0685563Y0148827D01*
X0685481Y0148869D01*
X0685401Y0148916D01*
X0685323Y0148965D01*
X0685247Y0149018D01*
X0685173Y0149074D01*
X0685102Y0149134D01*
X0685034Y0149196D01*
X0684968Y0149261D01*
X0684905Y0149329D01*
X0684845Y0149399D01*
X0684788Y0149472D01*
X0684734Y0149547D01*
X0684684Y0149625D01*
X0684637Y0149705D01*
X0684593Y0149786D01*
X0684553Y0149870D01*
X0684516Y0149955D01*
X0684483Y0150041D01*
X0684454Y0150129D01*
X0684429Y0150218D01*
X0684407Y0150308D01*
X0684390Y0150399D01*
X0684376Y0150490D01*
X0684366Y0150582D01*
X0684360Y0150674D01*
X0684358Y0150767D01*
X0674358Y0150767D02*
X0674360Y0150860D01*
X0674366Y0150952D01*
X0674376Y0151044D01*
X0674390Y0151135D01*
X0674407Y0151226D01*
X0674429Y0151316D01*
X0674454Y0151405D01*
X0674483Y0151493D01*
X0674516Y0151579D01*
X0674553Y0151664D01*
X0674593Y0151748D01*
X0674637Y0151829D01*
X0674684Y0151909D01*
X0674734Y0151987D01*
X0674788Y0152062D01*
X0674845Y0152135D01*
X0674905Y0152205D01*
X0674968Y0152273D01*
X0675034Y0152338D01*
X0675102Y0152400D01*
X0675173Y0152460D01*
X0675247Y0152516D01*
X0675323Y0152569D01*
X0675401Y0152618D01*
X0675481Y0152665D01*
X0675563Y0152707D01*
X0675647Y0152747D01*
X0675732Y0152782D01*
X0675819Y0152814D01*
X0675907Y0152843D01*
X0675996Y0152867D01*
X0676086Y0152888D01*
X0676177Y0152904D01*
X0676269Y0152917D01*
X0676361Y0152926D01*
X0676454Y0152931D01*
X0676546Y0152932D01*
X0676639Y0152929D01*
X0676731Y0152922D01*
X0676823Y0152911D01*
X0676914Y0152896D01*
X0677005Y0152878D01*
X0677095Y0152855D01*
X0677183Y0152829D01*
X0677271Y0152799D01*
X0677357Y0152765D01*
X0677441Y0152728D01*
X0677524Y0152686D01*
X0677605Y0152642D01*
X0677685Y0152594D01*
X0677762Y0152543D01*
X0677836Y0152488D01*
X0677909Y0152430D01*
X0677979Y0152370D01*
X0678046Y0152306D01*
X0678110Y0152240D01*
X0678172Y0152170D01*
X0678230Y0152099D01*
X0678285Y0152025D01*
X0678337Y0151948D01*
X0678386Y0151869D01*
X0678432Y0151789D01*
X0678474Y0151706D01*
X0678512Y0151622D01*
X0678547Y0151536D01*
X0678578Y0151449D01*
X0678605Y0151361D01*
X0678628Y0151271D01*
X0678648Y0151181D01*
X0678664Y0151090D01*
X0678676Y0150998D01*
X0678684Y0150906D01*
X0678688Y0150813D01*
X0678688Y0150721D01*
X0678684Y0150628D01*
X0678676Y0150536D01*
X0678664Y0150444D01*
X0678648Y0150353D01*
X0678628Y0150263D01*
X0678605Y0150173D01*
X0678578Y0150085D01*
X0678547Y0149998D01*
X0678512Y0149912D01*
X0678474Y0149828D01*
X0678432Y0149745D01*
X0678386Y0149665D01*
X0678337Y0149586D01*
X0678285Y0149509D01*
X0678230Y0149435D01*
X0678172Y0149364D01*
X0678110Y0149294D01*
X0678046Y0149228D01*
X0677979Y0149164D01*
X0677909Y0149104D01*
X0677836Y0149046D01*
X0677762Y0148991D01*
X0677685Y0148940D01*
X0677606Y0148892D01*
X0677524Y0148848D01*
X0677441Y0148806D01*
X0677357Y0148769D01*
X0677271Y0148735D01*
X0677183Y0148705D01*
X0677095Y0148679D01*
X0677005Y0148656D01*
X0676914Y0148638D01*
X0676823Y0148623D01*
X0676731Y0148612D01*
X0676639Y0148605D01*
X0676546Y0148602D01*
X0676454Y0148603D01*
X0676361Y0148608D01*
X0676269Y0148617D01*
X0676177Y0148630D01*
X0676086Y0148646D01*
X0675996Y0148667D01*
X0675907Y0148691D01*
X0675819Y0148720D01*
X0675732Y0148752D01*
X0675647Y0148787D01*
X0675563Y0148827D01*
X0675481Y0148869D01*
X0675401Y0148916D01*
X0675323Y0148965D01*
X0675247Y0149018D01*
X0675173Y0149074D01*
X0675102Y0149134D01*
X0675034Y0149196D01*
X0674968Y0149261D01*
X0674905Y0149329D01*
X0674845Y0149399D01*
X0674788Y0149472D01*
X0674734Y0149547D01*
X0674684Y0149625D01*
X0674637Y0149705D01*
X0674593Y0149786D01*
X0674553Y0149870D01*
X0674516Y0149955D01*
X0674483Y0150041D01*
X0674454Y0150129D01*
X0674429Y0150218D01*
X0674407Y0150308D01*
X0674390Y0150399D01*
X0674376Y0150490D01*
X0674366Y0150582D01*
X0674360Y0150674D01*
X0674358Y0150767D01*
X0664358Y0150767D02*
X0664360Y0150860D01*
X0664366Y0150952D01*
X0664376Y0151044D01*
X0664390Y0151135D01*
X0664407Y0151226D01*
X0664429Y0151316D01*
X0664454Y0151405D01*
X0664483Y0151493D01*
X0664516Y0151579D01*
X0664553Y0151664D01*
X0664593Y0151748D01*
X0664637Y0151829D01*
X0664684Y0151909D01*
X0664734Y0151987D01*
X0664788Y0152062D01*
X0664845Y0152135D01*
X0664905Y0152205D01*
X0664968Y0152273D01*
X0665034Y0152338D01*
X0665102Y0152400D01*
X0665173Y0152460D01*
X0665247Y0152516D01*
X0665323Y0152569D01*
X0665401Y0152618D01*
X0665481Y0152665D01*
X0665563Y0152707D01*
X0665647Y0152747D01*
X0665732Y0152782D01*
X0665819Y0152814D01*
X0665907Y0152843D01*
X0665996Y0152867D01*
X0666086Y0152888D01*
X0666177Y0152904D01*
X0666269Y0152917D01*
X0666361Y0152926D01*
X0666454Y0152931D01*
X0666546Y0152932D01*
X0666639Y0152929D01*
X0666731Y0152922D01*
X0666823Y0152911D01*
X0666914Y0152896D01*
X0667005Y0152878D01*
X0667095Y0152855D01*
X0667183Y0152829D01*
X0667271Y0152799D01*
X0667357Y0152765D01*
X0667441Y0152728D01*
X0667524Y0152686D01*
X0667605Y0152642D01*
X0667685Y0152594D01*
X0667762Y0152543D01*
X0667836Y0152488D01*
X0667909Y0152430D01*
X0667979Y0152370D01*
X0668046Y0152306D01*
X0668110Y0152240D01*
X0668172Y0152170D01*
X0668230Y0152099D01*
X0668285Y0152025D01*
X0668337Y0151948D01*
X0668386Y0151869D01*
X0668432Y0151789D01*
X0668474Y0151706D01*
X0668512Y0151622D01*
X0668547Y0151536D01*
X0668578Y0151449D01*
X0668605Y0151361D01*
X0668628Y0151271D01*
X0668648Y0151181D01*
X0668664Y0151090D01*
X0668676Y0150998D01*
X0668684Y0150906D01*
X0668688Y0150813D01*
X0668688Y0150721D01*
X0668684Y0150628D01*
X0668676Y0150536D01*
X0668664Y0150444D01*
X0668648Y0150353D01*
X0668628Y0150263D01*
X0668605Y0150173D01*
X0668578Y0150085D01*
X0668547Y0149998D01*
X0668512Y0149912D01*
X0668474Y0149828D01*
X0668432Y0149745D01*
X0668386Y0149665D01*
X0668337Y0149586D01*
X0668285Y0149509D01*
X0668230Y0149435D01*
X0668172Y0149364D01*
X0668110Y0149294D01*
X0668046Y0149228D01*
X0667979Y0149164D01*
X0667909Y0149104D01*
X0667836Y0149046D01*
X0667762Y0148991D01*
X0667685Y0148940D01*
X0667606Y0148892D01*
X0667524Y0148848D01*
X0667441Y0148806D01*
X0667357Y0148769D01*
X0667271Y0148735D01*
X0667183Y0148705D01*
X0667095Y0148679D01*
X0667005Y0148656D01*
X0666914Y0148638D01*
X0666823Y0148623D01*
X0666731Y0148612D01*
X0666639Y0148605D01*
X0666546Y0148602D01*
X0666454Y0148603D01*
X0666361Y0148608D01*
X0666269Y0148617D01*
X0666177Y0148630D01*
X0666086Y0148646D01*
X0665996Y0148667D01*
X0665907Y0148691D01*
X0665819Y0148720D01*
X0665732Y0148752D01*
X0665647Y0148787D01*
X0665563Y0148827D01*
X0665481Y0148869D01*
X0665401Y0148916D01*
X0665323Y0148965D01*
X0665247Y0149018D01*
X0665173Y0149074D01*
X0665102Y0149134D01*
X0665034Y0149196D01*
X0664968Y0149261D01*
X0664905Y0149329D01*
X0664845Y0149399D01*
X0664788Y0149472D01*
X0664734Y0149547D01*
X0664684Y0149625D01*
X0664637Y0149705D01*
X0664593Y0149786D01*
X0664553Y0149870D01*
X0664516Y0149955D01*
X0664483Y0150041D01*
X0664454Y0150129D01*
X0664429Y0150218D01*
X0664407Y0150308D01*
X0664390Y0150399D01*
X0664376Y0150490D01*
X0664366Y0150582D01*
X0664360Y0150674D01*
X0664358Y0150767D01*
X0809810Y0230412D02*
X0817684Y0230412D01*
X0817808Y0230414D01*
X0817931Y0230420D01*
X0818055Y0230429D01*
X0818177Y0230443D01*
X0818300Y0230460D01*
X0818422Y0230482D01*
X0818543Y0230507D01*
X0818663Y0230536D01*
X0818782Y0230568D01*
X0818901Y0230605D01*
X0819018Y0230645D01*
X0819133Y0230688D01*
X0819248Y0230736D01*
X0819360Y0230787D01*
X0819471Y0230841D01*
X0819581Y0230899D01*
X0819688Y0230960D01*
X0819794Y0231025D01*
X0819897Y0231093D01*
X0819998Y0231164D01*
X0820097Y0231238D01*
X0820194Y0231315D01*
X0820288Y0231396D01*
X0820379Y0231479D01*
X0820468Y0231565D01*
X0820554Y0231654D01*
X0820637Y0231745D01*
X0820718Y0231839D01*
X0820795Y0231936D01*
X0820869Y0232035D01*
X0820940Y0232136D01*
X0821008Y0232239D01*
X0821073Y0232345D01*
X0821134Y0232452D01*
X0821192Y0232562D01*
X0821246Y0232673D01*
X0821297Y0232785D01*
X0821345Y0232900D01*
X0821388Y0233015D01*
X0821428Y0233132D01*
X0821465Y0233251D01*
X0821497Y0233370D01*
X0821526Y0233490D01*
X0821551Y0233611D01*
X0821573Y0233733D01*
X0821590Y0233856D01*
X0821604Y0233978D01*
X0821613Y0234102D01*
X0821619Y0234225D01*
X0821621Y0234349D01*
X0821621Y0289467D01*
X0821619Y0289591D01*
X0821613Y0289714D01*
X0821604Y0289838D01*
X0821590Y0289960D01*
X0821573Y0290083D01*
X0821551Y0290205D01*
X0821526Y0290326D01*
X0821497Y0290446D01*
X0821465Y0290565D01*
X0821428Y0290684D01*
X0821388Y0290801D01*
X0821345Y0290916D01*
X0821297Y0291031D01*
X0821246Y0291143D01*
X0821192Y0291254D01*
X0821134Y0291364D01*
X0821073Y0291471D01*
X0821008Y0291577D01*
X0820940Y0291680D01*
X0820869Y0291781D01*
X0820795Y0291880D01*
X0820718Y0291977D01*
X0820637Y0292071D01*
X0820554Y0292162D01*
X0820468Y0292251D01*
X0820379Y0292337D01*
X0820288Y0292420D01*
X0820194Y0292501D01*
X0820097Y0292578D01*
X0819998Y0292652D01*
X0819897Y0292723D01*
X0819794Y0292791D01*
X0819688Y0292856D01*
X0819581Y0292917D01*
X0819471Y0292975D01*
X0819360Y0293029D01*
X0819248Y0293080D01*
X0819133Y0293128D01*
X0819018Y0293171D01*
X0818901Y0293211D01*
X0818782Y0293248D01*
X0818663Y0293280D01*
X0818543Y0293309D01*
X0818422Y0293334D01*
X0818300Y0293356D01*
X0818177Y0293373D01*
X0818055Y0293387D01*
X0817931Y0293396D01*
X0817808Y0293402D01*
X0817684Y0293404D01*
X0809810Y0293404D01*
X0809686Y0293402D01*
X0809563Y0293396D01*
X0809439Y0293387D01*
X0809317Y0293373D01*
X0809194Y0293356D01*
X0809072Y0293334D01*
X0808951Y0293309D01*
X0808831Y0293280D01*
X0808712Y0293248D01*
X0808593Y0293211D01*
X0808476Y0293171D01*
X0808361Y0293128D01*
X0808246Y0293080D01*
X0808134Y0293029D01*
X0808023Y0292975D01*
X0807913Y0292917D01*
X0807806Y0292856D01*
X0807700Y0292791D01*
X0807597Y0292723D01*
X0807496Y0292652D01*
X0807397Y0292578D01*
X0807300Y0292501D01*
X0807206Y0292420D01*
X0807115Y0292337D01*
X0807026Y0292251D01*
X0806940Y0292162D01*
X0806857Y0292071D01*
X0806776Y0291977D01*
X0806699Y0291880D01*
X0806625Y0291781D01*
X0806554Y0291680D01*
X0806486Y0291577D01*
X0806421Y0291471D01*
X0806360Y0291364D01*
X0806302Y0291254D01*
X0806248Y0291143D01*
X0806197Y0291031D01*
X0806149Y0290916D01*
X0806106Y0290801D01*
X0806066Y0290684D01*
X0806029Y0290565D01*
X0805997Y0290446D01*
X0805968Y0290326D01*
X0805943Y0290205D01*
X0805921Y0290083D01*
X0805904Y0289960D01*
X0805890Y0289838D01*
X0805881Y0289714D01*
X0805875Y0289591D01*
X0805873Y0289467D01*
X0805873Y0234349D01*
X0805875Y0234225D01*
X0805881Y0234102D01*
X0805890Y0233978D01*
X0805904Y0233856D01*
X0805921Y0233733D01*
X0805943Y0233611D01*
X0805968Y0233490D01*
X0805997Y0233370D01*
X0806029Y0233251D01*
X0806066Y0233132D01*
X0806106Y0233015D01*
X0806149Y0232900D01*
X0806197Y0232785D01*
X0806248Y0232673D01*
X0806302Y0232562D01*
X0806360Y0232452D01*
X0806421Y0232345D01*
X0806486Y0232239D01*
X0806554Y0232136D01*
X0806625Y0232035D01*
X0806699Y0231936D01*
X0806776Y0231839D01*
X0806857Y0231745D01*
X0806940Y0231654D01*
X0807026Y0231565D01*
X0807115Y0231479D01*
X0807206Y0231396D01*
X0807300Y0231315D01*
X0807397Y0231238D01*
X0807496Y0231164D01*
X0807597Y0231093D01*
X0807700Y0231025D01*
X0807806Y0230960D01*
X0807913Y0230899D01*
X0808023Y0230841D01*
X0808134Y0230787D01*
X0808246Y0230736D01*
X0808361Y0230688D01*
X0808476Y0230645D01*
X0808593Y0230605D01*
X0808712Y0230568D01*
X0808831Y0230536D01*
X0808951Y0230507D01*
X0809072Y0230482D01*
X0809194Y0230460D01*
X0809317Y0230443D01*
X0809439Y0230429D01*
X0809563Y0230420D01*
X0809686Y0230414D01*
X0809810Y0230412D01*
X0780283Y0232381D02*
X0677921Y0232381D01*
X0673984Y0236318D02*
X0673986Y0236442D01*
X0673992Y0236565D01*
X0674001Y0236689D01*
X0674015Y0236811D01*
X0674032Y0236934D01*
X0674054Y0237056D01*
X0674079Y0237177D01*
X0674108Y0237297D01*
X0674140Y0237416D01*
X0674177Y0237535D01*
X0674217Y0237652D01*
X0674260Y0237767D01*
X0674308Y0237882D01*
X0674359Y0237994D01*
X0674413Y0238105D01*
X0674471Y0238215D01*
X0674532Y0238322D01*
X0674597Y0238428D01*
X0674665Y0238531D01*
X0674736Y0238632D01*
X0674810Y0238731D01*
X0674887Y0238828D01*
X0674968Y0238922D01*
X0675051Y0239013D01*
X0675137Y0239102D01*
X0675226Y0239188D01*
X0675317Y0239271D01*
X0675411Y0239352D01*
X0675508Y0239429D01*
X0675607Y0239503D01*
X0675708Y0239574D01*
X0675811Y0239642D01*
X0675917Y0239707D01*
X0676024Y0239768D01*
X0676134Y0239826D01*
X0676245Y0239880D01*
X0676357Y0239931D01*
X0676472Y0239979D01*
X0676587Y0240022D01*
X0676704Y0240062D01*
X0676823Y0240099D01*
X0676942Y0240131D01*
X0677062Y0240160D01*
X0677183Y0240185D01*
X0677305Y0240207D01*
X0677428Y0240224D01*
X0677550Y0240238D01*
X0677674Y0240247D01*
X0677797Y0240253D01*
X0677921Y0240255D01*
X0780283Y0240255D01*
X0784220Y0236318D02*
X0784218Y0236194D01*
X0784212Y0236071D01*
X0784203Y0235947D01*
X0784189Y0235825D01*
X0784172Y0235702D01*
X0784150Y0235580D01*
X0784125Y0235459D01*
X0784096Y0235339D01*
X0784064Y0235220D01*
X0784027Y0235101D01*
X0783987Y0234984D01*
X0783944Y0234869D01*
X0783896Y0234754D01*
X0783845Y0234642D01*
X0783791Y0234531D01*
X0783733Y0234421D01*
X0783672Y0234314D01*
X0783607Y0234208D01*
X0783539Y0234105D01*
X0783468Y0234004D01*
X0783394Y0233905D01*
X0783317Y0233808D01*
X0783236Y0233714D01*
X0783153Y0233623D01*
X0783067Y0233534D01*
X0782978Y0233448D01*
X0782887Y0233365D01*
X0782793Y0233284D01*
X0782696Y0233207D01*
X0782597Y0233133D01*
X0782496Y0233062D01*
X0782393Y0232994D01*
X0782287Y0232929D01*
X0782180Y0232868D01*
X0782070Y0232810D01*
X0781959Y0232756D01*
X0781847Y0232705D01*
X0781732Y0232657D01*
X0781617Y0232614D01*
X0781500Y0232574D01*
X0781381Y0232537D01*
X0781262Y0232505D01*
X0781142Y0232476D01*
X0781021Y0232451D01*
X0780899Y0232429D01*
X0780776Y0232412D01*
X0780654Y0232398D01*
X0780530Y0232389D01*
X0780407Y0232383D01*
X0780283Y0232381D01*
X0784220Y0236318D02*
X0784218Y0236442D01*
X0784212Y0236565D01*
X0784203Y0236689D01*
X0784189Y0236811D01*
X0784172Y0236934D01*
X0784150Y0237056D01*
X0784125Y0237177D01*
X0784096Y0237297D01*
X0784064Y0237416D01*
X0784027Y0237535D01*
X0783987Y0237652D01*
X0783944Y0237767D01*
X0783896Y0237882D01*
X0783845Y0237994D01*
X0783791Y0238105D01*
X0783733Y0238215D01*
X0783672Y0238322D01*
X0783607Y0238428D01*
X0783539Y0238531D01*
X0783468Y0238632D01*
X0783394Y0238731D01*
X0783317Y0238828D01*
X0783236Y0238922D01*
X0783153Y0239013D01*
X0783067Y0239102D01*
X0782978Y0239188D01*
X0782887Y0239271D01*
X0782793Y0239352D01*
X0782696Y0239429D01*
X0782597Y0239503D01*
X0782496Y0239574D01*
X0782393Y0239642D01*
X0782287Y0239707D01*
X0782180Y0239768D01*
X0782070Y0239826D01*
X0781959Y0239880D01*
X0781847Y0239931D01*
X0781732Y0239979D01*
X0781617Y0240022D01*
X0781500Y0240062D01*
X0781381Y0240099D01*
X0781262Y0240131D01*
X0781142Y0240160D01*
X0781021Y0240185D01*
X0780899Y0240207D01*
X0780776Y0240224D01*
X0780654Y0240238D01*
X0780530Y0240247D01*
X0780407Y0240253D01*
X0780283Y0240255D01*
X0759811Y0248326D02*
X0759813Y0248382D01*
X0759819Y0248437D01*
X0759829Y0248491D01*
X0759842Y0248545D01*
X0759860Y0248598D01*
X0759881Y0248649D01*
X0759905Y0248699D01*
X0759933Y0248747D01*
X0759965Y0248793D01*
X0759999Y0248837D01*
X0760037Y0248878D01*
X0760077Y0248916D01*
X0760120Y0248951D01*
X0760165Y0248983D01*
X0760213Y0249012D01*
X0760262Y0249038D01*
X0760313Y0249060D01*
X0760365Y0249078D01*
X0760419Y0249092D01*
X0760474Y0249103D01*
X0760529Y0249110D01*
X0760584Y0249113D01*
X0760640Y0249112D01*
X0760695Y0249107D01*
X0760750Y0249098D01*
X0760804Y0249086D01*
X0760857Y0249069D01*
X0760909Y0249049D01*
X0760959Y0249025D01*
X0761007Y0248998D01*
X0761054Y0248968D01*
X0761098Y0248934D01*
X0761140Y0248897D01*
X0761178Y0248857D01*
X0761215Y0248815D01*
X0761248Y0248770D01*
X0761277Y0248724D01*
X0761304Y0248675D01*
X0761326Y0248624D01*
X0761346Y0248572D01*
X0761361Y0248518D01*
X0761373Y0248464D01*
X0761381Y0248409D01*
X0761385Y0248354D01*
X0761385Y0248298D01*
X0761381Y0248243D01*
X0761373Y0248188D01*
X0761361Y0248134D01*
X0761346Y0248080D01*
X0761326Y0248028D01*
X0761304Y0247977D01*
X0761277Y0247928D01*
X0761248Y0247882D01*
X0761215Y0247837D01*
X0761178Y0247795D01*
X0761140Y0247755D01*
X0761098Y0247718D01*
X0761054Y0247684D01*
X0761007Y0247654D01*
X0760959Y0247627D01*
X0760909Y0247603D01*
X0760857Y0247583D01*
X0760804Y0247566D01*
X0760750Y0247554D01*
X0760695Y0247545D01*
X0760640Y0247540D01*
X0760584Y0247539D01*
X0760529Y0247542D01*
X0760474Y0247549D01*
X0760419Y0247560D01*
X0760365Y0247574D01*
X0760313Y0247592D01*
X0760262Y0247614D01*
X0760213Y0247640D01*
X0760165Y0247669D01*
X0760120Y0247701D01*
X0760077Y0247736D01*
X0760037Y0247774D01*
X0759999Y0247815D01*
X0759965Y0247859D01*
X0759933Y0247905D01*
X0759905Y0247953D01*
X0759881Y0248003D01*
X0759860Y0248054D01*
X0759842Y0248107D01*
X0759829Y0248161D01*
X0759819Y0248215D01*
X0759813Y0248270D01*
X0759811Y0248326D01*
X0696819Y0248326D02*
X0696821Y0248382D01*
X0696827Y0248437D01*
X0696837Y0248491D01*
X0696850Y0248545D01*
X0696868Y0248598D01*
X0696889Y0248649D01*
X0696913Y0248699D01*
X0696941Y0248747D01*
X0696973Y0248793D01*
X0697007Y0248837D01*
X0697045Y0248878D01*
X0697085Y0248916D01*
X0697128Y0248951D01*
X0697173Y0248983D01*
X0697221Y0249012D01*
X0697270Y0249038D01*
X0697321Y0249060D01*
X0697373Y0249078D01*
X0697427Y0249092D01*
X0697482Y0249103D01*
X0697537Y0249110D01*
X0697592Y0249113D01*
X0697648Y0249112D01*
X0697703Y0249107D01*
X0697758Y0249098D01*
X0697812Y0249086D01*
X0697865Y0249069D01*
X0697917Y0249049D01*
X0697967Y0249025D01*
X0698015Y0248998D01*
X0698062Y0248968D01*
X0698106Y0248934D01*
X0698148Y0248897D01*
X0698186Y0248857D01*
X0698223Y0248815D01*
X0698256Y0248770D01*
X0698285Y0248724D01*
X0698312Y0248675D01*
X0698334Y0248624D01*
X0698354Y0248572D01*
X0698369Y0248518D01*
X0698381Y0248464D01*
X0698389Y0248409D01*
X0698393Y0248354D01*
X0698393Y0248298D01*
X0698389Y0248243D01*
X0698381Y0248188D01*
X0698369Y0248134D01*
X0698354Y0248080D01*
X0698334Y0248028D01*
X0698312Y0247977D01*
X0698285Y0247928D01*
X0698256Y0247882D01*
X0698223Y0247837D01*
X0698186Y0247795D01*
X0698148Y0247755D01*
X0698106Y0247718D01*
X0698062Y0247684D01*
X0698015Y0247654D01*
X0697967Y0247627D01*
X0697917Y0247603D01*
X0697865Y0247583D01*
X0697812Y0247566D01*
X0697758Y0247554D01*
X0697703Y0247545D01*
X0697648Y0247540D01*
X0697592Y0247539D01*
X0697537Y0247542D01*
X0697482Y0247549D01*
X0697427Y0247560D01*
X0697373Y0247574D01*
X0697321Y0247592D01*
X0697270Y0247614D01*
X0697221Y0247640D01*
X0697173Y0247669D01*
X0697128Y0247701D01*
X0697085Y0247736D01*
X0697045Y0247774D01*
X0697007Y0247815D01*
X0696973Y0247859D01*
X0696941Y0247905D01*
X0696913Y0247953D01*
X0696889Y0248003D01*
X0696868Y0248054D01*
X0696850Y0248107D01*
X0696837Y0248161D01*
X0696827Y0248215D01*
X0696821Y0248270D01*
X0696819Y0248326D01*
X0677921Y0232381D02*
X0677797Y0232383D01*
X0677674Y0232389D01*
X0677550Y0232398D01*
X0677428Y0232412D01*
X0677305Y0232429D01*
X0677183Y0232451D01*
X0677062Y0232476D01*
X0676942Y0232505D01*
X0676823Y0232537D01*
X0676704Y0232574D01*
X0676587Y0232614D01*
X0676472Y0232657D01*
X0676357Y0232705D01*
X0676245Y0232756D01*
X0676134Y0232810D01*
X0676024Y0232868D01*
X0675917Y0232929D01*
X0675811Y0232994D01*
X0675708Y0233062D01*
X0675607Y0233133D01*
X0675508Y0233207D01*
X0675411Y0233284D01*
X0675317Y0233365D01*
X0675226Y0233448D01*
X0675137Y0233534D01*
X0675051Y0233623D01*
X0674968Y0233714D01*
X0674887Y0233808D01*
X0674810Y0233905D01*
X0674736Y0234004D01*
X0674665Y0234105D01*
X0674597Y0234208D01*
X0674532Y0234314D01*
X0674471Y0234421D01*
X0674413Y0234531D01*
X0674359Y0234642D01*
X0674308Y0234754D01*
X0674260Y0234869D01*
X0674217Y0234984D01*
X0674177Y0235101D01*
X0674140Y0235220D01*
X0674108Y0235339D01*
X0674079Y0235459D01*
X0674054Y0235580D01*
X0674032Y0235702D01*
X0674015Y0235825D01*
X0674001Y0235947D01*
X0673992Y0236071D01*
X0673986Y0236194D01*
X0673984Y0236318D01*
X0640126Y0330806D02*
X0640128Y0330964D01*
X0640134Y0331122D01*
X0640144Y0331280D01*
X0640158Y0331438D01*
X0640176Y0331595D01*
X0640197Y0331752D01*
X0640223Y0331908D01*
X0640253Y0332064D01*
X0640286Y0332219D01*
X0640324Y0332372D01*
X0640365Y0332525D01*
X0640410Y0332677D01*
X0640459Y0332828D01*
X0640512Y0332977D01*
X0640568Y0333125D01*
X0640628Y0333271D01*
X0640692Y0333416D01*
X0640760Y0333559D01*
X0640831Y0333701D01*
X0640905Y0333841D01*
X0640983Y0333978D01*
X0641065Y0334114D01*
X0641149Y0334248D01*
X0641238Y0334379D01*
X0641329Y0334508D01*
X0641424Y0334635D01*
X0641521Y0334760D01*
X0641622Y0334882D01*
X0641726Y0335001D01*
X0641833Y0335118D01*
X0641943Y0335232D01*
X0642056Y0335343D01*
X0642171Y0335452D01*
X0642289Y0335557D01*
X0642410Y0335659D01*
X0642533Y0335759D01*
X0642659Y0335855D01*
X0642787Y0335948D01*
X0642917Y0336038D01*
X0643050Y0336124D01*
X0643185Y0336208D01*
X0643321Y0336287D01*
X0643460Y0336364D01*
X0643601Y0336436D01*
X0643743Y0336506D01*
X0643887Y0336571D01*
X0644033Y0336633D01*
X0644180Y0336691D01*
X0644329Y0336746D01*
X0644479Y0336797D01*
X0644630Y0336844D01*
X0644782Y0336887D01*
X0644935Y0336926D01*
X0645090Y0336962D01*
X0645245Y0336993D01*
X0645401Y0337021D01*
X0645557Y0337045D01*
X0645714Y0337065D01*
X0645872Y0337081D01*
X0646029Y0337093D01*
X0646188Y0337101D01*
X0646346Y0337105D01*
X0646504Y0337105D01*
X0646662Y0337101D01*
X0646821Y0337093D01*
X0646978Y0337081D01*
X0647136Y0337065D01*
X0647293Y0337045D01*
X0647449Y0337021D01*
X0647605Y0336993D01*
X0647760Y0336962D01*
X0647915Y0336926D01*
X0648068Y0336887D01*
X0648220Y0336844D01*
X0648371Y0336797D01*
X0648521Y0336746D01*
X0648670Y0336691D01*
X0648817Y0336633D01*
X0648963Y0336571D01*
X0649107Y0336506D01*
X0649249Y0336436D01*
X0649390Y0336364D01*
X0649529Y0336287D01*
X0649665Y0336208D01*
X0649800Y0336124D01*
X0649933Y0336038D01*
X0650063Y0335948D01*
X0650191Y0335855D01*
X0650317Y0335759D01*
X0650440Y0335659D01*
X0650561Y0335557D01*
X0650679Y0335452D01*
X0650794Y0335343D01*
X0650907Y0335232D01*
X0651017Y0335118D01*
X0651124Y0335001D01*
X0651228Y0334882D01*
X0651329Y0334760D01*
X0651426Y0334635D01*
X0651521Y0334508D01*
X0651612Y0334379D01*
X0651701Y0334248D01*
X0651785Y0334114D01*
X0651867Y0333978D01*
X0651945Y0333841D01*
X0652019Y0333701D01*
X0652090Y0333559D01*
X0652158Y0333416D01*
X0652222Y0333271D01*
X0652282Y0333125D01*
X0652338Y0332977D01*
X0652391Y0332828D01*
X0652440Y0332677D01*
X0652485Y0332525D01*
X0652526Y0332372D01*
X0652564Y0332219D01*
X0652597Y0332064D01*
X0652627Y0331908D01*
X0652653Y0331752D01*
X0652674Y0331595D01*
X0652692Y0331438D01*
X0652706Y0331280D01*
X0652716Y0331122D01*
X0652722Y0330964D01*
X0652724Y0330806D01*
X0652722Y0330648D01*
X0652716Y0330490D01*
X0652706Y0330332D01*
X0652692Y0330174D01*
X0652674Y0330017D01*
X0652653Y0329860D01*
X0652627Y0329704D01*
X0652597Y0329548D01*
X0652564Y0329393D01*
X0652526Y0329240D01*
X0652485Y0329087D01*
X0652440Y0328935D01*
X0652391Y0328784D01*
X0652338Y0328635D01*
X0652282Y0328487D01*
X0652222Y0328341D01*
X0652158Y0328196D01*
X0652090Y0328053D01*
X0652019Y0327911D01*
X0651945Y0327771D01*
X0651867Y0327634D01*
X0651785Y0327498D01*
X0651701Y0327364D01*
X0651612Y0327233D01*
X0651521Y0327104D01*
X0651426Y0326977D01*
X0651329Y0326852D01*
X0651228Y0326730D01*
X0651124Y0326611D01*
X0651017Y0326494D01*
X0650907Y0326380D01*
X0650794Y0326269D01*
X0650679Y0326160D01*
X0650561Y0326055D01*
X0650440Y0325953D01*
X0650317Y0325853D01*
X0650191Y0325757D01*
X0650063Y0325664D01*
X0649933Y0325574D01*
X0649800Y0325488D01*
X0649665Y0325404D01*
X0649529Y0325325D01*
X0649390Y0325248D01*
X0649249Y0325176D01*
X0649107Y0325106D01*
X0648963Y0325041D01*
X0648817Y0324979D01*
X0648670Y0324921D01*
X0648521Y0324866D01*
X0648371Y0324815D01*
X0648220Y0324768D01*
X0648068Y0324725D01*
X0647915Y0324686D01*
X0647760Y0324650D01*
X0647605Y0324619D01*
X0647449Y0324591D01*
X0647293Y0324567D01*
X0647136Y0324547D01*
X0646978Y0324531D01*
X0646821Y0324519D01*
X0646662Y0324511D01*
X0646504Y0324507D01*
X0646346Y0324507D01*
X0646188Y0324511D01*
X0646029Y0324519D01*
X0645872Y0324531D01*
X0645714Y0324547D01*
X0645557Y0324567D01*
X0645401Y0324591D01*
X0645245Y0324619D01*
X0645090Y0324650D01*
X0644935Y0324686D01*
X0644782Y0324725D01*
X0644630Y0324768D01*
X0644479Y0324815D01*
X0644329Y0324866D01*
X0644180Y0324921D01*
X0644033Y0324979D01*
X0643887Y0325041D01*
X0643743Y0325106D01*
X0643601Y0325176D01*
X0643460Y0325248D01*
X0643321Y0325325D01*
X0643185Y0325404D01*
X0643050Y0325488D01*
X0642917Y0325574D01*
X0642787Y0325664D01*
X0642659Y0325757D01*
X0642533Y0325853D01*
X0642410Y0325953D01*
X0642289Y0326055D01*
X0642171Y0326160D01*
X0642056Y0326269D01*
X0641943Y0326380D01*
X0641833Y0326494D01*
X0641726Y0326611D01*
X0641622Y0326730D01*
X0641521Y0326852D01*
X0641424Y0326977D01*
X0641329Y0327104D01*
X0641238Y0327233D01*
X0641149Y0327364D01*
X0641065Y0327498D01*
X0640983Y0327634D01*
X0640905Y0327771D01*
X0640831Y0327911D01*
X0640760Y0328053D01*
X0640692Y0328196D01*
X0640628Y0328341D01*
X0640568Y0328487D01*
X0640512Y0328635D01*
X0640459Y0328784D01*
X0640410Y0328935D01*
X0640365Y0329087D01*
X0640324Y0329240D01*
X0640286Y0329393D01*
X0640253Y0329548D01*
X0640223Y0329704D01*
X0640197Y0329860D01*
X0640176Y0330017D01*
X0640158Y0330174D01*
X0640144Y0330332D01*
X0640134Y0330490D01*
X0640128Y0330648D01*
X0640126Y0330806D01*
X0966937Y0331869D02*
X0966939Y0331962D01*
X0966945Y0332054D01*
X0966955Y0332146D01*
X0966969Y0332237D01*
X0966986Y0332328D01*
X0967008Y0332418D01*
X0967033Y0332507D01*
X0967062Y0332595D01*
X0967095Y0332681D01*
X0967132Y0332766D01*
X0967172Y0332850D01*
X0967216Y0332931D01*
X0967263Y0333011D01*
X0967313Y0333089D01*
X0967367Y0333164D01*
X0967424Y0333237D01*
X0967484Y0333307D01*
X0967547Y0333375D01*
X0967613Y0333440D01*
X0967681Y0333502D01*
X0967752Y0333562D01*
X0967826Y0333618D01*
X0967902Y0333671D01*
X0967980Y0333720D01*
X0968060Y0333767D01*
X0968142Y0333809D01*
X0968226Y0333849D01*
X0968311Y0333884D01*
X0968398Y0333916D01*
X0968486Y0333945D01*
X0968575Y0333969D01*
X0968665Y0333990D01*
X0968756Y0334006D01*
X0968848Y0334019D01*
X0968940Y0334028D01*
X0969033Y0334033D01*
X0969125Y0334034D01*
X0969218Y0334031D01*
X0969310Y0334024D01*
X0969402Y0334013D01*
X0969493Y0333998D01*
X0969584Y0333980D01*
X0969674Y0333957D01*
X0969762Y0333931D01*
X0969850Y0333901D01*
X0969936Y0333867D01*
X0970020Y0333830D01*
X0970103Y0333788D01*
X0970184Y0333744D01*
X0970264Y0333696D01*
X0970341Y0333645D01*
X0970415Y0333590D01*
X0970488Y0333532D01*
X0970558Y0333472D01*
X0970625Y0333408D01*
X0970689Y0333342D01*
X0970751Y0333272D01*
X0970809Y0333201D01*
X0970864Y0333127D01*
X0970916Y0333050D01*
X0970965Y0332971D01*
X0971011Y0332891D01*
X0971053Y0332808D01*
X0971091Y0332724D01*
X0971126Y0332638D01*
X0971157Y0332551D01*
X0971184Y0332463D01*
X0971207Y0332373D01*
X0971227Y0332283D01*
X0971243Y0332192D01*
X0971255Y0332100D01*
X0971263Y0332008D01*
X0971267Y0331915D01*
X0971267Y0331823D01*
X0971263Y0331730D01*
X0971255Y0331638D01*
X0971243Y0331546D01*
X0971227Y0331455D01*
X0971207Y0331365D01*
X0971184Y0331275D01*
X0971157Y0331187D01*
X0971126Y0331100D01*
X0971091Y0331014D01*
X0971053Y0330930D01*
X0971011Y0330847D01*
X0970965Y0330767D01*
X0970916Y0330688D01*
X0970864Y0330611D01*
X0970809Y0330537D01*
X0970751Y0330466D01*
X0970689Y0330396D01*
X0970625Y0330330D01*
X0970558Y0330266D01*
X0970488Y0330206D01*
X0970415Y0330148D01*
X0970341Y0330093D01*
X0970264Y0330042D01*
X0970185Y0329994D01*
X0970103Y0329950D01*
X0970020Y0329908D01*
X0969936Y0329871D01*
X0969850Y0329837D01*
X0969762Y0329807D01*
X0969674Y0329781D01*
X0969584Y0329758D01*
X0969493Y0329740D01*
X0969402Y0329725D01*
X0969310Y0329714D01*
X0969218Y0329707D01*
X0969125Y0329704D01*
X0969033Y0329705D01*
X0968940Y0329710D01*
X0968848Y0329719D01*
X0968756Y0329732D01*
X0968665Y0329748D01*
X0968575Y0329769D01*
X0968486Y0329793D01*
X0968398Y0329822D01*
X0968311Y0329854D01*
X0968226Y0329889D01*
X0968142Y0329929D01*
X0968060Y0329971D01*
X0967980Y0330018D01*
X0967902Y0330067D01*
X0967826Y0330120D01*
X0967752Y0330176D01*
X0967681Y0330236D01*
X0967613Y0330298D01*
X0967547Y0330363D01*
X0967484Y0330431D01*
X0967424Y0330501D01*
X0967367Y0330574D01*
X0967313Y0330649D01*
X0967263Y0330727D01*
X0967216Y0330807D01*
X0967172Y0330888D01*
X0967132Y0330972D01*
X0967095Y0331057D01*
X0967062Y0331143D01*
X0967033Y0331231D01*
X0967008Y0331320D01*
X0966986Y0331410D01*
X0966969Y0331501D01*
X0966955Y0331592D01*
X0966945Y0331684D01*
X0966939Y0331776D01*
X0966937Y0331869D01*
X0976937Y0331869D02*
X0976939Y0331962D01*
X0976945Y0332054D01*
X0976955Y0332146D01*
X0976969Y0332237D01*
X0976986Y0332328D01*
X0977008Y0332418D01*
X0977033Y0332507D01*
X0977062Y0332595D01*
X0977095Y0332681D01*
X0977132Y0332766D01*
X0977172Y0332850D01*
X0977216Y0332931D01*
X0977263Y0333011D01*
X0977313Y0333089D01*
X0977367Y0333164D01*
X0977424Y0333237D01*
X0977484Y0333307D01*
X0977547Y0333375D01*
X0977613Y0333440D01*
X0977681Y0333502D01*
X0977752Y0333562D01*
X0977826Y0333618D01*
X0977902Y0333671D01*
X0977980Y0333720D01*
X0978060Y0333767D01*
X0978142Y0333809D01*
X0978226Y0333849D01*
X0978311Y0333884D01*
X0978398Y0333916D01*
X0978486Y0333945D01*
X0978575Y0333969D01*
X0978665Y0333990D01*
X0978756Y0334006D01*
X0978848Y0334019D01*
X0978940Y0334028D01*
X0979033Y0334033D01*
X0979125Y0334034D01*
X0979218Y0334031D01*
X0979310Y0334024D01*
X0979402Y0334013D01*
X0979493Y0333998D01*
X0979584Y0333980D01*
X0979674Y0333957D01*
X0979762Y0333931D01*
X0979850Y0333901D01*
X0979936Y0333867D01*
X0980020Y0333830D01*
X0980103Y0333788D01*
X0980184Y0333744D01*
X0980264Y0333696D01*
X0980341Y0333645D01*
X0980415Y0333590D01*
X0980488Y0333532D01*
X0980558Y0333472D01*
X0980625Y0333408D01*
X0980689Y0333342D01*
X0980751Y0333272D01*
X0980809Y0333201D01*
X0980864Y0333127D01*
X0980916Y0333050D01*
X0980965Y0332971D01*
X0981011Y0332891D01*
X0981053Y0332808D01*
X0981091Y0332724D01*
X0981126Y0332638D01*
X0981157Y0332551D01*
X0981184Y0332463D01*
X0981207Y0332373D01*
X0981227Y0332283D01*
X0981243Y0332192D01*
X0981255Y0332100D01*
X0981263Y0332008D01*
X0981267Y0331915D01*
X0981267Y0331823D01*
X0981263Y0331730D01*
X0981255Y0331638D01*
X0981243Y0331546D01*
X0981227Y0331455D01*
X0981207Y0331365D01*
X0981184Y0331275D01*
X0981157Y0331187D01*
X0981126Y0331100D01*
X0981091Y0331014D01*
X0981053Y0330930D01*
X0981011Y0330847D01*
X0980965Y0330767D01*
X0980916Y0330688D01*
X0980864Y0330611D01*
X0980809Y0330537D01*
X0980751Y0330466D01*
X0980689Y0330396D01*
X0980625Y0330330D01*
X0980558Y0330266D01*
X0980488Y0330206D01*
X0980415Y0330148D01*
X0980341Y0330093D01*
X0980264Y0330042D01*
X0980185Y0329994D01*
X0980103Y0329950D01*
X0980020Y0329908D01*
X0979936Y0329871D01*
X0979850Y0329837D01*
X0979762Y0329807D01*
X0979674Y0329781D01*
X0979584Y0329758D01*
X0979493Y0329740D01*
X0979402Y0329725D01*
X0979310Y0329714D01*
X0979218Y0329707D01*
X0979125Y0329704D01*
X0979033Y0329705D01*
X0978940Y0329710D01*
X0978848Y0329719D01*
X0978756Y0329732D01*
X0978665Y0329748D01*
X0978575Y0329769D01*
X0978486Y0329793D01*
X0978398Y0329822D01*
X0978311Y0329854D01*
X0978226Y0329889D01*
X0978142Y0329929D01*
X0978060Y0329971D01*
X0977980Y0330018D01*
X0977902Y0330067D01*
X0977826Y0330120D01*
X0977752Y0330176D01*
X0977681Y0330236D01*
X0977613Y0330298D01*
X0977547Y0330363D01*
X0977484Y0330431D01*
X0977424Y0330501D01*
X0977367Y0330574D01*
X0977313Y0330649D01*
X0977263Y0330727D01*
X0977216Y0330807D01*
X0977172Y0330888D01*
X0977132Y0330972D01*
X0977095Y0331057D01*
X0977062Y0331143D01*
X0977033Y0331231D01*
X0977008Y0331320D01*
X0976986Y0331410D01*
X0976969Y0331501D01*
X0976955Y0331592D01*
X0976945Y0331684D01*
X0976939Y0331776D01*
X0976937Y0331869D01*
X0986937Y0331869D02*
X0986939Y0331962D01*
X0986945Y0332054D01*
X0986955Y0332146D01*
X0986969Y0332237D01*
X0986986Y0332328D01*
X0987008Y0332418D01*
X0987033Y0332507D01*
X0987062Y0332595D01*
X0987095Y0332681D01*
X0987132Y0332766D01*
X0987172Y0332850D01*
X0987216Y0332931D01*
X0987263Y0333011D01*
X0987313Y0333089D01*
X0987367Y0333164D01*
X0987424Y0333237D01*
X0987484Y0333307D01*
X0987547Y0333375D01*
X0987613Y0333440D01*
X0987681Y0333502D01*
X0987752Y0333562D01*
X0987826Y0333618D01*
X0987902Y0333671D01*
X0987980Y0333720D01*
X0988060Y0333767D01*
X0988142Y0333809D01*
X0988226Y0333849D01*
X0988311Y0333884D01*
X0988398Y0333916D01*
X0988486Y0333945D01*
X0988575Y0333969D01*
X0988665Y0333990D01*
X0988756Y0334006D01*
X0988848Y0334019D01*
X0988940Y0334028D01*
X0989033Y0334033D01*
X0989125Y0334034D01*
X0989218Y0334031D01*
X0989310Y0334024D01*
X0989402Y0334013D01*
X0989493Y0333998D01*
X0989584Y0333980D01*
X0989674Y0333957D01*
X0989762Y0333931D01*
X0989850Y0333901D01*
X0989936Y0333867D01*
X0990020Y0333830D01*
X0990103Y0333788D01*
X0990184Y0333744D01*
X0990264Y0333696D01*
X0990341Y0333645D01*
X0990415Y0333590D01*
X0990488Y0333532D01*
X0990558Y0333472D01*
X0990625Y0333408D01*
X0990689Y0333342D01*
X0990751Y0333272D01*
X0990809Y0333201D01*
X0990864Y0333127D01*
X0990916Y0333050D01*
X0990965Y0332971D01*
X0991011Y0332891D01*
X0991053Y0332808D01*
X0991091Y0332724D01*
X0991126Y0332638D01*
X0991157Y0332551D01*
X0991184Y0332463D01*
X0991207Y0332373D01*
X0991227Y0332283D01*
X0991243Y0332192D01*
X0991255Y0332100D01*
X0991263Y0332008D01*
X0991267Y0331915D01*
X0991267Y0331823D01*
X0991263Y0331730D01*
X0991255Y0331638D01*
X0991243Y0331546D01*
X0991227Y0331455D01*
X0991207Y0331365D01*
X0991184Y0331275D01*
X0991157Y0331187D01*
X0991126Y0331100D01*
X0991091Y0331014D01*
X0991053Y0330930D01*
X0991011Y0330847D01*
X0990965Y0330767D01*
X0990916Y0330688D01*
X0990864Y0330611D01*
X0990809Y0330537D01*
X0990751Y0330466D01*
X0990689Y0330396D01*
X0990625Y0330330D01*
X0990558Y0330266D01*
X0990488Y0330206D01*
X0990415Y0330148D01*
X0990341Y0330093D01*
X0990264Y0330042D01*
X0990185Y0329994D01*
X0990103Y0329950D01*
X0990020Y0329908D01*
X0989936Y0329871D01*
X0989850Y0329837D01*
X0989762Y0329807D01*
X0989674Y0329781D01*
X0989584Y0329758D01*
X0989493Y0329740D01*
X0989402Y0329725D01*
X0989310Y0329714D01*
X0989218Y0329707D01*
X0989125Y0329704D01*
X0989033Y0329705D01*
X0988940Y0329710D01*
X0988848Y0329719D01*
X0988756Y0329732D01*
X0988665Y0329748D01*
X0988575Y0329769D01*
X0988486Y0329793D01*
X0988398Y0329822D01*
X0988311Y0329854D01*
X0988226Y0329889D01*
X0988142Y0329929D01*
X0988060Y0329971D01*
X0987980Y0330018D01*
X0987902Y0330067D01*
X0987826Y0330120D01*
X0987752Y0330176D01*
X0987681Y0330236D01*
X0987613Y0330298D01*
X0987547Y0330363D01*
X0987484Y0330431D01*
X0987424Y0330501D01*
X0987367Y0330574D01*
X0987313Y0330649D01*
X0987263Y0330727D01*
X0987216Y0330807D01*
X0987172Y0330888D01*
X0987132Y0330972D01*
X0987095Y0331057D01*
X0987062Y0331143D01*
X0987033Y0331231D01*
X0987008Y0331320D01*
X0986986Y0331410D01*
X0986969Y0331501D01*
X0986955Y0331592D01*
X0986945Y0331684D01*
X0986939Y0331776D01*
X0986937Y0331869D01*
X0986937Y0321869D02*
X0986939Y0321962D01*
X0986945Y0322054D01*
X0986955Y0322146D01*
X0986969Y0322237D01*
X0986986Y0322328D01*
X0987008Y0322418D01*
X0987033Y0322507D01*
X0987062Y0322595D01*
X0987095Y0322681D01*
X0987132Y0322766D01*
X0987172Y0322850D01*
X0987216Y0322931D01*
X0987263Y0323011D01*
X0987313Y0323089D01*
X0987367Y0323164D01*
X0987424Y0323237D01*
X0987484Y0323307D01*
X0987547Y0323375D01*
X0987613Y0323440D01*
X0987681Y0323502D01*
X0987752Y0323562D01*
X0987826Y0323618D01*
X0987902Y0323671D01*
X0987980Y0323720D01*
X0988060Y0323767D01*
X0988142Y0323809D01*
X0988226Y0323849D01*
X0988311Y0323884D01*
X0988398Y0323916D01*
X0988486Y0323945D01*
X0988575Y0323969D01*
X0988665Y0323990D01*
X0988756Y0324006D01*
X0988848Y0324019D01*
X0988940Y0324028D01*
X0989033Y0324033D01*
X0989125Y0324034D01*
X0989218Y0324031D01*
X0989310Y0324024D01*
X0989402Y0324013D01*
X0989493Y0323998D01*
X0989584Y0323980D01*
X0989674Y0323957D01*
X0989762Y0323931D01*
X0989850Y0323901D01*
X0989936Y0323867D01*
X0990020Y0323830D01*
X0990103Y0323788D01*
X0990184Y0323744D01*
X0990264Y0323696D01*
X0990341Y0323645D01*
X0990415Y0323590D01*
X0990488Y0323532D01*
X0990558Y0323472D01*
X0990625Y0323408D01*
X0990689Y0323342D01*
X0990751Y0323272D01*
X0990809Y0323201D01*
X0990864Y0323127D01*
X0990916Y0323050D01*
X0990965Y0322971D01*
X0991011Y0322891D01*
X0991053Y0322808D01*
X0991091Y0322724D01*
X0991126Y0322638D01*
X0991157Y0322551D01*
X0991184Y0322463D01*
X0991207Y0322373D01*
X0991227Y0322283D01*
X0991243Y0322192D01*
X0991255Y0322100D01*
X0991263Y0322008D01*
X0991267Y0321915D01*
X0991267Y0321823D01*
X0991263Y0321730D01*
X0991255Y0321638D01*
X0991243Y0321546D01*
X0991227Y0321455D01*
X0991207Y0321365D01*
X0991184Y0321275D01*
X0991157Y0321187D01*
X0991126Y0321100D01*
X0991091Y0321014D01*
X0991053Y0320930D01*
X0991011Y0320847D01*
X0990965Y0320767D01*
X0990916Y0320688D01*
X0990864Y0320611D01*
X0990809Y0320537D01*
X0990751Y0320466D01*
X0990689Y0320396D01*
X0990625Y0320330D01*
X0990558Y0320266D01*
X0990488Y0320206D01*
X0990415Y0320148D01*
X0990341Y0320093D01*
X0990264Y0320042D01*
X0990185Y0319994D01*
X0990103Y0319950D01*
X0990020Y0319908D01*
X0989936Y0319871D01*
X0989850Y0319837D01*
X0989762Y0319807D01*
X0989674Y0319781D01*
X0989584Y0319758D01*
X0989493Y0319740D01*
X0989402Y0319725D01*
X0989310Y0319714D01*
X0989218Y0319707D01*
X0989125Y0319704D01*
X0989033Y0319705D01*
X0988940Y0319710D01*
X0988848Y0319719D01*
X0988756Y0319732D01*
X0988665Y0319748D01*
X0988575Y0319769D01*
X0988486Y0319793D01*
X0988398Y0319822D01*
X0988311Y0319854D01*
X0988226Y0319889D01*
X0988142Y0319929D01*
X0988060Y0319971D01*
X0987980Y0320018D01*
X0987902Y0320067D01*
X0987826Y0320120D01*
X0987752Y0320176D01*
X0987681Y0320236D01*
X0987613Y0320298D01*
X0987547Y0320363D01*
X0987484Y0320431D01*
X0987424Y0320501D01*
X0987367Y0320574D01*
X0987313Y0320649D01*
X0987263Y0320727D01*
X0987216Y0320807D01*
X0987172Y0320888D01*
X0987132Y0320972D01*
X0987095Y0321057D01*
X0987062Y0321143D01*
X0987033Y0321231D01*
X0987008Y0321320D01*
X0986986Y0321410D01*
X0986969Y0321501D01*
X0986955Y0321592D01*
X0986945Y0321684D01*
X0986939Y0321776D01*
X0986937Y0321869D01*
X0976937Y0321869D02*
X0976939Y0321962D01*
X0976945Y0322054D01*
X0976955Y0322146D01*
X0976969Y0322237D01*
X0976986Y0322328D01*
X0977008Y0322418D01*
X0977033Y0322507D01*
X0977062Y0322595D01*
X0977095Y0322681D01*
X0977132Y0322766D01*
X0977172Y0322850D01*
X0977216Y0322931D01*
X0977263Y0323011D01*
X0977313Y0323089D01*
X0977367Y0323164D01*
X0977424Y0323237D01*
X0977484Y0323307D01*
X0977547Y0323375D01*
X0977613Y0323440D01*
X0977681Y0323502D01*
X0977752Y0323562D01*
X0977826Y0323618D01*
X0977902Y0323671D01*
X0977980Y0323720D01*
X0978060Y0323767D01*
X0978142Y0323809D01*
X0978226Y0323849D01*
X0978311Y0323884D01*
X0978398Y0323916D01*
X0978486Y0323945D01*
X0978575Y0323969D01*
X0978665Y0323990D01*
X0978756Y0324006D01*
X0978848Y0324019D01*
X0978940Y0324028D01*
X0979033Y0324033D01*
X0979125Y0324034D01*
X0979218Y0324031D01*
X0979310Y0324024D01*
X0979402Y0324013D01*
X0979493Y0323998D01*
X0979584Y0323980D01*
X0979674Y0323957D01*
X0979762Y0323931D01*
X0979850Y0323901D01*
X0979936Y0323867D01*
X0980020Y0323830D01*
X0980103Y0323788D01*
X0980184Y0323744D01*
X0980264Y0323696D01*
X0980341Y0323645D01*
X0980415Y0323590D01*
X0980488Y0323532D01*
X0980558Y0323472D01*
X0980625Y0323408D01*
X0980689Y0323342D01*
X0980751Y0323272D01*
X0980809Y0323201D01*
X0980864Y0323127D01*
X0980916Y0323050D01*
X0980965Y0322971D01*
X0981011Y0322891D01*
X0981053Y0322808D01*
X0981091Y0322724D01*
X0981126Y0322638D01*
X0981157Y0322551D01*
X0981184Y0322463D01*
X0981207Y0322373D01*
X0981227Y0322283D01*
X0981243Y0322192D01*
X0981255Y0322100D01*
X0981263Y0322008D01*
X0981267Y0321915D01*
X0981267Y0321823D01*
X0981263Y0321730D01*
X0981255Y0321638D01*
X0981243Y0321546D01*
X0981227Y0321455D01*
X0981207Y0321365D01*
X0981184Y0321275D01*
X0981157Y0321187D01*
X0981126Y0321100D01*
X0981091Y0321014D01*
X0981053Y0320930D01*
X0981011Y0320847D01*
X0980965Y0320767D01*
X0980916Y0320688D01*
X0980864Y0320611D01*
X0980809Y0320537D01*
X0980751Y0320466D01*
X0980689Y0320396D01*
X0980625Y0320330D01*
X0980558Y0320266D01*
X0980488Y0320206D01*
X0980415Y0320148D01*
X0980341Y0320093D01*
X0980264Y0320042D01*
X0980185Y0319994D01*
X0980103Y0319950D01*
X0980020Y0319908D01*
X0979936Y0319871D01*
X0979850Y0319837D01*
X0979762Y0319807D01*
X0979674Y0319781D01*
X0979584Y0319758D01*
X0979493Y0319740D01*
X0979402Y0319725D01*
X0979310Y0319714D01*
X0979218Y0319707D01*
X0979125Y0319704D01*
X0979033Y0319705D01*
X0978940Y0319710D01*
X0978848Y0319719D01*
X0978756Y0319732D01*
X0978665Y0319748D01*
X0978575Y0319769D01*
X0978486Y0319793D01*
X0978398Y0319822D01*
X0978311Y0319854D01*
X0978226Y0319889D01*
X0978142Y0319929D01*
X0978060Y0319971D01*
X0977980Y0320018D01*
X0977902Y0320067D01*
X0977826Y0320120D01*
X0977752Y0320176D01*
X0977681Y0320236D01*
X0977613Y0320298D01*
X0977547Y0320363D01*
X0977484Y0320431D01*
X0977424Y0320501D01*
X0977367Y0320574D01*
X0977313Y0320649D01*
X0977263Y0320727D01*
X0977216Y0320807D01*
X0977172Y0320888D01*
X0977132Y0320972D01*
X0977095Y0321057D01*
X0977062Y0321143D01*
X0977033Y0321231D01*
X0977008Y0321320D01*
X0976986Y0321410D01*
X0976969Y0321501D01*
X0976955Y0321592D01*
X0976945Y0321684D01*
X0976939Y0321776D01*
X0976937Y0321869D01*
X0966937Y0321869D02*
X0966939Y0321962D01*
X0966945Y0322054D01*
X0966955Y0322146D01*
X0966969Y0322237D01*
X0966986Y0322328D01*
X0967008Y0322418D01*
X0967033Y0322507D01*
X0967062Y0322595D01*
X0967095Y0322681D01*
X0967132Y0322766D01*
X0967172Y0322850D01*
X0967216Y0322931D01*
X0967263Y0323011D01*
X0967313Y0323089D01*
X0967367Y0323164D01*
X0967424Y0323237D01*
X0967484Y0323307D01*
X0967547Y0323375D01*
X0967613Y0323440D01*
X0967681Y0323502D01*
X0967752Y0323562D01*
X0967826Y0323618D01*
X0967902Y0323671D01*
X0967980Y0323720D01*
X0968060Y0323767D01*
X0968142Y0323809D01*
X0968226Y0323849D01*
X0968311Y0323884D01*
X0968398Y0323916D01*
X0968486Y0323945D01*
X0968575Y0323969D01*
X0968665Y0323990D01*
X0968756Y0324006D01*
X0968848Y0324019D01*
X0968940Y0324028D01*
X0969033Y0324033D01*
X0969125Y0324034D01*
X0969218Y0324031D01*
X0969310Y0324024D01*
X0969402Y0324013D01*
X0969493Y0323998D01*
X0969584Y0323980D01*
X0969674Y0323957D01*
X0969762Y0323931D01*
X0969850Y0323901D01*
X0969936Y0323867D01*
X0970020Y0323830D01*
X0970103Y0323788D01*
X0970184Y0323744D01*
X0970264Y0323696D01*
X0970341Y0323645D01*
X0970415Y0323590D01*
X0970488Y0323532D01*
X0970558Y0323472D01*
X0970625Y0323408D01*
X0970689Y0323342D01*
X0970751Y0323272D01*
X0970809Y0323201D01*
X0970864Y0323127D01*
X0970916Y0323050D01*
X0970965Y0322971D01*
X0971011Y0322891D01*
X0971053Y0322808D01*
X0971091Y0322724D01*
X0971126Y0322638D01*
X0971157Y0322551D01*
X0971184Y0322463D01*
X0971207Y0322373D01*
X0971227Y0322283D01*
X0971243Y0322192D01*
X0971255Y0322100D01*
X0971263Y0322008D01*
X0971267Y0321915D01*
X0971267Y0321823D01*
X0971263Y0321730D01*
X0971255Y0321638D01*
X0971243Y0321546D01*
X0971227Y0321455D01*
X0971207Y0321365D01*
X0971184Y0321275D01*
X0971157Y0321187D01*
X0971126Y0321100D01*
X0971091Y0321014D01*
X0971053Y0320930D01*
X0971011Y0320847D01*
X0970965Y0320767D01*
X0970916Y0320688D01*
X0970864Y0320611D01*
X0970809Y0320537D01*
X0970751Y0320466D01*
X0970689Y0320396D01*
X0970625Y0320330D01*
X0970558Y0320266D01*
X0970488Y0320206D01*
X0970415Y0320148D01*
X0970341Y0320093D01*
X0970264Y0320042D01*
X0970185Y0319994D01*
X0970103Y0319950D01*
X0970020Y0319908D01*
X0969936Y0319871D01*
X0969850Y0319837D01*
X0969762Y0319807D01*
X0969674Y0319781D01*
X0969584Y0319758D01*
X0969493Y0319740D01*
X0969402Y0319725D01*
X0969310Y0319714D01*
X0969218Y0319707D01*
X0969125Y0319704D01*
X0969033Y0319705D01*
X0968940Y0319710D01*
X0968848Y0319719D01*
X0968756Y0319732D01*
X0968665Y0319748D01*
X0968575Y0319769D01*
X0968486Y0319793D01*
X0968398Y0319822D01*
X0968311Y0319854D01*
X0968226Y0319889D01*
X0968142Y0319929D01*
X0968060Y0319971D01*
X0967980Y0320018D01*
X0967902Y0320067D01*
X0967826Y0320120D01*
X0967752Y0320176D01*
X0967681Y0320236D01*
X0967613Y0320298D01*
X0967547Y0320363D01*
X0967484Y0320431D01*
X0967424Y0320501D01*
X0967367Y0320574D01*
X0967313Y0320649D01*
X0967263Y0320727D01*
X0967216Y0320807D01*
X0967172Y0320888D01*
X0967132Y0320972D01*
X0967095Y0321057D01*
X0967062Y0321143D01*
X0967033Y0321231D01*
X0967008Y0321320D01*
X0966986Y0321410D01*
X0966969Y0321501D01*
X0966955Y0321592D01*
X0966945Y0321684D01*
X0966939Y0321776D01*
X0966937Y0321869D01*
X1006267Y0330806D02*
X1006269Y0330964D01*
X1006275Y0331122D01*
X1006285Y0331280D01*
X1006299Y0331438D01*
X1006317Y0331595D01*
X1006338Y0331752D01*
X1006364Y0331908D01*
X1006394Y0332064D01*
X1006427Y0332219D01*
X1006465Y0332372D01*
X1006506Y0332525D01*
X1006551Y0332677D01*
X1006600Y0332828D01*
X1006653Y0332977D01*
X1006709Y0333125D01*
X1006769Y0333271D01*
X1006833Y0333416D01*
X1006901Y0333559D01*
X1006972Y0333701D01*
X1007046Y0333841D01*
X1007124Y0333978D01*
X1007206Y0334114D01*
X1007290Y0334248D01*
X1007379Y0334379D01*
X1007470Y0334508D01*
X1007565Y0334635D01*
X1007662Y0334760D01*
X1007763Y0334882D01*
X1007867Y0335001D01*
X1007974Y0335118D01*
X1008084Y0335232D01*
X1008197Y0335343D01*
X1008312Y0335452D01*
X1008430Y0335557D01*
X1008551Y0335659D01*
X1008674Y0335759D01*
X1008800Y0335855D01*
X1008928Y0335948D01*
X1009058Y0336038D01*
X1009191Y0336124D01*
X1009326Y0336208D01*
X1009462Y0336287D01*
X1009601Y0336364D01*
X1009742Y0336436D01*
X1009884Y0336506D01*
X1010028Y0336571D01*
X1010174Y0336633D01*
X1010321Y0336691D01*
X1010470Y0336746D01*
X1010620Y0336797D01*
X1010771Y0336844D01*
X1010923Y0336887D01*
X1011076Y0336926D01*
X1011231Y0336962D01*
X1011386Y0336993D01*
X1011542Y0337021D01*
X1011698Y0337045D01*
X1011855Y0337065D01*
X1012013Y0337081D01*
X1012170Y0337093D01*
X1012329Y0337101D01*
X1012487Y0337105D01*
X1012645Y0337105D01*
X1012803Y0337101D01*
X1012962Y0337093D01*
X1013119Y0337081D01*
X1013277Y0337065D01*
X1013434Y0337045D01*
X1013590Y0337021D01*
X1013746Y0336993D01*
X1013901Y0336962D01*
X1014056Y0336926D01*
X1014209Y0336887D01*
X1014361Y0336844D01*
X1014512Y0336797D01*
X1014662Y0336746D01*
X1014811Y0336691D01*
X1014958Y0336633D01*
X1015104Y0336571D01*
X1015248Y0336506D01*
X1015390Y0336436D01*
X1015531Y0336364D01*
X1015670Y0336287D01*
X1015806Y0336208D01*
X1015941Y0336124D01*
X1016074Y0336038D01*
X1016204Y0335948D01*
X1016332Y0335855D01*
X1016458Y0335759D01*
X1016581Y0335659D01*
X1016702Y0335557D01*
X1016820Y0335452D01*
X1016935Y0335343D01*
X1017048Y0335232D01*
X1017158Y0335118D01*
X1017265Y0335001D01*
X1017369Y0334882D01*
X1017470Y0334760D01*
X1017567Y0334635D01*
X1017662Y0334508D01*
X1017753Y0334379D01*
X1017842Y0334248D01*
X1017926Y0334114D01*
X1018008Y0333978D01*
X1018086Y0333841D01*
X1018160Y0333701D01*
X1018231Y0333559D01*
X1018299Y0333416D01*
X1018363Y0333271D01*
X1018423Y0333125D01*
X1018479Y0332977D01*
X1018532Y0332828D01*
X1018581Y0332677D01*
X1018626Y0332525D01*
X1018667Y0332372D01*
X1018705Y0332219D01*
X1018738Y0332064D01*
X1018768Y0331908D01*
X1018794Y0331752D01*
X1018815Y0331595D01*
X1018833Y0331438D01*
X1018847Y0331280D01*
X1018857Y0331122D01*
X1018863Y0330964D01*
X1018865Y0330806D01*
X1018863Y0330648D01*
X1018857Y0330490D01*
X1018847Y0330332D01*
X1018833Y0330174D01*
X1018815Y0330017D01*
X1018794Y0329860D01*
X1018768Y0329704D01*
X1018738Y0329548D01*
X1018705Y0329393D01*
X1018667Y0329240D01*
X1018626Y0329087D01*
X1018581Y0328935D01*
X1018532Y0328784D01*
X1018479Y0328635D01*
X1018423Y0328487D01*
X1018363Y0328341D01*
X1018299Y0328196D01*
X1018231Y0328053D01*
X1018160Y0327911D01*
X1018086Y0327771D01*
X1018008Y0327634D01*
X1017926Y0327498D01*
X1017842Y0327364D01*
X1017753Y0327233D01*
X1017662Y0327104D01*
X1017567Y0326977D01*
X1017470Y0326852D01*
X1017369Y0326730D01*
X1017265Y0326611D01*
X1017158Y0326494D01*
X1017048Y0326380D01*
X1016935Y0326269D01*
X1016820Y0326160D01*
X1016702Y0326055D01*
X1016581Y0325953D01*
X1016458Y0325853D01*
X1016332Y0325757D01*
X1016204Y0325664D01*
X1016074Y0325574D01*
X1015941Y0325488D01*
X1015806Y0325404D01*
X1015670Y0325325D01*
X1015531Y0325248D01*
X1015390Y0325176D01*
X1015248Y0325106D01*
X1015104Y0325041D01*
X1014958Y0324979D01*
X1014811Y0324921D01*
X1014662Y0324866D01*
X1014512Y0324815D01*
X1014361Y0324768D01*
X1014209Y0324725D01*
X1014056Y0324686D01*
X1013901Y0324650D01*
X1013746Y0324619D01*
X1013590Y0324591D01*
X1013434Y0324567D01*
X1013277Y0324547D01*
X1013119Y0324531D01*
X1012962Y0324519D01*
X1012803Y0324511D01*
X1012645Y0324507D01*
X1012487Y0324507D01*
X1012329Y0324511D01*
X1012170Y0324519D01*
X1012013Y0324531D01*
X1011855Y0324547D01*
X1011698Y0324567D01*
X1011542Y0324591D01*
X1011386Y0324619D01*
X1011231Y0324650D01*
X1011076Y0324686D01*
X1010923Y0324725D01*
X1010771Y0324768D01*
X1010620Y0324815D01*
X1010470Y0324866D01*
X1010321Y0324921D01*
X1010174Y0324979D01*
X1010028Y0325041D01*
X1009884Y0325106D01*
X1009742Y0325176D01*
X1009601Y0325248D01*
X1009462Y0325325D01*
X1009326Y0325404D01*
X1009191Y0325488D01*
X1009058Y0325574D01*
X1008928Y0325664D01*
X1008800Y0325757D01*
X1008674Y0325853D01*
X1008551Y0325953D01*
X1008430Y0326055D01*
X1008312Y0326160D01*
X1008197Y0326269D01*
X1008084Y0326380D01*
X1007974Y0326494D01*
X1007867Y0326611D01*
X1007763Y0326730D01*
X1007662Y0326852D01*
X1007565Y0326977D01*
X1007470Y0327104D01*
X1007379Y0327233D01*
X1007290Y0327364D01*
X1007206Y0327498D01*
X1007124Y0327634D01*
X1007046Y0327771D01*
X1006972Y0327911D01*
X1006901Y0328053D01*
X1006833Y0328196D01*
X1006769Y0328341D01*
X1006709Y0328487D01*
X1006653Y0328635D01*
X1006600Y0328784D01*
X1006551Y0328935D01*
X1006506Y0329087D01*
X1006465Y0329240D01*
X1006427Y0329393D01*
X1006394Y0329548D01*
X1006364Y0329704D01*
X1006338Y0329860D01*
X1006317Y0330017D01*
X1006299Y0330174D01*
X1006285Y0330332D01*
X1006275Y0330490D01*
X1006269Y0330648D01*
X1006267Y0330806D01*
X1006267Y0141830D02*
X1006269Y0141988D01*
X1006275Y0142146D01*
X1006285Y0142304D01*
X1006299Y0142462D01*
X1006317Y0142619D01*
X1006338Y0142776D01*
X1006364Y0142932D01*
X1006394Y0143088D01*
X1006427Y0143243D01*
X1006465Y0143396D01*
X1006506Y0143549D01*
X1006551Y0143701D01*
X1006600Y0143852D01*
X1006653Y0144001D01*
X1006709Y0144149D01*
X1006769Y0144295D01*
X1006833Y0144440D01*
X1006901Y0144583D01*
X1006972Y0144725D01*
X1007046Y0144865D01*
X1007124Y0145002D01*
X1007206Y0145138D01*
X1007290Y0145272D01*
X1007379Y0145403D01*
X1007470Y0145532D01*
X1007565Y0145659D01*
X1007662Y0145784D01*
X1007763Y0145906D01*
X1007867Y0146025D01*
X1007974Y0146142D01*
X1008084Y0146256D01*
X1008197Y0146367D01*
X1008312Y0146476D01*
X1008430Y0146581D01*
X1008551Y0146683D01*
X1008674Y0146783D01*
X1008800Y0146879D01*
X1008928Y0146972D01*
X1009058Y0147062D01*
X1009191Y0147148D01*
X1009326Y0147232D01*
X1009462Y0147311D01*
X1009601Y0147388D01*
X1009742Y0147460D01*
X1009884Y0147530D01*
X1010028Y0147595D01*
X1010174Y0147657D01*
X1010321Y0147715D01*
X1010470Y0147770D01*
X1010620Y0147821D01*
X1010771Y0147868D01*
X1010923Y0147911D01*
X1011076Y0147950D01*
X1011231Y0147986D01*
X1011386Y0148017D01*
X1011542Y0148045D01*
X1011698Y0148069D01*
X1011855Y0148089D01*
X1012013Y0148105D01*
X1012170Y0148117D01*
X1012329Y0148125D01*
X1012487Y0148129D01*
X1012645Y0148129D01*
X1012803Y0148125D01*
X1012962Y0148117D01*
X1013119Y0148105D01*
X1013277Y0148089D01*
X1013434Y0148069D01*
X1013590Y0148045D01*
X1013746Y0148017D01*
X1013901Y0147986D01*
X1014056Y0147950D01*
X1014209Y0147911D01*
X1014361Y0147868D01*
X1014512Y0147821D01*
X1014662Y0147770D01*
X1014811Y0147715D01*
X1014958Y0147657D01*
X1015104Y0147595D01*
X1015248Y0147530D01*
X1015390Y0147460D01*
X1015531Y0147388D01*
X1015670Y0147311D01*
X1015806Y0147232D01*
X1015941Y0147148D01*
X1016074Y0147062D01*
X1016204Y0146972D01*
X1016332Y0146879D01*
X1016458Y0146783D01*
X1016581Y0146683D01*
X1016702Y0146581D01*
X1016820Y0146476D01*
X1016935Y0146367D01*
X1017048Y0146256D01*
X1017158Y0146142D01*
X1017265Y0146025D01*
X1017369Y0145906D01*
X1017470Y0145784D01*
X1017567Y0145659D01*
X1017662Y0145532D01*
X1017753Y0145403D01*
X1017842Y0145272D01*
X1017926Y0145138D01*
X1018008Y0145002D01*
X1018086Y0144865D01*
X1018160Y0144725D01*
X1018231Y0144583D01*
X1018299Y0144440D01*
X1018363Y0144295D01*
X1018423Y0144149D01*
X1018479Y0144001D01*
X1018532Y0143852D01*
X1018581Y0143701D01*
X1018626Y0143549D01*
X1018667Y0143396D01*
X1018705Y0143243D01*
X1018738Y0143088D01*
X1018768Y0142932D01*
X1018794Y0142776D01*
X1018815Y0142619D01*
X1018833Y0142462D01*
X1018847Y0142304D01*
X1018857Y0142146D01*
X1018863Y0141988D01*
X1018865Y0141830D01*
X1018863Y0141672D01*
X1018857Y0141514D01*
X1018847Y0141356D01*
X1018833Y0141198D01*
X1018815Y0141041D01*
X1018794Y0140884D01*
X1018768Y0140728D01*
X1018738Y0140572D01*
X1018705Y0140417D01*
X1018667Y0140264D01*
X1018626Y0140111D01*
X1018581Y0139959D01*
X1018532Y0139808D01*
X1018479Y0139659D01*
X1018423Y0139511D01*
X1018363Y0139365D01*
X1018299Y0139220D01*
X1018231Y0139077D01*
X1018160Y0138935D01*
X1018086Y0138795D01*
X1018008Y0138658D01*
X1017926Y0138522D01*
X1017842Y0138388D01*
X1017753Y0138257D01*
X1017662Y0138128D01*
X1017567Y0138001D01*
X1017470Y0137876D01*
X1017369Y0137754D01*
X1017265Y0137635D01*
X1017158Y0137518D01*
X1017048Y0137404D01*
X1016935Y0137293D01*
X1016820Y0137184D01*
X1016702Y0137079D01*
X1016581Y0136977D01*
X1016458Y0136877D01*
X1016332Y0136781D01*
X1016204Y0136688D01*
X1016074Y0136598D01*
X1015941Y0136512D01*
X1015806Y0136428D01*
X1015670Y0136349D01*
X1015531Y0136272D01*
X1015390Y0136200D01*
X1015248Y0136130D01*
X1015104Y0136065D01*
X1014958Y0136003D01*
X1014811Y0135945D01*
X1014662Y0135890D01*
X1014512Y0135839D01*
X1014361Y0135792D01*
X1014209Y0135749D01*
X1014056Y0135710D01*
X1013901Y0135674D01*
X1013746Y0135643D01*
X1013590Y0135615D01*
X1013434Y0135591D01*
X1013277Y0135571D01*
X1013119Y0135555D01*
X1012962Y0135543D01*
X1012803Y0135535D01*
X1012645Y0135531D01*
X1012487Y0135531D01*
X1012329Y0135535D01*
X1012170Y0135543D01*
X1012013Y0135555D01*
X1011855Y0135571D01*
X1011698Y0135591D01*
X1011542Y0135615D01*
X1011386Y0135643D01*
X1011231Y0135674D01*
X1011076Y0135710D01*
X1010923Y0135749D01*
X1010771Y0135792D01*
X1010620Y0135839D01*
X1010470Y0135890D01*
X1010321Y0135945D01*
X1010174Y0136003D01*
X1010028Y0136065D01*
X1009884Y0136130D01*
X1009742Y0136200D01*
X1009601Y0136272D01*
X1009462Y0136349D01*
X1009326Y0136428D01*
X1009191Y0136512D01*
X1009058Y0136598D01*
X1008928Y0136688D01*
X1008800Y0136781D01*
X1008674Y0136877D01*
X1008551Y0136977D01*
X1008430Y0137079D01*
X1008312Y0137184D01*
X1008197Y0137293D01*
X1008084Y0137404D01*
X1007974Y0137518D01*
X1007867Y0137635D01*
X1007763Y0137754D01*
X1007662Y0137876D01*
X1007565Y0138001D01*
X1007470Y0138128D01*
X1007379Y0138257D01*
X1007290Y0138388D01*
X1007206Y0138522D01*
X1007124Y0138658D01*
X1007046Y0138795D01*
X1006972Y0138935D01*
X1006901Y0139077D01*
X1006833Y0139220D01*
X1006769Y0139365D01*
X1006709Y0139511D01*
X1006653Y0139659D01*
X1006600Y0139808D01*
X1006551Y0139959D01*
X1006506Y0140111D01*
X1006465Y0140264D01*
X1006427Y0140417D01*
X1006394Y0140572D01*
X1006364Y0140728D01*
X1006338Y0140884D01*
X1006317Y0141041D01*
X1006299Y0141198D01*
X1006285Y0141356D01*
X1006275Y0141514D01*
X1006269Y0141672D01*
X1006267Y0141830D01*
D11*
X0985007Y0146751D02*
X0985009Y0146876D01*
X0985015Y0147001D01*
X0985025Y0147125D01*
X0985039Y0147249D01*
X0985056Y0147373D01*
X0985078Y0147496D01*
X0985104Y0147618D01*
X0985133Y0147740D01*
X0985166Y0147860D01*
X0985204Y0147979D01*
X0985244Y0148098D01*
X0985289Y0148214D01*
X0985337Y0148329D01*
X0985389Y0148443D01*
X0985445Y0148555D01*
X0985504Y0148665D01*
X0985566Y0148773D01*
X0985632Y0148880D01*
X0985701Y0148984D01*
X0985774Y0149085D01*
X0985849Y0149185D01*
X0985928Y0149282D01*
X0986010Y0149376D01*
X0986095Y0149468D01*
X0986182Y0149557D01*
X0986273Y0149643D01*
X0986366Y0149726D01*
X0986462Y0149807D01*
X0986560Y0149884D01*
X0986660Y0149958D01*
X0986763Y0150029D01*
X0986868Y0150096D01*
X0986976Y0150161D01*
X0987085Y0150221D01*
X0987196Y0150279D01*
X0987309Y0150332D01*
X0987423Y0150382D01*
X0987539Y0150429D01*
X0987656Y0150471D01*
X0987775Y0150510D01*
X0987895Y0150546D01*
X0988016Y0150577D01*
X0988138Y0150605D01*
X0988260Y0150628D01*
X0988384Y0150648D01*
X0988508Y0150664D01*
X0988632Y0150676D01*
X0988757Y0150684D01*
X0988882Y0150688D01*
X0989006Y0150688D01*
X0989131Y0150684D01*
X0989256Y0150676D01*
X0989380Y0150664D01*
X0989504Y0150648D01*
X0989628Y0150628D01*
X0989750Y0150605D01*
X0989872Y0150577D01*
X0989993Y0150546D01*
X0990113Y0150510D01*
X0990232Y0150471D01*
X0990349Y0150429D01*
X0990465Y0150382D01*
X0990579Y0150332D01*
X0990692Y0150279D01*
X0990803Y0150221D01*
X0990913Y0150161D01*
X0991020Y0150096D01*
X0991125Y0150029D01*
X0991228Y0149958D01*
X0991328Y0149884D01*
X0991426Y0149807D01*
X0991522Y0149726D01*
X0991615Y0149643D01*
X0991706Y0149557D01*
X0991793Y0149468D01*
X0991878Y0149376D01*
X0991960Y0149282D01*
X0992039Y0149185D01*
X0992114Y0149085D01*
X0992187Y0148984D01*
X0992256Y0148880D01*
X0992322Y0148773D01*
X0992384Y0148665D01*
X0992443Y0148555D01*
X0992499Y0148443D01*
X0992551Y0148329D01*
X0992599Y0148214D01*
X0992644Y0148098D01*
X0992684Y0147979D01*
X0992722Y0147860D01*
X0992755Y0147740D01*
X0992784Y0147618D01*
X0992810Y0147496D01*
X0992832Y0147373D01*
X0992849Y0147249D01*
X0992863Y0147125D01*
X0992873Y0147001D01*
X0992879Y0146876D01*
X0992881Y0146751D01*
X0992879Y0146626D01*
X0992873Y0146501D01*
X0992863Y0146377D01*
X0992849Y0146253D01*
X0992832Y0146129D01*
X0992810Y0146006D01*
X0992784Y0145884D01*
X0992755Y0145762D01*
X0992722Y0145642D01*
X0992684Y0145523D01*
X0992644Y0145404D01*
X0992599Y0145288D01*
X0992551Y0145173D01*
X0992499Y0145059D01*
X0992443Y0144947D01*
X0992384Y0144837D01*
X0992322Y0144729D01*
X0992256Y0144622D01*
X0992187Y0144518D01*
X0992114Y0144417D01*
X0992039Y0144317D01*
X0991960Y0144220D01*
X0991878Y0144126D01*
X0991793Y0144034D01*
X0991706Y0143945D01*
X0991615Y0143859D01*
X0991522Y0143776D01*
X0991426Y0143695D01*
X0991328Y0143618D01*
X0991228Y0143544D01*
X0991125Y0143473D01*
X0991020Y0143406D01*
X0990912Y0143341D01*
X0990803Y0143281D01*
X0990692Y0143223D01*
X0990579Y0143170D01*
X0990465Y0143120D01*
X0990349Y0143073D01*
X0990232Y0143031D01*
X0990113Y0142992D01*
X0989993Y0142956D01*
X0989872Y0142925D01*
X0989750Y0142897D01*
X0989628Y0142874D01*
X0989504Y0142854D01*
X0989380Y0142838D01*
X0989256Y0142826D01*
X0989131Y0142818D01*
X0989006Y0142814D01*
X0988882Y0142814D01*
X0988757Y0142818D01*
X0988632Y0142826D01*
X0988508Y0142838D01*
X0988384Y0142854D01*
X0988260Y0142874D01*
X0988138Y0142897D01*
X0988016Y0142925D01*
X0987895Y0142956D01*
X0987775Y0142992D01*
X0987656Y0143031D01*
X0987539Y0143073D01*
X0987423Y0143120D01*
X0987309Y0143170D01*
X0987196Y0143223D01*
X0987085Y0143281D01*
X0986975Y0143341D01*
X0986868Y0143406D01*
X0986763Y0143473D01*
X0986660Y0143544D01*
X0986560Y0143618D01*
X0986462Y0143695D01*
X0986366Y0143776D01*
X0986273Y0143859D01*
X0986182Y0143945D01*
X0986095Y0144034D01*
X0986010Y0144126D01*
X0985928Y0144220D01*
X0985849Y0144317D01*
X0985774Y0144417D01*
X0985701Y0144518D01*
X0985632Y0144622D01*
X0985566Y0144729D01*
X0985504Y0144837D01*
X0985445Y0144947D01*
X0985389Y0145059D01*
X0985337Y0145173D01*
X0985289Y0145288D01*
X0985244Y0145404D01*
X0985204Y0145523D01*
X0985166Y0145642D01*
X0985133Y0145762D01*
X0985104Y0145884D01*
X0985078Y0146006D01*
X0985056Y0146129D01*
X0985039Y0146253D01*
X0985025Y0146377D01*
X0985015Y0146501D01*
X0985009Y0146626D01*
X0985007Y0146751D01*
X1010597Y0175294D02*
X1010599Y0175447D01*
X1010605Y0175601D01*
X1010615Y0175754D01*
X1010629Y0175906D01*
X1010647Y0176059D01*
X1010669Y0176210D01*
X1010694Y0176361D01*
X1010724Y0176512D01*
X1010758Y0176662D01*
X1010795Y0176810D01*
X1010836Y0176958D01*
X1010881Y0177104D01*
X1010930Y0177250D01*
X1010983Y0177394D01*
X1011039Y0177536D01*
X1011099Y0177677D01*
X1011163Y0177817D01*
X1011230Y0177955D01*
X1011301Y0178091D01*
X1011376Y0178225D01*
X1011453Y0178357D01*
X1011535Y0178487D01*
X1011619Y0178615D01*
X1011707Y0178741D01*
X1011798Y0178864D01*
X1011892Y0178985D01*
X1011990Y0179103D01*
X1012090Y0179219D01*
X1012194Y0179332D01*
X1012300Y0179443D01*
X1012409Y0179551D01*
X1012521Y0179656D01*
X1012635Y0179757D01*
X1012753Y0179856D01*
X1012872Y0179952D01*
X1012994Y0180045D01*
X1013119Y0180134D01*
X1013246Y0180221D01*
X1013375Y0180303D01*
X1013506Y0180383D01*
X1013639Y0180459D01*
X1013774Y0180532D01*
X1013911Y0180601D01*
X1014050Y0180666D01*
X1014190Y0180728D01*
X1014332Y0180786D01*
X1014475Y0180841D01*
X1014620Y0180892D01*
X1014766Y0180939D01*
X1014913Y0180982D01*
X1015061Y0181021D01*
X1015210Y0181057D01*
X1015360Y0181088D01*
X1015511Y0181116D01*
X1015662Y0181140D01*
X1015815Y0181160D01*
X1015967Y0181176D01*
X1016120Y0181188D01*
X1016273Y0181196D01*
X1016426Y0181200D01*
X1016580Y0181200D01*
X1016733Y0181196D01*
X1016886Y0181188D01*
X1017039Y0181176D01*
X1017191Y0181160D01*
X1017344Y0181140D01*
X1017495Y0181116D01*
X1017646Y0181088D01*
X1017796Y0181057D01*
X1017945Y0181021D01*
X1018093Y0180982D01*
X1018240Y0180939D01*
X1018386Y0180892D01*
X1018531Y0180841D01*
X1018674Y0180786D01*
X1018816Y0180728D01*
X1018956Y0180666D01*
X1019095Y0180601D01*
X1019232Y0180532D01*
X1019367Y0180459D01*
X1019500Y0180383D01*
X1019631Y0180303D01*
X1019760Y0180221D01*
X1019887Y0180134D01*
X1020012Y0180045D01*
X1020134Y0179952D01*
X1020253Y0179856D01*
X1020371Y0179757D01*
X1020485Y0179656D01*
X1020597Y0179551D01*
X1020706Y0179443D01*
X1020812Y0179332D01*
X1020916Y0179219D01*
X1021016Y0179103D01*
X1021114Y0178985D01*
X1021208Y0178864D01*
X1021299Y0178741D01*
X1021387Y0178615D01*
X1021471Y0178487D01*
X1021553Y0178357D01*
X1021630Y0178225D01*
X1021705Y0178091D01*
X1021776Y0177955D01*
X1021843Y0177817D01*
X1021907Y0177677D01*
X1021967Y0177536D01*
X1022023Y0177394D01*
X1022076Y0177250D01*
X1022125Y0177104D01*
X1022170Y0176958D01*
X1022211Y0176810D01*
X1022248Y0176662D01*
X1022282Y0176512D01*
X1022312Y0176361D01*
X1022337Y0176210D01*
X1022359Y0176059D01*
X1022377Y0175906D01*
X1022391Y0175754D01*
X1022401Y0175601D01*
X1022407Y0175447D01*
X1022409Y0175294D01*
X1022407Y0175141D01*
X1022401Y0174987D01*
X1022391Y0174834D01*
X1022377Y0174682D01*
X1022359Y0174529D01*
X1022337Y0174378D01*
X1022312Y0174227D01*
X1022282Y0174076D01*
X1022248Y0173926D01*
X1022211Y0173778D01*
X1022170Y0173630D01*
X1022125Y0173484D01*
X1022076Y0173338D01*
X1022023Y0173194D01*
X1021967Y0173052D01*
X1021907Y0172911D01*
X1021843Y0172771D01*
X1021776Y0172633D01*
X1021705Y0172497D01*
X1021630Y0172363D01*
X1021553Y0172231D01*
X1021471Y0172101D01*
X1021387Y0171973D01*
X1021299Y0171847D01*
X1021208Y0171724D01*
X1021114Y0171603D01*
X1021016Y0171485D01*
X1020916Y0171369D01*
X1020812Y0171256D01*
X1020706Y0171145D01*
X1020597Y0171037D01*
X1020485Y0170932D01*
X1020371Y0170831D01*
X1020253Y0170732D01*
X1020134Y0170636D01*
X1020012Y0170543D01*
X1019887Y0170454D01*
X1019760Y0170367D01*
X1019631Y0170285D01*
X1019500Y0170205D01*
X1019367Y0170129D01*
X1019232Y0170056D01*
X1019095Y0169987D01*
X1018956Y0169922D01*
X1018816Y0169860D01*
X1018674Y0169802D01*
X1018531Y0169747D01*
X1018386Y0169696D01*
X1018240Y0169649D01*
X1018093Y0169606D01*
X1017945Y0169567D01*
X1017796Y0169531D01*
X1017646Y0169500D01*
X1017495Y0169472D01*
X1017344Y0169448D01*
X1017191Y0169428D01*
X1017039Y0169412D01*
X1016886Y0169400D01*
X1016733Y0169392D01*
X1016580Y0169388D01*
X1016426Y0169388D01*
X1016273Y0169392D01*
X1016120Y0169400D01*
X1015967Y0169412D01*
X1015815Y0169428D01*
X1015662Y0169448D01*
X1015511Y0169472D01*
X1015360Y0169500D01*
X1015210Y0169531D01*
X1015061Y0169567D01*
X1014913Y0169606D01*
X1014766Y0169649D01*
X1014620Y0169696D01*
X1014475Y0169747D01*
X1014332Y0169802D01*
X1014190Y0169860D01*
X1014050Y0169922D01*
X1013911Y0169987D01*
X1013774Y0170056D01*
X1013639Y0170129D01*
X1013506Y0170205D01*
X1013375Y0170285D01*
X1013246Y0170367D01*
X1013119Y0170454D01*
X1012994Y0170543D01*
X1012872Y0170636D01*
X1012753Y0170732D01*
X1012635Y0170831D01*
X1012521Y0170932D01*
X1012409Y0171037D01*
X1012300Y0171145D01*
X1012194Y0171256D01*
X1012090Y0171369D01*
X1011990Y0171485D01*
X1011892Y0171603D01*
X1011798Y0171724D01*
X1011707Y0171847D01*
X1011619Y0171973D01*
X1011535Y0172101D01*
X1011453Y0172231D01*
X1011376Y0172363D01*
X1011301Y0172497D01*
X1011230Y0172633D01*
X1011163Y0172771D01*
X1011099Y0172911D01*
X1011039Y0173052D01*
X1010983Y0173194D01*
X1010930Y0173338D01*
X1010881Y0173484D01*
X1010836Y0173630D01*
X1010795Y0173778D01*
X1010758Y0173926D01*
X1010724Y0174076D01*
X1010694Y0174227D01*
X1010669Y0174378D01*
X1010647Y0174529D01*
X1010629Y0174682D01*
X1010615Y0174834D01*
X1010605Y0174987D01*
X1010599Y0175141D01*
X1010597Y0175294D01*
X1010597Y0226475D02*
X1010599Y0226628D01*
X1010605Y0226782D01*
X1010615Y0226935D01*
X1010629Y0227087D01*
X1010647Y0227240D01*
X1010669Y0227391D01*
X1010694Y0227542D01*
X1010724Y0227693D01*
X1010758Y0227843D01*
X1010795Y0227991D01*
X1010836Y0228139D01*
X1010881Y0228285D01*
X1010930Y0228431D01*
X1010983Y0228575D01*
X1011039Y0228717D01*
X1011099Y0228858D01*
X1011163Y0228998D01*
X1011230Y0229136D01*
X1011301Y0229272D01*
X1011376Y0229406D01*
X1011453Y0229538D01*
X1011535Y0229668D01*
X1011619Y0229796D01*
X1011707Y0229922D01*
X1011798Y0230045D01*
X1011892Y0230166D01*
X1011990Y0230284D01*
X1012090Y0230400D01*
X1012194Y0230513D01*
X1012300Y0230624D01*
X1012409Y0230732D01*
X1012521Y0230837D01*
X1012635Y0230938D01*
X1012753Y0231037D01*
X1012872Y0231133D01*
X1012994Y0231226D01*
X1013119Y0231315D01*
X1013246Y0231402D01*
X1013375Y0231484D01*
X1013506Y0231564D01*
X1013639Y0231640D01*
X1013774Y0231713D01*
X1013911Y0231782D01*
X1014050Y0231847D01*
X1014190Y0231909D01*
X1014332Y0231967D01*
X1014475Y0232022D01*
X1014620Y0232073D01*
X1014766Y0232120D01*
X1014913Y0232163D01*
X1015061Y0232202D01*
X1015210Y0232238D01*
X1015360Y0232269D01*
X1015511Y0232297D01*
X1015662Y0232321D01*
X1015815Y0232341D01*
X1015967Y0232357D01*
X1016120Y0232369D01*
X1016273Y0232377D01*
X1016426Y0232381D01*
X1016580Y0232381D01*
X1016733Y0232377D01*
X1016886Y0232369D01*
X1017039Y0232357D01*
X1017191Y0232341D01*
X1017344Y0232321D01*
X1017495Y0232297D01*
X1017646Y0232269D01*
X1017796Y0232238D01*
X1017945Y0232202D01*
X1018093Y0232163D01*
X1018240Y0232120D01*
X1018386Y0232073D01*
X1018531Y0232022D01*
X1018674Y0231967D01*
X1018816Y0231909D01*
X1018956Y0231847D01*
X1019095Y0231782D01*
X1019232Y0231713D01*
X1019367Y0231640D01*
X1019500Y0231564D01*
X1019631Y0231484D01*
X1019760Y0231402D01*
X1019887Y0231315D01*
X1020012Y0231226D01*
X1020134Y0231133D01*
X1020253Y0231037D01*
X1020371Y0230938D01*
X1020485Y0230837D01*
X1020597Y0230732D01*
X1020706Y0230624D01*
X1020812Y0230513D01*
X1020916Y0230400D01*
X1021016Y0230284D01*
X1021114Y0230166D01*
X1021208Y0230045D01*
X1021299Y0229922D01*
X1021387Y0229796D01*
X1021471Y0229668D01*
X1021553Y0229538D01*
X1021630Y0229406D01*
X1021705Y0229272D01*
X1021776Y0229136D01*
X1021843Y0228998D01*
X1021907Y0228858D01*
X1021967Y0228717D01*
X1022023Y0228575D01*
X1022076Y0228431D01*
X1022125Y0228285D01*
X1022170Y0228139D01*
X1022211Y0227991D01*
X1022248Y0227843D01*
X1022282Y0227693D01*
X1022312Y0227542D01*
X1022337Y0227391D01*
X1022359Y0227240D01*
X1022377Y0227087D01*
X1022391Y0226935D01*
X1022401Y0226782D01*
X1022407Y0226628D01*
X1022409Y0226475D01*
X1022407Y0226322D01*
X1022401Y0226168D01*
X1022391Y0226015D01*
X1022377Y0225863D01*
X1022359Y0225710D01*
X1022337Y0225559D01*
X1022312Y0225408D01*
X1022282Y0225257D01*
X1022248Y0225107D01*
X1022211Y0224959D01*
X1022170Y0224811D01*
X1022125Y0224665D01*
X1022076Y0224519D01*
X1022023Y0224375D01*
X1021967Y0224233D01*
X1021907Y0224092D01*
X1021843Y0223952D01*
X1021776Y0223814D01*
X1021705Y0223678D01*
X1021630Y0223544D01*
X1021553Y0223412D01*
X1021471Y0223282D01*
X1021387Y0223154D01*
X1021299Y0223028D01*
X1021208Y0222905D01*
X1021114Y0222784D01*
X1021016Y0222666D01*
X1020916Y0222550D01*
X1020812Y0222437D01*
X1020706Y0222326D01*
X1020597Y0222218D01*
X1020485Y0222113D01*
X1020371Y0222012D01*
X1020253Y0221913D01*
X1020134Y0221817D01*
X1020012Y0221724D01*
X1019887Y0221635D01*
X1019760Y0221548D01*
X1019631Y0221466D01*
X1019500Y0221386D01*
X1019367Y0221310D01*
X1019232Y0221237D01*
X1019095Y0221168D01*
X1018956Y0221103D01*
X1018816Y0221041D01*
X1018674Y0220983D01*
X1018531Y0220928D01*
X1018386Y0220877D01*
X1018240Y0220830D01*
X1018093Y0220787D01*
X1017945Y0220748D01*
X1017796Y0220712D01*
X1017646Y0220681D01*
X1017495Y0220653D01*
X1017344Y0220629D01*
X1017191Y0220609D01*
X1017039Y0220593D01*
X1016886Y0220581D01*
X1016733Y0220573D01*
X1016580Y0220569D01*
X1016426Y0220569D01*
X1016273Y0220573D01*
X1016120Y0220581D01*
X1015967Y0220593D01*
X1015815Y0220609D01*
X1015662Y0220629D01*
X1015511Y0220653D01*
X1015360Y0220681D01*
X1015210Y0220712D01*
X1015061Y0220748D01*
X1014913Y0220787D01*
X1014766Y0220830D01*
X1014620Y0220877D01*
X1014475Y0220928D01*
X1014332Y0220983D01*
X1014190Y0221041D01*
X1014050Y0221103D01*
X1013911Y0221168D01*
X1013774Y0221237D01*
X1013639Y0221310D01*
X1013506Y0221386D01*
X1013375Y0221466D01*
X1013246Y0221548D01*
X1013119Y0221635D01*
X1012994Y0221724D01*
X1012872Y0221817D01*
X1012753Y0221913D01*
X1012635Y0222012D01*
X1012521Y0222113D01*
X1012409Y0222218D01*
X1012300Y0222326D01*
X1012194Y0222437D01*
X1012090Y0222550D01*
X1011990Y0222666D01*
X1011892Y0222784D01*
X1011798Y0222905D01*
X1011707Y0223028D01*
X1011619Y0223154D01*
X1011535Y0223282D01*
X1011453Y0223412D01*
X1011376Y0223544D01*
X1011301Y0223678D01*
X1011230Y0223814D01*
X1011163Y0223952D01*
X1011099Y0224092D01*
X1011039Y0224233D01*
X1010983Y0224375D01*
X1010930Y0224519D01*
X1010881Y0224665D01*
X1010836Y0224811D01*
X1010795Y0224959D01*
X1010758Y0225107D01*
X1010724Y0225257D01*
X1010694Y0225408D01*
X1010669Y0225559D01*
X1010647Y0225710D01*
X1010629Y0225863D01*
X1010615Y0226015D01*
X1010605Y0226168D01*
X1010599Y0226322D01*
X1010597Y0226475D01*
D12*
X0948984Y0334923D03*
X0942984Y0334923D03*
D13*
X0780677Y0196948D02*
X0780679Y0197066D01*
X0780685Y0197185D01*
X0780695Y0197303D01*
X0780709Y0197420D01*
X0780726Y0197537D01*
X0780748Y0197654D01*
X0780774Y0197769D01*
X0780803Y0197884D01*
X0780836Y0197998D01*
X0780873Y0198110D01*
X0780914Y0198221D01*
X0780958Y0198331D01*
X0781006Y0198439D01*
X0781058Y0198546D01*
X0781113Y0198651D01*
X0781172Y0198754D01*
X0781234Y0198854D01*
X0781299Y0198953D01*
X0781368Y0199050D01*
X0781439Y0199144D01*
X0781514Y0199235D01*
X0781592Y0199325D01*
X0781673Y0199411D01*
X0781757Y0199495D01*
X0781843Y0199576D01*
X0781933Y0199654D01*
X0782024Y0199729D01*
X0782118Y0199800D01*
X0782215Y0199869D01*
X0782314Y0199934D01*
X0782414Y0199996D01*
X0782517Y0200055D01*
X0782622Y0200110D01*
X0782729Y0200162D01*
X0782837Y0200210D01*
X0782947Y0200254D01*
X0783058Y0200295D01*
X0783170Y0200332D01*
X0783284Y0200365D01*
X0783399Y0200394D01*
X0783514Y0200420D01*
X0783631Y0200442D01*
X0783748Y0200459D01*
X0783865Y0200473D01*
X0783983Y0200483D01*
X0784102Y0200489D01*
X0784220Y0200491D01*
X0784338Y0200489D01*
X0784457Y0200483D01*
X0784575Y0200473D01*
X0784692Y0200459D01*
X0784809Y0200442D01*
X0784926Y0200420D01*
X0785041Y0200394D01*
X0785156Y0200365D01*
X0785270Y0200332D01*
X0785382Y0200295D01*
X0785493Y0200254D01*
X0785603Y0200210D01*
X0785711Y0200162D01*
X0785818Y0200110D01*
X0785923Y0200055D01*
X0786026Y0199996D01*
X0786126Y0199934D01*
X0786225Y0199869D01*
X0786322Y0199800D01*
X0786416Y0199729D01*
X0786507Y0199654D01*
X0786597Y0199576D01*
X0786683Y0199495D01*
X0786767Y0199411D01*
X0786848Y0199325D01*
X0786926Y0199235D01*
X0787001Y0199144D01*
X0787072Y0199050D01*
X0787141Y0198953D01*
X0787206Y0198854D01*
X0787268Y0198754D01*
X0787327Y0198651D01*
X0787382Y0198546D01*
X0787434Y0198439D01*
X0787482Y0198331D01*
X0787526Y0198221D01*
X0787567Y0198110D01*
X0787604Y0197998D01*
X0787637Y0197884D01*
X0787666Y0197769D01*
X0787692Y0197654D01*
X0787714Y0197537D01*
X0787731Y0197420D01*
X0787745Y0197303D01*
X0787755Y0197185D01*
X0787761Y0197066D01*
X0787763Y0196948D01*
X0787761Y0196830D01*
X0787755Y0196711D01*
X0787745Y0196593D01*
X0787731Y0196476D01*
X0787714Y0196359D01*
X0787692Y0196242D01*
X0787666Y0196127D01*
X0787637Y0196012D01*
X0787604Y0195898D01*
X0787567Y0195786D01*
X0787526Y0195675D01*
X0787482Y0195565D01*
X0787434Y0195457D01*
X0787382Y0195350D01*
X0787327Y0195245D01*
X0787268Y0195142D01*
X0787206Y0195042D01*
X0787141Y0194943D01*
X0787072Y0194846D01*
X0787001Y0194752D01*
X0786926Y0194661D01*
X0786848Y0194571D01*
X0786767Y0194485D01*
X0786683Y0194401D01*
X0786597Y0194320D01*
X0786507Y0194242D01*
X0786416Y0194167D01*
X0786322Y0194096D01*
X0786225Y0194027D01*
X0786126Y0193962D01*
X0786026Y0193900D01*
X0785923Y0193841D01*
X0785818Y0193786D01*
X0785711Y0193734D01*
X0785603Y0193686D01*
X0785493Y0193642D01*
X0785382Y0193601D01*
X0785270Y0193564D01*
X0785156Y0193531D01*
X0785041Y0193502D01*
X0784926Y0193476D01*
X0784809Y0193454D01*
X0784692Y0193437D01*
X0784575Y0193423D01*
X0784457Y0193413D01*
X0784338Y0193407D01*
X0784220Y0193405D01*
X0784102Y0193407D01*
X0783983Y0193413D01*
X0783865Y0193423D01*
X0783748Y0193437D01*
X0783631Y0193454D01*
X0783514Y0193476D01*
X0783399Y0193502D01*
X0783284Y0193531D01*
X0783170Y0193564D01*
X0783058Y0193601D01*
X0782947Y0193642D01*
X0782837Y0193686D01*
X0782729Y0193734D01*
X0782622Y0193786D01*
X0782517Y0193841D01*
X0782414Y0193900D01*
X0782314Y0193962D01*
X0782215Y0194027D01*
X0782118Y0194096D01*
X0782024Y0194167D01*
X0781933Y0194242D01*
X0781843Y0194320D01*
X0781757Y0194401D01*
X0781673Y0194485D01*
X0781592Y0194571D01*
X0781514Y0194661D01*
X0781439Y0194752D01*
X0781368Y0194846D01*
X0781299Y0194943D01*
X0781234Y0195042D01*
X0781172Y0195142D01*
X0781113Y0195245D01*
X0781058Y0195350D01*
X0781006Y0195457D01*
X0780958Y0195565D01*
X0780914Y0195675D01*
X0780873Y0195786D01*
X0780836Y0195898D01*
X0780803Y0196012D01*
X0780774Y0196127D01*
X0780748Y0196242D01*
X0780726Y0196359D01*
X0780709Y0196476D01*
X0780695Y0196593D01*
X0780685Y0196711D01*
X0780679Y0196830D01*
X0780677Y0196948D01*
X0745244Y0196948D02*
X0745246Y0197066D01*
X0745252Y0197185D01*
X0745262Y0197303D01*
X0745276Y0197420D01*
X0745293Y0197537D01*
X0745315Y0197654D01*
X0745341Y0197769D01*
X0745370Y0197884D01*
X0745403Y0197998D01*
X0745440Y0198110D01*
X0745481Y0198221D01*
X0745525Y0198331D01*
X0745573Y0198439D01*
X0745625Y0198546D01*
X0745680Y0198651D01*
X0745739Y0198754D01*
X0745801Y0198854D01*
X0745866Y0198953D01*
X0745935Y0199050D01*
X0746006Y0199144D01*
X0746081Y0199235D01*
X0746159Y0199325D01*
X0746240Y0199411D01*
X0746324Y0199495D01*
X0746410Y0199576D01*
X0746500Y0199654D01*
X0746591Y0199729D01*
X0746685Y0199800D01*
X0746782Y0199869D01*
X0746881Y0199934D01*
X0746981Y0199996D01*
X0747084Y0200055D01*
X0747189Y0200110D01*
X0747296Y0200162D01*
X0747404Y0200210D01*
X0747514Y0200254D01*
X0747625Y0200295D01*
X0747737Y0200332D01*
X0747851Y0200365D01*
X0747966Y0200394D01*
X0748081Y0200420D01*
X0748198Y0200442D01*
X0748315Y0200459D01*
X0748432Y0200473D01*
X0748550Y0200483D01*
X0748669Y0200489D01*
X0748787Y0200491D01*
X0748905Y0200489D01*
X0749024Y0200483D01*
X0749142Y0200473D01*
X0749259Y0200459D01*
X0749376Y0200442D01*
X0749493Y0200420D01*
X0749608Y0200394D01*
X0749723Y0200365D01*
X0749837Y0200332D01*
X0749949Y0200295D01*
X0750060Y0200254D01*
X0750170Y0200210D01*
X0750278Y0200162D01*
X0750385Y0200110D01*
X0750490Y0200055D01*
X0750593Y0199996D01*
X0750693Y0199934D01*
X0750792Y0199869D01*
X0750889Y0199800D01*
X0750983Y0199729D01*
X0751074Y0199654D01*
X0751164Y0199576D01*
X0751250Y0199495D01*
X0751334Y0199411D01*
X0751415Y0199325D01*
X0751493Y0199235D01*
X0751568Y0199144D01*
X0751639Y0199050D01*
X0751708Y0198953D01*
X0751773Y0198854D01*
X0751835Y0198754D01*
X0751894Y0198651D01*
X0751949Y0198546D01*
X0752001Y0198439D01*
X0752049Y0198331D01*
X0752093Y0198221D01*
X0752134Y0198110D01*
X0752171Y0197998D01*
X0752204Y0197884D01*
X0752233Y0197769D01*
X0752259Y0197654D01*
X0752281Y0197537D01*
X0752298Y0197420D01*
X0752312Y0197303D01*
X0752322Y0197185D01*
X0752328Y0197066D01*
X0752330Y0196948D01*
X0752328Y0196830D01*
X0752322Y0196711D01*
X0752312Y0196593D01*
X0752298Y0196476D01*
X0752281Y0196359D01*
X0752259Y0196242D01*
X0752233Y0196127D01*
X0752204Y0196012D01*
X0752171Y0195898D01*
X0752134Y0195786D01*
X0752093Y0195675D01*
X0752049Y0195565D01*
X0752001Y0195457D01*
X0751949Y0195350D01*
X0751894Y0195245D01*
X0751835Y0195142D01*
X0751773Y0195042D01*
X0751708Y0194943D01*
X0751639Y0194846D01*
X0751568Y0194752D01*
X0751493Y0194661D01*
X0751415Y0194571D01*
X0751334Y0194485D01*
X0751250Y0194401D01*
X0751164Y0194320D01*
X0751074Y0194242D01*
X0750983Y0194167D01*
X0750889Y0194096D01*
X0750792Y0194027D01*
X0750693Y0193962D01*
X0750593Y0193900D01*
X0750490Y0193841D01*
X0750385Y0193786D01*
X0750278Y0193734D01*
X0750170Y0193686D01*
X0750060Y0193642D01*
X0749949Y0193601D01*
X0749837Y0193564D01*
X0749723Y0193531D01*
X0749608Y0193502D01*
X0749493Y0193476D01*
X0749376Y0193454D01*
X0749259Y0193437D01*
X0749142Y0193423D01*
X0749024Y0193413D01*
X0748905Y0193407D01*
X0748787Y0193405D01*
X0748669Y0193407D01*
X0748550Y0193413D01*
X0748432Y0193423D01*
X0748315Y0193437D01*
X0748198Y0193454D01*
X0748081Y0193476D01*
X0747966Y0193502D01*
X0747851Y0193531D01*
X0747737Y0193564D01*
X0747625Y0193601D01*
X0747514Y0193642D01*
X0747404Y0193686D01*
X0747296Y0193734D01*
X0747189Y0193786D01*
X0747084Y0193841D01*
X0746981Y0193900D01*
X0746881Y0193962D01*
X0746782Y0194027D01*
X0746685Y0194096D01*
X0746591Y0194167D01*
X0746500Y0194242D01*
X0746410Y0194320D01*
X0746324Y0194401D01*
X0746240Y0194485D01*
X0746159Y0194571D01*
X0746081Y0194661D01*
X0746006Y0194752D01*
X0745935Y0194846D01*
X0745866Y0194943D01*
X0745801Y0195042D01*
X0745739Y0195142D01*
X0745680Y0195245D01*
X0745625Y0195350D01*
X0745573Y0195457D01*
X0745525Y0195565D01*
X0745481Y0195675D01*
X0745440Y0195786D01*
X0745403Y0195898D01*
X0745370Y0196012D01*
X0745341Y0196127D01*
X0745315Y0196242D01*
X0745293Y0196359D01*
X0745276Y0196476D01*
X0745262Y0196593D01*
X0745252Y0196711D01*
X0745246Y0196830D01*
X0745244Y0196948D01*
X0717685Y0196948D02*
X0717687Y0197066D01*
X0717693Y0197185D01*
X0717703Y0197303D01*
X0717717Y0197420D01*
X0717734Y0197537D01*
X0717756Y0197654D01*
X0717782Y0197769D01*
X0717811Y0197884D01*
X0717844Y0197998D01*
X0717881Y0198110D01*
X0717922Y0198221D01*
X0717966Y0198331D01*
X0718014Y0198439D01*
X0718066Y0198546D01*
X0718121Y0198651D01*
X0718180Y0198754D01*
X0718242Y0198854D01*
X0718307Y0198953D01*
X0718376Y0199050D01*
X0718447Y0199144D01*
X0718522Y0199235D01*
X0718600Y0199325D01*
X0718681Y0199411D01*
X0718765Y0199495D01*
X0718851Y0199576D01*
X0718941Y0199654D01*
X0719032Y0199729D01*
X0719126Y0199800D01*
X0719223Y0199869D01*
X0719322Y0199934D01*
X0719422Y0199996D01*
X0719525Y0200055D01*
X0719630Y0200110D01*
X0719737Y0200162D01*
X0719845Y0200210D01*
X0719955Y0200254D01*
X0720066Y0200295D01*
X0720178Y0200332D01*
X0720292Y0200365D01*
X0720407Y0200394D01*
X0720522Y0200420D01*
X0720639Y0200442D01*
X0720756Y0200459D01*
X0720873Y0200473D01*
X0720991Y0200483D01*
X0721110Y0200489D01*
X0721228Y0200491D01*
X0721346Y0200489D01*
X0721465Y0200483D01*
X0721583Y0200473D01*
X0721700Y0200459D01*
X0721817Y0200442D01*
X0721934Y0200420D01*
X0722049Y0200394D01*
X0722164Y0200365D01*
X0722278Y0200332D01*
X0722390Y0200295D01*
X0722501Y0200254D01*
X0722611Y0200210D01*
X0722719Y0200162D01*
X0722826Y0200110D01*
X0722931Y0200055D01*
X0723034Y0199996D01*
X0723134Y0199934D01*
X0723233Y0199869D01*
X0723330Y0199800D01*
X0723424Y0199729D01*
X0723515Y0199654D01*
X0723605Y0199576D01*
X0723691Y0199495D01*
X0723775Y0199411D01*
X0723856Y0199325D01*
X0723934Y0199235D01*
X0724009Y0199144D01*
X0724080Y0199050D01*
X0724149Y0198953D01*
X0724214Y0198854D01*
X0724276Y0198754D01*
X0724335Y0198651D01*
X0724390Y0198546D01*
X0724442Y0198439D01*
X0724490Y0198331D01*
X0724534Y0198221D01*
X0724575Y0198110D01*
X0724612Y0197998D01*
X0724645Y0197884D01*
X0724674Y0197769D01*
X0724700Y0197654D01*
X0724722Y0197537D01*
X0724739Y0197420D01*
X0724753Y0197303D01*
X0724763Y0197185D01*
X0724769Y0197066D01*
X0724771Y0196948D01*
X0724769Y0196830D01*
X0724763Y0196711D01*
X0724753Y0196593D01*
X0724739Y0196476D01*
X0724722Y0196359D01*
X0724700Y0196242D01*
X0724674Y0196127D01*
X0724645Y0196012D01*
X0724612Y0195898D01*
X0724575Y0195786D01*
X0724534Y0195675D01*
X0724490Y0195565D01*
X0724442Y0195457D01*
X0724390Y0195350D01*
X0724335Y0195245D01*
X0724276Y0195142D01*
X0724214Y0195042D01*
X0724149Y0194943D01*
X0724080Y0194846D01*
X0724009Y0194752D01*
X0723934Y0194661D01*
X0723856Y0194571D01*
X0723775Y0194485D01*
X0723691Y0194401D01*
X0723605Y0194320D01*
X0723515Y0194242D01*
X0723424Y0194167D01*
X0723330Y0194096D01*
X0723233Y0194027D01*
X0723134Y0193962D01*
X0723034Y0193900D01*
X0722931Y0193841D01*
X0722826Y0193786D01*
X0722719Y0193734D01*
X0722611Y0193686D01*
X0722501Y0193642D01*
X0722390Y0193601D01*
X0722278Y0193564D01*
X0722164Y0193531D01*
X0722049Y0193502D01*
X0721934Y0193476D01*
X0721817Y0193454D01*
X0721700Y0193437D01*
X0721583Y0193423D01*
X0721465Y0193413D01*
X0721346Y0193407D01*
X0721228Y0193405D01*
X0721110Y0193407D01*
X0720991Y0193413D01*
X0720873Y0193423D01*
X0720756Y0193437D01*
X0720639Y0193454D01*
X0720522Y0193476D01*
X0720407Y0193502D01*
X0720292Y0193531D01*
X0720178Y0193564D01*
X0720066Y0193601D01*
X0719955Y0193642D01*
X0719845Y0193686D01*
X0719737Y0193734D01*
X0719630Y0193786D01*
X0719525Y0193841D01*
X0719422Y0193900D01*
X0719322Y0193962D01*
X0719223Y0194027D01*
X0719126Y0194096D01*
X0719032Y0194167D01*
X0718941Y0194242D01*
X0718851Y0194320D01*
X0718765Y0194401D01*
X0718681Y0194485D01*
X0718600Y0194571D01*
X0718522Y0194661D01*
X0718447Y0194752D01*
X0718376Y0194846D01*
X0718307Y0194943D01*
X0718242Y0195042D01*
X0718180Y0195142D01*
X0718121Y0195245D01*
X0718066Y0195350D01*
X0718014Y0195457D01*
X0717966Y0195565D01*
X0717922Y0195675D01*
X0717881Y0195786D01*
X0717844Y0195898D01*
X0717811Y0196012D01*
X0717782Y0196127D01*
X0717756Y0196242D01*
X0717734Y0196359D01*
X0717717Y0196476D01*
X0717703Y0196593D01*
X0717693Y0196711D01*
X0717687Y0196830D01*
X0717685Y0196948D01*
X0682252Y0196948D02*
X0682254Y0197066D01*
X0682260Y0197185D01*
X0682270Y0197303D01*
X0682284Y0197420D01*
X0682301Y0197537D01*
X0682323Y0197654D01*
X0682349Y0197769D01*
X0682378Y0197884D01*
X0682411Y0197998D01*
X0682448Y0198110D01*
X0682489Y0198221D01*
X0682533Y0198331D01*
X0682581Y0198439D01*
X0682633Y0198546D01*
X0682688Y0198651D01*
X0682747Y0198754D01*
X0682809Y0198854D01*
X0682874Y0198953D01*
X0682943Y0199050D01*
X0683014Y0199144D01*
X0683089Y0199235D01*
X0683167Y0199325D01*
X0683248Y0199411D01*
X0683332Y0199495D01*
X0683418Y0199576D01*
X0683508Y0199654D01*
X0683599Y0199729D01*
X0683693Y0199800D01*
X0683790Y0199869D01*
X0683889Y0199934D01*
X0683989Y0199996D01*
X0684092Y0200055D01*
X0684197Y0200110D01*
X0684304Y0200162D01*
X0684412Y0200210D01*
X0684522Y0200254D01*
X0684633Y0200295D01*
X0684745Y0200332D01*
X0684859Y0200365D01*
X0684974Y0200394D01*
X0685089Y0200420D01*
X0685206Y0200442D01*
X0685323Y0200459D01*
X0685440Y0200473D01*
X0685558Y0200483D01*
X0685677Y0200489D01*
X0685795Y0200491D01*
X0685913Y0200489D01*
X0686032Y0200483D01*
X0686150Y0200473D01*
X0686267Y0200459D01*
X0686384Y0200442D01*
X0686501Y0200420D01*
X0686616Y0200394D01*
X0686731Y0200365D01*
X0686845Y0200332D01*
X0686957Y0200295D01*
X0687068Y0200254D01*
X0687178Y0200210D01*
X0687286Y0200162D01*
X0687393Y0200110D01*
X0687498Y0200055D01*
X0687601Y0199996D01*
X0687701Y0199934D01*
X0687800Y0199869D01*
X0687897Y0199800D01*
X0687991Y0199729D01*
X0688082Y0199654D01*
X0688172Y0199576D01*
X0688258Y0199495D01*
X0688342Y0199411D01*
X0688423Y0199325D01*
X0688501Y0199235D01*
X0688576Y0199144D01*
X0688647Y0199050D01*
X0688716Y0198953D01*
X0688781Y0198854D01*
X0688843Y0198754D01*
X0688902Y0198651D01*
X0688957Y0198546D01*
X0689009Y0198439D01*
X0689057Y0198331D01*
X0689101Y0198221D01*
X0689142Y0198110D01*
X0689179Y0197998D01*
X0689212Y0197884D01*
X0689241Y0197769D01*
X0689267Y0197654D01*
X0689289Y0197537D01*
X0689306Y0197420D01*
X0689320Y0197303D01*
X0689330Y0197185D01*
X0689336Y0197066D01*
X0689338Y0196948D01*
X0689336Y0196830D01*
X0689330Y0196711D01*
X0689320Y0196593D01*
X0689306Y0196476D01*
X0689289Y0196359D01*
X0689267Y0196242D01*
X0689241Y0196127D01*
X0689212Y0196012D01*
X0689179Y0195898D01*
X0689142Y0195786D01*
X0689101Y0195675D01*
X0689057Y0195565D01*
X0689009Y0195457D01*
X0688957Y0195350D01*
X0688902Y0195245D01*
X0688843Y0195142D01*
X0688781Y0195042D01*
X0688716Y0194943D01*
X0688647Y0194846D01*
X0688576Y0194752D01*
X0688501Y0194661D01*
X0688423Y0194571D01*
X0688342Y0194485D01*
X0688258Y0194401D01*
X0688172Y0194320D01*
X0688082Y0194242D01*
X0687991Y0194167D01*
X0687897Y0194096D01*
X0687800Y0194027D01*
X0687701Y0193962D01*
X0687601Y0193900D01*
X0687498Y0193841D01*
X0687393Y0193786D01*
X0687286Y0193734D01*
X0687178Y0193686D01*
X0687068Y0193642D01*
X0686957Y0193601D01*
X0686845Y0193564D01*
X0686731Y0193531D01*
X0686616Y0193502D01*
X0686501Y0193476D01*
X0686384Y0193454D01*
X0686267Y0193437D01*
X0686150Y0193423D01*
X0686032Y0193413D01*
X0685913Y0193407D01*
X0685795Y0193405D01*
X0685677Y0193407D01*
X0685558Y0193413D01*
X0685440Y0193423D01*
X0685323Y0193437D01*
X0685206Y0193454D01*
X0685089Y0193476D01*
X0684974Y0193502D01*
X0684859Y0193531D01*
X0684745Y0193564D01*
X0684633Y0193601D01*
X0684522Y0193642D01*
X0684412Y0193686D01*
X0684304Y0193734D01*
X0684197Y0193786D01*
X0684092Y0193841D01*
X0683989Y0193900D01*
X0683889Y0193962D01*
X0683790Y0194027D01*
X0683693Y0194096D01*
X0683599Y0194167D01*
X0683508Y0194242D01*
X0683418Y0194320D01*
X0683332Y0194401D01*
X0683248Y0194485D01*
X0683167Y0194571D01*
X0683089Y0194661D01*
X0683014Y0194752D01*
X0682943Y0194846D01*
X0682874Y0194943D01*
X0682809Y0195042D01*
X0682747Y0195142D01*
X0682688Y0195245D01*
X0682633Y0195350D01*
X0682581Y0195457D01*
X0682533Y0195565D01*
X0682489Y0195675D01*
X0682448Y0195786D01*
X0682411Y0195898D01*
X0682378Y0196012D01*
X0682349Y0196127D01*
X0682323Y0196242D01*
X0682301Y0196359D01*
X0682284Y0196476D01*
X0682270Y0196593D01*
X0682260Y0196711D01*
X0682254Y0196830D01*
X0682252Y0196948D01*
D14*
X0703511Y0210137D03*
X0703511Y0183759D03*
X0766503Y0183759D03*
X0766503Y0210137D03*
M02*
