%
M48
M72
T01C0.0122
T02C0.0157
T03C0.0315
T04C0.0320
T05C0.0394
T06C0.0433
T07C0.0472
T08C0.1260
%
T01
X74190Y13789
X74534Y13543
X74855Y13410
X75125Y13248
X75666Y13051
X67202Y16348
X67202Y17333
X66808Y17333
X67349Y18317
X67349Y18661
X77241Y18711
X80587Y19301
X80587Y18711
X82261Y19596
X81965Y19892
X78520Y22648
X78520Y22992
X65036Y16939
X70351Y16545
X70843Y16742
X72172Y17136
X72713Y17136
X85066Y13494
X92398Y29291
X90824Y29340
X94859Y30964
X95154Y31949
X95154Y32293
X94957Y32884
X93973Y32490
X93629Y33130
X95548Y33770
X96335Y33868
X96335Y32096
T02
X76060Y24833
X69761Y24833
T03
X67595Y19695
X73107Y19695
X73894Y19695
X79406Y19695
T04
X64339Y30128
X65339Y30128
X65339Y28159
X64339Y28159
X64339Y26191
X65339Y26191
X65339Y24222
X64339Y24222
X65339Y22254
X64339Y22254
X64339Y20285
X65339Y20285
X65339Y18317
X64339Y18317
X86190Y13789
X87190Y13789
X88158Y13789
X89158Y13789
X90127Y13789
X91127Y13789
X92095Y13789
X93095Y13789
X94064Y13789
X95064Y13789
X96032Y13789
X97032Y13789
T05
X73654Y15077
X72654Y15077
X71654Y15077
X70654Y15077
X69654Y15077
X68654Y15077
X67654Y15077
X66654Y15077
X66654Y14077
X67654Y14077
X68654Y14077
X69654Y14077
X70654Y14077
X71654Y14077
X72654Y14077
X73654Y14077
X98910Y32187
X97910Y32187
X96910Y32187
X96910Y33187
X97910Y33187
X98910Y33187
T06
X73656Y15077
X72656Y15077
X71656Y15077
X70656Y15077
X69652Y15077
X68652Y15077
X67652Y15077
X66652Y15077
X66652Y14077
X67652Y14077
X68652Y14077
X69652Y14077
X70656Y14077
X71656Y14077
X72656Y14077
X73656Y14077
X98910Y32187
X97910Y32187
X96910Y32187
X96910Y33187
X97910Y33187
X98910Y33187
T07
X77635Y22155
X75666Y22155
X69367Y22155
X71335Y22155
X77635Y17234
X75666Y17234
X71335Y17234
X69367Y17234
T08
X64642Y33081
X64642Y14183
X101257Y14183
X101257Y33081
M30
